<svg width="26" height="21" viewBox="0 0 26 21" fill="none" xmlns="http://www.w3.org/2000/svg">
<path d="M12.208 17.104L11.3937 16.5236L11.3925 16.5253L12.208 17.104ZM3.4 17.104L2.58153 17.6787L2.58863 17.6885L3.4 17.104ZM2.224 6.952L1.25815 6.69252L1.25471 6.70606L2.224 6.952ZM5.344 2.56L4.88143 1.67341L4.88143 1.67341L5.344 2.56ZM12.208 4.24L11.3895 4.81467L11.3966 4.82453L12.208 4.24ZM10.048 8.392L9.05469 8.5075L9.05501 8.51021L10.048 8.392ZM9.664 6.616L10.6064 6.28159L10.6064 6.28159L9.664 6.616ZM8.944 5.464L8.27721 6.20924L8.27721 6.20924L8.944 5.464ZM6.688 5.464L6.02121 4.71876L6.01117 4.72774L6.00138 4.73699L6.688 5.464ZM5.968 6.616L5.03543 6.25501L5.03031 6.26823L5.02557 6.28159L5.968 6.616ZM5.584 8.392L6.57699 8.51021L6.57731 8.5075L5.584 8.392ZM5.584 12.928L6.57731 12.8125L6.57731 12.8125L5.584 12.928ZM5.968 14.704L5.02557 15.0384L5.03031 15.0518L5.03543 15.065L5.968 14.704ZM6.688 15.856L6.00138 16.583L6.01117 16.5923L6.02121 16.6012L6.688 15.856ZM8.944 15.856L9.6108 16.6012L9.6108 16.6012L8.944 15.856ZM9.664 14.704L10.6064 15.0384L10.6064 15.0384L9.664 14.704ZM10.048 12.928L9.05469 12.8125L9.05469 12.8125L10.048 12.928ZM12.816 10.648C12.816 13.341 12.2972 15.256 11.3937 16.5236L13.0223 17.6844C14.2628 15.944 14.816 13.555 14.816 10.648H12.816ZM11.3925 16.5253C10.5297 17.741 9.37397 18.336 7.816 18.336V20.336C10.002 20.336 11.7743 19.443 13.0235 17.6827L11.3925 16.5253ZM7.816 18.336C6.2576 18.336 5.09085 17.7402 4.21137 16.5195L2.58863 17.6885C3.85315 19.4438 5.6304 20.336 7.816 20.336V18.336ZM4.21841 16.5294C3.32772 15.2608 2.816 13.3433 2.816 10.648H0.816C0.816 13.5527 1.36028 15.9392 2.58159 17.6786L4.21841 16.5294ZM2.816 10.648C2.816 9.31862 2.94614 8.17199 3.19329 7.19794L1.25471 6.70606C0.957863 7.87601 0.816 9.19338 0.816 10.648H2.816ZM3.18975 7.21146C3.45336 6.23028 3.81646 5.44192 4.26054 4.82291L2.63546 3.65709C2.02354 4.51008 1.57064 5.52972 1.25825 6.69254L3.18975 7.21146ZM4.26054 4.82291C4.70574 4.20233 5.22173 3.75172 5.80657 3.44658L4.88143 1.67341C3.99427 2.13628 3.24626 2.80567 2.63546 3.65709L4.26054 4.82291ZM5.80657 3.44658C6.38607 3.14423 7.04889 2.984 7.816 2.984V0.983999C6.75911 0.983999 5.77393 1.20776 4.88143 1.67341L5.80657 3.44658ZM7.816 2.984C9.36944 2.984 10.5249 3.58316 11.3896 4.81463L13.0264 3.66537C11.7791 1.88884 10.0066 0.983999 7.816 0.983999V2.984ZM11.3966 4.82453C12.2973 6.07474 12.816 7.97146 12.816 10.648H14.816C14.816 7.75654 14.2627 5.38126 13.0194 3.65547L11.3966 4.82453ZM11.168 10.648C11.168 9.78506 11.1266 8.9927 11.041 8.27379L9.05501 8.51021C9.12943 9.1353 9.168 9.84694 9.168 10.648H11.168ZM11.0413 8.2765C10.9552 7.53582 10.814 6.8666 10.6064 6.28159L8.72157 6.95041C8.86599 7.3574 8.98082 7.87218 9.05469 8.5075L11.0413 8.2765ZM10.6064 6.28159C10.3902 5.67231 10.0707 5.13024 9.61079 4.71876L8.27721 6.20924C8.42531 6.34176 8.58577 6.56769 8.72157 6.95041L10.6064 6.28159ZM9.6108 4.71876C9.10486 4.26608 8.48391 4.056 7.816 4.056V6.056C8.04409 6.056 8.17514 6.11792 8.27721 6.20924L9.6108 4.71876ZM7.816 4.056C7.14809 4.056 6.52714 4.26608 6.02121 4.71876L7.3548 6.20924C7.45686 6.11792 7.58791 6.056 7.816 6.056V4.056ZM6.00138 4.73699C5.57474 5.13992 5.26366 5.66542 5.03543 6.25501L6.90057 6.97699C7.05634 6.57458 7.22526 6.33208 7.37462 6.19101L6.00138 4.73699ZM5.02557 6.28159C4.81799 6.8666 4.67682 7.53582 4.59069 8.2765L6.57731 8.5075C6.65118 7.87218 6.76601 7.3574 6.91043 6.95041L5.02557 6.28159ZM4.59101 8.27379C4.50543 8.9927 4.464 9.78506 4.464 10.648H6.464C6.464 9.84694 6.50257 9.1353 6.57699 8.51021L4.59101 8.27379ZM4.464 10.648C4.464 11.5112 4.50546 12.3105 4.59069 13.0435L6.57731 12.8125C6.50255 12.1695 6.464 11.4488 6.464 10.648H4.464ZM4.59069 13.0435C4.67682 13.7842 4.81799 14.4534 5.02557 15.0384L6.91043 14.3696C6.76601 13.9626 6.65118 13.4478 6.57731 12.8125L4.59069 13.0435ZM5.03543 15.065C5.26366 15.6546 5.57474 16.1801 6.00138 16.583L7.37462 15.129C7.22526 14.9879 7.05634 14.7454 6.90057 14.343L5.03543 15.065ZM6.02121 16.6012C6.52714 17.0539 7.14809 17.264 7.816 17.264V15.264C7.58791 15.264 7.45686 15.2021 7.3548 15.1108L6.02121 16.6012ZM7.816 17.264C8.48391 17.264 9.10486 17.0539 9.6108 16.6012L8.27721 15.1108C8.17514 15.2021 8.04409 15.264 7.816 15.264V17.264ZM9.6108 16.6012C10.0707 16.1898 10.3902 15.6477 10.6064 15.0384L8.72157 14.3696C8.58577 14.7523 8.42531 14.9782 8.27721 15.1108L9.6108 16.6012ZM10.6064 15.0384C10.814 14.4534 10.9552 13.7842 11.0413 13.0435L9.05469 12.8125C8.98082 13.4478 8.86599 13.9626 8.72157 14.3696L10.6064 15.0384ZM11.0413 13.0435C11.1265 12.3105 11.168 11.5112 11.168 10.648H9.168C9.168 11.4488 9.12946 12.1695 9.05469 12.8125L11.0413 13.0435ZM16.3206 5.824L15.9383 4.89998L15.032 5.27501L15.3894 6.1884L16.3206 5.824ZM17.7606 5.176L18.1962 6.07623L18.2078 6.07043L17.7606 5.176ZM19.2486 4.36L19.7631 5.21749L19.7735 5.21128L19.7837 5.20482L19.2486 4.36ZM20.6166 3.424L21.2119 4.22757L21.2166 4.224L20.6166 3.424ZM21.8166 2.368V1.368H21.3893L21.094 1.67678L21.8166 2.368ZM24.3126 2.368H25.3126V1.368H24.3126V2.368ZM24.3126 19V20H25.3126V19H24.3126ZM20.7366 19H19.7366V20H20.7366V19ZM20.7366 7.024H21.7366V5.15548L20.1819 6.19195L20.7366 7.024ZM19.1286 7.912L19.5255 8.82986L19.5359 8.82538L19.5461 8.82068L19.1286 7.912ZM17.4006 8.584L16.4694 8.9484L16.8185 9.84071L17.7249 9.52995L17.4006 8.584ZM16.703 6.74802C17.1866 6.54791 17.6843 6.32382 18.1962 6.07616L17.3251 4.27584C16.8449 4.50818 16.3827 4.71609 15.9383 4.89998L16.703 6.74802ZM18.2078 6.07043C18.7422 5.80324 19.2607 5.51895 19.7631 5.21749L18.7341 3.50251C18.2766 3.77705 17.803 4.03676 17.3134 4.28157L18.2078 6.07043ZM19.7837 5.20482C20.2831 4.88853 20.7592 4.56283 21.2119 4.22756L20.0214 2.62044C19.61 2.92517 19.1742 3.22347 18.7136 3.51518L19.7837 5.20482ZM21.2166 4.224C21.7041 3.85837 22.1459 3.47046 22.5393 3.05922L21.094 1.67678C20.7833 2.00154 20.4251 2.31763 20.0166 2.624L21.2166 4.224ZM21.8166 3.368H24.3126V1.368H21.8166V3.368ZM23.3126 2.368V19H25.3126V2.368H23.3126ZM24.3126 18H20.7366V20H24.3126V18ZM21.7366 19V7.024H19.7366V19H21.7366ZM20.1819 6.19195C19.7507 6.4794 19.2614 6.75047 18.7111 7.00332L19.5461 8.82068C20.1798 8.52953 20.7625 8.2086 21.2913 7.85605L20.1819 6.19195ZM18.7317 6.99414C18.1614 7.24074 17.6097 7.45518 17.0763 7.63805L17.7249 9.52995C18.3116 9.32882 18.9118 9.09526 19.5255 8.82986L18.7317 6.99414ZM18.3319 8.2196L17.2519 5.4596L15.3894 6.1884L16.4694 8.9484L18.3319 8.2196Z" fill="#B5B5B6"/>
</svg>
