<svg width="29" height="21" viewBox="0 0 29 21" fill="none" xmlns="http://www.w3.org/2000/svg">
<path d="M12.208 17.104L11.3937 16.5236L11.3925 16.5253L12.208 17.104ZM3.4 17.104L2.58153 17.6787L2.58863 17.6885L3.4 17.104ZM2.224 6.952L1.25815 6.69252L1.25471 6.70606L2.224 6.952ZM5.344 2.56L4.88143 1.67341L4.88143 1.67341L5.344 2.56ZM12.208 4.24L11.3895 4.81467L11.3966 4.82453L12.208 4.24ZM10.048 8.392L9.05469 8.5075L9.05501 8.51021L10.048 8.392ZM9.664 6.616L10.6064 6.28159L10.6064 6.28159L9.664 6.616ZM8.944 5.464L8.27721 6.20924L8.27721 6.20924L8.944 5.464ZM6.688 5.464L6.0212 4.71876L6.01117 4.72774L6.00138 4.73699L6.688 5.464ZM5.968 6.616L5.03543 6.25501L5.03031 6.26823L5.02557 6.28159L5.968 6.616ZM5.584 8.392L6.57699 8.51021L6.57731 8.5075L5.584 8.392ZM5.584 12.928L6.57731 12.8125V12.8125L5.584 12.928ZM5.968 14.704L5.02557 15.0384L5.03031 15.0518L5.03543 15.065L5.968 14.704ZM6.688 15.856L6.00138 16.583L6.01117 16.5923L6.02121 16.6012L6.688 15.856ZM8.944 15.856L9.6108 16.6012L8.944 15.856ZM9.664 14.704L10.6064 15.0384L10.6064 15.0384L9.664 14.704ZM10.048 12.928L9.05469 12.8125L9.05469 12.8125L10.048 12.928ZM12.816 10.648C12.816 13.341 12.2972 15.256 11.3937 16.5236L13.0223 17.6844C14.2628 15.944 14.816 13.555 14.816 10.648H12.816ZM11.3925 16.5253C10.5297 17.741 9.37397 18.336 7.816 18.336V20.336C10.002 20.336 11.7743 19.443 13.0235 17.6827L11.3925 16.5253ZM7.816 18.336C6.2576 18.336 5.09085 17.7402 4.21137 16.5195L2.58863 17.6885C3.85315 19.4438 5.6304 20.336 7.816 20.336V18.336ZM4.21841 16.5294C3.32772 15.2608 2.816 13.3433 2.816 10.648H0.816C0.816 13.5527 1.36028 15.9392 2.58159 17.6786L4.21841 16.5294ZM2.816 10.648C2.816 9.31862 2.94614 8.17199 3.19329 7.19794L1.25471 6.70606C0.957863 7.87601 0.816 9.19338 0.816 10.648H2.816ZM3.18975 7.21146C3.45336 6.23028 3.81646 5.44192 4.26054 4.82291L2.63546 3.65709C2.02354 4.51008 1.57064 5.52972 1.25825 6.69254L3.18975 7.21146ZM4.26054 4.82291C4.70574 4.20233 5.22173 3.75172 5.80657 3.44658L4.88143 1.67341C3.99427 2.13628 3.24626 2.80567 2.63546 3.65709L4.26054 4.82291ZM5.80657 3.44658C6.38607 3.14423 7.04889 2.984 7.816 2.984V0.983999C6.75911 0.983999 5.77393 1.20776 4.88143 1.67341L5.80657 3.44658ZM7.816 2.984C9.36944 2.984 10.5249 3.58316 11.3896 4.81463L13.0264 3.66537C11.7791 1.88884 10.0066 0.983999 7.816 0.983999V2.984ZM11.3966 4.82453C12.2973 6.07474 12.816 7.97146 12.816 10.648H14.816C14.816 7.75654 14.2627 5.38126 13.0194 3.65547L11.3966 4.82453ZM11.168 10.648C11.168 9.78506 11.1266 8.9927 11.041 8.27379L9.05501 8.51021C9.12943 9.1353 9.168 9.84694 9.168 10.648H11.168ZM11.0413 8.2765C10.9552 7.53582 10.814 6.8666 10.6064 6.28159L8.72157 6.95041C8.86599 7.3574 8.98082 7.87218 9.05469 8.5075L11.0413 8.2765ZM10.6064 6.28159C10.3902 5.67231 10.0707 5.13024 9.6108 4.71876L8.27721 6.20924C8.42531 6.34176 8.58577 6.56769 8.72157 6.95041L10.6064 6.28159ZM9.6108 4.71876C9.10486 4.26608 8.48391 4.056 7.816 4.056V6.056C8.04409 6.056 8.17514 6.11792 8.27721 6.20924L9.6108 4.71876ZM7.816 4.056C7.14809 4.056 6.52714 4.26608 6.0212 4.71876L7.3548 6.20924C7.45686 6.11792 7.58791 6.056 7.816 6.056V4.056ZM6.00138 4.73699C5.57474 5.13992 5.26366 5.66542 5.03543 6.25501L6.90057 6.97699C7.05634 6.57458 7.22526 6.33208 7.37462 6.19101L6.00138 4.73699ZM5.02557 6.28159C4.81799 6.8666 4.67682 7.53582 4.59069 8.2765L6.57731 8.5075C6.65118 7.87218 6.76601 7.3574 6.91043 6.95041L5.02557 6.28159ZM4.59101 8.27379C4.50543 8.9927 4.464 9.78506 4.464 10.648H6.464C6.464 9.84694 6.50257 9.1353 6.57699 8.51021L4.59101 8.27379ZM4.464 10.648C4.464 11.5112 4.50546 12.3105 4.59069 13.0435L6.57731 12.8125C6.50255 12.1695 6.464 11.4488 6.464 10.648H4.464ZM4.59069 13.0435C4.67682 13.7842 4.81799 14.4534 5.02557 15.0384L6.91043 14.3696C6.76601 13.9626 6.65118 13.4478 6.57731 12.8125L4.59069 13.0435ZM5.03543 15.065C5.26366 15.6546 5.57474 16.1801 6.00138 16.583L7.37462 15.129C7.22526 14.9879 7.05634 14.7454 6.90057 14.343L5.03543 15.065ZM6.02121 16.6012C6.52714 17.0539 7.14809 17.264 7.816 17.264V15.264C7.58791 15.264 7.45686 15.2021 7.3548 15.1108L6.02121 16.6012ZM7.816 17.264C8.48391 17.264 9.10486 17.0539 9.6108 16.6012L8.27721 15.1108C8.17514 15.2021 8.04409 15.264 7.816 15.264V17.264ZM9.6108 16.6012C10.0707 16.1898 10.3902 15.6477 10.6064 15.0384L8.72157 14.3696C8.58577 14.7523 8.42531 14.9782 8.27721 15.1108L9.6108 16.6012ZM10.6064 15.0384C10.814 14.4534 10.9552 13.7842 11.0413 13.0435L9.05469 12.8125C8.98082 13.4478 8.86599 13.9626 8.72157 14.3696L10.6064 15.0384ZM11.0413 13.0435C11.1265 12.3105 11.168 11.5112 11.168 10.648H9.168C9.168 11.4488 9.12946 12.1695 9.05469 12.8125L11.0413 13.0435ZM26.1846 8.488L27.1038 8.88192L26.1846 8.488ZM25.2486 10.12L26.0486 10.72L26.053 10.7141L26.0574 10.7082L25.2486 10.12ZM22.5366 12.976L21.8552 12.2441L21.8543 12.2449L22.5366 12.976ZM21.7446 13.744L21.0375 13.0369L21.7446 13.744ZM20.9526 14.584L20.2052 13.9196L20.9526 14.584ZM20.2566 15.4L19.4805 14.7694L19.4758 14.7753L20.2566 15.4ZM19.8966 16L18.9388 15.7127L18.5526 17H19.8966V16ZM27.0486 16H28.0486V15H27.0486V16ZM27.0486 19V20H28.0486V19H27.0486ZM15.9606 19L14.9768 19.1789L15.126 20H15.9606V19ZM16.2726 15.64L15.3441 15.2686L15.3401 15.2787L15.3363 15.2889L16.2726 15.64ZM17.2566 13.864L18.0624 14.4564L18.0704 14.4452L17.2566 13.864ZM18.6006 12.304L17.9167 11.5745L17.9109 11.5799L17.9052 11.5854L18.6006 12.304ZM20.1126 10.864L19.4207 10.142L19.4172 10.1454L20.1126 10.864ZM21.1926 9.832L21.8823 10.5561L21.8911 10.5477L21.8997 10.5391L21.1926 9.832ZM22.0806 8.872L22.8455 9.51614L22.8536 9.50652L22.8615 9.49669L22.0806 8.872ZM22.6806 7.936L23.5844 8.36409L23.5885 8.35526L23.5925 8.34636L22.6806 7.936ZM19.5846 5.272L19.9131 6.2165L19.9245 6.21255L19.9357 6.20833L19.5846 5.272ZM18.5526 5.752L19.0537 6.61742L19.0604 6.61351L19.0671 6.60949L18.5526 5.752ZM17.7606 6.304L18.3784 7.09032L18.3952 7.07714L18.4114 7.06326L17.7606 6.304ZM17.2566 6.736L16.4418 7.31575L17.1275 8.27936L17.9637 7.44311L17.2566 6.736ZM15.4806 4.24L14.7989 3.50839L14.1578 4.10577L14.6658 4.81976L15.4806 4.24ZM17.9286 2.632L18.3377 3.54454L18.3447 3.54131L17.9286 2.632ZM23.4726 2.32L23.7758 1.36707L23.4726 2.32ZM25.2006 3.28L24.5202 4.01279L24.5337 4.02535L24.5477 4.03741L25.2006 3.28ZM26.2086 4.768L25.2652 5.09949L25.2706 5.11506L25.2766 5.13044L26.2086 4.768ZM25.5446 6.736C25.5446 7.20828 25.4522 7.65829 25.2655 8.09408L27.1038 8.88192C27.397 8.19771 27.5446 7.47972 27.5446 6.736H25.5446ZM25.2655 8.09408C25.0569 8.5807 24.7831 9.05996 24.4399 9.53183L26.0574 10.7082C26.4822 10.124 26.8323 9.5153 27.1038 8.88192L25.2655 8.09408ZM24.4486 9.52C24.0947 9.99194 23.6941 10.4523 23.2455 10.9009L24.6597 12.3151C25.1712 11.8037 25.6346 11.2721 26.0486 10.72L24.4486 9.52ZM23.2455 10.9009C22.7733 11.3731 22.3099 11.8208 21.8552 12.2441L23.218 13.7079C23.6913 13.2672 24.1719 12.8029 24.6597 12.3151L23.2455 10.9009ZM21.8543 12.2449C21.6042 12.4784 21.3318 12.7426 21.0375 13.0369L22.4517 14.4511C22.7334 14.1694 22.9891 13.9216 23.2189 13.7071L21.8543 12.2449ZM21.0375 13.0369C20.7516 13.3228 20.4742 13.617 20.2052 13.9196L21.7 15.2484C21.943 14.975 22.1936 14.7092 22.4517 14.4511L21.0375 13.0369ZM20.2052 13.9196C19.941 14.2169 19.6992 14.5002 19.4805 14.7694L21.0327 16.0306C21.23 15.7878 21.4523 15.5271 21.7 15.2484L20.2052 13.9196ZM19.4758 14.7753C19.2595 15.0456 19.0427 15.3664 18.9388 15.7127L20.8545 16.2873C20.8472 16.3114 20.8474 16.299 20.8801 16.2445C20.9112 16.1927 20.9613 16.12 21.0375 16.0247L19.4758 14.7753ZM19.8966 17H27.0486V15H19.8966V17ZM26.0486 16V19H28.0486V16H26.0486ZM27.0486 18H15.9606V20H27.0486V18ZM16.9445 18.8211C16.9272 18.7261 16.9126 18.5675 16.9126 18.328H14.9126C14.9126 18.6325 14.93 18.9219 14.9768 19.1789L16.9445 18.8211ZM16.9126 18.328C16.9126 18.3275 16.9126 18.3269 16.9126 18.3264C16.9126 18.3259 16.9126 18.3253 16.9126 18.3248C16.9126 18.3243 16.9126 18.3238 16.9126 18.3232C16.9126 18.3227 16.9126 18.3222 16.9126 18.3216C16.9126 18.3211 16.9126 18.3206 16.9126 18.3201C16.9126 18.3195 16.9126 18.319 16.9126 18.3185C16.9126 18.3179 16.9126 18.3174 16.9126 18.3169C16.9126 18.3164 16.9126 18.3158 16.9126 18.3153C16.9126 18.3148 16.9126 18.3143 16.9126 18.3137C16.9126 18.3132 16.9126 18.3127 16.9126 18.3122C16.9126 18.3116 16.9126 18.3111 16.9126 18.3106C16.9126 18.3101 16.9126 18.3095 16.9126 18.309C16.9126 18.3085 16.9126 18.308 16.9126 18.3074C16.9126 18.3069 16.9126 18.3064 16.9126 18.3059C16.9126 18.3053 16.9126 18.3048 16.9126 18.3043C16.9126 18.3038 16.9126 18.3033 16.9126 18.3027C16.9126 18.3022 16.9126 18.3017 16.9126 18.3012C16.9126 18.3006 16.9126 18.3001 16.9126 18.2996C16.9126 18.2991 16.9126 18.2986 16.9126 18.298C16.9126 18.2975 16.9126 18.297 16.9126 18.2965C16.9126 18.296 16.9126 18.2955 16.9126 18.2949C16.9126 18.2944 16.9126 18.2939 16.9126 18.2934C16.9126 18.2929 16.9126 18.2923 16.9126 18.2918C16.9126 18.2913 16.9126 18.2908 16.9126 18.2903C16.9126 18.2898 16.9126 18.2892 16.9126 18.2887C16.9126 18.2882 16.9126 18.2877 16.9126 18.2872C16.9126 18.2867 16.9126 18.2861 16.9126 18.2856C16.9126 18.2851 16.9126 18.2846 16.9126 18.2841C16.9126 18.2836 16.9126 18.2831 16.9126 18.2826C16.9126 18.282 16.9126 18.2815 16.9126 18.281C16.9126 18.2805 16.9126 18.28 16.9126 18.2795C16.9126 18.279 16.9126 18.2785 16.9126 18.2779C16.9126 18.2774 16.9126 18.2769 16.9126 18.2764C16.9126 18.2759 16.9126 18.2754 16.9126 18.2749C16.9126 18.2744 16.9126 18.2738 16.9126 18.2733C16.9126 18.2728 16.9126 18.2723 16.9126 18.2718C16.9126 18.2713 16.9126 18.2708 16.9126 18.2703C16.9126 18.2698 16.9126 18.2693 16.9126 18.2688C16.9126 18.2683 16.9126 18.2677 16.9126 18.2672C16.9126 18.2667 16.9126 18.2662 16.9126 18.2657C16.9126 18.2652 16.9126 18.2647 16.9126 18.2642C16.9126 18.2637 16.9126 18.2632 16.9126 18.2627C16.9126 18.2622 16.9126 18.2617 16.9126 18.2612C16.9126 18.2607 16.9126 18.2602 16.9126 18.2596C16.9126 18.2591 16.9126 18.2586 16.9126 18.2581C16.9126 18.2576 16.9126 18.2571 16.9126 18.2566C16.9126 18.2561 16.9126 18.2556 16.9126 18.2551C16.9126 18.2546 16.9126 18.2541 16.9126 18.2536C16.9126 18.2531 16.9126 18.2526 16.9126 18.2521C16.9126 18.2516 16.9126 18.2511 16.9126 18.2506C16.9126 18.2501 16.9126 18.2496 16.9126 18.2491C16.9126 18.2486 16.9126 18.2481 16.9126 18.2476C16.9126 18.2471 16.9126 18.2466 16.9126 18.2461C16.9126 18.2456 16.9126 18.2451 16.9126 18.2446C16.9126 18.2441 16.9126 18.2436 16.9126 18.2431C16.9126 18.2426 16.9126 18.2421 16.9126 18.2416C16.9126 18.2411 16.9126 18.2406 16.9126 18.2401C16.9126 18.2396 16.9126 18.2391 16.9126 18.2386C16.9126 18.2381 16.9126 18.2377 16.9126 18.2372C16.9126 18.2367 16.9126 18.2362 16.9126 18.2357C16.9126 18.2352 16.9126 18.2347 16.9126 18.2342C16.9126 18.2337 16.9126 18.2332 16.9126 18.2327C16.9126 18.2322 16.9126 18.2317 16.9126 18.2312C16.9126 18.2307 16.9126 18.2302 16.9126 18.2297C16.9126 18.2293 16.9126 18.2288 16.9126 18.2283C16.9126 18.2278 16.9126 18.2273 16.9126 18.2268C16.9126 18.2263 16.9126 18.2258 16.9126 18.2253C16.9126 18.2248 16.9126 18.2243 16.9126 18.2239C16.9126 18.2234 16.9126 18.2229 16.9126 18.2224C16.9126 18.2219 16.9126 18.2214 16.9126 18.2209C16.9126 18.2204 16.9126 18.2199 16.9126 18.2195C16.9126 18.219 16.9126 18.2185 16.9126 18.218C16.9126 18.2175 16.9126 18.217 16.9126 18.2165C16.9126 18.216 16.9126 18.2156 16.9126 18.2151C16.9126 18.2146 16.9126 18.2141 16.9126 18.2136C16.9126 18.2131 16.9126 18.2126 16.9126 18.2122C16.9126 18.2117 16.9126 18.2112 16.9126 18.2107C16.9126 18.2102 16.9126 18.2097 16.9126 18.2093C16.9126 18.2088 16.9126 18.2083 16.9126 18.2078C16.9126 18.2073 16.9126 18.2068 16.9126 18.2064C16.9126 18.2059 16.9126 18.2054 16.9126 18.2049C16.9126 18.2044 16.9126 18.2039 16.9126 18.2035C16.9126 18.203 16.9126 18.2025 16.9126 18.202C16.9126 18.2015 16.9126 18.2011 16.9126 18.2006C16.9126 18.2001 16.9126 18.1996 16.9126 18.1991C16.9126 18.1987 16.9126 18.1982 16.9126 18.1977C16.9126 18.1972 16.9126 18.1968 16.9126 18.1963C16.9126 18.1958 16.9126 18.1953 16.9126 18.1948C16.9126 18.1944 16.9126 18.1939 16.9126 18.1934C16.9126 18.1929 16.9126 18.1925 16.9126 18.192C16.9126 18.1915 16.9126 18.191 16.9126 18.1905C16.9126 18.1901 16.9126 18.1896 16.9126 18.1891C16.9126 18.1886 16.9126 18.1882 16.9126 18.1877C16.9126 18.1872 16.9126 18.1868 16.9126 18.1863C16.9126 18.1858 16.9126 18.1853 16.9126 18.1849C16.9126 18.1844 16.9126 18.1839 16.9126 18.1834C16.9126 18.183 16.9126 18.1825 16.9126 18.182C16.9126 18.1815 16.9126 18.1811 16.9126 18.1806C16.9126 18.1801 16.9126 18.1797 16.9126 18.1792C16.9126 18.1787 16.9126 18.1783 16.9126 18.1778C16.9126 18.1773 16.9126 18.1768 16.9126 18.1764C16.9126 18.1759 16.9126 18.1754 16.9126 18.175C16.9126 18.1745 16.9126 18.174 16.9126 18.1736C16.9126 18.1731 16.9126 18.1726 16.9126 18.1722C16.9126 18.1717 16.9126 18.1712 16.9126 18.1707C16.9126 18.1703 16.9126 18.1698 16.9126 18.1693C16.9126 18.1689 16.9126 18.1684 16.9126 18.1679C16.9126 18.1675 16.9126 18.167 16.9126 18.1666C16.9126 18.1661 16.9126 18.1656 16.9126 18.1652C16.9126 18.1647 16.9126 18.1642 16.9126 18.1638C16.9126 18.1633 16.9126 18.1628 16.9126 18.1624C16.9126 18.1619 16.9126 18.1614 16.9126 18.161C16.9126 18.1605 16.9126 18.1601 16.9126 18.1596C16.9126 18.1591 16.9126 18.1587 16.9126 18.1582C16.9126 18.1577 16.9126 18.1573 16.9126 18.1568C16.9126 18.1564 16.9126 18.1559 16.9126 18.1554C16.9126 18.155 16.9126 18.1545 16.9126 18.1541C16.9126 18.1536 16.9126 18.1531 16.9126 18.1527C16.9126 18.1522 16.9126 18.1518 16.9126 18.1513C16.9126 18.1509 16.9126 18.1504 16.9126 18.1499C16.9126 18.1495 16.9126 18.149 16.9126 18.1486C16.9126 18.1481 16.9126 18.1476 16.9126 18.1472C16.9126 18.1467 16.9126 18.1463 16.9126 18.1458C16.9126 18.1454 16.9126 18.1449 16.9126 18.1445C16.9126 18.144 16.9126 18.1435 16.9126 18.1431C16.9126 18.1426 16.9126 18.1422 16.9126 18.1417C16.9126 18.1413 16.9126 18.1408 16.9126 18.1404C16.9126 18.1399 16.9126 18.1395 16.9126 18.139C16.9126 18.1385 16.9126 18.1381 16.9126 18.1376C16.9126 18.1372 16.9126 18.1367 16.9126 18.1363C16.9126 18.1358 16.9126 18.1354 16.9126 18.1349C16.9126 18.1345 16.9126 18.134 16.9126 18.1336C16.9126 18.1331 16.9126 18.1327 16.9126 18.1322C16.9126 18.1318 16.9126 18.1313 16.9126 18.1309C16.9126 18.1304 16.9126 18.13 16.9126 18.1295C16.9126 18.1291 16.9126 18.1286 16.9126 18.1282C16.9126 18.1277 16.9126 18.1273 16.9126 18.1268C16.9126 18.1264 16.9126 18.1259 16.9126 18.1255C16.9126 18.1251 16.9126 18.1246 16.9126 18.1242C16.9126 18.1237 16.9126 18.1233 16.9126 18.1228C16.9126 18.1224 16.9126 18.1219 16.9126 18.1215C16.9126 18.121 16.9126 18.1206 16.9126 18.1201C16.9126 18.1197 16.9126 18.1193 16.9126 18.1188C16.9126 18.1184 16.9126 18.1179 16.9126 18.1175C16.9126 18.117 16.9126 18.1166 16.9126 18.1162C16.9126 18.1157 16.9126 18.1153 16.9126 18.1148C16.9126 18.1144 16.9126 18.1139 16.9126 18.1135C16.9126 18.1131 16.9126 18.1126 16.9126 18.1122C16.9126 18.1117 16.9126 18.1113 16.9126 18.1109C16.9126 18.1104 16.9126 18.11 16.9126 18.1095C16.9126 18.1091 16.9126 18.1087 16.9126 18.1082C16.9126 18.1078 16.9126 18.1073 16.9126 18.1069C16.9126 18.1065 16.9126 18.106 16.9126 18.1056C16.9126 18.1052 16.9126 18.1047 16.9126 18.1043C16.9126 18.1038 16.9126 18.1034 16.9126 18.103C16.9126 18.1025 16.9126 18.1021 16.9126 18.1017C16.9126 18.1012 16.9126 18.1008 16.9126 18.1003C16.9126 18.0999 16.9126 18.0995 16.9126 18.099C16.9126 18.0986 16.9126 18.0982 16.9126 18.0977C16.9126 18.0973 16.9126 18.0969 16.9126 18.0964C16.9126 18.096 16.9126 18.0956 16.9126 18.0951C16.9126 18.0947 16.9126 18.0943 16.9126 18.0938C16.9126 18.0934 16.9126 18.093 16.9126 18.0925C16.9126 18.0921 16.9126 18.0917 16.9126 18.0912C16.9126 18.0908 16.9126 18.0904 16.9126 18.09C16.9126 18.0895 16.9126 18.0891 16.9126 18.0887C16.9126 18.0882 16.9126 18.0878 16.9126 18.0874C16.9126 18.0869 16.9126 18.0865 16.9126 18.0861C16.9126 18.0857 16.9126 18.0852 16.9126 18.0848C16.9126 18.0844 16.9126 18.0839 16.9126 18.0835C16.9126 18.0831 16.9126 18.0827 16.9126 18.0822C16.9126 18.0818 16.9126 18.0814 16.9126 18.081C16.9126 18.0805 16.9126 18.0801 16.9126 18.0797C16.9126 18.0793 16.9126 18.0788 16.9126 18.0784C16.9126 18.078 16.9126 18.0776 16.9126 18.0771C16.9126 18.0767 16.9126 18.0763 16.9126 18.0759C16.9126 18.0754 16.9126 18.075 16.9126 18.0746C16.9126 18.0742 16.9126 18.0737 16.9126 18.0733C16.9126 18.0729 16.9126 18.0725 16.9126 18.0721C16.9126 18.0716 16.9126 18.0712 16.9126 18.0708C16.9126 18.0704 16.9126 18.0699 16.9126 18.0695C16.9126 18.0691 16.9126 18.0687 16.9126 18.0683C16.9126 18.0678 16.9126 18.0674 16.9126 18.067C16.9126 18.0666 16.9126 18.0662 16.9126 18.0657C16.9126 18.0653 16.9126 18.0649 16.9126 18.0645C16.9126 18.0641 16.9126 18.0637 16.9126 18.0632C16.9126 18.0628 16.9126 18.0624 16.9126 18.062C16.9126 18.0616 16.9126 18.0611 16.9126 18.0607C16.9126 18.0603 16.9126 18.0599 16.9126 18.0595C16.9126 18.0591 16.9126 18.0587 16.9126 18.0582C16.9126 18.0578 16.9126 18.0574 16.9126 18.057C16.9126 18.0566 16.9126 18.0562 16.9126 18.0557C16.9126 18.0553 16.9126 18.0549 16.9126 18.0545C16.9126 18.0541 16.9126 18.0537 16.9126 18.0533C16.9126 18.0529 16.9126 18.0524 16.9126 18.052C16.9126 18.0516 16.9126 18.0512 16.9126 18.0508C16.9126 18.0504 16.9126 18.05 16.9126 18.0496C16.9126 18.0492 16.9126 18.0487 16.9126 18.0483C16.9126 18.0479 16.9126 18.0475 16.9126 18.0471C16.9126 18.0467 16.9126 18.0463 16.9126 18.0459C16.9126 18.0455 16.9126 18.0451 16.9126 18.0446C16.9126 18.0442 16.9126 18.0438 16.9126 18.0434C16.9126 18.043 16.9126 18.0426 16.9126 18.0422C16.9126 18.0418 16.9126 18.0414 16.9126 18.041C16.9126 18.0406 16.9126 18.0402 16.9126 18.0398C16.9126 18.0394 16.9126 18.0389 16.9126 18.0385C16.9126 18.0381 16.9126 18.0377 16.9126 18.0373C16.9126 18.0369 16.9126 18.0365 16.9126 18.0361C16.9126 18.0357 16.9126 18.0353 16.9126 18.0349C16.9126 18.0345 16.9126 18.0341 16.9126 18.0337C16.9126 18.0333 16.9126 18.0329 16.9126 18.0325C16.9126 18.0321 16.9126 18.0317 16.9126 18.0313C16.9126 18.0309 16.9126 18.0305 16.9126 18.0301C16.9126 18.0297 16.9126 18.0293 16.9126 18.0289C16.9126 18.0285 16.9126 18.0281 16.9126 18.0277C16.9126 18.0273 16.9126 18.0269 16.9126 18.0265C16.9126 18.0261 16.9126 18.0257 16.9126 18.0253C16.9126 18.0249 16.9126 18.0245 16.9126 18.0241C16.9126 18.0237 16.9126 18.0233 16.9126 18.0229C16.9126 18.0225 16.9126 18.0221 16.9126 18.0217C16.9126 18.0213 16.9126 18.0209 16.9126 18.0205C16.9126 18.0201 16.9126 18.0197 16.9126 18.0193C16.9126 18.0189 16.9126 18.0185 16.9126 18.0181C16.9126 18.0177 16.9126 18.0173 16.9126 18.0169C16.9126 18.0165 16.9126 18.0161 16.9126 18.0158C16.9126 18.0154 16.9126 18.015 16.9126 18.0146C16.9126 18.0142 16.9126 18.0138 16.9126 18.0134C16.9126 18.013 16.9126 18.0126 16.9126 18.0122C16.9126 18.0118 16.9126 18.0114 16.9126 18.011C16.9126 18.0107 16.9126 18.0103 16.9126 18.0099C16.9126 18.0095 16.9126 18.0091 16.9126 18.0087C16.9126 18.0083 16.9126 18.0079 16.9126 18.0075C16.9126 18.0071 16.9126 18.0067 16.9126 18.0064C16.9126 18.006 16.9126 18.0056 16.9126 18.0052C16.9126 18.0048 16.9126 18.0044 16.9126 18.004C16.9126 18.0036 16.9126 18.0033 16.9126 18.0029C16.9126 18.0025 16.9126 18.0021 16.9126 18.0017C16.9126 18.0013 16.9126 18.0009 16.9126 18.0005C16.9126 18.0002 16.9126 17.9998 16.9126 17.9994C16.9126 17.999 16.9126 17.9986 16.9126 17.9982C16.9126 17.9979 16.9126 17.9975 16.9126 17.9971C16.9126 17.9967 16.9126 17.9963 16.9126 17.9959C16.9126 17.9955 16.9126 17.9952 16.9126 17.9948C16.9126 17.9944 16.9126 17.994 16.9126 17.9936C16.9126 17.9932 16.9126 17.9929 16.9126 17.9925C16.9126 17.9921 16.9126 17.9917 16.9126 17.9913C16.9126 17.991 16.9126 17.9906 16.9126 17.9902C16.9126 17.9898 16.9126 17.9894 16.9126 17.9891C16.9126 17.9887 16.9126 17.9883 16.9126 17.9879C16.9126 17.9875 16.9126 17.9872 16.9126 17.9868C16.9126 17.9864 16.9126 17.986 16.9126 17.9856C16.9126 17.9853 16.9126 17.9849 16.9126 17.9845C16.9126 17.9841 16.9126 17.9838 16.9126 17.9834C16.9126 17.983 16.9126 17.9826 16.9126 17.9823C16.9126 17.9819 16.9126 17.9815 16.9126 17.9811C16.9126 17.9808 16.9126 17.9804 16.9126 17.98C16.9126 17.9796 16.9126 17.9792 16.9126 17.9789C16.9126 17.9785 16.9126 17.9781 16.9126 17.9778C16.9126 17.9774 16.9126 17.977 16.9126 17.9766C16.9126 17.9763 16.9126 17.9759 16.9126 17.9755C16.9126 17.9751 16.9126 17.9748 16.9126 17.9744C16.9126 17.974 16.9126 17.9737 16.9126 17.9733C16.9126 17.9729 16.9126 17.9725 16.9126 17.9722C16.9126 17.9718 16.9126 17.9714 16.9126 17.9711C16.9126 17.9707 16.9126 17.9703 16.9126 17.9699C16.9126 17.9696 16.9126 17.9692 16.9126 17.9688C16.9126 17.9685 16.9126 17.9681 16.9126 17.9677C16.9126 17.9674 16.9126 17.967 16.9126 17.9666C16.9126 17.9663 16.9126 17.9659 16.9126 17.9655C16.9126 17.9652 16.9126 17.9648 16.9126 17.9644C16.9126 17.9641 16.9126 17.9637 16.9126 17.9633C16.9126 17.963 16.9126 17.9626 16.9126 17.9622C16.9126 17.9619 16.9126 17.9615 16.9126 17.9611C16.9126 17.9608 16.9126 17.9604 16.9126 17.96C16.9126 17.9597 16.9126 17.9593 16.9126 17.959C16.9126 17.9586 16.9126 17.9582 16.9126 17.9579C16.9126 17.9575 16.9126 17.9571 16.9126 17.9568C16.9126 17.9564 16.9126 17.9561 16.9126 17.9557C16.9126 17.9553 16.9126 17.955 16.9126 17.9546C16.9126 17.9542 16.9126 17.9539 16.9126 17.9535C16.9126 17.9532 16.9126 17.9528 16.9126 17.9524C16.9126 17.9521 16.9126 17.9517 16.9126 17.9514C16.9126 17.951 16.9126 17.9507 16.9126 17.9503C16.9126 17.9499 16.9126 17.9496 16.9126 17.9492C16.9126 17.9489 16.9126 17.9485 16.9126 17.9481C16.9126 17.9478 16.9126 17.9474 16.9126 17.9471C16.9126 17.9467 16.9126 17.9464 16.9126 17.946C16.9126 17.9456 16.9126 17.9453 16.9126 17.9449C16.9126 17.9446 16.9126 17.9442 16.9126 17.9439C16.9126 17.9435 16.9126 17.9432 16.9126 17.9428C16.9126 17.9425 16.9126 17.9421 16.9126 17.9417C16.9126 17.9414 16.9126 17.941 16.9126 17.9407C16.9126 17.9403 16.9126 17.94 16.9126 17.9396C16.9126 17.9393 16.9126 17.9389 16.9126 17.9386C16.9126 17.9382 16.9126 17.9379 16.9126 17.9375C16.9126 17.9372 16.9126 17.9368 16.9126 17.9365C16.9126 17.9361 16.9126 17.9358 16.9126 17.9354C16.9126 17.9351 16.9126 17.9347 16.9126 17.9344C16.9126 17.934 16.9126 17.9337 16.9126 17.9333C16.9126 17.933 16.9126 17.9326 16.9126 17.9323C16.9126 17.9319 16.9126 17.9316 16.9126 17.9312C16.9126 17.9309 16.9126 17.9305 16.9126 17.9302C16.9126 17.9298 16.9126 17.9295 16.9126 17.9291C16.9126 17.9288 16.9126 17.9285 16.9126 17.9281C16.9126 17.9278 16.9126 17.9274 16.9126 17.9271C16.9126 17.9267 16.9126 17.9264 16.9126 17.926C16.9126 17.9257 16.9126 17.9254 16.9126 17.925C16.9126 17.9247 16.9126 17.9243 16.9126 17.924C16.9126 17.9236 16.9126 17.9233 16.9126 17.9229C16.9126 17.9226 16.9126 17.9223 16.9126 17.9219C16.9126 17.9216 16.9126 17.9212 16.9126 17.9209C16.9126 17.9206 16.9126 17.9202 16.9126 17.9199C16.9126 17.9195 16.9126 17.9192 16.9126 17.9188C16.9126 17.9185 16.9126 17.9182 16.9126 17.9178C16.9126 17.9175 16.9126 17.9172 16.9126 17.9168C16.9126 17.9165 16.9126 17.9161 16.9126 17.9158C16.9126 17.9155 16.9126 17.9151 16.9126 17.9148C16.9126 17.9144 16.9126 17.9141 16.9126 17.9138C16.9126 17.9134 16.9126 17.9131 16.9126 17.9128C16.9126 17.9124 16.9126 17.9121 16.9126 17.9118C16.9126 17.9114 16.9126 17.9111 16.9126 17.9107C16.9126 17.9104 16.9126 17.9101 16.9126 17.9097C16.9126 17.9094 16.9126 17.9091 16.9126 17.9087C16.9126 17.9084 16.9126 17.9081 16.9126 17.9077C16.9126 17.9074 16.9126 17.9071 16.9126 17.9067C16.9126 17.9064 16.9126 17.9061 16.9126 17.9057C16.9126 17.9054 16.9126 17.9051 16.9126 17.9047C16.9126 17.9044 16.9126 17.9041 16.9126 17.9037C16.9126 17.9034 16.9126 17.9031 16.9126 17.9028C16.9126 17.9024 16.9126 17.9021 16.9126 17.9018C16.9126 17.9014 16.9126 17.9011 16.9126 17.9008C16.9126 17.9004 16.9126 17.9001 16.9126 17.8998C16.9126 17.8995 16.9126 17.8991 16.9126 17.8988C16.9126 17.8985 16.9126 17.8981 16.9126 17.8978C16.9126 17.8975 16.9126 17.8972 16.9126 17.8968C16.9126 17.8965 16.9126 17.8962 16.9126 17.8959C16.9126 17.8955 16.9126 17.8952 16.9126 17.8949C16.9126 17.8946 16.9126 17.8942 16.9126 17.8939C16.9126 17.8936 16.9126 17.8933 16.9126 17.8929C16.9126 17.8926 16.9126 17.8923 16.9126 17.892C16.9126 17.8916 16.9126 17.8913 16.9126 17.891C16.9126 17.8907 16.9126 17.8903 16.9126 17.89C16.9126 17.8897 16.9126 17.8894 16.9126 17.8891C16.9126 17.8887 16.9126 17.8884 16.9126 17.8881C16.9126 17.8878 16.9126 17.8874 16.9126 17.8871C16.9126 17.8868 16.9126 17.8865 16.9126 17.8862C16.9126 17.8858 16.9126 17.8855 16.9126 17.8852C16.9126 17.8849 16.9126 17.8846 16.9126 17.8842C16.9126 17.8839 16.9126 17.8836 16.9126 17.8833C16.9126 17.883 16.9126 17.8827 16.9126 17.8823C16.9126 17.882 16.9126 17.8817 16.9126 17.8814C16.9126 17.8811 16.9126 17.8808 16.9126 17.8804C16.9126 17.8801 16.9126 17.8798 16.9126 17.8795C16.9126 17.8792 16.9126 17.8789 16.9126 17.8785C16.9126 17.8782 16.9126 17.8779 16.9126 17.8776C16.9126 17.8773 16.9126 17.877 16.9126 17.8767C16.9126 17.8763 16.9126 17.876 16.9126 17.8757C16.9126 17.8754 16.9126 17.8751 16.9126 17.8748C16.9126 17.8745 16.9126 17.8741 16.9126 17.8738C16.9126 17.8735 16.9126 17.8732 16.9126 17.8729C16.9126 17.8726 16.9126 17.8723 16.9126 17.872C16.9126 17.8717 16.9126 17.8713 16.9126 17.871C16.9126 17.8707 16.9126 17.8704 16.9126 17.8701C16.9126 17.8698 16.9126 17.8695 16.9126 17.8692C16.9126 17.8689 16.9126 17.8686 16.9126 17.8683C16.9126 17.8679 16.9126 17.8676 16.9126 17.8673C16.9126 17.867 16.9126 17.8667 16.9126 17.8664C16.9126 17.8661 16.9126 17.8658 16.9126 17.8655C16.9126 17.8652 16.9126 17.8649 16.9126 17.8646C16.9126 17.8643 16.9126 17.864 16.9126 17.8636C16.9126 17.8633 16.9126 17.863 16.9126 17.8627C16.9126 17.8624 16.9126 17.8621 16.9126 17.8618C16.9126 17.8615 16.9126 17.8612 16.9126 17.8609C16.9126 17.8606 16.9126 17.8603 16.9126 17.86C16.9126 17.8597 16.9126 17.8594 16.9126 17.8591C16.9126 17.8588 16.9126 17.8585 16.9126 17.8582C16.9126 17.8579 16.9126 17.8576 16.9126 17.8573C16.9126 17.857 16.9126 17.8567 16.9126 17.8564C16.9126 17.8561 16.9126 17.8558 16.9126 17.8555C16.9126 17.8552 16.9126 17.8549 16.9126 17.8546C16.9126 17.8543 16.9126 17.854 16.9126 17.8537C16.9126 17.8534 16.9126 17.8531 16.9126 17.8528C16.9126 17.8525 16.9126 17.8522 16.9126 17.8519C16.9126 17.8516 16.9126 17.8513 16.9126 17.851C16.9126 17.8507 16.9126 17.8504 16.9126 17.8501C16.9126 17.8498 16.9126 17.8495 16.9126 17.8492C16.9126 17.8489 16.9126 17.8486 16.9126 17.8483C16.9126 17.848 16.9126 17.8477 16.9126 17.8475C16.9126 17.8472 16.9126 17.8469 16.9126 17.8466C16.9126 17.8463 16.9126 17.846 16.9126 17.8457C16.9126 17.8454 16.9126 17.8451 16.9126 17.8448C16.9126 17.8445 16.9126 17.8442 16.9126 17.8439C16.9126 17.8436 16.9126 17.8433 16.9126 17.8431C16.9126 17.8428 16.9126 17.8425 16.9126 17.8422C16.9126 17.8419 16.9126 17.8416 16.9126 17.8413C16.9126 17.841 16.9126 17.8407 16.9126 17.8404C16.9126 17.8402 16.9126 17.8399 16.9126 17.8396C16.9126 17.8393 16.9126 17.839 16.9126 17.8387C16.9126 17.8384 16.9126 17.8381 16.9126 17.8378C16.9126 17.8376 16.9126 17.8373 16.9126 17.837C16.9126 17.8367 16.9126 17.8364 16.9126 17.8361C16.9126 17.8358 16.9126 17.8356 16.9126 17.8353C16.9126 17.835 16.9126 17.8347 16.9126 17.8344C16.9126 17.8341 16.9126 17.8338 16.9126 17.8336C16.9126 17.8333 16.9126 17.833 16.9126 17.8327C16.9126 17.8324 16.9126 17.8321 16.9126 17.8319C16.9126 17.8316 16.9126 17.8313 16.9126 17.831C16.9126 17.8307 16.9126 17.8304 16.9126 17.8302C16.9126 17.8299 16.9126 17.8296 16.9126 17.8293C16.9126 17.829 16.9126 17.8287 16.9126 17.8285C16.9126 17.8282 16.9126 17.8279 16.9126 17.8276C16.9126 17.8273 16.9126 17.8271 16.9126 17.8268C16.9126 17.8265 16.9126 17.8262 16.9126 17.8259C16.9126 17.8257 16.9126 17.8254 16.9126 17.8251C16.9126 17.8248 16.9126 17.8245 16.9126 17.8243C16.9126 17.824 16.9126 17.8237 16.9126 17.8234C16.9126 17.8232 16.9126 17.8229 16.9126 17.8226C16.9126 17.8223 16.9126 17.8221 16.9126 17.8218C16.9126 17.8215 16.9126 17.8212 16.9126 17.8209C16.9126 17.8207 16.9126 17.8204 16.9126 17.8201C16.9126 17.8198 16.9126 17.8196 16.9126 17.8193C16.9126 17.819 16.9126 17.8188 16.9126 17.8185C16.9126 17.8182 16.9126 17.8179 16.9126 17.8177C16.9126 17.8174 16.9126 17.8171 16.9126 17.8168C16.9126 17.8166 16.9126 17.8163 16.9126 17.816C16.9126 17.8158 16.9126 17.8155 16.9126 17.8152C16.9126 17.8149 16.9126 17.8147 16.9126 17.8144C16.9126 17.8141 16.9126 17.8139 16.9126 17.8136C16.9126 17.8133 16.9126 17.813 16.9126 17.8128C16.9126 17.8125 16.9126 17.8122 16.9126 17.812C16.9126 17.8117 16.9126 17.8114 16.9126 17.8112C16.9126 17.8109 16.9126 17.8106 16.9126 17.8104C16.9126 17.8101 16.9126 17.8098 16.9126 17.8096C16.9126 17.8093 16.9126 17.809 16.9126 17.8088C16.9126 17.8085 16.9126 17.8082 16.9126 17.808C16.9126 17.8077 16.9126 17.8074 16.9126 17.8072C16.9126 17.8069 16.9126 17.8066 16.9126 17.8064C16.9126 17.8061 16.9126 17.8058 16.9126 17.8056C16.9126 17.8053 16.9126 17.805 16.9126 17.8048C16.9126 17.8045 16.9126 17.8043 16.9126 17.804C16.9126 17.8037 16.9126 17.8035 16.9126 17.8032C16.9126 17.8029 16.9126 17.8027 16.9126 17.8024C16.9126 17.8022 16.9126 17.8019 16.9126 17.8016C16.9126 17.8014 16.9126 17.8011 16.9126 17.8009C16.9126 17.8006 16.9126 17.8003 16.9126 17.8001C16.9126 17.7998 16.9126 17.7996 16.9126 17.7993C16.9126 17.799 16.9126 17.7988 16.9126 17.7985C16.9126 17.7983 16.9126 17.798 16.9126 17.7978C16.9126 17.7975 16.9126 17.7972 16.9126 17.797C16.9126 17.7967 16.9126 17.7965 16.9126 17.7962C16.9126 17.7959 16.9126 17.7957 16.9126 17.7954C16.9126 17.7952 16.9126 17.7949 16.9126 17.7947C16.9126 17.7944 16.9126 17.7942 16.9126 17.7939C16.9126 17.7937 16.9126 17.7934 16.9126 17.7931C16.9126 17.7929 16.9126 17.7926 16.9126 17.7924C16.9126 17.7921 16.9126 17.7919 16.9126 17.7916C16.9126 17.7914 16.9126 17.7911 16.9126 17.7909C16.9126 17.7906 16.9126 17.7904 16.9126 17.7901C16.9126 17.7899 16.9126 17.7896 16.9126 17.7894C16.9126 17.7891 16.9126 17.7889 16.9126 17.7886C16.9126 17.7883 16.9126 17.7881 16.9126 17.7878C16.9126 17.7876 16.9126 17.7873 16.9126 17.7871C16.9126 17.7869 16.9126 17.7866 16.9126 17.7864C16.9126 17.7861 16.9126 17.7859 16.9126 17.7856C16.9126 17.7854 16.9126 17.7851 16.9126 17.7849C16.9126 17.7846 16.9126 17.7844 16.9126 17.7841C16.9126 17.7839 16.9126 17.7836 16.9126 17.7834C16.9126 17.7831 16.9126 17.7829 16.9126 17.7826C16.9126 17.7824 16.9126 17.7822 16.9126 17.7819C16.9126 17.7817 16.9126 17.7814 16.9126 17.7812C16.9126 17.7809 16.9126 17.7807 16.9126 17.7804C16.9126 17.7802 16.9126 17.78 16.9126 17.7797C16.9126 17.7795 16.9126 17.7792 16.9126 17.779C16.9126 17.7787 16.9126 17.7785 16.9126 17.7783C16.9126 17.778 16.9126 17.7778 16.9126 17.7775C16.9126 17.7773 16.9126 17.7771 16.9126 17.7768C16.9126 17.7766 16.9126 17.7763 16.9126 17.7761C16.9126 17.7759 16.9126 17.7756 16.9126 17.7754C16.9126 17.7751 16.9126 17.7749 16.9126 17.7747C16.9126 17.7744 16.9126 17.7742 16.9126 17.7739C16.9126 17.7737 16.9126 17.7735 16.9126 17.7732C16.9126 17.773 16.9126 17.7727 16.9126 17.7725C16.9126 17.7723 16.9126 17.772 16.9126 17.7718C16.9126 17.7716 16.9126 17.7713 16.9126 17.7711C16.9126 17.7709 16.9126 17.7706 16.9126 17.7704C16.9126 17.7702 16.9126 17.7699 16.9126 17.7697C16.9126 17.7694 16.9126 17.7692 16.9126 17.769C16.9126 17.7687 16.9126 17.7685 16.9126 17.7683C16.9126 17.768 16.9126 17.7678 16.9126 17.7676C16.9126 17.7673 16.9126 17.7671 16.9126 17.7669C16.9126 17.7666 16.9126 17.7664 16.9126 17.7662C16.9126 17.766 16.9126 17.7657 16.9126 17.7655C16.9126 17.7653 16.9126 17.765 16.9126 17.7648C16.9126 17.7646 16.9126 17.7643 16.9126 17.7641C16.9126 17.7639 16.9126 17.7636 16.9126 17.7634C16.9126 17.7632 16.9126 17.763 16.9126 17.7627C16.9126 17.7625 16.9126 17.7623 16.9126 17.7621C16.9126 17.7618 16.9126 17.7616 16.9126 17.7614C16.9126 17.7611 16.9126 17.7609 16.9126 17.7607C16.9126 17.7605 16.9126 17.7602 16.9126 17.76C16.9126 17.7598 16.9126 17.7596 16.9126 17.7593C16.9126 17.7591 16.9126 17.7589 16.9126 17.7587C16.9126 17.7584 16.9126 17.7582 16.9126 17.758C16.9126 17.7578 16.9126 17.7575 16.9126 17.7573C16.9126 17.7571 16.9126 17.7569 16.9126 17.7566C16.9126 17.7564 16.9126 17.7562 16.9126 17.756C16.9126 17.7557 16.9126 17.7555 16.9126 17.7553C16.9126 17.7551 16.9126 17.7549 16.9126 17.7546C16.9126 17.7544 16.9126 17.7542 16.9126 17.754C16.9126 17.7538 16.9126 17.7535 16.9126 17.7533C16.9126 17.7531 16.9126 17.7529 16.9126 17.7527C16.9126 17.7524 16.9126 17.7522 16.9126 17.752H14.9126C14.9126 17.7522 14.9126 17.7524 14.9126 17.7527C14.9126 17.7529 14.9126 17.7531 14.9126 17.7533C14.9126 17.7535 14.9126 17.7538 14.9126 17.754C14.9126 17.7542 14.9126 17.7544 14.9126 17.7546C14.9126 17.7549 14.9126 17.7551 14.9126 17.7553C14.9126 17.7555 14.9126 17.7557 14.9126 17.756C14.9126 17.7562 14.9126 17.7564 14.9126 17.7566C14.9126 17.7569 14.9126 17.7571 14.9126 17.7573C14.9126 17.7575 14.9126 17.7578 14.9126 17.758C14.9126 17.7582 14.9126 17.7584 14.9126 17.7587C14.9126 17.7589 14.9126 17.7591 14.9126 17.7593C14.9126 17.7596 14.9126 17.7598 14.9126 17.76C14.9126 17.7602 14.9126 17.7605 14.9126 17.7607C14.9126 17.7609 14.9126 17.7611 14.9126 17.7614C14.9126 17.7616 14.9126 17.7618 14.9126 17.7621C14.9126 17.7623 14.9126 17.7625 14.9126 17.7627C14.9126 17.763 14.9126 17.7632 14.9126 17.7634C14.9126 17.7636 14.9126 17.7639 14.9126 17.7641C14.9126 17.7643 14.9126 17.7646 14.9126 17.7648C14.9126 17.765 14.9126 17.7653 14.9126 17.7655C14.9126 17.7657 14.9126 17.766 14.9126 17.7662C14.9126 17.7664 14.9126 17.7666 14.9126 17.7669C14.9126 17.7671 14.9126 17.7673 14.9126 17.7676C14.9126 17.7678 14.9126 17.768 14.9126 17.7683C14.9126 17.7685 14.9126 17.7687 14.9126 17.769C14.9126 17.7692 14.9126 17.7694 14.9126 17.7697C14.9126 17.7699 14.9126 17.7702 14.9126 17.7704C14.9126 17.7706 14.9126 17.7709 14.9126 17.7711C14.9126 17.7713 14.9126 17.7716 14.9126 17.7718C14.9126 17.772 14.9126 17.7723 14.9126 17.7725C14.9126 17.7727 14.9126 17.773 14.9126 17.7732C14.9126 17.7735 14.9126 17.7737 14.9126 17.7739C14.9126 17.7742 14.9126 17.7744 14.9126 17.7747C14.9126 17.7749 14.9126 17.7751 14.9126 17.7754C14.9126 17.7756 14.9126 17.7759 14.9126 17.7761C14.9126 17.7763 14.9126 17.7766 14.9126 17.7768C14.9126 17.7771 14.9126 17.7773 14.9126 17.7775C14.9126 17.7778 14.9126 17.778 14.9126 17.7783C14.9126 17.7785 14.9126 17.7787 14.9126 17.779C14.9126 17.7792 14.9126 17.7795 14.9126 17.7797C14.9126 17.78 14.9126 17.7802 14.9126 17.7804C14.9126 17.7807 14.9126 17.7809 14.9126 17.7812C14.9126 17.7814 14.9126 17.7817 14.9126 17.7819C14.9126 17.7822 14.9126 17.7824 14.9126 17.7826C14.9126 17.7829 14.9126 17.7831 14.9126 17.7834C14.9126 17.7836 14.9126 17.7839 14.9126 17.7841C14.9126 17.7844 14.9126 17.7846 14.9126 17.7849C14.9126 17.7851 14.9126 17.7854 14.9126 17.7856C14.9126 17.7859 14.9126 17.7861 14.9126 17.7864C14.9126 17.7866 14.9126 17.7869 14.9126 17.7871C14.9126 17.7873 14.9126 17.7876 14.9126 17.7878C14.9126 17.7881 14.9126 17.7883 14.9126 17.7886C14.9126 17.7889 14.9126 17.7891 14.9126 17.7894C14.9126 17.7896 14.9126 17.7899 14.9126 17.7901C14.9126 17.7904 14.9126 17.7906 14.9126 17.7909C14.9126 17.7911 14.9126 17.7914 14.9126 17.7916C14.9126 17.7919 14.9126 17.7921 14.9126 17.7924C14.9126 17.7926 14.9126 17.7929 14.9126 17.7931C14.9126 17.7934 14.9126 17.7937 14.9126 17.7939C14.9126 17.7942 14.9126 17.7944 14.9126 17.7947C14.9126 17.7949 14.9126 17.7952 14.9126 17.7954C14.9126 17.7957 14.9126 17.7959 14.9126 17.7962C14.9126 17.7965 14.9126 17.7967 14.9126 17.797C14.9126 17.7972 14.9126 17.7975 14.9126 17.7978C14.9126 17.798 14.9126 17.7983 14.9126 17.7985C14.9126 17.7988 14.9126 17.799 14.9126 17.7993C14.9126 17.7996 14.9126 17.7998 14.9126 17.8001C14.9126 17.8003 14.9126 17.8006 14.9126 17.8009C14.9126 17.8011 14.9126 17.8014 14.9126 17.8016C14.9126 17.8019 14.9126 17.8022 14.9126 17.8024C14.9126 17.8027 14.9126 17.8029 14.9126 17.8032C14.9126 17.8035 14.9126 17.8037 14.9126 17.804C14.9126 17.8043 14.9126 17.8045 14.9126 17.8048C14.9126 17.805 14.9126 17.8053 14.9126 17.8056C14.9126 17.8058 14.9126 17.8061 14.9126 17.8064C14.9126 17.8066 14.9126 17.8069 14.9126 17.8072C14.9126 17.8074 14.9126 17.8077 14.9126 17.808C14.9126 17.8082 14.9126 17.8085 14.9126 17.8088C14.9126 17.809 14.9126 17.8093 14.9126 17.8096C14.9126 17.8098 14.9126 17.8101 14.9126 17.8104C14.9126 17.8106 14.9126 17.8109 14.9126 17.8112C14.9126 17.8114 14.9126 17.8117 14.9126 17.812C14.9126 17.8122 14.9126 17.8125 14.9126 17.8128C14.9126 17.813 14.9126 17.8133 14.9126 17.8136C14.9126 17.8139 14.9126 17.8141 14.9126 17.8144C14.9126 17.8147 14.9126 17.8149 14.9126 17.8152C14.9126 17.8155 14.9126 17.8158 14.9126 17.816C14.9126 17.8163 14.9126 17.8166 14.9126 17.8168C14.9126 17.8171 14.9126 17.8174 14.9126 17.8177C14.9126 17.8179 14.9126 17.8182 14.9126 17.8185C14.9126 17.8188 14.9126 17.819 14.9126 17.8193C14.9126 17.8196 14.9126 17.8198 14.9126 17.8201C14.9126 17.8204 14.9126 17.8207 14.9126 17.8209C14.9126 17.8212 14.9126 17.8215 14.9126 17.8218C14.9126 17.8221 14.9126 17.8223 14.9126 17.8226C14.9126 17.8229 14.9126 17.8232 14.9126 17.8234C14.9126 17.8237 14.9126 17.824 14.9126 17.8243C14.9126 17.8245 14.9126 17.8248 14.9126 17.8251C14.9126 17.8254 14.9126 17.8257 14.9126 17.8259C14.9126 17.8262 14.9126 17.8265 14.9126 17.8268C14.9126 17.8271 14.9126 17.8273 14.9126 17.8276C14.9126 17.8279 14.9126 17.8282 14.9126 17.8285C14.9126 17.8287 14.9126 17.829 14.9126 17.8293C14.9126 17.8296 14.9126 17.8299 14.9126 17.8302C14.9126 17.8304 14.9126 17.8307 14.9126 17.831C14.9126 17.8313 14.9126 17.8316 14.9126 17.8319C14.9126 17.8321 14.9126 17.8324 14.9126 17.8327C14.9126 17.833 14.9126 17.8333 14.9126 17.8336C14.9126 17.8338 14.9126 17.8341 14.9126 17.8344C14.9126 17.8347 14.9126 17.835 14.9126 17.8353C14.9126 17.8356 14.9126 17.8358 14.9126 17.8361C14.9126 17.8364 14.9126 17.8367 14.9126 17.837C14.9126 17.8373 14.9126 17.8376 14.9126 17.8378C14.9126 17.8381 14.9126 17.8384 14.9126 17.8387C14.9126 17.839 14.9126 17.8393 14.9126 17.8396C14.9126 17.8399 14.9126 17.8402 14.9126 17.8404C14.9126 17.8407 14.9126 17.841 14.9126 17.8413C14.9126 17.8416 14.9126 17.8419 14.9126 17.8422C14.9126 17.8425 14.9126 17.8428 14.9126 17.8431C14.9126 17.8433 14.9126 17.8436 14.9126 17.8439C14.9126 17.8442 14.9126 17.8445 14.9126 17.8448C14.9126 17.8451 14.9126 17.8454 14.9126 17.8457C14.9126 17.846 14.9126 17.8463 14.9126 17.8466C14.9126 17.8469 14.9126 17.8472 14.9126 17.8475C14.9126 17.8477 14.9126 17.848 14.9126 17.8483C14.9126 17.8486 14.9126 17.8489 14.9126 17.8492C14.9126 17.8495 14.9126 17.8498 14.9126 17.8501C14.9126 17.8504 14.9126 17.8507 14.9126 17.851C14.9126 17.8513 14.9126 17.8516 14.9126 17.8519C14.9126 17.8522 14.9126 17.8525 14.9126 17.8528C14.9126 17.8531 14.9126 17.8534 14.9126 17.8537C14.9126 17.854 14.9126 17.8543 14.9126 17.8546C14.9126 17.8549 14.9126 17.8552 14.9126 17.8555C14.9126 17.8558 14.9126 17.8561 14.9126 17.8564C14.9126 17.8567 14.9126 17.857 14.9126 17.8573C14.9126 17.8576 14.9126 17.8579 14.9126 17.8582C14.9126 17.8585 14.9126 17.8588 14.9126 17.8591C14.9126 17.8594 14.9126 17.8597 14.9126 17.86C14.9126 17.8603 14.9126 17.8606 14.9126 17.8609C14.9126 17.8612 14.9126 17.8615 14.9126 17.8618C14.9126 17.8621 14.9126 17.8624 14.9126 17.8627C14.9126 17.863 14.9126 17.8633 14.9126 17.8636C14.9126 17.864 14.9126 17.8643 14.9126 17.8646C14.9126 17.8649 14.9126 17.8652 14.9126 17.8655C14.9126 17.8658 14.9126 17.8661 14.9126 17.8664C14.9126 17.8667 14.9126 17.867 14.9126 17.8673C14.9126 17.8676 14.9126 17.8679 14.9126 17.8683C14.9126 17.8686 14.9126 17.8689 14.9126 17.8692C14.9126 17.8695 14.9126 17.8698 14.9126 17.8701C14.9126 17.8704 14.9126 17.8707 14.9126 17.871C14.9126 17.8713 14.9126 17.8717 14.9126 17.872C14.9126 17.8723 14.9126 17.8726 14.9126 17.8729C14.9126 17.8732 14.9126 17.8735 14.9126 17.8738C14.9126 17.8741 14.9126 17.8745 14.9126 17.8748C14.9126 17.8751 14.9126 17.8754 14.9126 17.8757C14.9126 17.876 14.9126 17.8763 14.9126 17.8767C14.9126 17.877 14.9126 17.8773 14.9126 17.8776C14.9126 17.8779 14.9126 17.8782 14.9126 17.8785C14.9126 17.8789 14.9126 17.8792 14.9126 17.8795C14.9126 17.8798 14.9126 17.8801 14.9126 17.8804C14.9126 17.8808 14.9126 17.8811 14.9126 17.8814C14.9126 17.8817 14.9126 17.882 14.9126 17.8823C14.9126 17.8827 14.9126 17.883 14.9126 17.8833C14.9126 17.8836 14.9126 17.8839 14.9126 17.8842C14.9126 17.8846 14.9126 17.8849 14.9126 17.8852C14.9126 17.8855 14.9126 17.8858 14.9126 17.8862C14.9126 17.8865 14.9126 17.8868 14.9126 17.8871C14.9126 17.8874 14.9126 17.8878 14.9126 17.8881C14.9126 17.8884 14.9126 17.8887 14.9126 17.8891C14.9126 17.8894 14.9126 17.8897 14.9126 17.89C14.9126 17.8903 14.9126 17.8907 14.9126 17.891C14.9126 17.8913 14.9126 17.8916 14.9126 17.892C14.9126 17.8923 14.9126 17.8926 14.9126 17.8929C14.9126 17.8933 14.9126 17.8936 14.9126 17.8939C14.9126 17.8942 14.9126 17.8946 14.9126 17.8949C14.9126 17.8952 14.9126 17.8955 14.9126 17.8959C14.9126 17.8962 14.9126 17.8965 14.9126 17.8968C14.9126 17.8972 14.9126 17.8975 14.9126 17.8978C14.9126 17.8981 14.9126 17.8985 14.9126 17.8988C14.9126 17.8991 14.9126 17.8995 14.9126 17.8998C14.9126 17.9001 14.9126 17.9004 14.9126 17.9008C14.9126 17.9011 14.9126 17.9014 14.9126 17.9018C14.9126 17.9021 14.9126 17.9024 14.9126 17.9028C14.9126 17.9031 14.9126 17.9034 14.9126 17.9037C14.9126 17.9041 14.9126 17.9044 14.9126 17.9047C14.9126 17.9051 14.9126 17.9054 14.9126 17.9057C14.9126 17.9061 14.9126 17.9064 14.9126 17.9067C14.9126 17.9071 14.9126 17.9074 14.9126 17.9077C14.9126 17.9081 14.9126 17.9084 14.9126 17.9087C14.9126 17.9091 14.9126 17.9094 14.9126 17.9097C14.9126 17.9101 14.9126 17.9104 14.9126 17.9107C14.9126 17.9111 14.9126 17.9114 14.9126 17.9118C14.9126 17.9121 14.9126 17.9124 14.9126 17.9128C14.9126 17.9131 14.9126 17.9134 14.9126 17.9138C14.9126 17.9141 14.9126 17.9144 14.9126 17.9148C14.9126 17.9151 14.9126 17.9155 14.9126 17.9158C14.9126 17.9161 14.9126 17.9165 14.9126 17.9168C14.9126 17.9172 14.9126 17.9175 14.9126 17.9178C14.9126 17.9182 14.9126 17.9185 14.9126 17.9188C14.9126 17.9192 14.9126 17.9195 14.9126 17.9199C14.9126 17.9202 14.9126 17.9206 14.9126 17.9209C14.9126 17.9212 14.9126 17.9216 14.9126 17.9219C14.9126 17.9223 14.9126 17.9226 14.9126 17.9229C14.9126 17.9233 14.9126 17.9236 14.9126 17.924C14.9126 17.9243 14.9126 17.9247 14.9126 17.925C14.9126 17.9254 14.9126 17.9257 14.9126 17.926C14.9126 17.9264 14.9126 17.9267 14.9126 17.9271C14.9126 17.9274 14.9126 17.9278 14.9126 17.9281C14.9126 17.9285 14.9126 17.9288 14.9126 17.9291C14.9126 17.9295 14.9126 17.9298 14.9126 17.9302C14.9126 17.9305 14.9126 17.9309 14.9126 17.9312C14.9126 17.9316 14.9126 17.9319 14.9126 17.9323C14.9126 17.9326 14.9126 17.933 14.9126 17.9333C14.9126 17.9337 14.9126 17.934 14.9126 17.9344C14.9126 17.9347 14.9126 17.9351 14.9126 17.9354C14.9126 17.9358 14.9126 17.9361 14.9126 17.9365C14.9126 17.9368 14.9126 17.9372 14.9126 17.9375C14.9126 17.9379 14.9126 17.9382 14.9126 17.9386C14.9126 17.9389 14.9126 17.9393 14.9126 17.9396C14.9126 17.94 14.9126 17.9403 14.9126 17.9407C14.9126 17.941 14.9126 17.9414 14.9126 17.9417C14.9126 17.9421 14.9126 17.9425 14.9126 17.9428C14.9126 17.9432 14.9126 17.9435 14.9126 17.9439C14.9126 17.9442 14.9126 17.9446 14.9126 17.9449C14.9126 17.9453 14.9126 17.9456 14.9126 17.946C14.9126 17.9464 14.9126 17.9467 14.9126 17.9471C14.9126 17.9474 14.9126 17.9478 14.9126 17.9481C14.9126 17.9485 14.9126 17.9489 14.9126 17.9492C14.9126 17.9496 14.9126 17.9499 14.9126 17.9503C14.9126 17.9507 14.9126 17.951 14.9126 17.9514C14.9126 17.9517 14.9126 17.9521 14.9126 17.9524C14.9126 17.9528 14.9126 17.9532 14.9126 17.9535C14.9126 17.9539 14.9126 17.9542 14.9126 17.9546C14.9126 17.955 14.9126 17.9553 14.9126 17.9557C14.9126 17.9561 14.9126 17.9564 14.9126 17.9568C14.9126 17.9571 14.9126 17.9575 14.9126 17.9579C14.9126 17.9582 14.9126 17.9586 14.9126 17.959C14.9126 17.9593 14.9126 17.9597 14.9126 17.96C14.9126 17.9604 14.9126 17.9608 14.9126 17.9611C14.9126 17.9615 14.9126 17.9619 14.9126 17.9622C14.9126 17.9626 14.9126 17.963 14.9126 17.9633C14.9126 17.9637 14.9126 17.9641 14.9126 17.9644C14.9126 17.9648 14.9126 17.9652 14.9126 17.9655C14.9126 17.9659 14.9126 17.9663 14.9126 17.9666C14.9126 17.967 14.9126 17.9674 14.9126 17.9677C14.9126 17.9681 14.9126 17.9685 14.9126 17.9688C14.9126 17.9692 14.9126 17.9696 14.9126 17.9699C14.9126 17.9703 14.9126 17.9707 14.9126 17.9711C14.9126 17.9714 14.9126 17.9718 14.9126 17.9722C14.9126 17.9725 14.9126 17.9729 14.9126 17.9733C14.9126 17.9737 14.9126 17.974 14.9126 17.9744C14.9126 17.9748 14.9126 17.9751 14.9126 17.9755C14.9126 17.9759 14.9126 17.9763 14.9126 17.9766C14.9126 17.977 14.9126 17.9774 14.9126 17.9778C14.9126 17.9781 14.9126 17.9785 14.9126 17.9789C14.9126 17.9792 14.9126 17.9796 14.9126 17.98C14.9126 17.9804 14.9126 17.9808 14.9126 17.9811C14.9126 17.9815 14.9126 17.9819 14.9126 17.9823C14.9126 17.9826 14.9126 17.983 14.9126 17.9834C14.9126 17.9838 14.9126 17.9841 14.9126 17.9845C14.9126 17.9849 14.9126 17.9853 14.9126 17.9856C14.9126 17.986 14.9126 17.9864 14.9126 17.9868C14.9126 17.9872 14.9126 17.9875 14.9126 17.9879C14.9126 17.9883 14.9126 17.9887 14.9126 17.9891C14.9126 17.9894 14.9126 17.9898 14.9126 17.9902C14.9126 17.9906 14.9126 17.991 14.9126 17.9913C14.9126 17.9917 14.9126 17.9921 14.9126 17.9925C14.9126 17.9929 14.9126 17.9932 14.9126 17.9936C14.9126 17.994 14.9126 17.9944 14.9126 17.9948C14.9126 17.9952 14.9126 17.9955 14.9126 17.9959C14.9126 17.9963 14.9126 17.9967 14.9126 17.9971C14.9126 17.9975 14.9126 17.9979 14.9126 17.9982C14.9126 17.9986 14.9126 17.999 14.9126 17.9994C14.9126 17.9998 14.9126 18.0002 14.9126 18.0005C14.9126 18.0009 14.9126 18.0013 14.9126 18.0017C14.9126 18.0021 14.9126 18.0025 14.9126 18.0029C14.9126 18.0033 14.9126 18.0036 14.9126 18.004C14.9126 18.0044 14.9126 18.0048 14.9126 18.0052C14.9126 18.0056 14.9126 18.006 14.9126 18.0064C14.9126 18.0067 14.9126 18.0071 14.9126 18.0075C14.9126 18.0079 14.9126 18.0083 14.9126 18.0087C14.9126 18.0091 14.9126 18.0095 14.9126 18.0099C14.9126 18.0103 14.9126 18.0107 14.9126 18.011C14.9126 18.0114 14.9126 18.0118 14.9126 18.0122C14.9126 18.0126 14.9126 18.013 14.9126 18.0134C14.9126 18.0138 14.9126 18.0142 14.9126 18.0146C14.9126 18.015 14.9126 18.0154 14.9126 18.0158C14.9126 18.0161 14.9126 18.0165 14.9126 18.0169C14.9126 18.0173 14.9126 18.0177 14.9126 18.0181C14.9126 18.0185 14.9126 18.0189 14.9126 18.0193C14.9126 18.0197 14.9126 18.0201 14.9126 18.0205C14.9126 18.0209 14.9126 18.0213 14.9126 18.0217C14.9126 18.0221 14.9126 18.0225 14.9126 18.0229C14.9126 18.0233 14.9126 18.0237 14.9126 18.0241C14.9126 18.0245 14.9126 18.0249 14.9126 18.0253C14.9126 18.0257 14.9126 18.0261 14.9126 18.0265C14.9126 18.0269 14.9126 18.0273 14.9126 18.0277C14.9126 18.0281 14.9126 18.0285 14.9126 18.0289C14.9126 18.0293 14.9126 18.0297 14.9126 18.0301C14.9126 18.0305 14.9126 18.0309 14.9126 18.0313C14.9126 18.0317 14.9126 18.0321 14.9126 18.0325C14.9126 18.0329 14.9126 18.0333 14.9126 18.0337C14.9126 18.0341 14.9126 18.0345 14.9126 18.0349C14.9126 18.0353 14.9126 18.0357 14.9126 18.0361C14.9126 18.0365 14.9126 18.0369 14.9126 18.0373C14.9126 18.0377 14.9126 18.0381 14.9126 18.0385C14.9126 18.0389 14.9126 18.0394 14.9126 18.0398C14.9126 18.0402 14.9126 18.0406 14.9126 18.041C14.9126 18.0414 14.9126 18.0418 14.9126 18.0422C14.9126 18.0426 14.9126 18.043 14.9126 18.0434C14.9126 18.0438 14.9126 18.0442 14.9126 18.0446C14.9126 18.0451 14.9126 18.0455 14.9126 18.0459C14.9126 18.0463 14.9126 18.0467 14.9126 18.0471C14.9126 18.0475 14.9126 18.0479 14.9126 18.0483C14.9126 18.0487 14.9126 18.0492 14.9126 18.0496C14.9126 18.05 14.9126 18.0504 14.9126 18.0508C14.9126 18.0512 14.9126 18.0516 14.9126 18.052C14.9126 18.0524 14.9126 18.0529 14.9126 18.0533C14.9126 18.0537 14.9126 18.0541 14.9126 18.0545C14.9126 18.0549 14.9126 18.0553 14.9126 18.0557C14.9126 18.0562 14.9126 18.0566 14.9126 18.057C14.9126 18.0574 14.9126 18.0578 14.9126 18.0582C14.9126 18.0587 14.9126 18.0591 14.9126 18.0595C14.9126 18.0599 14.9126 18.0603 14.9126 18.0607C14.9126 18.0611 14.9126 18.0616 14.9126 18.062C14.9126 18.0624 14.9126 18.0628 14.9126 18.0632C14.9126 18.0637 14.9126 18.0641 14.9126 18.0645C14.9126 18.0649 14.9126 18.0653 14.9126 18.0657C14.9126 18.0662 14.9126 18.0666 14.9126 18.067C14.9126 18.0674 14.9126 18.0678 14.9126 18.0683C14.9126 18.0687 14.9126 18.0691 14.9126 18.0695C14.9126 18.0699 14.9126 18.0704 14.9126 18.0708C14.9126 18.0712 14.9126 18.0716 14.9126 18.0721C14.9126 18.0725 14.9126 18.0729 14.9126 18.0733C14.9126 18.0737 14.9126 18.0742 14.9126 18.0746C14.9126 18.075 14.9126 18.0754 14.9126 18.0759C14.9126 18.0763 14.9126 18.0767 14.9126 18.0771C14.9126 18.0776 14.9126 18.078 14.9126 18.0784C14.9126 18.0788 14.9126 18.0793 14.9126 18.0797C14.9126 18.0801 14.9126 18.0805 14.9126 18.081C14.9126 18.0814 14.9126 18.0818 14.9126 18.0822C14.9126 18.0827 14.9126 18.0831 14.9126 18.0835C14.9126 18.0839 14.9126 18.0844 14.9126 18.0848C14.9126 18.0852 14.9126 18.0857 14.9126 18.0861C14.9126 18.0865 14.9126 18.0869 14.9126 18.0874C14.9126 18.0878 14.9126 18.0882 14.9126 18.0887C14.9126 18.0891 14.9126 18.0895 14.9126 18.09C14.9126 18.0904 14.9126 18.0908 14.9126 18.0912C14.9126 18.0917 14.9126 18.0921 14.9126 18.0925C14.9126 18.093 14.9126 18.0934 14.9126 18.0938C14.9126 18.0943 14.9126 18.0947 14.9126 18.0951C14.9126 18.0956 14.9126 18.096 14.9126 18.0964C14.9126 18.0969 14.9126 18.0973 14.9126 18.0977C14.9126 18.0982 14.9126 18.0986 14.9126 18.099C14.9126 18.0995 14.9126 18.0999 14.9126 18.1003C14.9126 18.1008 14.9126 18.1012 14.9126 18.1017C14.9126 18.1021 14.9126 18.1025 14.9126 18.103C14.9126 18.1034 14.9126 18.1038 14.9126 18.1043C14.9126 18.1047 14.9126 18.1052 14.9126 18.1056C14.9126 18.106 14.9126 18.1065 14.9126 18.1069C14.9126 18.1073 14.9126 18.1078 14.9126 18.1082C14.9126 18.1087 14.9126 18.1091 14.9126 18.1095C14.9126 18.11 14.9126 18.1104 14.9126 18.1109C14.9126 18.1113 14.9126 18.1117 14.9126 18.1122C14.9126 18.1126 14.9126 18.1131 14.9126 18.1135C14.9126 18.1139 14.9126 18.1144 14.9126 18.1148C14.9126 18.1153 14.9126 18.1157 14.9126 18.1162C14.9126 18.1166 14.9126 18.117 14.9126 18.1175C14.9126 18.1179 14.9126 18.1184 14.9126 18.1188C14.9126 18.1193 14.9126 18.1197 14.9126 18.1201C14.9126 18.1206 14.9126 18.121 14.9126 18.1215C14.9126 18.1219 14.9126 18.1224 14.9126 18.1228C14.9126 18.1233 14.9126 18.1237 14.9126 18.1242C14.9126 18.1246 14.9126 18.1251 14.9126 18.1255C14.9126 18.1259 14.9126 18.1264 14.9126 18.1268C14.9126 18.1273 14.9126 18.1277 14.9126 18.1282C14.9126 18.1286 14.9126 18.1291 14.9126 18.1295C14.9126 18.13 14.9126 18.1304 14.9126 18.1309C14.9126 18.1313 14.9126 18.1318 14.9126 18.1322C14.9126 18.1327 14.9126 18.1331 14.9126 18.1336C14.9126 18.134 14.9126 18.1345 14.9126 18.1349C14.9126 18.1354 14.9126 18.1358 14.9126 18.1363C14.9126 18.1367 14.9126 18.1372 14.9126 18.1376C14.9126 18.1381 14.9126 18.1385 14.9126 18.139C14.9126 18.1395 14.9126 18.1399 14.9126 18.1404C14.9126 18.1408 14.9126 18.1413 14.9126 18.1417C14.9126 18.1422 14.9126 18.1426 14.9126 18.1431C14.9126 18.1435 14.9126 18.144 14.9126 18.1445C14.9126 18.1449 14.9126 18.1454 14.9126 18.1458C14.9126 18.1463 14.9126 18.1467 14.9126 18.1472C14.9126 18.1476 14.9126 18.1481 14.9126 18.1486C14.9126 18.149 14.9126 18.1495 14.9126 18.1499C14.9126 18.1504 14.9126 18.1509 14.9126 18.1513C14.9126 18.1518 14.9126 18.1522 14.9126 18.1527C14.9126 18.1531 14.9126 18.1536 14.9126 18.1541C14.9126 18.1545 14.9126 18.155 14.9126 18.1554C14.9126 18.1559 14.9126 18.1564 14.9126 18.1568C14.9126 18.1573 14.9126 18.1577 14.9126 18.1582C14.9126 18.1587 14.9126 18.1591 14.9126 18.1596C14.9126 18.1601 14.9126 18.1605 14.9126 18.161C14.9126 18.1614 14.9126 18.1619 14.9126 18.1624C14.9126 18.1628 14.9126 18.1633 14.9126 18.1638C14.9126 18.1642 14.9126 18.1647 14.9126 18.1652C14.9126 18.1656 14.9126 18.1661 14.9126 18.1666C14.9126 18.167 14.9126 18.1675 14.9126 18.1679C14.9126 18.1684 14.9126 18.1689 14.9126 18.1693C14.9126 18.1698 14.9126 18.1703 14.9126 18.1707C14.9126 18.1712 14.9126 18.1717 14.9126 18.1722C14.9126 18.1726 14.9126 18.1731 14.9126 18.1736C14.9126 18.174 14.9126 18.1745 14.9126 18.175C14.9126 18.1754 14.9126 18.1759 14.9126 18.1764C14.9126 18.1768 14.9126 18.1773 14.9126 18.1778C14.9126 18.1783 14.9126 18.1787 14.9126 18.1792C14.9126 18.1797 14.9126 18.1801 14.9126 18.1806C14.9126 18.1811 14.9126 18.1815 14.9126 18.182C14.9126 18.1825 14.9126 18.183 14.9126 18.1834C14.9126 18.1839 14.9126 18.1844 14.9126 18.1849C14.9126 18.1853 14.9126 18.1858 14.9126 18.1863C14.9126 18.1868 14.9126 18.1872 14.9126 18.1877C14.9126 18.1882 14.9126 18.1886 14.9126 18.1891C14.9126 18.1896 14.9126 18.1901 14.9126 18.1905C14.9126 18.191 14.9126 18.1915 14.9126 18.192C14.9126 18.1925 14.9126 18.1929 14.9126 18.1934C14.9126 18.1939 14.9126 18.1944 14.9126 18.1948C14.9126 18.1953 14.9126 18.1958 14.9126 18.1963C14.9126 18.1968 14.9126 18.1972 14.9126 18.1977C14.9126 18.1982 14.9126 18.1987 14.9126 18.1991C14.9126 18.1996 14.9126 18.2001 14.9126 18.2006C14.9126 18.2011 14.9126 18.2015 14.9126 18.202C14.9126 18.2025 14.9126 18.203 14.9126 18.2035C14.9126 18.2039 14.9126 18.2044 14.9126 18.2049C14.9126 18.2054 14.9126 18.2059 14.9126 18.2064C14.9126 18.2068 14.9126 18.2073 14.9126 18.2078C14.9126 18.2083 14.9126 18.2088 14.9126 18.2093C14.9126 18.2097 14.9126 18.2102 14.9126 18.2107C14.9126 18.2112 14.9126 18.2117 14.9126 18.2122C14.9126 18.2126 14.9126 18.2131 14.9126 18.2136C14.9126 18.2141 14.9126 18.2146 14.9126 18.2151C14.9126 18.2156 14.9126 18.216 14.9126 18.2165C14.9126 18.217 14.9126 18.2175 14.9126 18.218C14.9126 18.2185 14.9126 18.219 14.9126 18.2195C14.9126 18.2199 14.9126 18.2204 14.9126 18.2209C14.9126 18.2214 14.9126 18.2219 14.9126 18.2224C14.9126 18.2229 14.9126 18.2234 14.9126 18.2239C14.9126 18.2243 14.9126 18.2248 14.9126 18.2253C14.9126 18.2258 14.9126 18.2263 14.9126 18.2268C14.9126 18.2273 14.9126 18.2278 14.9126 18.2283C14.9126 18.2288 14.9126 18.2293 14.9126 18.2297C14.9126 18.2302 14.9126 18.2307 14.9126 18.2312C14.9126 18.2317 14.9126 18.2322 14.9126 18.2327C14.9126 18.2332 14.9126 18.2337 14.9126 18.2342C14.9126 18.2347 14.9126 18.2352 14.9126 18.2357C14.9126 18.2362 14.9126 18.2367 14.9126 18.2372C14.9126 18.2377 14.9126 18.2381 14.9126 18.2386C14.9126 18.2391 14.9126 18.2396 14.9126 18.2401C14.9126 18.2406 14.9126 18.2411 14.9126 18.2416C14.9126 18.2421 14.9126 18.2426 14.9126 18.2431C14.9126 18.2436 14.9126 18.2441 14.9126 18.2446C14.9126 18.2451 14.9126 18.2456 14.9126 18.2461C14.9126 18.2466 14.9126 18.2471 14.9126 18.2476C14.9126 18.2481 14.9126 18.2486 14.9126 18.2491C14.9126 18.2496 14.9126 18.2501 14.9126 18.2506C14.9126 18.2511 14.9126 18.2516 14.9126 18.2521C14.9126 18.2526 14.9126 18.2531 14.9126 18.2536C14.9126 18.2541 14.9126 18.2546 14.9126 18.2551C14.9126 18.2556 14.9126 18.2561 14.9126 18.2566C14.9126 18.2571 14.9126 18.2576 14.9126 18.2581C14.9126 18.2586 14.9126 18.2591 14.9126 18.2596C14.9126 18.2602 14.9126 18.2607 14.9126 18.2612C14.9126 18.2617 14.9126 18.2622 14.9126 18.2627C14.9126 18.2632 14.9126 18.2637 14.9126 18.2642C14.9126 18.2647 14.9126 18.2652 14.9126 18.2657C14.9126 18.2662 14.9126 18.2667 14.9126 18.2672C14.9126 18.2677 14.9126 18.2683 14.9126 18.2688C14.9126 18.2693 14.9126 18.2698 14.9126 18.2703C14.9126 18.2708 14.9126 18.2713 14.9126 18.2718C14.9126 18.2723 14.9126 18.2728 14.9126 18.2733C14.9126 18.2738 14.9126 18.2744 14.9126 18.2749C14.9126 18.2754 14.9126 18.2759 14.9126 18.2764C14.9126 18.2769 14.9126 18.2774 14.9126 18.2779C14.9126 18.2785 14.9126 18.279 14.9126 18.2795C14.9126 18.28 14.9126 18.2805 14.9126 18.281C14.9126 18.2815 14.9126 18.282 14.9126 18.2826C14.9126 18.2831 14.9126 18.2836 14.9126 18.2841C14.9126 18.2846 14.9126 18.2851 14.9126 18.2856C14.9126 18.2861 14.9126 18.2867 14.9126 18.2872C14.9126 18.2877 14.9126 18.2882 14.9126 18.2887C14.9126 18.2892 14.9126 18.2898 14.9126 18.2903C14.9126 18.2908 14.9126 18.2913 14.9126 18.2918C14.9126 18.2923 14.9126 18.2929 14.9126 18.2934C14.9126 18.2939 14.9126 18.2944 14.9126 18.2949C14.9126 18.2955 14.9126 18.296 14.9126 18.2965C14.9126 18.297 14.9126 18.2975 14.9126 18.298C14.9126 18.2986 14.9126 18.2991 14.9126 18.2996C14.9126 18.3001 14.9126 18.3006 14.9126 18.3012C14.9126 18.3017 14.9126 18.3022 14.9126 18.3027C14.9126 18.3033 14.9126 18.3038 14.9126 18.3043C14.9126 18.3048 14.9126 18.3053 14.9126 18.3059C14.9126 18.3064 14.9126 18.3069 14.9126 18.3074C14.9126 18.308 14.9126 18.3085 14.9126 18.309C14.9126 18.3095 14.9126 18.3101 14.9126 18.3106C14.9126 18.3111 14.9126 18.3116 14.9126 18.3122C14.9126 18.3127 14.9126 18.3132 14.9126 18.3137C14.9126 18.3143 14.9126 18.3148 14.9126 18.3153C14.9126 18.3158 14.9126 18.3164 14.9126 18.3169C14.9126 18.3174 14.9126 18.3179 14.9126 18.3185C14.9126 18.319 14.9126 18.3195 14.9126 18.3201C14.9126 18.3206 14.9126 18.3211 14.9126 18.3216C14.9126 18.3222 14.9126 18.3227 14.9126 18.3232C14.9126 18.3238 14.9126 18.3243 14.9126 18.3248C14.9126 18.3253 14.9126 18.3259 14.9126 18.3264C14.9126 18.3269 14.9126 18.3275 14.9126 18.328H16.9126ZM16.9126 17.752C16.9126 17.0892 17.0159 16.5058 17.209 15.9911L15.3363 15.2889C15.0493 16.0542 14.9126 16.8788 14.9126 17.752H16.9126ZM17.2011 16.0114C17.4263 15.4483 17.7134 14.9308 18.0623 14.4564L16.451 13.2716C15.9998 13.8852 15.6309 14.5517 15.3441 15.2686L17.2011 16.0114ZM18.0704 14.4452C18.4351 13.9347 18.8434 13.4606 19.296 13.0226L17.9052 11.5854C17.3658 12.1074 16.8782 12.6733 16.4429 13.2828L18.0704 14.4452ZM19.2846 13.0335C19.8004 12.55 20.3082 12.0663 20.808 11.5826L19.4172 10.1454C18.9251 10.6217 18.4249 11.098 17.9167 11.5745L19.2846 13.0335ZM20.8045 11.586C21.1879 11.2186 21.5471 10.8753 21.8823 10.5561L20.503 9.10786C20.1661 9.42867 19.8054 9.77339 19.4207 10.142L20.8045 11.586ZM21.8997 10.5391C22.2521 10.1867 22.568 9.84566 22.8455 9.51614L21.3157 8.22786C21.0812 8.50634 20.8051 8.80529 20.4855 9.12489L21.8997 10.5391ZM22.8615 9.49669C23.1558 9.12877 23.4009 8.75141 23.5844 8.36409L21.7769 7.50791C21.6724 7.72859 21.5174 7.97523 21.2998 8.2473L22.8615 9.49669ZM23.5925 8.34636C23.7889 7.90993 23.8966 7.45065 23.8966 6.976H21.8966C21.8966 7.14135 21.8603 7.32207 21.7687 7.52563L23.5925 8.34636ZM23.8966 6.976C23.8966 6.09704 23.6417 5.22422 22.8809 4.67647L21.7123 6.29953C21.7516 6.32778 21.8966 6.44696 21.8966 6.976H23.8966ZM22.8809 4.67647C22.2788 4.24292 21.5672 4.056 20.8086 4.056V6.056C21.2341 6.056 21.5145 6.15708 21.7123 6.29953L22.8809 4.67647ZM20.8086 4.056C20.2632 4.056 19.7357 4.14735 19.2335 4.33567L19.9357 6.20833C20.2016 6.10865 20.4901 6.056 20.8086 6.056V4.056ZM19.2561 4.3275C18.8261 4.47706 18.4195 4.66568 18.0381 4.89451L19.0671 6.60949C19.3257 6.45432 19.6071 6.32294 19.9131 6.2165L19.2561 4.3275ZM18.0516 4.88657C17.7042 5.08768 17.3882 5.30615 17.1098 5.54474L18.4114 7.06326C18.5811 6.91785 18.793 6.76832 19.0537 6.61742L18.0516 4.88657ZM17.1428 5.51768C16.908 5.7022 16.7035 5.87492 16.5495 6.02889L17.9637 7.44311C18.0338 7.37308 18.1653 7.2578 18.3784 7.09032L17.1428 5.51768ZM18.0714 6.15624L16.2954 3.66024L14.6658 4.81976L16.4418 7.31575L18.0714 6.15624ZM16.1624 4.97161C16.7815 4.39464 17.5042 3.91816 18.3377 3.54451L17.5196 1.71949C16.4971 2.17784 15.5877 2.77336 14.7989 3.50839L16.1624 4.97161ZM18.3447 3.54131C19.1539 3.17104 20.0194 2.984 20.9526 2.984V0.983999C19.7418 0.983999 18.5914 1.22896 17.5125 1.72269L18.3447 3.54131ZM20.9526 2.984C21.8567 2.984 22.5892 3.0883 23.1694 3.27292L23.7758 1.36707C22.9481 1.1037 22.0005 0.983999 20.9526 0.983999V2.984ZM23.1694 3.27292C23.7618 3.4614 24.2003 3.71578 24.5202 4.01279L25.8811 2.54721C25.3049 2.01222 24.5915 1.6266 23.7758 1.36707L23.1694 3.27292ZM24.5477 4.03741C24.876 4.3204 25.1136 4.66822 25.2652 5.09949L27.1521 4.43651C26.8876 3.68377 26.4533 3.03959 25.8536 2.52259L24.5477 4.03741ZM25.2766 5.13044C25.448 5.57113 25.5446 6.10085 25.5446 6.736H27.5446C27.5446 5.89915 27.4173 5.11687 27.1406 4.40555L25.2766 5.13044Z" fill="#B5B5B6"/>
</svg>
