<svg width="28" height="21" viewBox="0 0 28 21" fill="none" xmlns="http://www.w3.org/2000/svg">
<path d="M12.208 17.104L11.3937 16.5236L11.3925 16.5253L12.208 17.104ZM3.4 17.104L2.58153 17.6787L2.58863 17.6885L3.4 17.104ZM2.224 6.952L1.25815 6.69252L1.25471 6.70606L2.224 6.952ZM5.344 2.56L4.88143 1.67341L4.88143 1.67341L5.344 2.56ZM12.208 4.24L11.3895 4.81467L11.3966 4.82453L12.208 4.24ZM10.048 8.392L9.05469 8.5075L9.05501 8.51021L10.048 8.392ZM9.664 6.616L10.6064 6.28159L10.6064 6.28159L9.664 6.616ZM8.944 5.464L8.27721 6.20924L8.27721 6.20924L8.944 5.464ZM6.688 5.464L6.0212 4.71876L6.01117 4.72774L6.00138 4.73699L6.688 5.464ZM5.968 6.616L5.03543 6.25501L5.03031 6.26823L5.02557 6.28159L5.968 6.616ZM5.584 8.392L6.57699 8.51021L6.57731 8.5075L5.584 8.392ZM5.584 12.928L6.57731 12.8125V12.8125L5.584 12.928ZM5.968 14.704L5.02557 15.0384L5.03031 15.0518L5.03543 15.065L5.968 14.704ZM6.688 15.856L6.00138 16.583L6.01117 16.5923L6.02121 16.6012L6.688 15.856ZM8.944 15.856L9.6108 16.6012L8.944 15.856ZM9.664 14.704L10.6064 15.0384L10.6064 15.0384L9.664 14.704ZM10.048 12.928L9.05469 12.8125L9.05469 12.8125L10.048 12.928ZM12.816 10.648C12.816 13.341 12.2972 15.256 11.3937 16.5236L13.0223 17.6844C14.2628 15.944 14.816 13.555 14.816 10.648H12.816ZM11.3925 16.5253C10.5297 17.741 9.37397 18.336 7.816 18.336V20.336C10.002 20.336 11.7743 19.443 13.0235 17.6827L11.3925 16.5253ZM7.816 18.336C6.2576 18.336 5.09085 17.7402 4.21137 16.5195L2.58863 17.6885C3.85315 19.4438 5.6304 20.336 7.816 20.336V18.336ZM4.21841 16.5294C3.32772 15.2608 2.816 13.3433 2.816 10.648H0.816C0.816 13.5527 1.36028 15.9392 2.58159 17.6786L4.21841 16.5294ZM2.816 10.648C2.816 9.31862 2.94614 8.17199 3.19329 7.19794L1.25471 6.70606C0.957863 7.87601 0.816 9.19338 0.816 10.648H2.816ZM3.18975 7.21146C3.45336 6.23028 3.81646 5.44192 4.26054 4.82291L2.63546 3.65709C2.02354 4.51008 1.57064 5.52972 1.25825 6.69254L3.18975 7.21146ZM4.26054 4.82291C4.70574 4.20233 5.22173 3.75172 5.80657 3.44658L4.88143 1.67341C3.99427 2.13628 3.24626 2.80567 2.63546 3.65709L4.26054 4.82291ZM5.80657 3.44658C6.38607 3.14423 7.04889 2.984 7.816 2.984V0.983999C6.75911 0.983999 5.77393 1.20776 4.88143 1.67341L5.80657 3.44658ZM7.816 2.984C9.36944 2.984 10.5249 3.58316 11.3896 4.81463L13.0264 3.66537C11.7791 1.88884 10.0066 0.983999 7.816 0.983999V2.984ZM11.3966 4.82453C12.2973 6.07474 12.816 7.97146 12.816 10.648H14.816C14.816 7.75654 14.2627 5.38126 13.0194 3.65547L11.3966 4.82453ZM11.168 10.648C11.168 9.78506 11.1266 8.9927 11.041 8.27379L9.05501 8.51021C9.12943 9.1353 9.168 9.84694 9.168 10.648H11.168ZM11.0413 8.2765C10.9552 7.53582 10.814 6.8666 10.6064 6.28159L8.72157 6.95041C8.86599 7.3574 8.98082 7.87218 9.05469 8.5075L11.0413 8.2765ZM10.6064 6.28159C10.3902 5.67231 10.0707 5.13024 9.6108 4.71876L8.27721 6.20924C8.42531 6.34176 8.58577 6.56769 8.72157 6.95041L10.6064 6.28159ZM9.6108 4.71876C9.10486 4.26608 8.48391 4.056 7.816 4.056V6.056C8.04409 6.056 8.17514 6.11792 8.27721 6.20924L9.6108 4.71876ZM7.816 4.056C7.14809 4.056 6.52714 4.26608 6.0212 4.71876L7.3548 6.20924C7.45686 6.11792 7.58791 6.056 7.816 6.056V4.056ZM6.00138 4.73699C5.57474 5.13992 5.26366 5.66542 5.03543 6.25501L6.90057 6.97699C7.05634 6.57458 7.22526 6.33208 7.37462 6.19101L6.00138 4.73699ZM5.02557 6.28159C4.81799 6.8666 4.67682 7.53582 4.59069 8.2765L6.57731 8.5075C6.65118 7.87218 6.76601 7.3574 6.91043 6.95041L5.02557 6.28159ZM4.59101 8.27379C4.50543 8.9927 4.464 9.78506 4.464 10.648H6.464C6.464 9.84694 6.50257 9.1353 6.57699 8.51021L4.59101 8.27379ZM4.464 10.648C4.464 11.5112 4.50546 12.3105 4.59069 13.0435L6.57731 12.8125C6.50255 12.1695 6.464 11.4488 6.464 10.648H4.464ZM4.59069 13.0435C4.67682 13.7842 4.81799 14.4534 5.02557 15.0384L6.91043 14.3696C6.76601 13.9626 6.65118 13.4478 6.57731 12.8125L4.59069 13.0435ZM5.03543 15.065C5.26366 15.6546 5.57474 16.1801 6.00138 16.583L7.37462 15.129C7.22526 14.9879 7.05634 14.7454 6.90057 14.343L5.03543 15.065ZM6.02121 16.6012C6.52714 17.0539 7.14809 17.264 7.816 17.264V15.264C7.58791 15.264 7.45686 15.2021 7.3548 15.1108L6.02121 16.6012ZM7.816 17.264C8.48391 17.264 9.10486 17.0539 9.6108 16.6012L8.27721 15.1108C8.17514 15.2021 8.04409 15.264 7.816 15.264V17.264ZM9.6108 16.6012C10.0707 16.1898 10.3902 15.6477 10.6064 15.0384L8.72157 14.3696C8.58577 14.7523 8.42531 14.9782 8.27721 15.1108L9.6108 16.6012ZM10.6064 15.0384C10.814 14.4534 10.9552 13.7842 11.0413 13.0435L9.05469 12.8125C8.98082 13.4478 8.86599 13.9626 8.72157 14.3696L10.6064 15.0384ZM11.0413 13.0435C11.1265 12.3105 11.168 11.5112 11.168 10.648H9.168C9.168 11.4488 9.12946 12.1695 9.05469 12.8125L11.0413 13.0435ZM18.7446 19.264L18.8768 18.2728L18.8605 18.2706L18.8441 18.269L18.7446 19.264ZM17.3526 19.048L17.5622 18.0702L17.3526 19.048ZM16.1286 18.736L16.4198 17.7793L16.1286 18.736ZM15.2646 18.424L14.2909 18.1963L14.1052 18.9903L14.8456 19.332L15.2646 18.424ZM15.9606 15.448L16.3503 14.527L15.2572 14.0646L14.9869 15.2203L15.9606 15.448ZM17.5446 16.024L17.2355 16.975L17.2496 16.9796L17.2637 16.9837L17.5446 16.024ZM22.3926 15.688L21.762 14.9119L22.3926 15.688ZM22.8726 12.928L22.0072 13.429L22.023 13.4564L22.0406 13.4827L22.8726 12.928ZM22.1286 12.208L21.6141 13.0655L21.6302 13.0752L21.6467 13.0842L22.1286 12.208ZM20.9766 11.824L20.7945 12.8073L20.8148 12.811L20.8352 12.8139L20.9766 11.824ZM18.1926 11.704H17.1926V12.704H18.1926V11.704ZM18.1926 8.824V7.824H17.1926V8.824H18.1926ZM20.7846 8.728L20.5975 7.74562L20.5885 7.74742L20.7846 8.728ZM21.6726 8.416L22.1629 9.28757L22.183 9.27625L22.2026 9.264L21.6726 8.416ZM22.2726 7.792L21.4107 7.28498L21.4058 7.29331L21.4011 7.30174L22.2726 7.792ZM22.3206 5.992L23.1889 5.49586L23.1889 5.49586L22.3206 5.992ZM21.8166 5.44L21.2166 6.24L21.2318 6.25139L21.2474 6.26219L21.8166 5.44ZM21.1206 5.128L20.8224 6.08248L20.8566 6.09319L20.8916 6.10142L21.1206 5.128ZM18.4086 5.32L18.0771 4.3765L18.069 4.37945L18.4086 5.32ZM16.8246 6.088L15.9253 6.52528L16.4145 7.53142L17.3597 6.93282L16.8246 6.088ZM15.5526 3.472L15.0226 2.624L14.2601 3.10059L14.6533 3.90929L15.5526 3.472ZM16.4406 2.968L15.9934 2.07357L15.985 2.07779L15.9766 2.08217L16.4406 2.968ZM18.9126 2.128L18.7165 1.1474L18.71 1.14874L18.9126 2.128ZM22.9446 2.344L22.622 3.29051L22.6347 3.29486L22.6476 3.29886L22.9446 2.344ZM24.7206 3.328L24.0392 4.05989L24.0461 4.0663L24.0531 4.07257L24.7206 3.328ZM25.7526 4.816L24.8206 5.17846L24.8241 5.18739L25.7526 4.816ZM25.5366 8.584L26.3922 9.10184L26.398 9.09198L25.5366 8.584ZM24.0486 9.976L23.5923 9.08618L21.654 10.0802L23.6713 10.9021L24.0486 9.976ZM26.0406 11.56L25.2057 12.1103L25.2129 12.1213L25.2205 12.1322L26.0406 11.56ZM26.3766 16.192L27.3051 16.5634L27.3082 16.5555L26.3766 16.192ZM25.1766 17.872L25.8256 18.6328L25.832 18.6274L25.8382 18.6218L25.1766 17.872ZM23.0886 18.976L23.3827 19.9318L23.3941 19.9282L23.0886 18.976ZM20.1126 18.36C19.7297 18.36 19.3181 18.3316 18.8768 18.2728L18.6125 20.2552C19.1311 20.3244 19.6315 20.36 20.1126 20.36V18.36ZM18.8441 18.269C18.3992 18.2245 17.972 18.158 17.5622 18.0702L17.1431 20.0258C17.6293 20.13 18.1301 20.2075 18.6451 20.259L18.8441 18.269ZM17.5622 18.0702C17.1366 17.979 16.7564 17.8818 16.4198 17.7793L15.8375 19.6927C16.2369 19.8142 16.6726 19.925 17.1431 20.0258L17.5622 18.0702ZM16.4198 17.7793C16.0704 17.673 15.8318 17.5844 15.6837 17.516L14.8456 19.332C15.1135 19.4556 15.4508 19.575 15.8375 19.6927L16.4198 17.7793ZM16.2383 18.6517L16.9344 15.6757L14.9869 15.2203L14.2909 18.1963L16.2383 18.6517ZM15.571 16.369C16.0228 16.5601 16.5801 16.762 17.2355 16.975L17.8537 15.073C17.2292 14.87 16.7305 14.6879 16.3503 14.527L15.571 16.369ZM17.2637 16.9837C18.0395 17.2108 18.9488 17.312 19.9686 17.312V15.312C19.0685 15.312 18.3617 15.2212 17.8255 15.0643L17.2637 16.9837ZM19.9686 17.312C21.1604 17.312 22.2474 17.0944 23.0232 16.4641L21.762 14.9119C21.5138 15.1136 20.9848 15.312 19.9686 15.312V17.312ZM23.0232 16.4641C23.7864 15.8441 24.1606 14.9899 24.1606 14.008H22.1606C22.1606 14.4341 22.0229 14.6999 21.762 14.9119L23.0232 16.4641ZM24.1606 14.008C24.1606 13.4277 24.0306 12.8621 23.7047 12.3733L22.0406 13.4827C22.0987 13.5699 22.1606 13.7243 22.1606 14.008H24.1606ZM23.7381 12.427C23.4671 11.9589 23.0835 11.5919 22.6105 11.3318L21.6467 13.0842C21.8137 13.1761 21.9262 13.2891 22.0072 13.429L23.7381 12.427ZM22.6431 11.3505C22.1873 11.077 21.6706 10.913 21.118 10.8341L20.8352 12.8139C21.1786 12.863 21.43 12.955 21.6141 13.0655L22.6431 11.3505ZM21.1587 10.8407C20.6596 10.7483 20.134 10.704 19.5846 10.704V12.704C20.0272 12.704 20.4297 12.7397 20.7945 12.8073L21.1587 10.8407ZM19.5846 10.704H18.1926V12.704H19.5846V10.704ZM19.1926 11.704V8.824H17.1926V11.704H19.1926ZM18.1926 9.824H19.7766V7.824H18.1926V9.824ZM19.7766 9.824C20.1894 9.824 20.5913 9.78646 20.9807 9.70858L20.5885 7.74742C20.3379 7.79754 20.0679 7.824 19.7766 7.824V9.824ZM20.9717 9.71034C21.397 9.62934 21.7984 9.49259 22.1629 9.28757L21.1824 7.54442C21.0348 7.62741 20.8443 7.69866 20.5975 7.74566L20.9717 9.71034ZM22.2026 9.264C22.5965 9.01781 22.9157 8.6884 23.1442 8.28226L21.4011 7.30174C21.3415 7.4076 21.2607 7.49419 21.1426 7.568L22.2026 9.264ZM23.1346 8.29902C23.4061 7.83735 23.5126 7.3153 23.5126 6.784H21.5126C21.5126 7.0527 21.4591 7.20265 21.4107 7.28498L23.1346 8.29902ZM23.5126 6.784C23.5126 6.33719 23.4175 5.89593 23.1889 5.49586L21.4524 6.48814C21.4798 6.53607 21.5126 6.62281 21.5126 6.784H23.5126ZM23.1889 5.49586C22.9883 5.14487 22.7191 4.84852 22.3858 4.61781L21.2474 6.26219C21.3302 6.31948 21.397 6.39113 21.4524 6.48814L23.1889 5.49586ZM22.4166 4.64C22.0976 4.40074 21.7341 4.24504 21.3497 4.15458L20.8916 6.10142C21.0511 6.13896 21.1516 6.19126 21.2166 6.24L22.4166 4.64ZM21.4189 4.17352C21.065 4.06292 20.7003 4.008 20.3286 4.008V6.008C20.5009 6.008 20.6643 6.03308 20.8224 6.08248L21.4189 4.17352ZM20.3286 4.008C19.5386 4.008 18.7854 4.12768 18.0771 4.37654L18.7401 6.26346C19.2158 6.09632 19.7427 6.008 20.3286 6.008V4.008ZM18.069 4.37945C17.4298 4.61025 16.8356 4.89737 16.2896 5.24318L17.3597 6.93282C17.7737 6.67063 18.2354 6.44575 18.7483 6.26055L18.069 4.37945ZM17.7239 5.65071L16.4519 3.03471L14.6533 3.90929L15.9253 6.52528L17.7239 5.65071ZM16.0826 4.32C16.3125 4.17633 16.5857 4.02089 16.9046 3.85383L15.9766 2.08217C15.6236 2.26711 15.3048 2.44767 15.0226 2.624L16.0826 4.32ZM16.8878 3.86243C17.1967 3.708 17.5401 3.5644 17.9197 3.43299L17.2655 1.54301C16.8132 1.69959 16.3885 1.876 15.9934 2.07357L16.8878 3.86243ZM17.9197 3.43299C18.2921 3.3041 18.6903 3.19519 19.1152 3.10726L18.71 1.14874C18.207 1.25281 17.7252 1.3839 17.2655 1.54301L17.9197 3.43299ZM19.1087 3.10858C19.5193 3.02646 19.9574 2.984 20.4246 2.984V0.983999C19.8359 0.983999 19.2659 1.03754 18.7165 1.14742L19.1087 3.10858ZM20.4246 2.984C21.3231 2.984 22.0485 3.09503 22.622 3.29051L23.2673 1.39749C22.4327 1.11297 21.4781 0.983999 20.4246 0.983999V2.984ZM22.6476 3.29886C23.2512 3.48665 23.7039 3.74767 24.0392 4.05989L25.402 2.5961C24.8094 2.04433 24.0781 1.64935 23.2417 1.38914L22.6476 3.29886ZM24.0531 4.07257C24.4012 4.38464 24.654 4.75008 24.8206 5.17845L26.6846 4.45355C26.4032 3.72991 25.9681 3.10336 25.3882 2.58343L24.0531 4.07257ZM24.8241 5.18739C24.9958 5.61651 25.0886 6.10472 25.0886 6.664H27.0886C27.0886 5.87928 26.9575 5.13549 26.6811 4.44461L24.8241 5.18739ZM25.0886 6.664C25.0886 7.12309 24.9622 7.58941 24.6753 8.07601L26.398 9.09198C26.847 8.33059 27.0886 7.51691 27.0886 6.664H25.0886ZM24.6811 8.0662C24.4078 8.51784 24.049 8.85198 23.5923 9.08618L24.5049 10.8658C25.2962 10.46 25.9295 9.86616 26.3921 9.1018L24.6811 8.0662ZM23.6713 10.9021C24.3691 11.1864 24.8645 11.5927 25.2057 12.1103L26.8756 11.0097C26.2887 10.1193 25.4561 9.46963 24.4259 9.04991L23.6713 10.9021ZM25.2205 12.1322C25.5651 12.6262 25.7606 13.2502 25.7606 14.056H27.7606C27.7606 12.9098 27.4761 11.8698 26.8608 10.9878L25.2205 12.1322ZM25.7606 14.056C25.7606 14.7109 25.6519 15.2984 25.445 15.8285L27.3082 16.5555C27.6134 15.7736 27.7606 14.9371 27.7606 14.056H25.7606ZM25.4481 15.8206C25.2533 16.3077 24.948 16.7401 24.515 17.1222L25.8382 18.6218C26.4932 18.0439 26.9879 17.3563 27.3051 16.5634L25.4481 15.8206ZM24.5277 17.1112C24.1058 17.471 23.5351 17.7826 22.7832 18.0238L23.3941 19.9282C24.3382 19.6254 25.1594 19.201 25.8256 18.6328L24.5277 17.1112ZM22.7945 18.0202C22.0829 18.2392 21.1951 18.36 20.1126 18.36V20.36C21.3341 20.36 22.4303 20.2248 23.3827 19.9318L22.7945 18.0202Z" fill="#B5B5B6"/>
</svg>
