<svg width="29" height="21" viewBox="0 0 29 21" fill="none" xmlns="http://www.w3.org/2000/svg">
<path d="M12.208 17.104L11.3937 16.5236L11.3925 16.5253L12.208 17.104ZM3.4 17.104L2.58153 17.6787L2.58863 17.6885L3.4 17.104ZM2.224 6.952L1.25815 6.69252L1.25471 6.70606L2.224 6.952ZM5.344 2.56L4.88143 1.67341L4.88143 1.67341L5.344 2.56ZM12.208 4.24L11.3895 4.81467L11.3966 4.82453L12.208 4.24ZM10.048 8.392L9.05469 8.5075L9.05501 8.51021L10.048 8.392ZM9.664 6.616L10.6064 6.28159L10.6064 6.28159L9.664 6.616ZM8.944 5.464L8.27721 6.20924L8.27721 6.20924L8.944 5.464ZM6.688 5.464L6.0212 4.71876L6.01117 4.72774L6.00138 4.73699L6.688 5.464ZM5.968 6.616L5.03543 6.25501L5.03031 6.26823L5.02557 6.28159L5.968 6.616ZM5.584 8.392L6.57699 8.51021L6.57731 8.5075L5.584 8.392ZM5.584 12.928L6.57731 12.8125V12.8125L5.584 12.928ZM5.968 14.704L5.02557 15.0384L5.03031 15.0518L5.03543 15.065L5.968 14.704ZM6.688 15.856L6.00138 16.583L6.01117 16.5923L6.02121 16.6012L6.688 15.856ZM8.944 15.856L9.6108 16.6012L8.944 15.856ZM9.664 14.704L10.6064 15.0384L10.6064 15.0384L9.664 14.704ZM10.048 12.928L9.05469 12.8125L9.05469 12.8125L10.048 12.928ZM12.816 10.648C12.816 13.341 12.2972 15.256 11.3937 16.5236L13.0223 17.6844C14.2628 15.944 14.816 13.555 14.816 10.648H12.816ZM11.3925 16.5253C10.5297 17.741 9.37397 18.336 7.816 18.336V20.336C10.002 20.336 11.7743 19.443 13.0235 17.6827L11.3925 16.5253ZM7.816 18.336C6.2576 18.336 5.09085 17.7402 4.21137 16.5195L2.58863 17.6885C3.85315 19.4438 5.6304 20.336 7.816 20.336V18.336ZM4.21841 16.5294C3.32772 15.2608 2.816 13.3433 2.816 10.648H0.816C0.816 13.5527 1.36028 15.9392 2.58159 17.6786L4.21841 16.5294ZM2.816 10.648C2.816 9.31862 2.94614 8.17199 3.19329 7.19794L1.25471 6.70606C0.957863 7.87601 0.816 9.19338 0.816 10.648H2.816ZM3.18975 7.21146C3.45336 6.23028 3.81646 5.44192 4.26054 4.82291L2.63546 3.65709C2.02354 4.51008 1.57064 5.52972 1.25825 6.69254L3.18975 7.21146ZM4.26054 4.82291C4.70574 4.20233 5.22173 3.75172 5.80657 3.44658L4.88143 1.67341C3.99427 2.13628 3.24626 2.80567 2.63546 3.65709L4.26054 4.82291ZM5.80657 3.44658C6.38607 3.14423 7.04889 2.984 7.816 2.984V0.983999C6.75911 0.983999 5.77393 1.20776 4.88143 1.67341L5.80657 3.44658ZM7.816 2.984C9.36944 2.984 10.5249 3.58316 11.3896 4.81463L13.0264 3.66537C11.7791 1.88884 10.0066 0.983999 7.816 0.983999V2.984ZM11.3966 4.82453C12.2973 6.07474 12.816 7.97146 12.816 10.648H14.816C14.816 7.75654 14.2627 5.38126 13.0194 3.65547L11.3966 4.82453ZM11.168 10.648C11.168 9.78506 11.1266 8.9927 11.041 8.27379L9.05501 8.51021C9.12943 9.1353 9.168 9.84694 9.168 10.648H11.168ZM11.0413 8.2765C10.9552 7.53582 10.814 6.8666 10.6064 6.28159L8.72157 6.95041C8.86599 7.3574 8.98082 7.87218 9.05469 8.5075L11.0413 8.2765ZM10.6064 6.28159C10.3902 5.67231 10.0707 5.13024 9.6108 4.71876L8.27721 6.20924C8.42531 6.34176 8.58577 6.56769 8.72157 6.95041L10.6064 6.28159ZM9.6108 4.71876C9.10486 4.26608 8.48391 4.056 7.816 4.056V6.056C8.04409 6.056 8.17514 6.11792 8.27721 6.20924L9.6108 4.71876ZM7.816 4.056C7.14809 4.056 6.52714 4.26608 6.0212 4.71876L7.3548 6.20924C7.45686 6.11792 7.58791 6.056 7.816 6.056V4.056ZM6.00138 4.73699C5.57474 5.13992 5.26366 5.66542 5.03543 6.25501L6.90057 6.97699C7.05634 6.57458 7.22526 6.33208 7.37462 6.19101L6.00138 4.73699ZM5.02557 6.28159C4.81799 6.8666 4.67682 7.53582 4.59069 8.2765L6.57731 8.5075C6.65118 7.87218 6.76601 7.3574 6.91043 6.95041L5.02557 6.28159ZM4.59101 8.27379C4.50543 8.9927 4.464 9.78506 4.464 10.648H6.464C6.464 9.84694 6.50257 9.1353 6.57699 8.51021L4.59101 8.27379ZM4.464 10.648C4.464 11.5112 4.50546 12.3105 4.59069 13.0435L6.57731 12.8125C6.50255 12.1695 6.464 11.4488 6.464 10.648H4.464ZM4.59069 13.0435C4.67682 13.7842 4.81799 14.4534 5.02557 15.0384L6.91043 14.3696C6.76601 13.9626 6.65118 13.4478 6.57731 12.8125L4.59069 13.0435ZM5.03543 15.065C5.26366 15.6546 5.57474 16.1801 6.00138 16.583L7.37462 15.129C7.22526 14.9879 7.05634 14.7454 6.90057 14.343L5.03543 15.065ZM6.02121 16.6012C6.52714 17.0539 7.14809 17.264 7.816 17.264V15.264C7.58791 15.264 7.45686 15.2021 7.3548 15.1108L6.02121 16.6012ZM7.816 17.264C8.48391 17.264 9.10486 17.0539 9.6108 16.6012L8.27721 15.1108C8.17514 15.2021 8.04409 15.264 7.816 15.264V17.264ZM9.6108 16.6012C10.0707 16.1898 10.3902 15.6477 10.6064 15.0384L8.72157 14.3696C8.58577 14.7523 8.42531 14.9782 8.27721 15.1108L9.6108 16.6012ZM10.6064 15.0384C10.814 14.4534 10.9552 13.7842 11.0413 13.0435L9.05469 12.8125C8.98082 13.4478 8.86599 13.9626 8.72157 14.3696L10.6064 15.0384ZM11.0413 13.0435C11.1265 12.3105 11.168 11.5112 11.168 10.648H9.168C9.168 11.4488 9.12946 12.1695 9.05469 12.8125L11.0413 13.0435ZM22.2966 6.736H23.2966V3.78208L21.5023 6.12855L22.2966 6.736ZM20.3046 9.4L21.111 9.99136L20.3046 9.4ZM18.5286 12.352L17.6258 11.9221L16.9448 13.352H18.5286V12.352ZM22.2966 12.352V13.352H23.2966V12.352H22.2966ZM25.8006 2.368H26.8006V1.368H25.8006V2.368ZM25.8006 12.352H24.8006V13.352H25.8006V12.352ZM27.5766 12.352H28.5766V11.352H27.5766V12.352ZM27.5766 15.28V16.28H28.5766V15.28H27.5766ZM25.8006 15.28V14.28H24.8006V15.28H25.8006ZM25.8006 19V20H26.8006V19H25.8006ZM22.2966 19H21.2966V20H22.2966V19ZM22.2966 15.28H23.2966V14.28H22.2966V15.28ZM15.1206 15.28H14.1206V16.28H15.1206V15.28ZM15.1206 12.664L14.2262 12.2168L14.1206 12.4279V12.664H15.1206ZM16.4406 10.288L17.2981 10.8025L17.3022 10.7957L16.4406 10.288ZM18.1926 7.552L17.3714 6.98134L17.3694 6.98427L18.1926 7.552ZM22.4166 2.368V1.368H22.0024L21.7095 1.66089L22.4166 2.368ZM21.5023 6.12855C20.8736 6.95063 20.2056 7.84406 19.4982 8.80864L21.111 9.99136C21.8117 9.03594 22.4716 8.15337 23.091 7.34345L21.5023 6.12855ZM19.4982 8.80864C18.7595 9.81597 18.1345 10.8537 17.6258 11.9221L19.4315 12.7819C19.8828 11.8343 20.4417 10.904 21.111 9.99136L19.4982 8.80864ZM18.5286 13.352H22.2966V11.352H18.5286V13.352ZM23.2966 12.352V6.736H21.2966V12.352H23.2966ZM24.8006 2.368V12.352H26.8006V2.368H24.8006ZM25.8006 13.352H27.5766V11.352H25.8006V13.352ZM26.5766 12.352V15.28H28.5766V12.352H26.5766ZM27.5766 14.28H25.8006V16.28H27.5766V14.28ZM24.8006 15.28V19H26.8006V15.28H24.8006ZM25.8006 18H22.2966V20H25.8006V18ZM23.2966 19V15.28H21.2966V19H23.2966ZM22.2966 14.28H15.1206V16.28H22.2966V14.28ZM16.1206 15.28V12.664H14.1206V15.28H16.1206ZM16.0151 13.1112C16.3528 12.4358 16.7796 11.6667 17.2981 10.8025L15.5831 9.7735C15.0457 10.6693 14.5925 11.4842 14.2262 12.2168L16.0151 13.1112ZM17.3022 10.7957C17.8172 9.92177 18.3882 9.02979 19.0158 8.11973L17.3694 6.98427C16.717 7.93021 16.1201 8.86223 15.5791 9.78031L17.3022 10.7957ZM19.0138 8.12266C19.6566 7.19771 20.3307 6.2963 21.0361 5.41839L19.4771 4.16561C18.7426 5.0797 18.0407 6.01829 17.3714 6.98134L19.0138 8.12266ZM21.0361 5.41839C21.7363 4.54706 22.4323 3.76652 23.1237 3.07511L21.7095 1.66089C20.9609 2.40948 20.2169 3.24494 19.4771 4.16561L21.0361 5.41839ZM22.4166 3.368H25.8006V1.368H22.4166V3.368Z" fill="#B5B5B6"/>
</svg>
