<svg width="160" height="160" viewBox="0 0 160 160" fill="none" xmlns="http://www.w3.org/2000/svg">
<rect width="160" height="160" rx="32" fill="#FD863C"/>
<path d="M106.165 92.2287V99.2525H43.041V92.2287H57.0693V85.2086H64.0825V78.1866H71.0976V85.2086H78.1108V78.1866H85.124V85.2086H92.139V92.2287H106.165Z" fill="#E0ECEE"/>
<path d="M120.194 92.2286H106.166V99.2525H120.194V92.2286Z" fill="#002B3D"/>
<path d="M113.183 22.0238V71.1665H106.168V57.1244H99.1543V50.1043H106.168V22.0238H113.183Z" fill="#002B3D"/>
<path d="M99.1513 43.086H85.123V50.1061H99.1513V43.086Z" fill="#002B3D"/>
<path d="M85.1254 36.0622H64.084V43.086H85.1254V36.0622Z" fill="#002B3D"/>
<path d="M50.0537 50.1043V57.1244H43.0405V71.1665H36.0273V22.0238H43.0405V50.1043H50.0537Z" fill="#002B3D"/>
<path d="M64.081 43.086H50.0527V50.1061H64.081V43.086Z" fill="#002B3D"/>
<path d="M85.1254 71.1665V78.1866H78.1122V85.2086H71.099V78.1866H64.084V71.1665H85.1254Z" fill="#002B3D"/>
<path d="M29.0132 85.2086H22V92.2286H29.0132V85.2086Z" fill="#002B3D"/>
<path d="M36.0306 71.1665H29.0137V85.2086H36.0306V71.1665Z" fill="#002B3D"/>
<path d="M43.0419 92.2286H29.0137V99.2525H43.0419V92.2286Z" fill="#002B3D"/>
<path d="M127.207 85.2086H120.193V92.2286H127.207V85.2086Z" fill="#002B3D"/>
<path d="M120.193 71.1665H113.18V85.2086H120.193V71.1665Z" fill="#002B3D"/>
<path d="M92.1362 92.21H85.123V99.2301H92.1362V92.21Z" fill="#002B3D"/>
<path d="M50.0542 22.0238H43.041V50.1061H50.0542V22.0238Z" fill="#E0ECEE"/>
<path d="M106.168 22.0238H99.1543V50.1061H106.168V22.0238Z" fill="#E0ECEE"/>
<path d="M99.1513 29.0421V43.0842H85.123V36.0622H92.1381V29.0421H99.1513Z" fill="#F36D28"/>
<path d="M64.081 36.0622V43.0842H50.0527V29.0421H57.0678V36.0622H64.081Z" fill="#F36D28"/>
<path d="M113.181 85.2085V71.1664H106.166V57.1243H99.1588V50.1042H85.1249V43.086H64.0834V50.1042H50.0551V57.1243H43.0419V71.1664H36.0287V85.2085H29.0137V92.2342H57.0702V85.2085H64.0834V71.1664H85.1249V85.2085H92.14V92.2342H120.195V85.2085H113.181ZM57.0702 78.1865H50.0551V64.1463H57.0702V78.1865ZM99.1532 78.1865H92.14V64.1463H99.1588L99.1532 78.1865Z" fill="#F36D28"/>
<path d="M99.1538 64.1464H92.1406V78.1847H99.1538V64.1464Z" fill="#002B3D"/>
<path d="M57.0697 64.1464H50.0527V78.1847H57.0697V64.1464Z" fill="#002B3D"/>
<path d="M99.1538 22.0238H92.1406V29.0439H99.1538V22.0238Z" fill="#002B3D"/>
<path d="M106.168 15H99.1543V22.0238H106.168V15Z" fill="#002B3D"/>
<path d="M92.14 29.0421H85.123V36.0622H92.14V29.0421Z" fill="#002B3D"/>
<path d="M64.0835 29.0421H57.0703V36.0622H64.0835V29.0421Z" fill="#002B3D"/>
<path d="M57.0697 22.0238H50.0527V29.0439H57.0697V22.0238Z" fill="#002B3D"/>
<path d="M50.0542 15H43.041V22.0238H50.0542V15Z" fill="#002B3D"/>
<path d="M79.4508 99.0659H92.1372V92.21H78.1071V85.188H71.0957V92.21H57.0693V99.2525H43.041V106.271H79.4508V99.0659Z" fill="#002B3D"/>
<path d="M132.647 122.732L114.739 111.964C114.715 111.954 114.688 111.95 114.662 111.956C114.636 111.961 114.612 111.974 114.594 111.993C114.576 112.013 114.564 112.037 114.561 112.063C114.557 112.09 114.562 112.116 114.575 112.14L121.921 125.641C121.932 125.66 121.948 125.676 121.968 125.687C121.987 125.698 122.009 125.703 122.031 125.702C122.495 125.702 122.939 126.092 122.853 126.736C122.851 126.751 122.846 126.765 122.84 126.779C122.488 127.525 121.627 127.467 121.323 126.909C121.253 126.78 121.218 126.634 121.224 126.487C121.23 126.34 121.276 126.197 121.357 126.074C121.369 126.053 121.376 126.03 121.376 126.007C121.376 125.983 121.369 125.96 121.357 125.939L114.012 112.442C113.999 112.418 113.98 112.399 113.956 112.387C113.932 112.376 113.905 112.372 113.879 112.377C113.852 112.381 113.828 112.395 113.81 112.414C113.792 112.434 113.78 112.458 113.777 112.485L112.892 133.079C112.888 133.104 112.893 133.129 112.904 133.152C112.915 133.175 112.933 133.193 112.955 133.206L122.878 140.461L133.273 134.793L132.714 122.854C132.716 122.829 132.711 122.805 132.699 122.783C132.687 122.762 132.669 122.744 132.647 122.732Z" fill="#002B3D"/>
<path d="M123.068 140.871L133.542 135.16C133.556 135.152 133.571 135.151 133.586 135.155C133.601 135.159 133.613 135.169 133.62 135.183L135.931 139.429C135.968 139.497 135.977 139.577 135.955 139.651C135.933 139.725 135.883 139.787 135.815 139.824L125.756 145.309C125.689 145.346 125.609 145.354 125.535 145.333C125.461 145.311 125.399 145.26 125.362 145.193L123.05 140.945C123.044 140.932 123.042 140.918 123.045 140.905C123.049 140.891 123.056 140.88 123.068 140.871V140.871Z" fill="#002B3D"/>
<path d="M90.4004 102.405C92.4695 106.208 95.9631 109.032 100.113 110.257C104.262 111.481 108.727 111.006 112.527 108.935" stroke="#FDB714" stroke-width="1.79379" stroke-miterlimit="10"/>
<path d="M134.755 115.655C132.686 111.852 129.192 109.027 125.043 107.803C120.893 106.578 116.428 107.054 112.629 109.125" stroke="#FDB714" stroke-width="1.79379" stroke-miterlimit="10"/>
<path d="M91.5887 98.9154L86.8359 101.507L89.4251 106.265L94.1779 103.673L91.5887 98.9154Z" fill="#002B3D"/>
<path d="M135.214 110.863L130.098 113.653L132.885 118.774L138.001 115.984L135.214 110.863Z" fill="#002B3D"/>
<path d="M93.8516 119.24L131.667 98.6219" stroke="#FDB714" stroke-width="1.79379" stroke-miterlimit="10"/>
<path d="M113.057 107.644L110.955 108.79L112.1 110.894L114.201 109.748L113.057 107.644Z" fill="#002B3D"/>
<path d="M95.1838 115.13L89.5996 118.175L92.6417 123.765L98.2258 120.72L95.1838 115.13Z" fill="#122832"/>
<path d="M131.913 94.8808L126.766 97.6876L129.57 102.84L134.717 100.033L131.913 94.8808Z" fill="#002B3D"/>
</svg>
