<svg width="140" height="140" viewBox="0 0 140 140" fill="none" xmlns="http://www.w3.org/2000/svg">
<g id="art-2">
<rect width="140" height="140" rx="30" fill="#FF6C0E"/>
<g id="Group">
<path id="Vector" d="M94.0438 126.531C86.5426 129.864 78.2375 131.716 69.4998 131.716C60.7622 131.716 52.4571 129.864 44.9559 126.531V57.7068C44.9559 45.2845 38.247 33.8308 27.4121 27.7551C38.2325 17.2748 52.9545 10.7988 69.1887 10.7171C102.719 10.5484 130.108 37.8865 130 71.4163C129.96 83.7363 126.237 95.1896 119.875 104.732H115.842C103.803 104.733 94.0438 114.492 94.0438 126.531V126.531Z" fill="#533672"/>
<path id="Vector_2" d="M119.876 32.6939V104.733C114.553 112.716 107.384 119.362 98.9783 124.061H53.2021C34.694 113.715 22.1807 93.9267 22.1807 71.2163C22.1807 54.1602 29.2387 38.753 40.5929 27.7551H114.937C117.664 27.7551 119.876 29.9662 119.876 32.6939Z" fill="#4CACBA"/>
<path id="Vector_3" d="M54.2308 27.7551V124.061H40.021C35.2269 121.381 30.8349 118.067 26.9584 114.234C25.7818 113.07 24.4006 110.122 23.0479 106.581C19.0038 95.9936 16.9893 84.7396 16.9893 73.4066V44.4388C16.9893 42.1837 17.6333 39.9704 18.8699 38.0845C21.3317 34.3303 24.1999 30.8663 27.4118 27.7551H54.2308Z" fill="#3F97A4"/>
<path id="Vector_4" d="M105.06 42.5714C105.06 39.8437 107.271 37.6326 109.998 37.6326C112.726 37.6326 114.937 39.8437 114.937 42.5714C114.937 45.2991 112.726 47.5102 109.998 47.5102C107.271 47.5102 105.06 45.2991 105.06 42.5714ZM109.998 101.837C107.271 101.837 105.06 104.048 105.06 106.775C105.06 109.503 107.271 111.714 109.998 111.714C112.726 111.714 114.937 109.503 114.937 106.775C114.937 104.048 112.726 101.837 109.998 101.837ZM109.998 89.4897C107.271 89.4897 105.06 91.7008 105.06 94.4285C105.06 97.1562 107.271 99.3673 109.998 99.3673C112.726 99.3673 114.937 97.1562 114.937 94.4285C114.937 91.7008 112.726 89.4897 109.998 89.4897ZM109.998 49.9796C107.271 49.9796 105.06 52.1907 105.06 54.9183C105.06 57.646 107.271 59.8571 109.998 59.8571C112.726 59.8571 114.937 57.646 114.937 54.9183C114.937 52.1907 112.726 49.9796 109.998 49.9796ZM109.998 62.3265C107.271 62.3265 105.06 64.5376 105.06 67.2653V82.0816C105.06 84.8093 107.271 87.0204 109.998 87.0204C112.726 87.0204 114.937 84.8093 114.937 82.0816V67.2653C114.937 64.5376 112.726 62.3265 109.998 62.3265Z" fill="#95CED6"/>
<path id="Vector_5" d="M105.207 41.3696C105.744 39.2227 107.685 37.6326 109.998 37.6326C112.311 37.6326 114.253 39.2227 114.79 41.3696C114.253 43.5164 112.311 45.1065 109.998 45.1065C107.685 45.1065 105.744 43.5164 105.207 41.3696ZM109.998 57.4537C112.311 57.4537 114.253 55.8636 114.79 53.7167C114.253 51.5696 112.311 49.9796 109.998 49.9796C107.685 49.9796 105.744 51.5696 105.207 53.7165C105.744 55.8634 107.685 57.4537 109.998 57.4537ZM109.998 62.3265C107.271 62.3265 105.06 64.5376 105.06 67.2653V79.6781C105.06 82.4058 107.271 84.6169 109.998 84.6169C112.726 84.6169 114.937 82.4058 114.937 79.6781V67.2653C114.937 64.5376 112.726 62.3265 109.998 62.3265ZM109.998 89.4897C107.685 89.4897 105.744 91.0798 105.207 93.2267C105.744 95.3736 107.685 96.9636 109.998 96.9636C112.311 96.9636 114.253 95.3736 114.79 93.2267C114.253 91.0798 112.311 89.4897 109.998 89.4897ZM109.998 101.837C107.685 101.837 105.744 103.427 105.207 105.574C105.744 107.72 107.685 109.311 109.998 109.311C112.311 109.311 114.253 107.72 114.79 105.574C114.253 103.427 112.311 101.837 109.998 101.837Z" fill="#BADFE4"/>
<path id="Vector_6" d="M94.0437 126.531H50.7324V119.122H106.454C102.651 122.06 98.4884 124.555 94.0437 126.531V126.531Z" fill="#70BDC8"/>
<path id="Vector_7" d="M32.5459 119.122H54.2313V126.531H44.956C40.5114 124.555 36.349 122.06 32.5459 119.122Z" fill="#4CACBA"/>
<path id="Vector_8" d="M96.916 95.1572H32.8924C19.7775 95.1572 10.9058 84.586 10.8517 71.4714C10.8514 71.3864 10.8517 71.3015 10.8517 71.2163C10.8517 61.4718 13.1554 52.2657 17.2479 44.1123C17.4911 43.6276 15.8887 43.1465 16.1446 42.6694C17.0728 40.9384 18.0825 39.2577 19.1691 37.6326H95.1812C97.9089 37.6326 100.12 39.8437 100.12 42.5714V91.953C100.12 93.7225 98.6855 95.1572 96.916 95.1572V95.1572Z" fill="#F9F1D2"/>
<path id="Vector_9" d="M100.12 109.245C100.12 111.973 97.9093 114.184 95.1816 114.184H26.9085C15.8493 103.221 9 88.0185 9 71.2163C9 60.8928 11.5859 51.173 16.1449 42.6697C24.6737 42.5536 33.4795 45.8727 38.1388 51.7081C44.9567 60.2478 40.0083 70.5609 47.7694 76.6489C52.619 80.453 57.3879 78.6519 66.0428 79.1183C76.2409 79.668 90.5001 83.2946 100.12 90.8758V109.245Z" fill="#FFF36C"/>
<path id="Vector_10" d="M83.5465 95.1572C82.1827 95.1572 81.0771 94.0517 81.0771 92.6878V70.4634C81.0771 69.0995 82.1827 67.994 83.5465 67.994C84.9104 67.994 86.0159 69.0995 86.0159 70.4634V92.6878C86.0159 94.0517 84.9104 95.1572 83.5465 95.1572Z" fill="#23535A"/>
<path id="Vector_11" d="M83.5462 74.6734C78.7728 74.6734 74.9033 70.8039 74.9033 66.0306V16.6429C74.9033 11.8695 78.7728 8 83.5462 8C88.3195 8 92.189 11.8695 92.189 16.6429V66.0306C92.189 70.8039 88.3195 74.6734 83.5462 74.6734Z" fill="#E5554E"/>
<path id="Vector_12" d="M92.1889 16.6429V66.0306C92.1889 69.5267 90.1132 72.5379 87.1267 73.899C84.1402 72.5379 82.0645 69.5267 82.0645 66.0306V16.6429C82.0645 13.1467 84.1402 10.1355 87.1267 8.7744C90.1132 10.1355 92.1889 13.1467 92.1889 16.6429V16.6429Z" fill="#F76C57"/>
<path id="Vector_13" d="M83.5462 87.7491C78.7728 87.7491 74.9033 83.8795 74.9033 79.1062V49.4736C74.9033 44.7003 78.7728 40.8307 83.5462 40.8307C88.3195 40.8307 92.189 44.7003 92.189 49.4736V79.1062C92.189 83.8795 88.3195 87.7491 83.5462 87.7491Z" fill="#F76C57"/>
<path id="Vector_14" d="M92.1889 49.4736V79.1062C92.1889 82.6024 90.1132 85.6135 87.1267 86.9747C84.1402 85.6135 82.0645 82.6024 82.0645 79.1062V40.9574C82.546 40.8742 83.0408 40.8307 83.5461 40.8307C88.3194 40.8307 92.1889 44.7003 92.1889 49.4736V49.4736Z" fill="#F87B67"/>
<path id="Vector_15" d="M83.5465 72.9328C82.1827 72.9328 81.0771 71.8272 81.0771 70.4634V53.1777C81.0771 51.8138 82.1827 50.7083 83.5465 50.7083C84.9104 50.7083 86.0159 51.8138 86.0159 53.1777V70.4634C86.0159 71.8272 84.9104 72.9328 83.5465 72.9328Z" fill="#E5554E"/>
<path id="Vector_16" d="M83.5465 55.6471C82.1827 55.6471 81.0771 54.5415 81.0771 53.1777C81.0771 51.8138 82.1827 50.7083 83.5465 50.7083C84.9104 50.7083 86.0159 51.8138 86.0159 53.1777C86.0159 54.5415 84.9104 55.6471 83.5465 55.6471Z" fill="#FCCFC9"/>
<path id="Vector_17" d="M88.6609 107.597C89.3212 109.863 89.3926 112.099 89.1247 114.184H26.9085C15.8493 103.221 9 88.0185 9 71.2163C9 62.6771 10.7693 54.5514 13.961 47.185C19.8243 49.6906 25.1639 56.0096 25.9644 56.9758C36.5013 69.6969 30.5232 79.6927 39.0401 86.6255C46.8695 92.9985 53.6433 85.9526 70.5754 92.7298C76.6061 95.1439 86.1446 98.9616 88.6609 107.597V107.597Z" fill="#EAC23F"/>
<path id="Vector_18" d="M70.386 114.184H26.9085C15.8493 103.221 9 88.0185 9 71.2163C9 64.2981 10.1614 57.651 12.2996 51.4595C16.4296 54.9937 16.4813 59.8897 17.0255 60.7683C25.7256 74.8095 19.1662 85.0468 26.6561 93.0783C33.5415 100.461 41.2141 94.4068 57.0617 103.434C61.4752 105.948 67.1679 108.454 70.386 114.184Z" fill="#E5554E"/>
<path id="Vector_19" d="M73.2983 113.948L72.1937 114.184H39.2837C27.664 104.398 19.092 90.8151 15.6816 74.8065C14.1476 67.6055 13.7676 60.4275 14.4163 53.4644C17.4603 56.623 19.6262 60.0477 20.0726 60.7686C28.7728 74.8097 21.4849 83.8953 28.9748 91.9268C35.8602 99.3097 43.5328 93.2553 59.3803 102.282C63.7334 104.762 70.0385 108.353 73.2983 113.948V113.948Z" fill="#F76C57"/>
</g>
</g>
</svg>
