<svg width="140" height="140" viewBox="0 0 140 140" fill="none" xmlns="http://www.w3.org/2000/svg">
<rect width="140" height="140" rx="32" fill="#FD863C"/>
<g clip-path="url(#clip0)">
<path d="M91.3806 79.58V85.4535H38.5947V79.58H50.3254V73.7097H56.19V67.8378H62.0561V73.7097H67.9207V67.8378H73.7853V73.7097H79.6514V79.58H91.3806Z" fill="#E0ECEE"/>
<path d="M103.113 79.58H91.3818V85.4535H103.113V79.58Z" fill="#002B3D"/>
<path d="M97.2473 20.8735V61.9675H91.3812V50.2252H85.5166V44.3549H91.3812V20.8735H97.2473Z" fill="#002B3D"/>
<path d="M85.5168 38.4861H73.7861V44.3564H85.5168V38.4861Z" fill="#002B3D"/>
<path d="M73.7857 32.6126H56.1904V38.4861H73.7857V32.6126Z" fill="#002B3D"/>
<path d="M44.4606 44.3549V50.2252H38.596V61.9675H32.7314V20.8735H38.596V44.3549H44.4606Z" fill="#002B3D"/>
<path d="M56.1907 38.4861H44.46V44.3564H56.1907V38.4861Z" fill="#002B3D"/>
<path d="M73.7857 61.9675V67.8378H67.9211V73.7097H62.0566V67.8378H56.1904V61.9675H73.7857Z" fill="#002B3D"/>
<path d="M26.8646 73.7097H21V79.58H26.8646V73.7097Z" fill="#002B3D"/>
<path d="M32.732 61.9675H26.8643V73.7097H32.732V61.9675Z" fill="#002B3D"/>
<path d="M38.595 79.58H26.8643V85.4535H38.595V79.58Z" fill="#002B3D"/>
<path d="M108.976 73.7097H103.111V79.58H108.976V73.7097Z" fill="#002B3D"/>
<path d="M103.112 61.9675H97.2471V73.7097H103.112V61.9675Z" fill="#002B3D"/>
<path d="M79.6507 79.5645H73.7861V85.4348H79.6507V79.5645Z" fill="#002B3D"/>
<path d="M44.4593 20.8735H38.5947V44.3564H44.4593V20.8735Z" fill="#E0ECEE"/>
<path d="M91.3812 20.8735H85.5166V44.3564H91.3812V20.8735Z" fill="#E0ECEE"/>
<path d="M85.5168 26.7422V38.4845H73.7861V32.6126H79.6523V26.7422H85.5168Z" fill="#F36D28"/>
<path d="M56.1907 32.6126V38.4845H44.46V26.7422H50.3261V32.6126H56.1907Z" fill="#F36D28"/>
<path d="M97.2469 73.7097V61.9674H91.3808V50.2252H85.5209V44.3548H73.7855V38.4861H56.1902V44.3548H44.4595V50.2252H38.595V61.9674H32.7304V73.7097H26.8643V79.5847H50.3257V73.7097H56.1902V61.9674H73.7855V73.7097H79.6516V79.5847H103.111V73.7097H97.2469ZM50.3257 67.8378H44.4595V56.0971H50.3257V67.8378ZM85.5162 67.8378H79.6516V56.0971H85.5209L85.5162 67.8378Z" fill="#F36D28"/>
<path d="M85.5169 56.0971H79.6523V67.8362H85.5169V56.0971Z" fill="#002B3D"/>
<path d="M50.3276 56.0971H44.46V67.8362H50.3276V56.0971Z" fill="#002B3D"/>
<path d="M85.5169 20.8735H79.6523V26.7438H85.5169V20.8735Z" fill="#002B3D"/>
<path d="M91.3812 15H85.5166V20.8735H91.3812V15Z" fill="#002B3D"/>
<path d="M79.6538 26.7422H73.7861V32.6126H79.6538V26.7422Z" fill="#002B3D"/>
<path d="M56.1907 26.7422H50.3262V32.6126H56.1907V26.7422Z" fill="#002B3D"/>
<path d="M50.3276 20.8735H44.46V26.7438H50.3276V20.8735Z" fill="#002B3D"/>
<path d="M44.4593 15H38.5947V20.8735H44.4593V15Z" fill="#002B3D"/>
<path d="M69.0413 85.2975H79.6499V79.5645H67.9176V73.6926H62.0546V79.5645H50.3254V85.4535H38.5947V91.3223H69.0413V85.2975Z" fill="#002B3D"/>
<path d="M113.526 105.088L98.5502 96.0835C98.5301 96.0744 98.5075 96.0718 98.4858 96.0761C98.4641 96.0804 98.4443 96.0915 98.4292 96.1076C98.4141 96.1238 98.4044 96.1443 98.4015 96.1663C98.3986 96.1883 98.4026 96.2106 98.4131 96.2301L104.557 107.52C104.566 107.536 104.579 107.55 104.595 107.559C104.612 107.568 104.63 107.572 104.649 107.571C105.037 107.571 105.408 107.898 105.336 108.436C105.334 108.448 105.33 108.46 105.325 108.472C105.03 109.096 104.31 109.047 104.056 108.581C103.997 108.473 103.969 108.351 103.974 108.227C103.979 108.104 104.017 107.985 104.084 107.882C104.095 107.865 104.1 107.846 104.1 107.826C104.1 107.806 104.095 107.786 104.084 107.77L97.9424 96.4829C97.9321 96.463 97.9157 96.447 97.8957 96.4372C97.8756 96.4273 97.853 96.4242 97.831 96.4282C97.809 96.4322 97.7889 96.4432 97.7736 96.4595C97.7583 96.4758 97.7487 96.4965 97.746 96.5187L97.0058 113.74C97.003 113.761 97.0066 113.782 97.0161 113.801C97.0255 113.82 97.0404 113.835 97.0588 113.846L105.356 119.913L114.049 115.173L113.582 105.189C113.583 105.169 113.579 105.148 113.569 105.13C113.559 105.112 113.544 105.098 113.526 105.088Z" fill="#002B3D"/>
<path d="M105.515 120.256L114.274 115.48C114.286 115.474 114.299 115.472 114.311 115.476C114.323 115.48 114.334 115.488 114.34 115.499L116.272 119.05C116.303 119.107 116.31 119.173 116.292 119.235C116.274 119.297 116.232 119.349 116.175 119.38L107.764 123.967C107.707 123.998 107.641 124.005 107.579 123.987C107.517 123.968 107.465 123.926 107.434 123.87L105.501 120.317C105.496 120.307 105.494 120.295 105.497 120.284C105.5 120.273 105.506 120.263 105.515 120.256V120.256Z" fill="#002B3D"/>
<path d="M78.1963 88.09C79.9265 91.27 82.8479 93.6317 86.3177 94.6557C89.7876 95.6796 93.5217 95.2819 96.6986 93.55" stroke="#FDB714" stroke-width="1.5" stroke-miterlimit="10"/>
<path d="M115.288 99.1692C113.558 95.9892 110.637 93.6274 107.167 92.6035C103.697 91.5795 99.963 91.9772 96.7861 93.7091" stroke="#FDB714" stroke-width="1.5" stroke-miterlimit="10"/>
<path d="M79.1912 85.1716L75.2168 87.3389L77.3819 91.3172L81.3563 89.1499L79.1912 85.1716Z" fill="#002B3D"/>
<path d="M115.671 95.1627L111.393 97.4956L113.723 101.778L118.001 99.4451L115.671 95.1627Z" fill="#002B3D"/>
<path d="M81.083 102.168L112.705 84.9262" stroke="#FDB714" stroke-width="1.5" stroke-miterlimit="10"/>
<path d="M97.144 92.4709L95.3867 93.4291L96.344 95.188L98.1013 94.2298L97.144 92.4709Z" fill="#002B3D"/>
<path d="M82.1959 98.7309L77.5264 101.277L80.0702 105.951L84.7398 103.405L82.1959 98.7309Z" fill="#122832"/>
<path d="M112.911 81.7978L108.606 84.1449L110.951 88.4534L115.255 86.1063L112.911 81.7978Z" fill="#002B3D"/>
</g>
<defs>
<clipPath id="clip0">
<rect width="97" height="109" fill="white" transform="translate(21 15)"/>
</clipPath>
</defs>
</svg>
