<svg width="414" height="896" viewBox="0 0 414 896" fill="none" xmlns="http://www.w3.org/2000/svg">
<g id="bg-hero-m">
<g id="robo-1-m" class="robo-1-m">
<path id="Vector" d="M120.803 197.582C126.576 196.141 128.437 194.023 127.44 190.026C126.771 187.344 122.831 185.276 118.032 186.474C113.234 187.671 110.726 191.346 111.395 194.029C112.392 198.026 115.03 199.022 120.803 197.582ZM118.34 187.708C122.34 186.71 125.696 188.291 126.206 190.334C126.795 192.698 126.772 194.782 120.495 196.347C114.218 197.913 113.219 196.084 112.629 193.721C112.12 191.678 114.34 188.706 118.34 187.708Z" fill="url(#paint0_linear)" fill-opacity="0.5"/>
<path id="Vector_2" d="M116.35 195.218C116.719 195.253 117.091 195.227 117.451 195.14C117.673 195.086 117.887 195.003 118.089 194.895C118.618 194.638 118.981 194.131 119.055 193.547C119.087 192.96 118.819 192.396 118.344 192.05C117.361 191.32 116.052 191.202 114.955 191.745C114.426 192.002 114.062 192.509 113.989 193.093C113.892 194.158 114.93 195.093 116.35 195.218ZM115.254 193.206C115.297 193.05 115.411 192.923 115.561 192.862C115.667 192.806 115.78 192.763 115.897 192.735C116.12 192.681 116.35 192.665 116.578 192.687C116.928 192.71 117.263 192.833 117.546 193.04C117.683 193.127 117.772 193.272 117.787 193.433C117.743 193.59 117.63 193.717 117.479 193.778C117.165 193.932 116.812 193.993 116.463 193.953C115.702 193.885 115.232 193.459 115.254 193.206Z" fill="url(#paint1_linear)" fill-opacity="0.5"/>
<path id="Vector_3" d="M121.937 193.935C122.166 193.936 122.393 193.908 122.615 193.852C122.974 193.76 123.315 193.608 123.623 193.404C124.818 192.624 125.295 191.311 124.714 190.416C124.373 189.935 123.813 189.658 123.224 189.682C122 189.718 120.9 190.437 120.374 191.543C120.117 192.073 120.146 192.696 120.45 193.199C120.789 193.68 121.349 193.957 121.937 193.935ZM121.514 192.503C121.452 192.354 121.462 192.184 121.543 192.043C121.695 191.727 121.934 191.461 122.232 191.276C122.423 191.15 122.633 191.056 122.854 190.999C122.97 190.969 123.091 190.954 123.211 190.954C123.372 190.937 123.533 190.996 123.644 191.114C123.783 191.325 123.567 191.923 122.927 192.342C122.638 192.541 122.298 192.653 121.948 192.664C121.786 192.681 121.627 192.622 121.515 192.505L121.514 192.503Z" fill="url(#paint2_linear)" fill-opacity="0.5"/>
<path id="Vector_4" d="M125.275 201.055C124.082 201.352 123.356 202.56 123.654 203.753C123.952 204.946 125.16 205.672 126.353 205.374C127.545 205.077 128.271 203.869 127.974 202.676C127.676 201.483 126.468 200.757 125.275 201.055ZM126.045 204.14C125.533 204.268 125.016 203.957 124.888 203.445C124.761 202.934 125.072 202.416 125.583 202.289C126.094 202.161 126.612 202.472 126.739 202.983C126.867 203.495 126.556 204.013 126.045 204.14Z" fill="url(#paint3_linear)" fill-opacity="0.5"/>
<path id="Vector_5" d="M111.85 208.992C112.739 212.558 114.566 216.181 116.474 215.705C117.286 215.502 117.794 214.593 117.954 213.126C119.611 215.688 121.396 217.875 123.142 219.162C124.06 219.842 125.235 220.075 126.344 219.797C127.453 219.521 128.38 218.763 128.871 217.731C129.806 215.774 130.355 213.002 130.614 209.958C131.297 210.977 132.166 211.79 133.136 211.548C135.044 211.072 134.955 207.017 134.066 203.45C133.301 200.384 131.821 197.236 130.194 196.76C130.107 196.162 130.012 195.58 129.907 195.017C130.478 193.598 130.503 191.797 129.908 189.411C128.315 183.025 121.464 181.684 117.108 182.771C112.752 183.858 107.334 188.259 108.926 194.645C109.521 197.03 110.389 198.606 111.558 199.591C111.726 200.124 111.918 200.687 112.125 201.268C110.913 202.452 111.085 205.925 111.85 208.992V208.992ZM116.166 214.47C115.704 214.586 114.1 212.757 113.084 208.684C112.374 205.839 112.444 203.808 112.706 202.813C113.834 205.657 115.167 208.416 116.694 211.067C116.879 213.509 116.376 214.418 116.166 214.47ZM127.724 217.182C127.396 217.872 126.777 218.378 126.037 218.563C125.296 218.748 124.511 218.592 123.898 218.137C120.136 215.363 115.814 207.568 113.489 201.302C113.394 201.044 113.309 200.797 113.221 200.547C115.259 201.259 117.951 200.915 121.418 200.05C124.885 199.185 127.424 198.224 128.892 196.638C128.932 196.899 128.972 197.157 129.01 197.428C129.894 204.056 129.738 212.969 127.724 217.182ZM132.831 203.758C133.847 207.831 133.29 210.199 132.828 210.314C132.618 210.366 131.747 209.797 130.76 207.541C130.862 204.488 130.745 201.433 130.407 198.398C131.106 199.152 132.121 200.912 132.831 203.758ZM117.416 184.005C121.26 183.046 127.293 184.185 128.674 189.718C130.003 195.048 128.378 197.003 121.111 198.816C113.843 200.629 111.49 199.666 110.161 194.337C108.78 188.803 113.572 184.964 117.416 184.005Z" fill="url(#paint4_linear)" fill-opacity="0.5"/>
</g>
<g id="verific-m"  class="verific-m" opacity="0.5">
<path id="Vector 397" d="M25.492 371.313L30.6598 378.276L30.6198 374.393L34.1401 375.321L29.5389 368.691" stroke="url(#paint5_linear)" stroke-width="2" stroke-linecap="round" stroke-linejoin="round"/>
<g id="Group 299">
<path id="Star 1" d="M15.0647 353.763C15.1474 353.472 15.5006 353.359 15.7368 353.549L16.2335 353.948C17.1006 354.645 18.3308 354.661 19.2167 353.989L19.6649 353.648C19.8973 353.472 20.2342 353.578 20.3236 353.856L20.6359 354.826C20.9477 355.795 21.8314 356.465 22.8482 356.505L23.7391 356.54C24.0119 356.55 24.2034 356.813 24.1304 357.076L23.8177 358.202C23.5602 359.13 23.8765 360.122 24.6235 360.73L25.5306 361.468C25.7424 361.64 25.738 361.965 25.5217 362.131L24.8152 362.675C24.009 363.296 23.6765 364.354 23.9829 365.325L24.2897 366.297C24.3776 366.575 24.1642 366.857 23.8726 366.847L23.3101 366.829C22.1982 366.793 21.2048 367.519 20.9009 368.589L20.7268 369.202C20.6441 369.493 20.2909 369.606 20.0548 369.416L19.558 369.017C18.6909 368.32 17.4607 368.303 16.5748 368.976L16.1266 369.316C15.8943 369.493 15.5573 369.387 15.4679 369.109L15.1556 368.139C14.8438 367.17 13.9601 366.5 12.9434 366.46L12.0524 366.425C11.7796 366.415 11.5881 366.152 11.6612 365.889L11.9738 364.763C12.2314 363.835 11.915 362.842 11.168 362.235L10.2609 361.497C10.0492 361.325 10.0535 361 10.2698 360.834L10.9763 360.29C11.7825 359.669 12.115 358.61 11.8087 357.64L11.5018 356.668C11.414 356.39 11.6274 356.108 11.9189 356.118L12.4815 356.136C13.5933 356.172 14.5867 355.446 14.8906 354.376L15.0647 353.763Z" stroke="url(#paint6_linear)" stroke-width="2" stroke-linecap="round" stroke-linejoin="round"/>
<path id="Vector_6" d="M20.4744 358.265L18.2676 362.706C17.9101 363.425 17.0284 363.706 16.3204 363.327L15.0399 362.64" stroke="#FF6C0E" stroke-width="2" stroke-linecap="round" stroke-linejoin="round"/>
</g>
<path id="Vector 398" d="M13.7083 373.737L13.7034 381.815L16.0317 379.002L18.3414 382.201L18.4773 373.667" stroke="url(#paint7_linear)" stroke-width="1.69898" stroke-linecap="round" stroke-linejoin="round"/>
</g>
<g id="robo-2-m" class="robo-2-m">
<path id="Vector_7" opacity="0.5" d="M36.2774 253.303C36.2507 253.316 36.2249 253.332 36.2 253.348L35.7623 253.535C32.3465 254.989 30.8894 258.958 32.5185 262.37L32.7013 262.753C34.3009 266.104 38.2935 267.698 41.6709 266.378L42.3925 267.89L40.5125 268.691C39.2758 269.218 38.651 270.533 38.9266 271.807C36.8156 274.239 36.7663 278.088 38.2604 281.115C37.3583 281.906 37.0456 283.228 37.6037 284.397C37.6498 284.497 37.7154 284.588 37.7967 284.664C37.878 284.741 37.9733 284.802 38.0771 284.843C38.1809 284.884 38.2912 284.905 38.4015 284.904C38.5118 284.903 38.6199 284.881 38.7195 284.838C38.8192 284.796 38.9084 284.734 38.982 284.657C39.0556 284.579 39.1121 284.487 39.1482 284.387C39.1843 284.286 39.1993 284.178 39.1924 284.07C39.1854 283.962 39.1567 283.855 39.1077 283.756C38.8061 283.124 39.0654 282.418 39.6977 282.149C40.3299 281.879 41.0621 282.163 41.3637 282.795C41.4098 282.895 41.4754 282.986 41.5567 283.063C41.6379 283.14 41.7333 283.2 41.8371 283.241C41.9409 283.282 42.0512 283.303 42.1614 283.302C42.2717 283.302 42.3798 283.279 42.4795 283.237C42.5791 283.195 42.6684 283.133 42.742 283.055C42.8155 282.978 42.872 282.886 42.9082 282.785C42.9443 282.684 42.9593 282.577 42.9523 282.469C42.9454 282.36 42.9166 282.254 42.8677 282.155C42.2988 280.963 41.0047 280.304 39.7575 280.452C38.6529 278.172 38.6504 275.223 39.8793 273.344C40.7219 274.117 41.9437 274.41 43.0234 273.951L43.3994 273.79L44.1168 275.293L42.6128 275.934C42.4134 276.019 42.2599 276.179 42.1861 276.38C42.1124 276.581 42.1244 276.806 42.2195 277.006L43.6543 280.011C43.7494 280.21 43.9199 280.368 44.1282 280.449C44.3365 280.53 44.5655 280.527 44.765 280.442L46.2689 279.802L48.7798 285.062C48.7837 285.069 48.7877 285.076 48.7918 285.083C48.2124 286.157 48.1288 287.489 48.7106 288.708C48.8058 288.907 48.9762 289.064 49.1845 289.145C49.3928 289.226 49.6219 289.224 49.8213 289.139L55.8373 286.577L61.8532 284.014C62.0526 283.929 62.2061 283.769 62.2798 283.568C62.3536 283.367 62.3416 283.142 62.2465 282.942C61.6648 281.724 60.5536 280.901 59.3182 280.599C59.3148 280.592 59.3113 280.585 59.3077 280.577L56.7969 275.318L58.3008 274.677C58.5003 274.592 58.6537 274.431 58.7275 274.23C58.8012 274.029 58.7892 273.805 58.6941 273.605L57.2594 270.6C57.1642 270.4 56.9937 270.243 56.7855 270.162C56.5772 270.081 56.3481 270.084 56.1487 270.169L54.6447 270.809L53.9273 269.306L54.3033 269.146C55.383 268.686 55.9588 267.627 55.9033 266.519C58.208 266.893 60.5463 268.847 61.6241 271.139C60.6808 271.924 60.3466 273.276 60.9155 274.468C60.9616 274.568 61.0272 274.659 61.1085 274.735C61.1898 274.812 61.2851 274.872 61.3889 274.914C61.4927 274.955 61.603 274.975 61.7133 274.975C61.8235 274.974 61.9317 274.952 62.0313 274.909C62.131 274.867 62.2202 274.805 62.2938 274.727C62.3674 274.65 62.4239 274.558 62.46 274.457C62.4961 274.357 62.5111 274.249 62.5042 274.141C62.4972 274.033 62.4684 273.926 62.4195 273.827C62.1179 273.195 62.3772 272.489 63.0094 272.219C63.6417 271.95 64.3739 272.234 64.6755 272.866C64.7216 272.966 64.7872 273.057 64.8685 273.134C64.9497 273.21 65.0451 273.271 65.1489 273.312C65.2527 273.353 65.3629 273.374 65.4732 273.373C65.5835 273.373 65.6916 273.35 65.7913 273.308C65.8909 273.265 65.9802 273.204 66.0537 273.126C66.1273 273.048 66.1838 272.957 66.2199 272.856C66.2561 272.755 66.2711 272.648 66.2641 272.539C66.2572 272.431 66.2284 272.324 66.1795 272.225C65.6214 271.056 64.3658 270.403 63.1408 270.518C61.7286 267.456 58.6417 264.942 55.3147 264.827C54.4868 263.788 53.0291 263.36 51.7924 263.886L49.9124 264.687L49.1908 263.175C52.4737 261.658 53.8531 257.777 52.2538 254.427L52.071 254.044C50.4417 250.631 46.3288 249.034 42.9136 250.489L42.357 250.726L36.4482 253.242C36.4156 253.25 36.3836 253.259 36.3523 253.271C36.3267 253.28 36.3017 253.291 36.2774 253.303ZM38.0102 254.385L42.0991 252.644L42.4405 254.307L39.1035 255.728L38.0102 254.385ZM36.4599 255.048L38.2317 257.223C38.35 257.368 38.5128 257.472 38.6944 257.519C38.8759 257.566 39.0657 257.553 39.2334 257.481L43.7454 255.559C43.9132 255.488 44.0495 255.363 44.1325 255.203C44.2155 255.044 44.2405 254.859 44.2035 254.679L43.6508 251.985C46.249 250.891 49.3284 252.09 50.567 254.685L50.7499 255.068C51.9613 257.606 50.9429 260.504 48.4734 261.673C48.4118 261.548 48.3198 261.438 48.2058 261.355C48.0918 261.271 47.9594 261.217 47.8209 261.195C47.6823 261.174 47.542 261.187 47.4127 261.233C47.2835 261.279 47.1694 261.357 47.0811 261.459L44.9958 263.866L41.7055 263.748C41.5938 263.744 41.4832 263.762 41.3804 263.8C41.2781 263.839 41.1856 263.898 41.1084 263.974C41.0313 264.049 40.9711 264.14 40.9313 264.24C40.8915 264.34 40.8729 264.448 40.8767 264.557C40.8806 264.666 40.9067 264.775 40.9535 264.876C38.3913 265.85 35.4172 264.651 34.2053 262.113L34.0225 261.73C32.7845 259.137 33.8718 256.163 36.4599 255.048ZM37.3244 259.198C37.1305 259.285 36.9818 259.443 36.9096 259.64L36.123 261.783C36.0838 261.883 36.0658 261.991 36.0699 262.1C36.074 262.208 36.1002 262.316 36.1469 262.416C36.1936 262.517 36.2599 262.608 36.3419 262.684C36.4239 262.761 36.52 262.821 36.6245 262.862C36.729 262.902 36.8398 262.922 36.9504 262.921C37.0611 262.919 37.1694 262.896 37.269 262.852C37.3685 262.808 37.4574 262.745 37.5303 262.666C37.6032 262.588 37.6587 262.495 37.6935 262.393L38.2021 261.007L39.6382 261.565C39.7419 261.607 39.8524 261.63 39.9631 261.63C40.0739 261.631 40.1827 261.61 40.2833 261.568C40.3838 261.526 40.474 261.465 40.5486 261.388C40.6232 261.311 40.6807 261.219 40.7177 261.118C40.7547 261.017 40.7704 260.909 40.7641 260.801C40.7577 260.692 40.7293 260.585 40.6806 260.485C40.6319 260.386 40.5637 260.296 40.4802 260.221C40.3967 260.146 40.2995 260.088 40.1943 260.049L37.9729 259.187C37.8677 259.146 37.7561 259.126 37.6447 259.128C37.5333 259.13 37.4244 259.154 37.3244 259.198ZM46.3483 255.355C46.1545 255.441 46.0057 255.6 45.9335 255.797L45.1469 257.94C45.1078 258.04 45.0897 258.147 45.0938 258.256C45.098 258.365 45.1241 258.472 45.1708 258.573C45.2175 258.673 45.2838 258.764 45.3658 258.841C45.4478 258.917 45.5439 258.977 45.6484 259.018C45.7529 259.059 45.8637 259.079 45.9744 259.077C46.085 259.075 46.1933 259.052 46.2929 259.008C46.3924 258.965 46.4813 258.902 46.5542 258.823C46.6271 258.744 46.6826 258.651 46.7175 258.55L47.226 257.164L48.6621 257.721C48.7658 257.764 48.8763 257.786 48.987 257.787C49.0978 257.787 49.2067 257.766 49.3072 257.724C49.4077 257.683 49.4979 257.622 49.5725 257.544C49.6471 257.467 49.7046 257.375 49.7416 257.275C49.7786 257.174 49.7944 257.066 49.788 256.957C49.7816 256.849 49.7533 256.741 49.7045 256.642C49.6558 256.542 49.5877 256.452 49.5042 256.378C49.4207 256.303 49.3234 256.244 49.2182 256.206L46.9968 255.344C46.8916 255.303 46.78 255.283 46.6686 255.285C46.5572 255.287 46.4483 255.31 46.3483 255.355ZM43.0264 265.427L45.3965 265.512C45.5192 265.517 45.6401 265.494 45.7508 265.447C45.8615 265.4 45.9592 265.329 46.0369 265.239L47.5383 263.505L48.5612 265.648L46.191 265.562C46.0684 265.558 45.9474 265.58 45.8367 265.627C45.726 265.674 45.6283 265.745 45.5506 265.835L44.0492 267.569L43.0264 265.427ZM46.5917 267.209L49.882 267.326C50.0223 267.331 50.1601 267.301 50.2827 267.24C50.4053 267.178 50.5087 267.086 50.5833 266.973C50.6578 266.859 50.7012 266.728 50.7093 266.591C50.7175 266.455 50.6901 266.316 50.6298 266.19L52.5098 265.389C53.1053 265.136 53.7849 265.377 54.1144 265.933C54.1345 265.979 54.1588 266.024 54.1869 266.066C54.4662 266.69 54.2081 267.378 53.5859 267.643L42.306 272.448C41.6833 272.713 40.966 272.44 40.6562 271.828C40.6421 271.783 40.6242 271.739 40.6026 271.697C40.3743 271.093 40.6319 270.448 41.2299 270.194L43.1099 269.393C43.1704 269.519 43.2618 269.63 43.3758 269.715C43.4898 269.8 43.6226 269.856 43.7618 269.878C43.9011 269.9 44.0424 269.888 44.1726 269.842C44.3027 269.796 44.4176 269.718 44.5064 269.616L46.5917 267.209ZM44.9034 273.15L52.4233 269.947L53.1407 271.45L45.6208 274.653L44.9034 273.15ZM44.0822 277.116L56.1141 271.992L56.8315 273.494L55.3275 274.135L52.3195 275.416L49.3115 276.697L46.3036 277.979L44.7996 278.619L44.0822 277.116ZM47.7729 279.161L49.2769 278.521L51.4291 283.029L49.9251 283.67L47.7729 279.161ZM50.7809 277.88L52.2849 277.239L54.7958 282.499C54.7997 282.506 54.8036 282.514 54.8077 282.521C54.6252 282.859 54.4927 283.22 54.4158 283.599C54.0645 283.402 53.6912 283.257 53.3023 283.162C53.2989 283.154 53.2954 283.147 53.2918 283.14L50.7809 277.88ZM53.7889 276.599L55.2929 275.958L57.445 280.467L56.693 280.787L55.9411 281.107L53.7889 276.599ZM51.3945 284.852C52.3539 284.443 53.3302 284.83 54.058 285.526L50.1658 287.184C50.0955 286.208 50.4351 285.261 51.3945 284.852ZM57.4104 282.29C58.3699 281.881 59.3462 282.268 60.0739 282.964L56.1818 284.621C56.1114 283.646 56.451 282.698 57.4104 282.29Z" fill="#FF6C0E"/>
</g>
<g id="medalha-m" class="medalha-m" opacity="0.5">
<path id="Fill 1" fill-rule="evenodd" clip-rule="evenodd" d="M345.522 244.681L335.359 255.371L339.273 256.951L349.728 246.379L345.522 244.681Z" fill="url(#paint8_linear)"/>
<g id="Group 4">
<mask id="mask0" mask-type="alpha" maskUnits="userSpaceOnUse" x="323" y="251" width="22" height="23">
<path id="Clip 3" fill-rule="evenodd" clip-rule="evenodd" d="M330.613 252.536L344.022 257.951L337.908 273.09L324.5 267.675L330.613 252.536Z" fill="white" stroke="white"/>
</mask>
<g mask="url(#mask0)">
<path id="Fill 2" d="M334.264 255.302L334.727 255.489L334.264 255.302ZM334.721 255.107L334.534 255.571L334.721 255.107ZM339.281 256.948L339.468 256.485L339.281 256.948ZM339.474 257.407L339.938 257.594L339.474 257.407ZM339.027 258.514L338.674 258.868L339.208 259.401L339.491 258.701L339.027 258.514ZM332.876 256.487L332.95 256.982L333.232 256.94L333.339 256.674L332.876 256.487ZM334.28 256.597L334.727 255.489L333.8 255.115L333.353 256.222L334.28 256.597ZM334.727 255.489C334.697 255.564 334.612 255.602 334.534 255.571L334.908 254.643C334.471 254.467 333.975 254.68 333.8 255.115L334.727 255.489ZM334.534 255.571L339.093 257.412L339.468 256.485L334.908 254.643L334.534 255.571ZM339.093 257.412C339.016 257.381 338.981 257.294 339.011 257.219L339.938 257.594C340.114 257.159 339.905 256.661 339.468 256.485L339.093 257.412ZM339.011 257.219L338.564 258.327L339.491 258.701L339.938 257.594L339.011 257.219ZM339.38 258.16C338.67 257.451 337.809 256.87 336.822 256.471L336.447 257.399C337.308 257.746 338.057 258.252 338.674 258.868L339.38 258.16ZM336.822 256.471C335.834 256.073 334.812 255.893 333.808 255.91L333.825 256.909C334.697 256.895 335.586 257.051 336.447 257.399L336.822 256.471ZM340.114 259.41L340.72 257.909L339.792 257.535L339.186 259.036L340.114 259.41ZM340.72 257.909C341.07 257.042 340.652 256.051 339.784 255.701L339.41 256.628C339.763 256.771 339.937 257.177 339.792 257.535L340.72 257.909ZM339.784 255.701L335.225 253.86L334.85 254.787L339.41 256.628L339.784 255.701ZM335.225 253.86C334.357 253.509 333.368 253.932 333.018 254.799L333.946 255.174C334.09 254.816 334.497 254.644 334.85 254.787L335.225 253.86ZM333.018 254.799L332.412 256.3L333.339 256.674L333.946 255.174L333.018 254.799ZM332.802 255.993C330.178 256.384 327.819 258.12 326.751 260.764L327.679 261.139C328.609 258.835 330.662 257.323 332.95 256.982L332.802 255.993ZM326.751 260.764C325.149 264.733 327.056 269.247 331.016 270.847L331.391 269.919C327.946 268.528 326.282 264.598 327.679 261.139L326.751 260.764ZM331.016 270.847C334.976 272.446 339.484 270.522 341.087 266.554L340.16 266.179C338.763 269.638 334.836 271.311 331.391 269.919L331.016 270.847ZM341.087 266.554C342.155 263.909 341.663 261.022 340.046 258.918L339.254 259.528C340.663 261.361 341.09 263.875 340.16 266.179L341.087 266.554Z" fill="url(#paint9_linear)"/>
</g>
</g>
<path id="Fill 5" d="M331.699 269.163C328.645 267.93 327.145 264.487 328.355 261.49C329.566 258.492 333.035 257.057 336.09 258.29C339.144 259.523 340.644 262.966 339.434 265.964C338.223 268.961 334.753 270.397 331.699 269.163" stroke="url(#paint10_linear)"/>
<path id="Fill 105" fill-rule="evenodd" clip-rule="evenodd" d="M335.15 265.603C335.001 266.063 334.418 266.204 334.075 265.863L333.406 265.199L332.463 265.204C331.979 265.206 331.663 264.697 331.879 264.264L332.308 263.404L332.014 262.485C331.867 262.027 332.252 261.574 332.727 261.644L333.671 261.784L334.433 261.223C334.825 260.935 335.382 261.163 335.459 261.643L335.61 262.578L336.381 263.14C336.77 263.423 336.726 264.015 336.301 264.239L335.446 264.688L335.15 265.603Z" stroke="url(#paint11_linear)"/>
<path id="Fill 116" fill-rule="evenodd" clip-rule="evenodd" d="M333.932 240L338.603 241.887L339.38 257.233L334.993 255.461L333.932 240Z" fill="url(#paint12_linear)"/>
</g>
<g id="rocket-m" class="rocket-m">
<path id="Vector 402" opacity="0.5" d="M401.666 459.985L400.794 453.723L396.412 458.001L400.179 464.364L401.423 461.915C401.837 461.098 401.837 461.098 401.666 459.985Z" stroke="url(#paint13_linear)" stroke-linecap="round" stroke-linejoin="round"/>
<path id="Vector 403" opacity="0.5" d="M385.608 452.44L390.898 449.307L389.877 455.292L383 456.251L384.244 453.801C384.658 452.985 384.658 452.985 385.608 452.44Z" stroke="url(#paint14_linear)" stroke-linecap="round" stroke-linejoin="round"/>
<path id="Vector 412" opacity="0.5" d="M390.297 457.192C390.924 444.655 397.263 437.326 405.019 433.353C406.569 441.062 403.547 452.712 394.386 459.268M390.297 457.192L394.386 459.268M390.297 457.192L388.094 460.358L393.205 462.953L394.386 459.268" stroke="url(#paint15_linear)" stroke-width="2" stroke-linecap="round" stroke-linejoin="round"/>
<path id="Ellipse 353" opacity="0.5" d="M401.423 445.827C400.629 447.391 398.994 447.989 397.838 447.402C396.681 446.815 396.199 445.141 396.993 443.578C397.786 442.015 399.422 441.417 400.578 442.004C401.735 442.591 402.217 444.264 401.423 445.827Z" stroke="#FF6C0E"/>
</g>
<g id="astronaut-m" class="astronaut-m" opacity="0.5" clip-path="url(#clip0)">
<path id="Vector_8" d="M395.32 351.457C395.314 351.172 395.147 350.907 394.88 350.783C394.631 350.667 394.621 350.702 392.91 350.863C393.012 346.567 390.471 342.455 386.17 340.797C387.048 339.446 387.165 339.368 387.132 339.014C387.103 338.718 386.908 338.47 386.634 338.371C383.959 337.396 380.609 337.377 377.586 338.587C370.944 341.249 367.721 348.778 370.382 355.421C371.542 358.316 373.713 360.733 376.589 362.177L377.647 364.818C377.96 365.598 378.848 365.978 379.628 365.665L394.805 359.585C395.584 359.273 395.965 358.385 395.652 357.605L394.594 354.963C395.101 353.547 395.331 351.962 395.32 351.457ZM391.381 351.007L379.877 352.089C379.756 351.779 379.589 351.505 379.375 351.26L385.32 342.107C389.226 343.443 391.551 347.16 391.381 351.007ZM378.452 352.626C378.712 353.276 378.395 354.016 377.745 354.277C377.096 354.537 376.355 354.22 376.095 353.57C375.835 352.921 376.152 352.18 376.801 351.92C377.451 351.66 378.191 351.977 378.452 352.626ZM378.153 340.001C380.395 339.103 382.856 338.942 385.181 339.525C378.007 350.571 384.107 341.177 378.097 350.432C376.194 349.842 374.287 351.39 374.497 353.39L371.67 354.523C369.563 348.757 372.416 342.3 378.153 340.001ZM377.029 360.69C374.995 359.608 373.35 357.948 372.286 355.917L375.063 354.804C376.529 356.702 379.573 355.99 380.018 353.605C381.873 353.431 392.61 352.421 393.698 352.319C393.601 352.954 393.451 353.58 393.248 354.192L377.029 360.69ZM394.238 358.171L379.061 364.251L378.117 361.895L393.294 355.815C394.259 358.221 394.243 358.169 394.238 358.171Z" fill="url(#paint16_linear)"/>
</g>
<g id="world-m" class="world-m" opacity="0.5" clip-path="url(#clip1)">
<g id="Group">
<g id="Group_2">
<path id="Vector_9" d="M250.718 180.444C245.582 179.067 240.12 180.884 236.834 185.064L236.66 185.074L236.672 185.277C232.252 191.128 233.411 199.455 239.262 203.875C240.629 204.907 242.182 205.666 243.837 206.108C250.924 208.008 258.21 203.803 260.11 196.716C262.01 189.629 257.805 182.344 250.718 180.444ZM255.612 202.444L255.129 201.608L255.54 200.074C255.559 200.009 255.562 199.939 255.549 199.872L254.773 196.093L255.205 194.483C255.243 194.34 255.207 194.187 255.11 194.076L254.055 192.877C253.973 192.783 253.854 192.728 253.729 192.726L252.052 192.697L249.716 190.857L250.035 188.216L251.311 187.479L253.471 188.058L253.906 189.346C253.945 189.462 254.031 189.557 254.142 189.607L256.594 190.723C256.66 190.753 256.732 190.766 256.804 190.761L259.379 190.607C260.342 194.943 258.904 199.462 255.612 202.444ZM257.89 186.883L257.07 187.16L255.235 186.253L254.089 185.497C254.019 185.45 253.937 185.425 253.853 185.424L252.156 185.395L251.521 184.976L252.315 184.081L253.762 184.468C253.828 184.486 253.898 184.488 253.965 184.475L255.643 184.131C256.52 184.936 257.277 185.863 257.89 186.883ZM245.544 180.998L246.387 181.957C246.428 182.004 246.479 182.042 246.537 182.068L248.517 182.969L248.152 183.52L246.976 183.591C246.87 183.598 246.771 183.641 246.695 183.715L244.918 185.433L242.627 186.088L239.607 185.724C239.388 185.697 239.183 185.836 239.126 186.048L238.782 187.332C238.751 187.445 238.767 187.566 238.826 187.668L239.361 188.593L239.164 189.328L237.702 187.665L237.576 185.556C239.556 183.078 242.405 181.449 245.544 180.998ZM240.568 194.696L238.738 193.791L238.404 192.165L238.673 191.16L240.694 189.993L240.968 191.332C241.001 191.496 241.125 191.627 241.287 191.671L244.039 192.408L244.68 194.65C244.723 194.799 244.841 194.915 244.991 194.956L246.181 195.274L245.479 196.694L243.426 197.88C243.324 197.938 243.25 198.035 243.219 198.148L242.932 199.218L241.083 199.96C240.954 200.012 240.856 200.122 240.82 200.257L240.406 201.802L239.921 201.483L239.674 199.403L240.798 195.207C240.852 195.004 240.756 194.79 240.568 194.696ZM237.52 200.928C234.298 196.821 233.993 191.136 236.758 186.709L236.828 187.87C236.833 187.968 236.872 188.062 236.937 188.136L238.688 190.128L238.071 190.485C237.97 190.544 237.895 190.64 237.865 190.754L237.521 192.037C237.503 192.103 237.501 192.173 237.515 192.24L237.912 194.181C237.939 194.315 238.027 194.428 238.15 194.489L239.851 195.329L238.798 199.256C238.784 199.311 238.779 199.367 238.786 199.423L239.069 201.791C239.084 201.921 239.156 202.037 239.265 202.108L240.433 202.88C240.472 202.906 240.515 202.925 240.56 202.938C240.797 203.001 241.039 202.861 241.103 202.625L241.618 200.7L243.468 199.957C243.597 199.905 243.695 199.796 243.731 199.661L244.027 198.555L246.038 197.394C246.113 197.35 246.174 197.285 246.213 197.207L247.214 195.183C247.322 194.963 247.232 194.698 247.013 194.589C246.987 194.576 246.96 194.566 246.932 194.559L245.463 194.165L244.822 191.923C244.779 191.774 244.661 191.658 244.511 191.617L241.781 190.886L241.441 189.215C241.412 189.075 241.318 188.958 241.188 188.899C241.059 188.839 240.908 188.847 240.785 188.92L240.082 189.324L240.264 188.646C240.294 188.532 240.278 188.411 240.219 188.31L239.685 187.384L239.882 186.648L242.61 186.977C242.668 186.984 242.728 186.979 242.784 186.963L245.267 186.253C245.337 186.233 245.4 186.196 245.453 186.146L247.191 184.465L248.426 184.39C248.565 184.383 248.692 184.309 248.769 184.192L249.54 183.024C249.674 182.819 249.618 182.545 249.413 182.41C249.394 182.398 249.374 182.387 249.354 182.378L246.989 181.302L246.631 180.895C249.558 180.74 252.444 181.63 254.776 183.405L253.89 183.586L252.28 183.154C252.117 183.11 251.943 183.162 251.831 183.288L250.518 184.77C250.355 184.953 250.373 185.233 250.556 185.395C250.571 185.409 250.588 185.421 250.605 185.433L251.774 186.204C251.844 186.251 251.926 186.277 252.01 186.278L253.707 186.306L254.768 187.007C254.783 187.017 254.799 187.026 254.816 187.034L256.84 188.035C256.945 188.087 257.067 188.096 257.178 188.058L258.326 187.669C258.662 188.331 258.938 189.022 259.152 189.733L256.859 189.871L254.682 188.88L254.232 187.549C254.185 187.41 254.072 187.303 253.929 187.264L251.363 186.576C251.249 186.546 251.129 186.562 251.027 186.621L249.4 187.56C249.279 187.63 249.198 187.752 249.181 187.891L248.807 191C248.789 191.154 248.852 191.306 248.974 191.401L251.625 193.487C251.701 193.547 251.794 193.58 251.891 193.581L253.521 193.609L254.288 194.483L253.891 195.965C253.872 196.031 253.869 196.1 253.882 196.167L254.658 199.946L254.226 201.556C254.196 201.67 254.212 201.791 254.27 201.892L254.925 203.027C249.539 207.254 241.747 206.314 237.52 200.928Z" fill="url(#paint17_linear)"/>
</g>
</g>
</g>
</g>
<defs>
<linearGradient id="paint0_linear" x1="118.032" y1="186.474" x2="120.803" y2="197.582" gradientUnits="userSpaceOnUse">
<stop stop-color="#DB5500"/>
<stop offset="1" stop-color="#FF6C0E"/>
</linearGradient>
<linearGradient id="paint1_linear" x1="116.038" y1="191.397" x2="117" y2="195.253" gradientUnits="userSpaceOnUse">
<stop stop-color="#DB5500"/>
<stop offset="1" stop-color="#FF6C0E"/>
</linearGradient>
<linearGradient id="paint2_linear" x1="122.105" y1="189.884" x2="123.066" y2="193.739" gradientUnits="userSpaceOnUse">
<stop stop-color="#DB5500"/>
<stop offset="1" stop-color="#FF6C0E"/>
</linearGradient>
<linearGradient id="paint3_linear" x1="125.275" y1="201.055" x2="126.353" y2="205.374" gradientUnits="userSpaceOnUse">
<stop stop-color="#DB5500"/>
<stop offset="1" stop-color="#FF6C0E"/>
</linearGradient>
<linearGradient id="paint4_linear" x1="117.108" y1="182.771" x2="126.344" y2="219.797" gradientUnits="userSpaceOnUse">
<stop stop-color="#DB5500"/>
<stop offset="1" stop-color="#FF6C0E"/>
</linearGradient>
<linearGradient id="paint5_linear" x1="26.7187" y1="373.594" x2="32.2237" y2="371.85" gradientUnits="userSpaceOnUse">
<stop offset="0.0880283" stop-color="#DB5500" stop-opacity="0.78"/>
<stop offset="1" stop-color="#FF6C0E" stop-opacity="0.63"/>
</linearGradient>
<linearGradient id="paint6_linear" x1="9.39182" y1="362.038" x2="24.3954" y2="357.292" gradientUnits="userSpaceOnUse">
<stop offset="0.0880283" stop-color="#DB5500" stop-opacity="0.78"/>
<stop offset="1" stop-color="#FF6C0E" stop-opacity="0.63"/>
</linearGradient>
<linearGradient id="paint7_linear" x1="12.9783" y1="377.974" x2="18.4843" y2="376.229" gradientUnits="userSpaceOnUse">
<stop offset="0.0880283" stop-color="#DB5500" stop-opacity="0.78"/>
<stop offset="1" stop-color="#FF6C0E" stop-opacity="0.63"/>
</linearGradient>
<linearGradient id="paint8_linear" x1="339.053" y1="248.027" x2="346.639" y2="251.106" gradientUnits="userSpaceOnUse">
<stop offset="0.0880283" stop-color="#DB5500" stop-opacity="0.78"/>
<stop offset="1" stop-color="#FF6C0E" stop-opacity="0.63"/>
</linearGradient>
<linearGradient id="paint9_linear" x1="329.06" y1="259.001" x2="340.076" y2="263.477" gradientUnits="userSpaceOnUse">
<stop offset="0.0880283" stop-color="#DB5500" stop-opacity="0.78"/>
<stop offset="1" stop-color="#FF6C0E" stop-opacity="0.63"/>
</linearGradient>
<linearGradient id="paint10_linear" x1="329.533" y1="260.736" x2="338.634" y2="264.437" gradientUnits="userSpaceOnUse">
<stop offset="0.0880283" stop-color="#DB5500" stop-opacity="0.78"/>
<stop offset="1" stop-color="#FF6C0E" stop-opacity="0.63"/>
</linearGradient>
<linearGradient id="paint11_linear" x1="332.02" y1="261.77" x2="336.57" y2="263.621" gradientUnits="userSpaceOnUse">
<stop offset="0.0880283" stop-color="#DB5500" stop-opacity="0.78"/>
<stop offset="1" stop-color="#FF6C0E" stop-opacity="0.63"/>
</linearGradient>
<linearGradient id="paint12_linear" x1="332.553" y1="245.498" x2="341.318" y2="249.058" gradientUnits="userSpaceOnUse">
<stop offset="0.0880283" stop-color="#DB5500" stop-opacity="0.78"/>
<stop offset="1" stop-color="#FF6C0E" stop-opacity="0.63"/>
</linearGradient>
<linearGradient id="paint13_linear" x1="402.443" y1="458.972" x2="397.864" y2="456.656" gradientUnits="userSpaceOnUse">
<stop offset="0.0880283" stop-color="#DB5500" stop-opacity="0.78"/>
<stop offset="1" stop-color="#FF6C0E" stop-opacity="0.63"/>
</linearGradient>
<linearGradient id="paint14_linear" x1="385.985" y1="451.224" x2="390.16" y2="453.351" gradientUnits="userSpaceOnUse">
<stop offset="0.0880283" stop-color="#DB5500" stop-opacity="0.78"/>
<stop offset="1" stop-color="#FF6C0E" stop-opacity="0.63"/>
</linearGradient>
<linearGradient id="paint15_linear" x1="395.219" y1="442.715" x2="402.775" y2="446.559" gradientUnits="userSpaceOnUse">
<stop offset="0.0880283" stop-color="#DB5500" stop-opacity="0.78"/>
<stop offset="1" stop-color="#FF6C0E" stop-opacity="0.63"/>
</linearGradient>
<linearGradient id="paint16_linear" x1="370.998" y1="352.462" x2="389.85" y2="344.961" gradientUnits="userSpaceOnUse">
<stop offset="0.0880283" stop-color="#DB5500" stop-opacity="0.78"/>
<stop offset="1" stop-color="#FF6C0E" stop-opacity="0.63"/>
</linearGradient>
<linearGradient id="paint17_linear" x1="236.848" y1="187.806" x2="257.944" y2="193.514" gradientUnits="userSpaceOnUse">
<stop offset="0.0880283" stop-color="#DB5500" stop-opacity="0.78"/>
<stop offset="1" stop-color="#FF6C0E" stop-opacity="0.63"/>
</linearGradient>
<clipPath id="clip0">
<rect width="25.8951" height="25.8951" fill="white" transform="translate(365 343.63) rotate(-21.8318)"/>
</clipPath>
<clipPath id="clip1">
<rect width="26.5765" height="26.5765" fill="white" transform="translate(237.879 177) rotate(15)"/>
</clipPath>
</defs>
</svg>
