<svg width="414" height="896" viewBox="0 0 414 896" fill="none" xmlns="http://www.w3.org/2000/svg">
<g id="bg-hero-m">
<g id="robo-1-m" class="robo-1-m">
<path id="Vector" d="M120.803 197.582C126.576 196.141 128.437 194.023 127.44 190.026C126.771 187.344 122.831 185.276 118.032 186.474C113.234 187.671 110.726 191.346 111.395 194.029C112.392 198.026 115.03 199.022 120.803 197.582V197.582ZM118.34 187.708C122.34 186.71 125.696 188.291 126.206 190.334C126.795 192.698 126.772 194.782 120.495 196.347C114.218 197.913 113.219 196.084 112.629 193.721C112.12 191.678 114.34 188.706 118.34 187.708Z" fill="url(#paint0_linear)" fill-opacity="0.5"/>
<path id="Vector_2" d="M116.35 195.218C116.719 195.253 117.091 195.227 117.451 195.14C117.673 195.086 117.887 195.003 118.089 194.895C118.618 194.638 118.981 194.131 119.055 193.547C119.087 192.96 118.819 192.396 118.344 192.05C117.361 191.32 116.052 191.202 114.955 191.745C114.426 192.002 114.062 192.509 113.989 193.093C113.892 194.158 114.93 195.093 116.35 195.218ZM115.254 193.206C115.297 193.05 115.411 192.923 115.561 192.862C115.667 192.806 115.78 192.763 115.897 192.735C116.12 192.681 116.35 192.665 116.578 192.687C116.928 192.71 117.263 192.833 117.546 193.04C117.683 193.127 117.772 193.272 117.787 193.433C117.743 193.59 117.63 193.717 117.479 193.778C117.165 193.932 116.812 193.993 116.463 193.953C115.702 193.885 115.232 193.459 115.254 193.206Z" fill="url(#paint1_linear)" fill-opacity="0.5"/>
<path id="Vector_3" d="M121.937 193.935C122.166 193.936 122.393 193.908 122.615 193.852C122.974 193.76 123.315 193.608 123.623 193.404C124.818 192.624 125.295 191.311 124.714 190.416C124.373 189.935 123.813 189.658 123.224 189.682C122 189.718 120.9 190.437 120.374 191.543C120.117 192.073 120.146 192.696 120.45 193.199C120.789 193.68 121.349 193.957 121.937 193.935ZM121.514 192.503C121.452 192.354 121.462 192.184 121.543 192.043C121.695 191.727 121.934 191.461 122.232 191.276C122.423 191.15 122.633 191.056 122.854 190.999C122.97 190.969 123.091 190.954 123.211 190.954C123.372 190.937 123.533 190.996 123.644 191.114C123.783 191.325 123.567 191.923 122.927 192.342C122.638 192.541 122.298 192.653 121.948 192.664C121.786 192.681 121.627 192.622 121.515 192.505L121.514 192.503Z" fill="url(#paint2_linear)" fill-opacity="0.5"/>
<path id="Vector_4" d="M125.275 201.055C124.082 201.352 123.356 202.56 123.654 203.753C123.952 204.946 125.16 205.672 126.353 205.374C127.545 205.077 128.271 203.869 127.974 202.676C127.676 201.483 126.468 200.757 125.275 201.055ZM126.045 204.14C125.533 204.268 125.016 203.957 124.888 203.445C124.761 202.934 125.072 202.416 125.583 202.289C126.094 202.161 126.612 202.472 126.739 202.983C126.867 203.495 126.556 204.013 126.045 204.14Z" fill="url(#paint3_linear)" fill-opacity="0.5"/>
<path id="Vector_5" d="M111.85 208.992C112.739 212.558 114.566 216.181 116.474 215.705C117.286 215.502 117.794 214.593 117.954 213.126C119.611 215.688 121.396 217.875 123.142 219.162C124.06 219.842 125.235 220.075 126.344 219.797C127.453 219.521 128.38 218.763 128.871 217.731C129.806 215.774 130.355 213.002 130.614 209.958C131.297 210.977 132.166 211.79 133.136 211.548C135.044 211.072 134.955 207.017 134.066 203.45C133.301 200.384 131.821 197.236 130.194 196.76C130.107 196.162 130.012 195.58 129.907 195.017C130.478 193.598 130.503 191.797 129.908 189.411C128.315 183.025 121.464 181.684 117.108 182.771C112.752 183.858 107.334 188.259 108.926 194.645C109.521 197.03 110.389 198.606 111.558 199.591C111.726 200.124 111.918 200.687 112.125 201.268C110.913 202.452 111.085 205.925 111.85 208.992V208.992ZM116.166 214.47C115.704 214.586 114.1 212.757 113.084 208.684C112.374 205.839 112.444 203.808 112.706 202.813C113.834 205.657 115.167 208.416 116.694 211.067C116.879 213.509 116.376 214.418 116.166 214.47V214.47ZM127.724 217.182C127.396 217.872 126.777 218.378 126.037 218.563C125.296 218.748 124.511 218.592 123.898 218.137C120.136 215.363 115.814 207.568 113.489 201.302C113.394 201.044 113.309 200.797 113.221 200.547C115.259 201.259 117.951 200.915 121.418 200.05C124.885 199.185 127.424 198.224 128.892 196.638C128.932 196.899 128.972 197.157 129.01 197.428C129.894 204.056 129.738 212.969 127.724 217.182V217.182ZM132.831 203.758C133.847 207.831 133.29 210.199 132.828 210.314C132.618 210.366 131.747 209.797 130.76 207.541C130.862 204.488 130.745 201.433 130.407 198.398C131.106 199.152 132.121 200.912 132.831 203.758ZM117.416 184.005C121.26 183.046 127.293 184.185 128.674 189.718C130.003 195.048 128.378 197.003 121.111 198.816C113.843 200.629 111.49 199.666 110.161 194.337C108.78 188.803 113.572 184.964 117.416 184.005Z" fill="url(#paint4_linear)" fill-opacity="0.5"/>
</g>
<g id="verific-m" class="verific-m" opacity="0.5">
<path id="Vector 397" d="M75.492 405.313L80.6598 412.276L80.6198 408.393L84.1401 409.321L79.5389 402.691" stroke="url(#paint5_linear)" stroke-width="2" stroke-linecap="round" stroke-linejoin="round"/>
<g id="Group 299">
<path id="Star 1" d="M65.7368 387.549L66.2335 387.948C67.1006 388.645 68.3308 388.661 69.2167 387.989L69.6649 387.648C69.8973 387.472 70.2342 387.578 70.3236 387.856L70.6359 388.826C70.9477 389.795 71.8314 390.465 72.8482 390.505L73.7391 390.54C74.0119 390.55 74.2034 390.813 74.1304 391.076L73.8177 392.202C73.5602 393.13 73.8765 394.122 74.6235 394.73L75.5306 395.468C75.7424 395.64 75.738 395.965 75.5217 396.131L74.8152 396.675C74.009 397.296 73.6765 398.354 73.9829 399.325L74.2897 400.297C74.3776 400.575 74.1642 400.857 73.8726 400.847L73.3101 400.829C72.1982 400.793 71.2048 401.519 70.9009 402.589L70.7268 403.202C70.6441 403.493 70.2909 403.606 70.0548 403.416L69.558 403.017C68.6909 402.32 67.4607 402.303 66.5748 402.976L66.1266 403.316C65.8943 403.493 65.5573 403.387 65.4679 403.109L65.1556 402.139C64.8438 401.17 63.9601 400.5 62.9434 400.46L62.0524 400.425C61.7796 400.415 61.5882 400.152 61.6612 399.889L61.9738 398.763C62.2314 397.835 61.915 396.842 61.168 396.235L60.2609 395.497C60.0492 395.325 60.0535 395 60.2698 394.834L60.9763 394.29C61.7825 393.669 62.115 392.61 61.8087 391.64L61.5018 390.668C61.414 390.39 61.6274 390.108 61.9189 390.118L62.4815 390.136C63.5933 390.172 64.5867 389.446 64.8906 388.376L65.0647 387.763C65.1474 387.472 65.5006 387.359 65.7368 387.549Z" stroke="url(#paint6_linear)" stroke-width="2" stroke-linecap="round" stroke-linejoin="round"/>
<path id="Vector_6" d="M70.4744 392.265L68.2676 396.706C67.9101 397.425 67.0284 397.706 66.3204 397.327L65.0399 396.64" stroke="#FF6C0E" stroke-width="2" stroke-linecap="round" stroke-linejoin="round"/>
</g>
<path id="Vector 398" d="M63.7083 407.737L63.7034 415.815L66.0317 413.002L68.3414 416.201L68.4773 407.667" stroke="url(#paint7_linear)" stroke-width="1.69898" stroke-linecap="round" stroke-linejoin="round"/>
</g>
<g id="robo-2-m" class="robo-2-m">
<path id="Vector_7" opacity="0.5" d="M36.2774 253.303C36.2507 253.316 36.2249 253.332 36.2 253.348L35.7623 253.535C32.3465 254.989 30.8894 258.958 32.5185 262.37L32.7013 262.753C34.3009 266.104 38.2935 267.698 41.6709 266.378L42.3925 267.89L40.5125 268.691C39.2758 269.218 38.651 270.533 38.9266 271.807C36.8156 274.239 36.7663 278.088 38.2604 281.115C37.3583 281.906 37.0456 283.228 37.6037 284.397C37.6498 284.497 37.7154 284.588 37.7967 284.664C37.878 284.741 37.9733 284.802 38.0771 284.843C38.1809 284.884 38.2912 284.905 38.4015 284.904C38.5118 284.903 38.6199 284.881 38.7195 284.838C38.8192 284.796 38.9084 284.734 38.982 284.657C39.0556 284.579 39.1121 284.487 39.1482 284.387C39.1843 284.286 39.1993 284.178 39.1924 284.07C39.1854 283.962 39.1567 283.855 39.1077 283.756C38.8061 283.124 39.0654 282.418 39.6977 282.149C40.3299 281.879 41.0621 282.163 41.3637 282.795C41.4098 282.895 41.4754 282.986 41.5567 283.063C41.6379 283.14 41.7333 283.2 41.8371 283.241C41.9409 283.282 42.0512 283.303 42.1614 283.302C42.2717 283.302 42.3798 283.279 42.4795 283.237C42.5791 283.195 42.6684 283.133 42.742 283.055C42.8155 282.978 42.872 282.886 42.9082 282.785C42.9443 282.684 42.9593 282.577 42.9523 282.469C42.9454 282.36 42.9166 282.254 42.8677 282.155C42.2988 280.963 41.0047 280.304 39.7575 280.452C38.6529 278.172 38.6504 275.223 39.8793 273.344C40.7219 274.117 41.9437 274.41 43.0234 273.951L43.3994 273.79L44.1168 275.293L42.6128 275.934C42.4134 276.019 42.2599 276.179 42.1861 276.38C42.1124 276.581 42.1244 276.806 42.2195 277.006L43.6543 280.011C43.7494 280.21 43.9199 280.368 44.1282 280.449C44.3365 280.53 44.5655 280.527 44.765 280.442L46.2689 279.802L48.7798 285.062C48.7837 285.069 48.7877 285.076 48.7918 285.083C48.2124 286.157 48.1288 287.489 48.7106 288.708C48.8058 288.907 48.9762 289.064 49.1845 289.145C49.3928 289.226 49.6219 289.224 49.8213 289.139L55.8373 286.577L61.8532 284.014C62.0526 283.929 62.2061 283.769 62.2798 283.568C62.3536 283.367 62.3416 283.142 62.2465 282.942C61.6648 281.724 60.5536 280.901 59.3182 280.599C59.3148 280.592 59.3113 280.585 59.3077 280.577L56.7969 275.318L58.3008 274.677C58.5003 274.592 58.6537 274.431 58.7275 274.23C58.8012 274.029 58.7892 273.805 58.6941 273.605L57.2594 270.6C57.1642 270.4 56.9937 270.243 56.7855 270.162C56.5772 270.081 56.3481 270.084 56.1487 270.169L54.6447 270.809L53.9273 269.306L54.3033 269.146C55.383 268.686 55.9588 267.627 55.9033 266.519C58.208 266.893 60.5463 268.847 61.6241 271.139C60.6808 271.924 60.3466 273.276 60.9155 274.468C60.9616 274.568 61.0272 274.659 61.1085 274.735C61.1898 274.812 61.2851 274.872 61.3889 274.914C61.4927 274.955 61.603 274.975 61.7133 274.975C61.8235 274.974 61.9317 274.952 62.0313 274.909C62.131 274.867 62.2202 274.805 62.2938 274.727C62.3674 274.65 62.4239 274.558 62.46 274.457C62.4961 274.357 62.5111 274.249 62.5042 274.141C62.4972 274.033 62.4684 273.926 62.4195 273.827C62.1179 273.195 62.3772 272.489 63.0095 272.219C63.6417 271.95 64.3739 272.234 64.6755 272.866C64.7216 272.966 64.7872 273.057 64.8685 273.134C64.9497 273.21 65.0451 273.271 65.1489 273.312C65.2527 273.353 65.3629 273.374 65.4732 273.373C65.5835 273.373 65.6916 273.35 65.7913 273.308C65.8909 273.265 65.9802 273.204 66.0537 273.126C66.1273 273.048 66.1838 272.957 66.22 272.856C66.2561 272.755 66.2711 272.648 66.2641 272.539C66.2572 272.431 66.2284 272.324 66.1795 272.225C65.6214 271.056 64.3658 270.403 63.1408 270.518C61.7286 267.456 58.6417 264.942 55.3147 264.827C54.4868 263.788 53.0291 263.36 51.7924 263.886L49.9124 264.687L49.1908 263.175C52.4737 261.658 53.8531 257.777 52.2538 254.427L52.071 254.044C50.4417 250.631 46.3288 249.034 42.9136 250.489L42.357 250.726L36.4482 253.242C36.4156 253.25 36.3836 253.259 36.3523 253.271C36.3267 253.28 36.3017 253.291 36.2774 253.303ZM38.0102 254.385L42.0991 252.644L42.4405 254.307L39.1035 255.728L38.0102 254.385ZM36.4599 255.048L38.2317 257.223C38.35 257.368 38.5128 257.472 38.6944 257.519C38.8759 257.566 39.0657 257.553 39.2334 257.481L43.7454 255.559C43.9132 255.488 44.0495 255.363 44.1325 255.203C44.2155 255.044 44.2405 254.859 44.2035 254.679L43.6508 251.985C46.249 250.891 49.3284 252.09 50.567 254.685L50.7499 255.068C51.9613 257.606 50.9429 260.504 48.4734 261.673C48.4118 261.548 48.3198 261.438 48.2058 261.355C48.0918 261.271 47.9594 261.217 47.8209 261.195C47.6823 261.174 47.542 261.187 47.4127 261.233C47.2835 261.279 47.1694 261.357 47.0811 261.459L44.9958 263.866L41.7055 263.748C41.5938 263.744 41.4832 263.762 41.3804 263.8C41.2781 263.839 41.1856 263.898 41.1084 263.974C41.0313 264.049 40.9711 264.14 40.9313 264.24C40.8915 264.34 40.8729 264.448 40.8767 264.557C40.8806 264.666 40.9067 264.775 40.9535 264.876C38.3913 265.85 35.4172 264.651 34.2053 262.113L34.0225 261.73C32.7845 259.137 33.8718 256.163 36.4599 255.048ZM37.3244 259.198C37.1305 259.285 36.9818 259.443 36.9096 259.64L36.123 261.783C36.0838 261.883 36.0658 261.991 36.0699 262.1C36.074 262.208 36.1002 262.316 36.1469 262.416C36.1936 262.517 36.2599 262.608 36.3419 262.684C36.4239 262.761 36.52 262.821 36.6245 262.862C36.729 262.902 36.8398 262.922 36.9504 262.921C37.0611 262.919 37.1694 262.896 37.269 262.852C37.3685 262.808 37.4574 262.745 37.5303 262.666C37.6032 262.588 37.6587 262.495 37.6935 262.393L38.2021 261.007L39.6382 261.565C39.7419 261.607 39.8524 261.63 39.9631 261.63C40.0739 261.631 40.1827 261.61 40.2833 261.568C40.3838 261.526 40.474 261.465 40.5486 261.388C40.6232 261.311 40.6807 261.219 40.7177 261.118C40.7547 261.017 40.7704 260.909 40.7641 260.801C40.7577 260.692 40.7293 260.585 40.6806 260.485C40.6319 260.386 40.5637 260.296 40.4802 260.221C40.3967 260.146 40.2995 260.088 40.1943 260.049L37.9729 259.187C37.8677 259.146 37.7561 259.126 37.6447 259.128C37.5333 259.13 37.4244 259.154 37.3244 259.198ZM46.3483 255.355C46.1545 255.441 46.0057 255.6 45.9335 255.797L45.1469 257.94C45.1078 258.04 45.0897 258.147 45.0938 258.256C45.098 258.365 45.1241 258.472 45.1708 258.573C45.2175 258.673 45.2838 258.764 45.3658 258.841C45.4478 258.917 45.5439 258.977 45.6484 259.018C45.7529 259.059 45.8637 259.079 45.9744 259.077C46.085 259.075 46.1933 259.052 46.2929 259.008C46.3924 258.965 46.4813 258.902 46.5542 258.823C46.6271 258.744 46.6826 258.651 46.7175 258.55L47.226 257.164L48.6621 257.721C48.7658 257.764 48.8763 257.786 48.987 257.787C49.0978 257.787 49.2067 257.766 49.3072 257.724C49.4077 257.683 49.4979 257.622 49.5725 257.544C49.6471 257.467 49.7046 257.375 49.7416 257.275C49.7786 257.174 49.7944 257.066 49.788 256.957C49.7816 256.849 49.7533 256.741 49.7045 256.642C49.6558 256.542 49.5877 256.452 49.5042 256.378C49.4207 256.303 49.3234 256.244 49.2182 256.206L46.9968 255.344C46.8916 255.303 46.78 255.283 46.6686 255.285C46.5572 255.287 46.4483 255.31 46.3483 255.355ZM43.0264 265.427L45.3965 265.512C45.5192 265.517 45.6401 265.494 45.7508 265.447C45.8615 265.4 45.9592 265.329 46.0369 265.239L47.5383 263.505L48.5612 265.648L46.191 265.562C46.0684 265.558 45.9474 265.58 45.8367 265.627C45.726 265.674 45.6283 265.745 45.5506 265.835L44.0492 267.569L43.0264 265.427ZM46.5917 267.209L49.882 267.326C50.0223 267.331 50.1601 267.301 50.2827 267.24C50.4053 267.178 50.5087 267.086 50.5833 266.973C50.6578 266.859 50.7012 266.728 50.7093 266.591C50.7175 266.455 50.6901 266.316 50.6298 266.19L52.5098 265.389C53.1053 265.136 53.7849 265.377 54.1144 265.933C54.1345 265.979 54.1588 266.024 54.1869 266.066C54.4662 266.69 54.2081 267.378 53.5859 267.643L42.306 272.448C41.6833 272.713 40.966 272.44 40.6562 271.828C40.6421 271.783 40.6242 271.739 40.6026 271.697C40.3743 271.093 40.6319 270.448 41.2299 270.194L43.1099 269.393C43.1704 269.519 43.2618 269.63 43.3758 269.715C43.4898 269.8 43.6226 269.856 43.7618 269.878C43.9011 269.9 44.0424 269.888 44.1726 269.842C44.3027 269.796 44.4176 269.718 44.5064 269.616L46.5917 267.209ZM44.9034 273.15L52.4233 269.947L53.1407 271.45L45.6208 274.653L44.9034 273.15ZM44.0822 277.116L56.1141 271.992L56.8315 273.494L55.3275 274.135L52.3195 275.416L49.3115 276.697L46.3036 277.979L44.7996 278.619L44.0822 277.116ZM47.7729 279.161L49.2769 278.521L51.4291 283.029L49.9251 283.67L47.7729 279.161ZM50.7809 277.88L52.2849 277.239L54.7958 282.499C54.7997 282.506 54.8036 282.514 54.8077 282.521C54.6252 282.859 54.4927 283.22 54.4158 283.599C54.0645 283.402 53.6912 283.257 53.3023 283.162C53.2989 283.154 53.2954 283.147 53.2918 283.14L50.7809 277.88ZM53.7889 276.599L55.2929 275.958L57.445 280.467L56.693 280.787L55.9411 281.107L53.7889 276.599ZM51.3945 284.852C52.3539 284.443 53.3302 284.83 54.058 285.526L50.1658 287.184C50.0955 286.208 50.4351 285.261 51.3945 284.852ZM57.4104 282.29C58.3699 281.881 59.3462 282.268 60.0739 282.964L56.1818 284.621C56.1114 283.646 56.451 282.698 57.4104 282.29Z" fill="#FF6C0E"/>
</g>
<g id="medalha-m" class="medalha-m" opacity="0.5">
<path id="Fill 1" fill-rule="evenodd" clip-rule="evenodd" d="M345.522 244.681L335.359 255.371L339.273 256.951L349.728 246.379L345.522 244.681Z" fill="url(#paint8_linear)"/>
<g id="Group 4">
<mask id="mask0" mask-type="alpha" maskUnits="userSpaceOnUse" x="323" y="251" width="22" height="23">
<path id="Clip 3" fill-rule="evenodd" clip-rule="evenodd" d="M330.613 252.536L344.022 257.951L337.908 273.09L324.5 267.675L330.613 252.536Z" fill="white" stroke="white"/>
</mask>
<g mask="url(#mask0)">
<path id="Fill 2" d="M334.264 255.302L334.727 255.489L334.264 255.302ZM334.721 255.107L334.534 255.571L334.721 255.107ZM339.281 256.948L339.468 256.485L339.281 256.948ZM339.474 257.407L339.938 257.594L339.474 257.407ZM339.027 258.514L338.674 258.868L339.208 259.401L339.491 258.701L339.027 258.514ZM332.876 256.487L332.95 256.982L333.232 256.94L333.339 256.674L332.876 256.487ZM334.28 256.597L334.727 255.489L333.8 255.115L333.353 256.222L334.28 256.597ZM334.727 255.489C334.697 255.564 334.612 255.602 334.534 255.571L334.908 254.643C334.471 254.467 333.975 254.68 333.8 255.115L334.727 255.489ZM334.534 255.571L339.093 257.412L339.468 256.485L334.908 254.643L334.534 255.571ZM339.093 257.412C339.016 257.381 338.981 257.294 339.011 257.219L339.938 257.594C340.114 257.159 339.905 256.661 339.468 256.485L339.093 257.412ZM339.011 257.219L338.564 258.327L339.491 258.701L339.938 257.594L339.011 257.219ZM339.38 258.16C338.67 257.451 337.809 256.87 336.822 256.471L336.447 257.399C337.308 257.746 338.057 258.252 338.674 258.868L339.38 258.16ZM336.822 256.471C335.834 256.073 334.812 255.893 333.808 255.91L333.825 256.909C334.697 256.895 335.586 257.051 336.447 257.399L336.822 256.471ZM340.114 259.41L340.72 257.909L339.792 257.535L339.186 259.036L340.114 259.41ZM340.72 257.909C341.07 257.042 340.652 256.051 339.784 255.701L339.41 256.628C339.763 256.771 339.937 257.177 339.792 257.535L340.72 257.909ZM339.784 255.701L335.225 253.86L334.85 254.787L339.41 256.628L339.784 255.701ZM335.225 253.86C334.357 253.509 333.368 253.932 333.018 254.799L333.946 255.174C334.09 254.816 334.497 254.644 334.85 254.787L335.225 253.86ZM333.018 254.799L332.412 256.3L333.339 256.674L333.946 255.174L333.018 254.799ZM332.802 255.993C330.178 256.384 327.819 258.12 326.751 260.764L327.679 261.139C328.609 258.835 330.662 257.323 332.95 256.982L332.802 255.993ZM326.751 260.764C325.149 264.733 327.056 269.247 331.016 270.847L331.391 269.919C327.946 268.528 326.282 264.598 327.679 261.139L326.751 260.764ZM331.016 270.847C334.976 272.446 339.484 270.522 341.087 266.554L340.16 266.179C338.763 269.638 334.836 271.311 331.391 269.919L331.016 270.847ZM341.087 266.554C342.155 263.909 341.663 261.022 340.046 258.918L339.254 259.528C340.663 261.361 341.09 263.875 340.16 266.179L341.087 266.554Z" fill="url(#paint9_linear)"/>
</g>
</g>
<path id="Fill 5" d="M331.699 269.163C328.645 267.93 327.145 264.487 328.355 261.49C329.566 258.492 333.035 257.057 336.09 258.29C339.144 259.523 340.644 262.966 339.434 265.964C338.223 268.961 334.753 270.397 331.699 269.163" stroke="url(#paint10_linear)"/>
<path id="Fill 105" fill-rule="evenodd" clip-rule="evenodd" d="M335.15 265.603C335.001 266.063 334.418 266.204 334.075 265.863L333.406 265.199L332.463 265.204C331.979 265.206 331.663 264.697 331.879 264.264L332.308 263.404L332.014 262.485C331.867 262.027 332.252 261.574 332.727 261.644L333.671 261.784L334.433 261.223C334.825 260.935 335.382 261.163 335.459 261.643L335.61 262.578L336.381 263.14C336.77 263.423 336.726 264.015 336.301 264.239L335.446 264.688L335.15 265.603Z" stroke="url(#paint11_linear)"/>
<path id="Fill 116" fill-rule="evenodd" clip-rule="evenodd" d="M333.932 240L338.603 241.887L339.38 257.233L334.993 255.461L333.932 240Z" fill="url(#paint12_linear)"/>
</g>
<g id="rocket-m" class="rocket-m">
<path id="Vector 402" opacity="0.5" d="M333.666 459.985L332.794 453.723L328.412 458.001L332.179 464.364L333.423 461.915C333.837 461.098 333.837 461.098 333.666 459.985Z" stroke="url(#paint13_linear)" stroke-linecap="round" stroke-linejoin="round"/>
<path id="Vector 403" opacity="0.5" d="M317.608 452.44L322.898 449.307L321.877 455.292L315 456.251L316.244 453.801C316.658 452.985 316.658 452.985 317.608 452.44Z" stroke="url(#paint14_linear)" stroke-linecap="round" stroke-linejoin="round"/>
<path id="Vector 412" opacity="0.5" d="M322.297 457.192C322.924 444.655 329.263 437.326 337.019 433.353C338.569 441.062 335.547 452.712 326.386 459.268M322.297 457.192L326.386 459.268M322.297 457.192L320.094 460.358L325.205 462.953L326.386 459.268" stroke="url(#paint15_linear)" stroke-width="2" stroke-linecap="round" stroke-linejoin="round"/>
<path id="Ellipse 353" opacity="0.5" d="M333.423 445.827C332.629 447.391 330.994 447.989 329.838 447.402C328.681 446.815 328.199 445.141 328.993 443.578C329.786 442.015 331.422 441.417 332.578 442.004C333.735 442.591 334.217 444.264 333.423 445.827Z" stroke="#FF6C0E"/>
</g>
<g id="astronaut-m" class="astronaut-m" opacity="0.5" clip-path="url(#clip0)">
<path id="Vector_8" d="M369.32 372.457C369.314 372.172 369.147 371.907 368.88 371.783C368.631 371.667 368.621 371.702 366.91 371.863C367.012 367.567 364.471 363.455 360.17 361.797C361.048 360.446 361.165 360.368 361.132 360.014C361.103 359.718 360.908 359.47 360.634 359.371C357.959 358.396 354.609 358.377 351.586 359.587C344.944 362.249 341.721 369.778 344.382 376.421C345.542 379.316 347.713 381.733 350.589 383.177L351.647 385.818C351.96 386.598 352.848 386.978 353.628 386.665L368.805 380.585C369.584 380.273 369.965 379.385 369.652 378.605L368.594 375.963C369.101 374.547 369.331 372.962 369.32 372.457ZM365.381 372.007L353.877 373.089C353.756 372.779 353.589 372.505 353.375 372.26L359.32 363.107C363.226 364.443 365.551 368.16 365.381 372.007ZM352.452 373.626C352.712 374.276 352.395 375.016 351.745 375.277C351.096 375.537 350.355 375.22 350.095 374.57C349.835 373.921 350.152 373.18 350.801 372.92C351.451 372.66 352.191 372.977 352.452 373.626ZM352.153 361.001C354.395 360.103 356.856 359.942 359.181 360.525C352.007 371.571 358.107 362.177 352.097 371.432C350.194 370.842 348.287 372.39 348.497 374.39L345.67 375.523C343.563 369.757 346.416 363.3 352.153 361.001ZM351.029 381.69C348.995 380.608 347.35 378.948 346.286 376.917L349.063 375.804C350.529 377.702 353.573 376.99 354.018 374.605C355.873 374.431 366.61 373.421 367.698 373.319C367.601 373.954 367.451 374.58 367.248 375.192L351.029 381.69ZM368.238 379.171L353.061 385.251L352.117 382.895L367.294 376.815C368.259 379.221 368.243 379.169 368.238 379.171Z" fill="url(#paint16_linear)"/>
</g>
<g id="world-m" class="world-m" opacity="0.5" clip-path="url(#clip1)">
<g id="Group">
<g id="Group_2">
<path id="Vector_9" d="M210.718 325.444C205.582 324.067 200.12 325.884 196.834 330.064L196.66 330.074L196.672 330.277C192.252 336.128 193.411 344.455 199.262 348.875C200.629 349.907 202.182 350.666 203.837 351.108C210.924 353.008 218.21 348.803 220.11 341.716C222.01 334.629 217.805 327.344 210.718 325.444ZM215.612 347.444L215.129 346.608L215.54 345.074C215.559 345.009 215.562 344.939 215.549 344.872L214.773 341.093L215.205 339.483C215.243 339.34 215.207 339.187 215.11 339.076L214.055 337.877C213.973 337.783 213.854 337.728 213.729 337.726L212.052 337.697L209.716 335.857L210.035 333.216L211.311 332.479L213.471 333.058L213.906 334.346C213.945 334.462 214.031 334.557 214.142 334.607L216.594 335.723C216.66 335.753 216.732 335.766 216.804 335.761L219.379 335.607C220.342 339.943 218.904 344.462 215.612 347.444ZM217.89 331.883L217.07 332.16L215.235 331.253L214.089 330.497C214.019 330.45 213.937 330.425 213.853 330.424L212.156 330.395L211.521 329.976L212.315 329.081L213.762 329.468C213.828 329.486 213.898 329.488 213.965 329.475L215.643 329.131C216.52 329.936 217.277 330.863 217.89 331.883ZM205.544 325.998L206.387 326.957C206.428 327.004 206.479 327.042 206.537 327.068L208.517 327.969L208.152 328.52L206.976 328.591C206.87 328.598 206.771 328.641 206.695 328.715L204.918 330.433L202.627 331.088L199.607 330.724C199.388 330.697 199.183 330.836 199.126 331.048L198.782 332.332C198.751 332.445 198.767 332.566 198.826 332.668L199.361 333.593L199.164 334.328L197.702 332.665L197.576 330.556C199.556 328.078 202.405 326.449 205.544 325.998ZM200.568 339.696L198.738 338.791L198.404 337.165L198.673 336.16L200.694 334.993L200.968 336.332C201.001 336.496 201.125 336.627 201.287 336.671L204.039 337.408L204.68 339.65C204.723 339.799 204.841 339.915 204.991 339.956L206.181 340.274L205.479 341.694L203.426 342.88C203.324 342.938 203.25 343.035 203.219 343.148L202.932 344.218L201.083 344.96C200.954 345.012 200.856 345.122 200.82 345.257L200.406 346.802L199.921 346.483L199.674 344.403L200.798 340.207C200.852 340.004 200.756 339.79 200.568 339.696ZM197.52 345.928C194.298 341.821 193.993 336.136 196.758 331.709L196.828 332.87C196.833 332.968 196.872 333.062 196.937 333.136L198.688 335.128L198.071 335.485C197.97 335.544 197.895 335.64 197.865 335.754L197.521 337.037C197.503 337.103 197.501 337.173 197.515 337.24L197.912 339.181C197.939 339.315 198.027 339.428 198.15 339.489L199.851 340.329L198.798 344.256C198.784 344.311 198.779 344.367 198.786 344.423L199.069 346.791C199.084 346.921 199.156 347.037 199.265 347.108L200.433 347.88C200.472 347.906 200.515 347.925 200.56 347.938C200.797 348.001 201.039 347.861 201.103 347.625L201.618 345.7L203.468 344.957C203.597 344.905 203.695 344.796 203.731 344.661L204.027 343.555L206.038 342.394C206.113 342.35 206.174 342.285 206.213 342.207L207.214 340.183C207.322 339.963 207.232 339.698 207.013 339.589C206.987 339.576 206.96 339.566 206.932 339.559L205.463 339.165L204.822 336.923C204.779 336.774 204.661 336.658 204.511 336.617L201.781 335.886L201.441 334.215C201.412 334.075 201.318 333.958 201.188 333.899C201.059 333.839 200.908 333.847 200.785 333.92L200.082 334.324L200.264 333.646C200.294 333.532 200.278 333.411 200.219 333.31L199.685 332.384L199.882 331.648L202.61 331.977C202.668 331.984 202.728 331.979 202.784 331.963L205.267 331.253C205.337 331.233 205.4 331.196 205.453 331.146L207.191 329.465L208.426 329.39C208.565 329.383 208.692 329.309 208.769 329.192L209.54 328.024C209.674 327.819 209.618 327.545 209.413 327.41C209.394 327.398 209.374 327.387 209.354 327.378L206.989 326.302L206.631 325.895C209.558 325.74 212.444 326.63 214.776 328.405L213.89 328.586L212.28 328.154C212.117 328.11 211.943 328.162 211.831 328.288L210.518 329.77C210.355 329.953 210.373 330.233 210.556 330.395C210.571 330.409 210.588 330.421 210.605 330.433L211.774 331.204C211.844 331.251 211.926 331.277 212.01 331.278L213.707 331.306L214.768 332.007C214.783 332.017 214.799 332.026 214.816 332.034L216.84 333.035C216.945 333.087 217.067 333.096 217.178 333.058L218.326 332.669C218.662 333.331 218.938 334.022 219.152 334.733L216.859 334.871L214.682 333.88L214.232 332.549C214.185 332.41 214.072 332.303 213.929 332.264L211.363 331.576C211.249 331.546 211.129 331.562 211.027 331.621L209.4 332.56C209.279 332.63 209.198 332.752 209.181 332.891L208.807 336C208.789 336.154 208.852 336.306 208.974 336.401L211.625 338.487C211.701 338.547 211.794 338.58 211.891 338.581L213.521 338.609L214.288 339.483L213.891 340.965C213.872 341.031 213.869 341.1 213.882 341.167L214.658 344.946L214.226 346.556C214.196 346.67 214.212 346.791 214.27 346.892L214.925 348.027C209.539 352.254 201.747 351.314 197.52 345.928Z" fill="url(#paint17_linear)"/>
</g>
</g>
</g>
</g>
<defs>
<linearGradient id="paint0_linear" x1="118.032" y1="186.474" x2="120.803" y2="197.582" gradientUnits="userSpaceOnUse">
<stop stop-color="#DB5500"/>
<stop offset="1" stop-color="#FF6C0E"/>
</linearGradient>
<linearGradient id="paint1_linear" x1="116.038" y1="191.397" x2="117" y2="195.253" gradientUnits="userSpaceOnUse">
<stop stop-color="#DB5500"/>
<stop offset="1" stop-color="#FF6C0E"/>
</linearGradient>
<linearGradient id="paint2_linear" x1="122.105" y1="189.884" x2="123.066" y2="193.739" gradientUnits="userSpaceOnUse">
<stop stop-color="#DB5500"/>
<stop offset="1" stop-color="#FF6C0E"/>
</linearGradient>
<linearGradient id="paint3_linear" x1="125.275" y1="201.055" x2="126.353" y2="205.374" gradientUnits="userSpaceOnUse">
<stop stop-color="#DB5500"/>
<stop offset="1" stop-color="#FF6C0E"/>
</linearGradient>
<linearGradient id="paint4_linear" x1="117.108" y1="182.771" x2="126.344" y2="219.797" gradientUnits="userSpaceOnUse">
<stop stop-color="#DB5500"/>
<stop offset="1" stop-color="#FF6C0E"/>
</linearGradient>
<linearGradient id="paint5_linear" x1="76.7187" y1="407.594" x2="82.2237" y2="405.85" gradientUnits="userSpaceOnUse">
<stop offset="0.0880283" stop-color="#DB5500" stop-opacity="0.78"/>
<stop offset="1" stop-color="#FF6C0E" stop-opacity="0.63"/>
</linearGradient>
<linearGradient id="paint6_linear" x1="59.3918" y1="396.038" x2="74.3954" y2="391.292" gradientUnits="userSpaceOnUse">
<stop offset="0.0880283" stop-color="#DB5500" stop-opacity="0.78"/>
<stop offset="1" stop-color="#FF6C0E" stop-opacity="0.63"/>
</linearGradient>
<linearGradient id="paint7_linear" x1="62.9783" y1="411.974" x2="68.4843" y2="410.229" gradientUnits="userSpaceOnUse">
<stop offset="0.0880283" stop-color="#DB5500" stop-opacity="0.78"/>
<stop offset="1" stop-color="#FF6C0E" stop-opacity="0.63"/>
</linearGradient>
<linearGradient id="paint8_linear" x1="339.053" y1="248.027" x2="346.639" y2="251.106" gradientUnits="userSpaceOnUse">
<stop offset="0.0880283" stop-color="#DB5500" stop-opacity="0.78"/>
<stop offset="1" stop-color="#FF6C0E" stop-opacity="0.63"/>
</linearGradient>
<linearGradient id="paint9_linear" x1="329.06" y1="259.001" x2="340.076" y2="263.477" gradientUnits="userSpaceOnUse">
<stop offset="0.0880283" stop-color="#DB5500" stop-opacity="0.78"/>
<stop offset="1" stop-color="#FF6C0E" stop-opacity="0.63"/>
</linearGradient>
<linearGradient id="paint10_linear" x1="329.533" y1="260.736" x2="338.634" y2="264.437" gradientUnits="userSpaceOnUse">
<stop offset="0.0880283" stop-color="#DB5500" stop-opacity="0.78"/>
<stop offset="1" stop-color="#FF6C0E" stop-opacity="0.63"/>
</linearGradient>
<linearGradient id="paint11_linear" x1="332.02" y1="261.77" x2="336.57" y2="263.621" gradientUnits="userSpaceOnUse">
<stop offset="0.0880283" stop-color="#DB5500" stop-opacity="0.78"/>
<stop offset="1" stop-color="#FF6C0E" stop-opacity="0.63"/>
</linearGradient>
<linearGradient id="paint12_linear" x1="332.553" y1="245.498" x2="341.318" y2="249.058" gradientUnits="userSpaceOnUse">
<stop offset="0.0880283" stop-color="#DB5500" stop-opacity="0.78"/>
<stop offset="1" stop-color="#FF6C0E" stop-opacity="0.63"/>
</linearGradient>
<linearGradient id="paint13_linear" x1="334.443" y1="458.972" x2="329.864" y2="456.656" gradientUnits="userSpaceOnUse">
<stop offset="0.0880283" stop-color="#DB5500" stop-opacity="0.78"/>
<stop offset="1" stop-color="#FF6C0E" stop-opacity="0.63"/>
</linearGradient>
<linearGradient id="paint14_linear" x1="317.985" y1="451.224" x2="322.16" y2="453.351" gradientUnits="userSpaceOnUse">
<stop offset="0.0880283" stop-color="#DB5500" stop-opacity="0.78"/>
<stop offset="1" stop-color="#FF6C0E" stop-opacity="0.63"/>
</linearGradient>
<linearGradient id="paint15_linear" x1="327.219" y1="442.715" x2="334.775" y2="446.559" gradientUnits="userSpaceOnUse">
<stop offset="0.0880283" stop-color="#DB5500" stop-opacity="0.78"/>
<stop offset="1" stop-color="#FF6C0E" stop-opacity="0.63"/>
</linearGradient>
<linearGradient id="paint16_linear" x1="344.998" y1="373.462" x2="363.85" y2="365.961" gradientUnits="userSpaceOnUse">
<stop offset="0.0880283" stop-color="#DB5500" stop-opacity="0.78"/>
<stop offset="1" stop-color="#FF6C0E" stop-opacity="0.63"/>
</linearGradient>
<linearGradient id="paint17_linear" x1="196.848" y1="332.806" x2="217.944" y2="338.514" gradientUnits="userSpaceOnUse">
<stop offset="0.0880283" stop-color="#DB5500" stop-opacity="0.78"/>
<stop offset="1" stop-color="#FF6C0E" stop-opacity="0.63"/>
</linearGradient>
<clipPath id="clip0">
<rect width="25.8951" height="25.8951" fill="white" transform="translate(339 364.63) rotate(-21.8318)"/>
</clipPath>
<clipPath id="clip1">
<rect width="26.5765" height="26.5765" fill="white" transform="translate(197.879 322) rotate(15)"/>
</clipPath>
</defs>
</svg>
