<svg width="1216" height="428" viewBox="0 0 1216 428" fill="none" xmlns="http://www.w3.org/2000/svg">
<g id="bg-hero">
<g id="robo-1" class="bg-robo">
<path id="Vector" d="M57.7226 122.8C66.1942 120.687 68.9253 117.579 67.4621 111.713C66.4801 107.777 60.6982 104.743 53.6564 106.5C46.6146 108.256 42.9349 113.65 43.9169 117.587C45.38 123.452 49.2506 124.914 57.7226 122.8ZM54.1082 108.311C59.9781 106.846 64.9026 109.167 65.6506 112.165C66.5158 115.634 66.4824 118.691 57.2708 120.989C48.0593 123.287 46.5933 120.603 45.7281 117.135C44.9801 114.136 48.2378 109.775 54.1082 108.311Z" fill="url(#paint0_linear)" fill-opacity="0.5"/>
<path id="Vector_2" d="M51.1887 119.332C51.73 119.384 52.2757 119.345 52.8043 119.217C53.1301 119.137 53.4443 119.017 53.7398 118.858C54.5163 118.481 55.0498 117.737 55.158 116.88C55.2045 116.018 54.8119 115.191 54.1143 114.682C52.6716 113.612 50.7512 113.439 49.1408 114.235C48.3644 114.612 47.831 115.356 47.7233 116.213C47.5813 117.776 49.1046 119.149 51.1887 119.332ZM49.5799 116.38C49.6439 116.15 49.8105 115.964 50.0308 115.875C50.1867 115.792 50.3524 115.728 50.524 115.687C50.8505 115.609 51.1881 115.586 51.5223 115.617C52.036 115.652 52.5287 115.832 52.9437 116.136C53.1448 116.263 53.2755 116.476 53.2971 116.713C53.2333 116.942 53.0666 117.128 52.8459 117.218C52.3837 117.445 51.8662 117.534 51.3548 117.475C50.2379 117.376 49.5472 116.75 49.5799 116.38Z" fill="url(#paint1_linear)" fill-opacity="0.5"/>
<path id="Vector_3" d="M59.3871 117.449C59.7226 117.451 60.0571 117.409 60.3822 117.327C60.9085 117.192 61.4087 116.969 61.8619 116.669C63.615 115.526 64.3156 113.598 63.4617 112.285C62.9624 111.579 62.14 111.173 61.2758 111.207C59.4797 111.261 57.8648 112.315 57.0936 113.939C56.7167 114.716 56.7586 115.631 57.2046 116.37C57.7029 117.075 58.5237 117.481 59.3871 117.449ZM58.767 115.348C58.6749 115.129 58.6901 114.879 58.8083 114.673C59.0316 114.209 59.3825 113.819 59.8202 113.547C60.1 113.362 60.4082 113.225 60.7325 113.141C60.9037 113.096 61.0801 113.074 61.2567 113.074C61.4936 113.05 61.7287 113.136 61.8926 113.309C62.0958 113.619 61.7796 114.497 60.8404 115.111C60.4161 115.403 59.9172 115.567 59.4027 115.584C59.1662 115.609 58.9316 115.522 58.7675 115.35L58.767 115.348Z" fill="url(#paint2_linear)" fill-opacity="0.5"/>
<path id="Vector_4" d="M64.2848 127.897C62.5342 128.334 61.4692 130.107 61.9058 131.857C62.3425 133.607 64.1154 134.672 65.8661 134.236C67.6163 133.799 68.6813 132.026 68.2446 130.276C67.808 128.525 66.035 127.46 64.2848 127.897ZM65.4143 132.425C64.6639 132.612 63.9041 132.155 63.7169 131.405C63.5299 130.655 63.9863 129.895 64.7366 129.708C65.4865 129.521 66.2464 129.977 66.4334 130.727C66.6206 131.478 66.1642 132.238 65.4143 132.425Z" fill="url(#paint3_linear)" fill-opacity="0.5"/>
<path id="Vector_5" d="M44.5842 139.544C45.8897 144.778 48.5702 150.094 51.37 149.395C52.5618 149.098 53.3072 147.763 53.5418 145.611C55.9737 149.37 58.5933 152.58 61.1549 154.469C62.5029 155.467 64.2272 155.809 65.8547 155.401C67.4819 154.996 68.842 153.883 69.5624 152.369C70.9347 149.498 71.7397 145.429 72.1205 140.963C73.1223 142.458 74.3983 143.651 75.821 143.296C78.6208 142.597 78.4906 136.646 77.1851 131.412C76.0626 126.912 73.891 122.293 71.5041 121.595C71.3758 120.717 71.2369 119.864 71.0825 119.036C71.9203 116.955 71.9576 114.312 71.084 110.81C68.7467 101.44 58.6929 99.4716 52.3007 101.066C45.908 102.661 37.9569 109.12 40.2943 118.49C41.1674 121.99 42.4406 124.304 44.1558 125.749C44.4028 126.531 44.6838 127.358 44.9887 128.209C43.2098 129.947 43.4617 135.045 44.5842 139.544V139.544ZM50.9182 147.584C50.2409 147.753 47.8863 145.07 46.3953 139.093C45.354 134.918 45.4568 131.937 45.8403 130.478C47.4957 134.651 49.4518 138.699 51.6927 142.59C51.9652 146.173 51.2271 147.507 50.9182 147.584ZM67.8793 151.563C67.398 152.575 66.4897 153.318 65.4029 153.59C64.316 153.861 63.1645 153.632 62.2649 152.965C56.7436 148.894 50.4012 137.455 46.9893 128.259C46.8509 127.881 46.7256 127.518 46.5968 127.152C49.5874 128.196 53.5382 127.692 58.6259 126.422C63.7131 125.153 67.4393 123.743 69.5932 121.415C69.652 121.798 69.7111 122.178 69.7661 122.575C71.0639 132.301 70.8339 145.381 67.8793 151.563ZM75.3739 131.864C76.8649 137.841 76.0466 141.316 75.3692 141.485C75.0612 141.561 73.7831 140.726 72.3337 137.415C72.4845 132.936 72.3119 128.452 71.8168 123.998C72.8414 125.104 74.3321 127.687 75.3739 131.864ZM52.7524 102.877C58.3931 101.47 67.2472 103.141 69.2729 111.261C71.2238 119.082 68.8382 121.951 58.1741 124.611C47.51 127.272 44.0563 125.859 42.1054 118.038C40.0797 109.918 47.1113 104.284 52.7524 102.877Z" fill="url(#paint4_linear)" fill-opacity="0.5"/>
</g>
<g id="rocket" class="bg-rocket">
<path id="Vector 402" opacity="0.5" d="M1044.39 406.534L1043.11 397.345L1036.68 403.624L1042.21 412.96L1044.03 409.366C1044.64 408.168 1044.64 408.168 1044.39 406.534Z" stroke="url(#paint5_linear)" stroke-linecap="round" stroke-linejoin="round"/>
<path id="Vector 403" opacity="0.5" d="M1020.83 395.462L1028.59 390.865L1027.09 399.648L1017 401.054L1018.82 397.46C1019.43 396.262 1019.43 396.262 1020.83 395.462Z" stroke="url(#paint6_linear)" stroke-linecap="round" stroke-linejoin="round"/>
<path id="Vector 412" opacity="0.5" d="M1027.71 402.436C1028.63 384.039 1037.93 373.284 1049.31 367.453C1051.59 378.766 1047.15 395.862 1033.71 405.482M1027.71 402.436L1033.71 405.482M1027.71 402.436L1024.48 407.082L1031.98 410.89L1033.71 405.482" stroke="url(#paint7_linear)" stroke-width="2" stroke-linecap="round" stroke-linejoin="round"/>
<path id="Ellipse 353" opacity="0.5" d="M1044.24 385.865C1043.04 388.24 1040.51 389.213 1038.67 388.277C1036.82 387.341 1036.12 384.727 1037.33 382.352C1038.53 379.977 1041.06 379.004 1042.9 379.94C1044.74 380.875 1045.45 383.489 1044.24 385.865Z" stroke="#FF6C0E"/>
</g>
<g id="verific" class="bg-verific" opacity="0.5">
<path id="Vector 397" d="M69.0717 405.211L76.6551 415.428L76.5965 409.731L81.7624 411.093L75.0102 401.363" stroke="url(#paint8_linear)" stroke-width="2" stroke-linecap="round" stroke-linejoin="round"/>
<g id="Group 299">
<path id="Star 1" d="M53.5937 378.364C53.6764 378.073 54.0296 377.96 54.2658 378.15L56.1823 379.69C57.0494 380.386 58.2796 380.403 59.1655 379.73L60.985 378.349C61.2173 378.172 61.5543 378.278 61.6437 378.556L62.5323 381.317C62.844 382.285 63.7277 382.956 64.7445 382.996L67.3567 383.097C67.6294 383.108 67.8209 383.37 67.7479 383.633L66.9479 386.516C66.6903 387.444 67.0067 388.436 67.7537 389.044L70.0745 390.931C70.2863 391.104 70.2819 391.428 70.0656 391.595L67.9943 393.19C67.1881 393.811 66.8556 394.869 67.1619 395.839L68.035 398.605C68.1229 398.883 67.9095 399.165 67.6179 399.155L65.3344 399.081C64.2226 399.045 63.2291 399.771 62.9252 400.841L62.2536 403.206C62.1708 403.498 61.8177 403.61 61.5815 403.421L59.665 401.881C58.7979 401.184 57.5677 401.167 56.6818 401.84L54.8623 403.221C54.63 403.398 54.293 403.292 54.2036 403.014L53.315 400.254C53.0033 399.285 52.1196 398.614 51.1028 398.575L48.4906 398.473C48.2178 398.462 48.0264 398.2 48.0994 397.937L48.8994 395.054C49.1569 394.126 48.8406 393.134 48.0936 392.526L45.7728 390.639C45.561 390.467 45.5654 390.142 45.7816 389.975L47.853 388.38L47.2429 387.588L47.853 388.38C48.6592 387.76 48.9917 386.701 48.6854 385.731L47.8122 382.965C47.7244 382.687 47.9378 382.406 48.2294 382.415L50.5129 382.489C51.6247 382.525 52.6181 381.799 52.922 380.729L53.5937 378.364Z" stroke="url(#paint9_linear)" stroke-width="2" stroke-linecap="round" stroke-linejoin="round"/>
<path id="Vector_6" d="M61.7081 386.064L58.1644 393.195C57.8068 393.914 56.9251 394.195 56.2172 393.816L53.7333 392.483" stroke="#FF6C0E" stroke-width="2" stroke-linecap="round" stroke-linejoin="round"/>
</g>
<path id="Vector 398" d="M51.7797 408.769L51.7725 420.623L55.1892 416.495L58.5786 421.188L58.7781 408.665" stroke="url(#paint10_linear)" stroke-width="1.69898" stroke-linecap="round" stroke-linejoin="round"/>
</g>
<g id="astronaut" class="bg-astronaut" opacity="0.5" clip-path="url(#clip0)">
<path id="Vector_7" d="M1003.49 81.6171C1003.49 81.1994 1003.24 80.8106 1002.85 80.6282C1002.48 80.4582 1002.47 80.5098 999.957 80.746C1000.11 74.4413 996.378 68.4068 990.067 65.9748C991.355 63.9923 991.527 63.878 991.478 63.3579C991.436 62.9242 991.149 62.5599 990.748 62.4137C986.822 60.9832 981.906 60.9551 977.47 62.7321C967.723 66.6371 962.993 77.686 966.899 87.4352C968.6 91.6824 971.786 95.2304 976.007 97.3483L977.56 101.224C978.018 102.368 979.322 102.926 980.466 102.468L1002.74 93.5455C1003.88 93.0872 1004.44 91.7834 1003.98 90.6393L1002.43 86.7626C1003.17 84.6841 1003.51 82.3581 1003.49 81.6171ZM997.713 80.957L980.831 82.5447C980.655 82.0902 980.41 81.6874 980.096 81.3289L988.819 67.8962C994.552 69.8572 997.963 75.3124 997.713 80.957ZM978.74 83.3334C979.122 84.2868 978.657 85.3733 977.704 85.7553C976.75 86.1372 975.664 85.6723 975.282 84.7188C974.9 83.7654 975.365 82.6789 976.318 82.297C977.272 81.915 978.358 82.3799 978.74 83.3334ZM978.302 64.807C981.592 63.4888 985.204 63.2517 988.615 64.1076C978.087 80.3177 987.04 66.5326 978.22 80.1128C975.427 79.2473 972.629 81.519 972.936 84.4545L968.788 86.1164C965.697 77.6557 969.883 68.1798 978.302 64.807ZM976.653 95.1661C973.668 93.5786 971.254 91.1433 969.693 88.162L973.768 86.5295C975.919 89.3142 980.386 88.27 981.039 84.7702C983.762 84.5141 999.517 83.0326 1001.11 82.8824C1000.97 83.8146 1000.75 84.7336 1000.45 85.6311L976.653 95.1661ZM1001.91 91.4706L979.635 100.393L978.249 96.9346L1000.52 88.0122C1001.94 91.5438 1001.91 91.4678 1001.91 91.4706Z" fill="url(#paint11_linear)"/>
</g>
<g id="world" class="bg-world" opacity="0.5" clip-path="url(#clip1)">
<g id="Group">
<g id="Group_2">
<path id="Vector_8" d="M1149.93 246.053C1142.4 244.032 1134.38 246.7 1129.56 252.833L1129.31 252.848L1129.32 253.145C1122.84 261.732 1124.54 273.951 1133.12 280.438C1135.13 281.953 1137.41 283.065 1139.84 283.715C1150.24 286.503 1160.93 280.333 1163.72 269.933C1166.51 259.533 1160.34 248.841 1149.93 246.053ZM1157.12 278.337L1156.41 277.112L1157.01 274.861C1157.04 274.764 1157.04 274.662 1157.02 274.563L1155.89 269.018L1156.52 266.655C1156.58 266.445 1156.52 266.221 1156.38 266.058L1154.83 264.298C1154.71 264.16 1154.54 264.08 1154.35 264.077L1151.89 264.035L1148.46 261.335L1148.93 257.458L1150.8 256.378L1153.98 257.227L1154.61 259.117C1154.67 259.287 1154.8 259.426 1154.96 259.5L1158.56 261.137C1158.65 261.181 1158.76 261.2 1158.87 261.194L1162.64 260.967C1164.06 267.33 1161.95 273.962 1157.12 278.337ZM1160.46 255.503L1159.26 255.91L1156.56 254.578L1154.88 253.469C1154.78 253.4 1154.66 253.363 1154.54 253.361L1152.05 253.319L1151.11 252.704L1152.28 251.39L1154.4 251.959C1154.5 251.985 1154.6 251.989 1154.7 251.969L1157.16 251.465C1158.45 252.646 1159.56 254.006 1160.46 255.503ZM1142.34 246.866L1143.58 248.274C1143.64 248.343 1143.72 248.399 1143.8 248.437L1146.7 249.759L1146.17 250.568L1144.44 250.672C1144.29 250.681 1144.14 250.745 1144.03 250.853L1141.42 253.374L1138.06 254.336L1133.63 253.802C1133.31 253.762 1133.01 253.965 1132.92 254.278L1132.42 256.161C1132.37 256.327 1132.4 256.505 1132.48 256.654L1133.27 258.013L1132.98 259.091L1130.83 256.65L1130.65 253.555C1133.55 249.92 1137.74 247.528 1142.34 246.866ZM1135.04 266.969L1132.36 265.64L1131.86 263.254L1132.26 261.779L1135.23 260.067L1135.63 262.031C1135.68 262.272 1135.86 262.465 1136.1 262.528L1140.13 263.61L1141.08 266.9C1141.14 267.12 1141.31 267.29 1141.53 267.349L1143.28 267.816L1142.25 269.9L1139.23 271.64C1139.08 271.726 1138.98 271.868 1138.93 272.034L1138.51 273.604L1135.8 274.693C1135.61 274.769 1135.46 274.93 1135.41 275.128L1134.8 277.395L1134.09 276.927L1133.73 273.875L1135.38 267.718C1135.46 267.42 1135.32 267.106 1135.04 266.969ZM1130.57 276.113C1125.84 270.087 1125.39 261.744 1129.45 255.247L1129.55 256.951C1129.56 257.095 1129.62 257.232 1129.71 257.341L1132.28 260.265L1131.38 260.788C1131.23 260.874 1131.12 261.016 1131.07 261.183L1130.57 263.066C1130.54 263.163 1130.54 263.265 1130.56 263.364L1131.14 266.211C1131.18 266.408 1131.31 266.575 1131.49 266.664L1133.99 267.897L1132.44 273.66C1132.42 273.74 1132.42 273.823 1132.43 273.905L1132.84 277.38C1132.86 277.57 1132.97 277.74 1133.13 277.845L1134.84 278.977C1134.9 279.016 1134.96 279.044 1135.03 279.062C1135.38 279.155 1135.73 278.949 1135.83 278.603L1136.58 275.778L1139.3 274.689C1139.49 274.612 1139.63 274.451 1139.68 274.254L1140.12 272.63L1143.07 270.927C1143.18 270.863 1143.27 270.767 1143.32 270.652L1144.79 267.682C1144.95 267.36 1144.82 266.97 1144.5 266.811C1144.46 266.792 1144.42 266.777 1144.38 266.766L1142.22 266.189L1141.28 262.899C1141.22 262.68 1141.05 262.509 1140.83 262.45L1136.82 261.377L1136.32 258.924C1136.28 258.719 1136.14 258.547 1135.95 258.461C1135.76 258.374 1135.54 258.385 1135.36 258.491L1134.33 259.085L1134.59 258.089C1134.64 257.923 1134.61 257.745 1134.53 257.596L1133.74 256.237L1134.03 255.158L1138.04 255.641C1138.12 255.651 1138.21 255.644 1138.29 255.62L1141.94 254.578C1142.04 254.549 1142.13 254.495 1142.21 254.421L1144.76 251.954L1146.57 251.845C1146.78 251.833 1146.96 251.725 1147.07 251.554L1148.21 249.839C1148.4 249.539 1148.32 249.136 1148.02 248.939C1147.99 248.921 1147.96 248.905 1147.93 248.891L1144.46 247.312L1143.94 246.715C1148.23 246.488 1152.47 247.794 1155.89 250.399L1154.59 250.664L1152.23 250.031C1151.99 249.966 1151.73 250.042 1151.57 250.227L1149.64 252.401C1149.4 252.67 1149.43 253.081 1149.7 253.319C1149.72 253.339 1149.74 253.357 1149.77 253.374L1151.48 254.507C1151.59 254.575 1151.71 254.613 1151.83 254.614L1154.32 254.656L1155.88 255.684C1155.9 255.699 1155.92 255.713 1155.95 255.724L1158.92 257.193C1159.07 257.27 1159.25 257.282 1159.42 257.226L1161.1 256.656C1161.59 257.628 1162 258.641 1162.31 259.685L1158.95 259.887L1155.75 258.434L1155.09 256.48C1155.02 256.276 1154.86 256.119 1154.65 256.062L1150.88 255.053C1150.71 255.008 1150.54 255.032 1150.39 255.118L1148 256.496C1147.82 256.599 1147.7 256.778 1147.68 256.982L1147.13 261.544C1147.1 261.77 1147.2 261.993 1147.38 262.133L1151.27 265.193C1151.38 265.281 1151.51 265.33 1151.66 265.332L1154.05 265.372L1155.17 266.655L1154.59 268.83C1154.56 268.926 1154.56 269.028 1154.58 269.127L1155.72 274.672L1155.08 277.035C1155.04 277.202 1155.06 277.379 1155.15 277.528L1156.11 279.194C1148.21 285.396 1136.77 284.017 1130.57 276.113Z" fill="url(#paint12_linear)"/>
</g>
</g>
</g>
<g id="medalha" class="bg-medalha" opacity="0.5">
<path id="Fill 1" fill-rule="evenodd" clip-rule="evenodd" d="M454.052 22.8691L439.138 38.5558L444.881 40.8748L460.223 25.3614L454.052 22.8691Z" fill="url(#paint13_linear)"/>
<g id="Group 4">
<mask id="mask0" mask-type="alpha" maskUnits="userSpaceOnUse" x="422" y="33" width="31" height="33">
<path id="Clip 3" fill-rule="evenodd" clip-rule="evenodd" d="M432.173 34.3967L451.849 42.3426L442.877 64.5586L423.201 56.6127L432.173 34.3967Z" fill="white" stroke="white"/>
</mask>
<g mask="url(#mask0)">
<path id="Fill 2" d="M437.529 38.4554L437.066 38.2682L437.529 38.4554ZM444.52 43.1683L444.167 43.5223L444.701 44.0554L444.984 43.3556L444.52 43.1683ZM446.323 42.0066L446.787 42.1939L446.323 42.0066ZM436.382 37.9922L435.919 37.805L436.382 37.9922ZM435.493 40.1943L435.567 40.6889L435.85 40.6467L435.957 40.3816L435.493 40.1943ZM437.337 40.2675L437.993 38.6426L437.066 38.2682L436.41 39.8931L437.337 40.2675ZM437.993 38.6426C437.994 38.6398 437.995 38.6383 437.997 38.6371C437.998 38.6357 438 38.6343 438.003 38.6332C438.005 38.632 438.007 38.6317 438.009 38.6316C438.01 38.6316 438.012 38.6317 438.014 38.6327L438.388 37.7054C437.867 37.495 437.275 37.7493 437.066 38.2682L437.993 38.6426ZM438.014 38.6327L444.705 41.3346L445.079 40.4074L438.388 37.7054L438.014 38.6327ZM444.705 41.3346C444.707 41.3355 444.708 41.3364 444.709 41.3372C444.71 41.3383 444.711 41.3402 444.712 41.3428C444.713 41.3454 444.714 41.3479 444.714 41.3499C444.714 41.3515 444.714 41.3534 444.713 41.3562L445.64 41.7306C445.849 41.2118 445.6 40.6178 445.079 40.4074L444.705 41.3346ZM444.713 41.3562L444.056 42.9811L444.984 43.3556L445.64 41.7306L444.713 41.3562ZM444.873 42.8144C443.852 41.7956 442.615 40.961 441.196 40.3878L440.821 41.3151C442.114 41.8371 443.239 42.5964 444.167 43.5223L444.873 42.8144ZM441.196 40.3878C439.777 39.8147 438.307 39.5562 436.865 39.5804L436.882 40.5802C438.192 40.5583 439.529 40.793 440.821 41.3151L441.196 40.3878ZM445.898 44.396L446.787 42.1939L445.86 41.8194L444.97 44.0216L445.898 44.396ZM446.787 42.1939C447.253 41.0404 446.697 39.7228 445.543 39.257L445.169 40.1843C445.808 40.4422 446.12 41.1756 445.86 41.8194L446.787 42.1939ZM445.543 39.257L438.853 36.555L438.478 37.4823L445.169 40.1843L445.543 39.257ZM438.853 36.555C437.699 36.0893 436.385 36.6515 435.919 37.805L436.846 38.1794C437.106 37.5355 437.84 37.2244 438.478 37.4823L438.853 36.555ZM435.919 37.805L435.029 40.0071L435.957 40.3816L436.846 38.1794L435.919 37.805ZM435.419 39.6998C431.647 40.262 428.257 42.757 426.722 46.5584L427.65 46.9328C429.047 43.4724 432.131 41.2009 435.567 40.6889L435.419 39.6998ZM426.722 46.5584C424.419 52.2626 427.161 58.7512 432.852 61.0493L433.226 60.1221C428.05 58.0318 425.552 52.1276 427.65 46.9328L426.722 46.5584ZM432.852 61.0493C438.543 63.3475 445.022 60.583 447.326 54.8788L446.398 54.5043C444.301 59.6991 438.402 62.2124 433.226 60.1221L432.852 61.0493ZM447.326 54.8788C448.861 51.0774 448.155 46.9285 445.83 43.9041L445.037 44.5135C447.154 47.2677 447.796 51.0439 446.398 54.5043L447.326 54.8788Z" fill="url(#paint14_linear)"/>
</g>
</g>
<path id="Fill 5" d="M433.766 58.7957C429.284 56.9857 427.083 51.9345 428.859 47.5354C430.636 43.1361 435.727 41.0299 440.209 42.8399C444.691 44.6499 446.893 49.7013 445.116 54.1006C443.34 58.4996 438.248 60.6058 433.766 58.7957" stroke="url(#paint15_linear)"/>
<path id="Fill 105" fill-rule="evenodd" clip-rule="evenodd" d="M438.677 54.0405C438.528 54.5009 437.945 54.642 437.602 54.3009L436.27 52.9781L434.393 52.9878C433.909 52.9903 433.592 52.4815 433.809 52.0484L434.659 50.3445L434.078 48.5313C433.932 48.0733 434.316 47.6202 434.792 47.6908L436.659 47.9677L438.179 46.8487C438.57 46.5606 439.128 46.7887 439.205 47.2685L439.505 49.1324L441.03 50.2435C441.419 50.5267 441.375 51.1194 440.95 51.3432L439.264 52.2289L438.677 54.0405Z" stroke="url(#paint16_linear)"/>
<path id="Fill 116" fill-rule="evenodd" clip-rule="evenodd" d="M437.042 16L443.897 18.7682L445.037 41.2884L438.6 38.6887L437.042 16Z" fill="url(#paint17_linear)"/>
</g>
<g id="bg-robo-2" class="bg-robo-2">
<path id="Vector_9" opacity="0.5" d="M200.485 236.841C200.445 236.861 200.408 236.884 200.371 236.908L199.729 237.181C194.716 239.316 192.578 245.14 194.969 250.148L195.237 250.71C197.584 255.627 203.443 257.965 208.399 256.029L209.458 258.248L206.7 259.423C204.885 260.196 203.968 262.127 204.372 263.995C201.274 267.564 201.202 273.213 203.395 277.654C202.071 278.815 201.612 280.755 202.431 282.47C202.499 282.617 202.595 282.751 202.714 282.863C202.833 282.976 202.973 283.065 203.126 283.125C203.278 283.185 203.44 283.216 203.602 283.215C203.763 283.214 203.922 283.181 204.068 283.119C204.215 283.056 204.346 282.966 204.454 282.852C204.562 282.738 204.644 282.603 204.697 282.455C204.75 282.308 204.772 282.15 204.762 281.991C204.752 281.832 204.71 281.676 204.638 281.53C204.195 280.603 204.576 279.566 205.504 279.171C206.432 278.776 207.506 279.193 207.949 280.12C208.016 280.267 208.113 280.401 208.232 280.513C208.351 280.626 208.491 280.714 208.643 280.775C208.796 280.835 208.957 280.866 209.119 280.865C209.281 280.863 209.44 280.831 209.586 280.769C209.732 280.706 209.863 280.616 209.971 280.502C210.079 280.388 210.162 280.253 210.215 280.105C210.268 279.958 210.29 279.8 210.28 279.641C210.27 279.482 210.227 279.325 210.156 279.18C209.321 277.431 207.422 276.465 205.592 276.682C203.971 273.336 203.967 269.008 205.77 266.25C207.007 267.385 208.8 267.816 210.384 267.141L210.936 266.906L211.989 269.111L209.782 270.052C209.489 270.176 209.264 270.412 209.155 270.707C209.047 271.002 209.065 271.332 209.204 271.624L211.31 276.035C211.45 276.327 211.7 276.558 212.005 276.677C212.311 276.795 212.647 276.792 212.94 276.667L215.147 275.727L218.831 283.446C218.837 283.457 218.843 283.467 218.849 283.477C217.999 285.054 217.876 287.008 218.73 288.797C218.87 289.089 219.12 289.32 219.425 289.439C219.731 289.557 220.067 289.554 220.36 289.429L229.188 285.669L238.016 281.909C238.309 281.784 238.534 281.549 238.642 281.254C238.75 280.959 238.733 280.629 238.593 280.336C237.74 278.548 236.109 277.34 234.296 276.898C234.291 276.887 234.286 276.876 234.281 276.866L230.596 269.147L232.803 268.207C233.096 268.082 233.321 267.847 233.429 267.552C233.538 267.257 233.52 266.927 233.38 266.634L231.275 262.224C231.135 261.931 230.885 261.7 230.579 261.582C230.274 261.463 229.938 261.467 229.645 261.591L227.438 262.531L226.385 260.326L226.937 260.091C228.521 259.416 229.366 257.862 229.285 256.235C232.667 256.784 236.098 259.652 237.68 263.015C236.296 264.167 235.805 266.151 236.64 267.9C236.708 268.047 236.804 268.18 236.923 268.293C237.043 268.405 237.182 268.494 237.335 268.554C237.487 268.615 237.649 268.645 237.811 268.644C237.973 268.643 238.131 268.61 238.278 268.548C238.424 268.486 238.555 268.395 238.663 268.281C238.771 268.167 238.854 268.033 238.907 267.885C238.96 267.737 238.982 267.579 238.971 267.42C238.961 267.261 238.919 267.105 238.847 266.96C238.405 266.033 238.785 264.996 239.713 264.601C240.641 264.205 241.715 264.622 242.158 265.55C242.225 265.697 242.322 265.83 242.441 265.942C242.56 266.055 242.7 266.144 242.852 266.204C243.005 266.264 243.167 266.295 243.328 266.294C243.49 266.293 243.649 266.26 243.795 266.198C243.941 266.136 244.072 266.045 244.18 265.931C244.288 265.817 244.371 265.682 244.424 265.535C244.477 265.387 244.499 265.229 244.489 265.07C244.479 264.911 244.437 264.755 244.365 264.61C243.546 262.894 241.703 261.935 239.906 262.103C237.833 257.61 233.303 253.922 228.421 253.752C227.206 252.229 225.067 251.599 223.252 252.372L220.494 253.547L219.435 251.329C224.252 249.102 226.276 243.408 223.929 238.491L223.661 237.929C221.27 232.921 215.235 230.577 210.223 232.712L209.406 233.059L200.735 236.753C200.687 236.764 200.64 236.778 200.595 236.794C200.557 236.808 200.52 236.824 200.485 236.841ZM203.027 238.43L209.028 235.874L209.529 238.315L204.632 240.4L203.027 238.43ZM200.752 239.402L203.352 242.594C203.526 242.807 203.765 242.96 204.031 243.029C204.298 243.098 204.576 243.078 204.823 242.973L211.444 240.153C211.69 240.048 211.89 239.864 212.012 239.63C212.134 239.396 212.17 239.125 212.116 238.861L211.305 234.907C215.118 233.301 219.637 235.062 221.454 238.869L221.722 239.431C223.5 243.155 222.006 247.409 218.382 249.124C218.291 248.94 218.156 248.78 217.989 248.657C217.822 248.535 217.628 248.455 217.424 248.423C217.221 248.392 217.015 248.411 216.825 248.479C216.636 248.546 216.468 248.66 216.339 248.81L213.279 252.342L208.45 252.17C208.286 252.163 208.124 252.189 207.973 252.246C207.823 252.303 207.687 252.389 207.574 252.5C207.461 252.611 207.372 252.744 207.314 252.891C207.256 253.038 207.228 253.197 207.234 253.357C207.24 253.517 207.278 253.676 207.347 253.824C203.587 255.254 199.222 253.495 197.444 249.77L197.176 249.208C195.359 245.402 196.954 241.039 200.752 239.402ZM202.021 245.493C201.737 245.62 201.518 245.852 201.412 246.141L200.258 249.286C200.201 249.433 200.174 249.591 200.18 249.75C200.186 249.91 200.225 250.068 200.293 250.215C200.362 250.362 200.459 250.496 200.579 250.608C200.7 250.72 200.841 250.809 200.994 250.868C201.147 250.928 201.31 250.957 201.472 250.955C201.635 250.952 201.794 250.918 201.94 250.854C202.086 250.79 202.216 250.698 202.323 250.582C202.43 250.466 202.512 250.33 202.563 250.181L203.309 248.148L205.416 248.965C205.569 249.028 205.731 249.061 205.893 249.061C206.056 249.062 206.216 249.031 206.363 248.97C206.511 248.909 206.643 248.819 206.752 248.706C206.862 248.593 206.946 248.458 207.001 248.31C207.055 248.162 207.078 248.004 207.069 247.844C207.059 247.685 207.018 247.527 206.946 247.381C206.875 247.235 206.775 247.104 206.652 246.994C206.53 246.884 206.387 246.798 206.233 246.742L202.973 245.476C202.818 245.416 202.655 245.387 202.491 245.39C202.328 245.393 202.168 245.428 202.021 245.493ZM215.263 239.853C214.979 239.979 214.761 240.212 214.655 240.501L213.5 243.646C213.443 243.793 213.416 243.951 213.422 244.11C213.428 244.269 213.467 244.428 213.535 244.575C213.604 244.722 213.701 244.856 213.822 244.968C213.942 245.08 214.083 245.169 214.236 245.228C214.39 245.288 214.552 245.317 214.715 245.315C214.877 245.312 215.036 245.278 215.182 245.214C215.328 245.15 215.458 245.057 215.565 244.942C215.672 244.826 215.754 244.69 215.805 244.541L216.551 242.507L218.659 243.325C218.811 243.388 218.973 243.42 219.136 243.421C219.298 243.422 219.458 243.391 219.605 243.33C219.753 243.269 219.885 243.179 219.995 243.066C220.104 242.952 220.189 242.818 220.243 242.67C220.297 242.522 220.32 242.363 220.311 242.204C220.302 242.045 220.26 241.887 220.188 241.741C220.117 241.595 220.017 241.463 219.894 241.353C219.772 241.244 219.629 241.158 219.475 241.101L216.215 239.836C216.061 239.776 215.897 239.747 215.733 239.75C215.57 239.752 215.41 239.788 215.263 239.853ZM210.388 254.633L213.867 254.758C214.047 254.764 214.224 254.732 214.387 254.663C214.549 254.594 214.692 254.489 214.806 254.358L217.01 251.813L218.511 254.957L215.032 254.832C214.853 254.825 214.675 254.858 214.513 254.927C214.35 254.996 214.207 255.1 214.093 255.232L211.889 257.777L210.388 254.633ZM215.621 257.248L220.449 257.42C220.655 257.427 220.857 257.384 221.037 257.293C221.217 257.202 221.368 257.068 221.478 256.901C221.587 256.735 221.651 256.543 221.663 256.342C221.675 256.141 221.635 255.938 221.546 255.753L224.305 254.578C225.179 254.205 226.176 254.559 226.66 255.376C226.689 255.444 226.725 255.509 226.766 255.571C227.176 256.487 226.797 257.497 225.884 257.886L209.331 264.936C208.418 265.325 207.365 264.924 206.91 264.026C206.89 263.96 206.863 263.896 206.832 263.834C206.497 262.948 206.875 262.002 207.752 261.628L210.511 260.453C210.6 260.638 210.734 260.801 210.901 260.926C211.069 261.05 211.263 261.132 211.468 261.165C211.672 261.198 211.879 261.179 212.07 261.112C212.261 261.045 212.43 260.93 212.56 260.78L215.621 257.248ZM213.143 265.966L224.178 261.266L225.231 263.471L214.196 268.171L213.143 265.966ZM211.938 271.787L229.594 264.266L230.647 266.472L228.44 267.412L224.026 269.292L219.612 271.172L215.198 273.052L212.991 273.992L211.938 271.787ZM217.354 274.787L219.561 273.847L222.719 280.463L220.512 281.403L217.354 274.787ZM221.768 272.907L223.975 271.967L227.66 279.686C227.665 279.696 227.671 279.707 227.677 279.717C227.409 280.214 227.215 280.743 227.102 281.299C226.587 281.011 226.039 280.797 225.468 280.658C225.463 280.647 225.458 280.637 225.453 280.626L221.768 272.907ZM226.182 271.027L228.389 270.087L231.547 276.703L230.444 277.173L229.34 277.643L226.182 271.027ZM222.668 283.139C224.076 282.539 225.509 283.106 226.577 284.128L220.865 286.56C220.762 285.128 221.26 283.738 222.668 283.139ZM231.497 279.378C232.904 278.779 234.337 279.346 235.405 280.367L229.694 282.8C229.59 281.368 230.089 279.978 231.497 279.378Z" fill="#FF6C0E"/>
</g>
</g>
<defs>
<linearGradient id="paint0_linear" x1="53.6564" y1="106.5" x2="57.7226" y2="122.8" gradientUnits="userSpaceOnUse">
<stop stop-color="#DB5500"/>
<stop offset="1" stop-color="#FF6C0E"/>
</linearGradient>
<linearGradient id="paint1_linear" x1="50.7312" y1="113.725" x2="52.1425" y2="119.382" gradientUnits="userSpaceOnUse">
<stop stop-color="#DB5500"/>
<stop offset="1" stop-color="#FF6C0E"/>
</linearGradient>
<linearGradient id="paint2_linear" x1="59.6332" y1="111.504" x2="61.0446" y2="117.162" gradientUnits="userSpaceOnUse">
<stop stop-color="#DB5500"/>
<stop offset="1" stop-color="#FF6C0E"/>
</linearGradient>
<linearGradient id="paint3_linear" x1="64.2846" y1="127.897" x2="65.8658" y2="134.236" gradientUnits="userSpaceOnUse">
<stop stop-color="#DB5500"/>
<stop offset="1" stop-color="#FF6C0E"/>
</linearGradient>
<linearGradient id="paint4_linear" x1="52.3004" y1="101.066" x2="65.8545" y2="155.401" gradientUnits="userSpaceOnUse">
<stop stop-color="#DB5500"/>
<stop offset="1" stop-color="#FF6C0E"/>
</linearGradient>
<linearGradient id="paint5_linear" x1="1045.53" y1="405.047" x2="1038.81" y2="401.649" gradientUnits="userSpaceOnUse">
<stop offset="0.0880283" stop-color="#DB5500" stop-opacity="0.78"/>
<stop offset="1" stop-color="#FF6C0E" stop-opacity="0.63"/>
</linearGradient>
<linearGradient id="paint6_linear" x1="1021.38" y1="393.679" x2="1027.51" y2="396.8" gradientUnits="userSpaceOnUse">
<stop offset="0.0880283" stop-color="#DB5500" stop-opacity="0.78"/>
<stop offset="1" stop-color="#FF6C0E" stop-opacity="0.63"/>
</linearGradient>
<linearGradient id="paint7_linear" x1="1034.93" y1="381.192" x2="1046.02" y2="386.833" gradientUnits="userSpaceOnUse">
<stop offset="0.0880283" stop-color="#DB5500" stop-opacity="0.78"/>
<stop offset="1" stop-color="#FF6C0E" stop-opacity="0.63"/>
</linearGradient>
<linearGradient id="paint8_linear" x1="70.8718" y1="408.558" x2="78.9501" y2="405.999" gradientUnits="userSpaceOnUse">
<stop offset="0.0880283" stop-color="#DB5500" stop-opacity="0.78"/>
<stop offset="1" stop-color="#FF6C0E" stop-opacity="0.63"/>
</linearGradient>
<linearGradient id="paint9_linear" x1="45.4444" y1="391.601" x2="67.4617" y2="384.636" gradientUnits="userSpaceOnUse">
<stop offset="0.0880283" stop-color="#DB5500" stop-opacity="0.78"/>
<stop offset="1" stop-color="#FF6C0E" stop-opacity="0.63"/>
</linearGradient>
<linearGradient id="paint10_linear" x1="50.7085" y1="414.985" x2="58.7883" y2="412.425" gradientUnits="userSpaceOnUse">
<stop offset="0.0880283" stop-color="#DB5500" stop-opacity="0.78"/>
<stop offset="1" stop-color="#FF6C0E" stop-opacity="0.63"/>
</linearGradient>
<linearGradient id="paint11_linear" x1="967.803" y1="83.0924" x2="995.466" y2="72.0846" gradientUnits="userSpaceOnUse">
<stop offset="0.0880283" stop-color="#DB5500" stop-opacity="0.78"/>
<stop offset="1" stop-color="#FF6C0E" stop-opacity="0.63"/>
</linearGradient>
<linearGradient id="paint12_linear" x1="1129.58" y1="256.858" x2="1160.54" y2="265.234" gradientUnits="userSpaceOnUse">
<stop offset="0.0880283" stop-color="#DB5500" stop-opacity="0.78"/>
<stop offset="1" stop-color="#FF6C0E" stop-opacity="0.63"/>
</linearGradient>
<linearGradient id="paint13_linear" x1="444.558" y1="27.7789" x2="455.691" y2="32.2976" gradientUnits="userSpaceOnUse">
<stop offset="0.0880283" stop-color="#DB5500" stop-opacity="0.78"/>
<stop offset="1" stop-color="#FF6C0E" stop-opacity="0.63"/>
</linearGradient>
<linearGradient id="paint14_linear" x1="429.893" y1="43.8829" x2="446.059" y2="50.4522" gradientUnits="userSpaceOnUse">
<stop offset="0.0880283" stop-color="#DB5500" stop-opacity="0.78"/>
<stop offset="1" stop-color="#FF6C0E" stop-opacity="0.63"/>
</linearGradient>
<linearGradient id="paint15_linear" x1="430.588" y1="46.4287" x2="443.943" y2="51.8608" gradientUnits="userSpaceOnUse">
<stop offset="0.0880283" stop-color="#DB5500" stop-opacity="0.78"/>
<stop offset="1" stop-color="#FF6C0E" stop-opacity="0.63"/>
</linearGradient>
<linearGradient id="paint16_linear" x1="434.236" y1="47.9461" x2="440.913" y2="50.6624" gradientUnits="userSpaceOnUse">
<stop offset="0.0880283" stop-color="#DB5500" stop-opacity="0.78"/>
<stop offset="1" stop-color="#FF6C0E" stop-opacity="0.63"/>
</linearGradient>
<linearGradient id="paint17_linear" x1="435.018" y1="24.0674" x2="447.881" y2="29.2922" gradientUnits="userSpaceOnUse">
<stop offset="0.0880283" stop-color="#DB5500" stop-opacity="0.78"/>
<stop offset="1" stop-color="#FF6C0E" stop-opacity="0.63"/>
</linearGradient>
<clipPath id="clip0">
<rect width="38" height="38" fill="white" transform="translate(959 70.1316) rotate(-21.8318)"/>
</clipPath>
<clipPath id="clip1">
<rect width="39" height="39" fill="white" transform="translate(1131.09 241) rotate(15)"/>
</clipPath>
</defs>
</svg>
