<svg width="1216" height="428" viewBox="0 0 1216 428" fill="none" xmlns="http://www.w3.org/2000/svg">
<g id="bg-hero" clip-path="url(#clip0)">
<g id="gota">
<g id="Group">
<g id="Group_2">
<path id="Vector" d="M102.8 172.475C93 172.475 85 164.475 85 154.775C85 145.275 101.3 120.475 102 119.375C102.3 118.875 103 118.875 103.3 119.375C104 120.475 120.3 145.275 120.3 154.775C120.5 164.475 112.5 172.475 102.8 172.475ZM102.8 121.275C99.6 126.175 86.7 146.775 86.7 154.775C86.7 163.675 93.9 170.875 102.8 170.875C111.6 170.875 118.8 163.575 118.8 154.775C118.8 146.775 105.9 126.175 102.8 121.275Z" fill="#FF6C0E" stroke="#FF6C0E" stroke-width="0.5" stroke-miterlimit="10"/>
</g>
</g>
<g id="XMLID 1">
<g id="XMLID 3">
<g id="XMLID 4">
<g id="XMLID 5">
<g id="Group_3">
<g id="Vector_2">
<path d="M96.6992 152.575C96.2992 152.575 95.9992 152.275 95.8992 151.875L95.4992 148.575L91.9992 149.175C91.5992 149.275 91.0992 148.975 91.0992 148.475C90.9992 148.075 91.2992 147.575 91.7992 147.575L96.0992 146.875C96.2992 146.875 96.4992 146.875 96.6992 146.975C96.8992 147.075 96.9992 147.275 96.9992 147.475L97.4992 151.575C97.5992 152.175 97.2992 152.575 96.6992 152.575C96.7992 152.575 96.7992 152.575 96.6992 152.575Z" fill="#FF6C0E"/>
<path d="M96.6992 152.575C96.2992 152.575 95.9992 152.275 95.8992 151.875L95.4992 148.575L91.9992 149.175C91.5992 149.275 91.0992 148.975 91.0992 148.475C90.9992 148.075 91.2992 147.575 91.7992 147.575L96.0992 146.875C96.2992 146.875 96.4992 146.875 96.6992 146.975C96.8992 147.075 96.9992 147.275 96.9992 147.475L97.4992 151.575C97.5992 152.175 97.2992 152.575 96.6992 152.575ZM96.6992 152.575C96.7992 152.575 96.7992 152.575 96.6992 152.575Z" stroke="#FF6C0E" stroke-width="0.5" stroke-miterlimit="10"/>
</g>
</g>
</g>
</g>
</g>
<g id="XMLID 2">
<g id="Group_4">
<path id="Vector_3" d="M103.5 165.875C100.7 165.875 97.9 164.775 95.7 162.675C93.6 160.575 92.5 157.775 92.5 154.875C92.5 151.975 93.6 149.175 95.7 147.075C96 146.775 96.5 146.775 96.8 147.075C97.1 147.375 97.1 147.875 96.8 148.175C95 149.975 94 152.275 94 154.875C94 157.375 95 159.775 96.8 161.575C100.5 165.275 106.5 165.275 110.1 161.575C111.9 159.775 112.9 157.475 112.9 154.875C112.9 152.375 111.9 149.975 110.1 148.175C108.3 146.375 105.9 145.375 103.3 145.375C102.9 145.375 102.5 145.075 102.5 144.575C102.5 144.175 102.8 143.775 103.3 143.775C106.3 143.775 109.1 144.875 111.2 146.975C113.3 149.075 114.4 151.875 114.4 154.775C114.4 157.675 113.3 160.475 111.2 162.575C109.1 164.875 106.3 165.875 103.5 165.875Z" fill="#FF6C0E" stroke="#FF6C0E" stroke-width="0.5" stroke-miterlimit="10"/>
</g>
</g>
</g>
</g>
<g id="raio" class="raio">
<g id="XMLID 2_2">
<g id="Group_5">
<path id="Vector_4" d="M257.309 322.704C257.209 322.704 257.009 322.704 256.909 322.604C256.609 322.404 256.409 322.004 256.609 321.604L265.209 298.504L253.809 298.304C253.509 298.304 253.209 298.104 253.109 297.804C252.909 297.604 253.009 297.204 253.209 297.004L275.409 270.304C275.609 270.004 276.109 269.904 276.409 270.104C276.709 270.304 276.909 270.704 276.809 271.104L268.809 292.704L281.309 293.004C281.609 293.004 281.909 293.204 282.009 293.504C282.109 293.804 282.109 294.104 281.909 294.404L257.909 322.504C257.809 322.604 257.509 322.704 257.309 322.704ZM255.509 296.704L266.409 297.004C266.709 297.004 266.909 297.104 267.009 297.404C267.109 297.604 267.209 297.904 267.109 298.104L259.709 317.904L279.609 294.604L267.609 294.404C267.309 294.404 267.109 294.304 267.009 294.004C266.909 293.804 266.809 293.504 266.909 293.304L273.709 275.004L255.509 296.704Z" fill="#FF6C0E"/>
</g>
</g>
</g>
<g id="luz" class="luz">
<g id="Group_6">
<g id="Group_7">
<path id="Vector_5" d="M1010 376.208C1008 376.208 1006.5 374.708 1006.5 372.708V371.908C1006.5 371.708 1006.6 371.408 1006.8 371.308C1007 371.108 1007.2 371.108 1007.4 371.108H1007.5H1012.4H1012.5C1012.7 371.108 1013 371.108 1013.1 371.308C1013.3 371.508 1013.4 371.708 1013.4 371.908V372.808C1013.4 374.708 1011.9 376.208 1010 376.208ZM1008.1 372.708C1008.1 373.808 1008.9 374.608 1009.9 374.608H1010C1011 374.608 1011.8 373.808 1011.8 372.808V372.708H1008.1Z" fill="#FF6C0E" stroke="#FF6C0E" stroke-width="0.25" stroke-miterlimit="10"/>
</g>
</g>
<g id="Group_8">
<g id="Group_9">
<path id="Vector_6" d="M1015.9 363.908H1004C1003.6 363.908 1003.2 363.508 1003.2 363.108V361.308C1003.2 358.108 1001.8 355.108 999.4 353.208C995.3 349.908 993 345.108 993 339.908C993 330.508 1000.9 322.708 1010.4 323.008C1019.2 323.308 1026.4 330.308 1026.8 339.108C1027.1 344.508 1024.8 349.608 1020.6 353.008C1018.1 355.008 1016.7 358.008 1016.7 361.108V363.008C1016.7 363.608 1016.3 363.908 1015.9 363.908ZM1004.8 362.308H1015.1V361.208C1015.1 357.608 1016.7 354.108 1019.6 351.808C1023.4 348.708 1025.5 344.108 1025.2 339.208C1024.9 331.308 1018.4 324.908 1010.4 324.608C1010.2 324.608 1010.1 324.608 1009.9 324.608C1001.5 324.608 994.6 331.508 994.6 339.908C994.6 344.608 996.7 348.908 1000.4 351.908C1003.2 354.108 1004.8 357.608 1004.8 361.308V362.308Z" fill="#FF6C0E" stroke="#FF6C0E" stroke-width="0.25" stroke-miterlimit="10"/>
</g>
</g>
<g id="Group_10">
<g id="Group_11">
<path id="Vector_7" d="M1004 368.408C1003.8 368.408 1003.6 368.308 1003.4 368.208C1003.2 368.008 1003.2 367.808 1003.2 367.608V363.108C1003.2 362.708 1003.6 362.308 1004 362.308H1015.9C1016.3 362.308 1016.7 362.708 1016.7 363.108V367.508C1016.7 367.908 1016.3 368.308 1015.9 368.308L1004 368.408ZM1004.8 363.908V366.708H1015.1V363.908H1004.8Z" fill="#FF6C0E" stroke="#FF6C0E" stroke-width="0.25" stroke-miterlimit="10"/>
</g>
</g>
<g id="Group_12">
<g id="Group_13">
<path id="Vector_8" d="M1012.4 372.708H1007.5C1007.4 372.708 1007.3 372.708 1007.2 372.708C1005 372.508 1003.2 370.708 1003.2 368.408V367.608C1003.2 367.208 1003.6 366.808 1004 366.808H1015.9C1016.1 366.808 1016.3 366.908 1016.5 367.008C1016.7 367.208 1016.7 367.408 1016.7 367.608V368.408C1016.7 370.708 1014.9 372.508 1012.7 372.708C1012.6 372.708 1012.5 372.708 1012.4 372.708ZM1007.5 371.108H1012.4H1012.5C1012.5 371.108 1012.5 371.108 1012.6 371.108C1014 371.008 1015.1 369.808 1015.1 368.408H1004.8C1004.8 369.808 1005.9 371.008 1007.3 371.108C1007.3 371.108 1007.3 371.108 1007.4 371.108C1007.4 371.108 1007.5 371.108 1007.5 371.108Z" fill="#FF6C0E" stroke="#FF6C0E" stroke-width="0.25" stroke-miterlimit="10"/>
</g>
</g>
<g id="Group_14">
<g id="Group_15">
<g id="Group_16">
<g id="Group_17">
<path id="Vector_9" d="M1012.3 363.908C1011.9 363.908 1011.5 363.508 1011.5 363.108V340.408C1011.5 340.008 1011.9 339.608 1012.3 339.608C1012.7 339.608 1013.1 340.008 1013.1 340.408V363.108C1013.1 363.608 1012.8 363.908 1012.3 363.908Z" fill="#FF6C0E" stroke="#FF6C0E" stroke-width="0.25" stroke-miterlimit="10"/>
</g>
</g>
<g id="Group_18">
<g id="Group_19">
<path id="Vector_10" d="M1015.4 344.308C1013.2 344.308 1011.5 342.508 1011.5 340.408C1011.5 338.308 1013.3 336.508 1015.4 336.508C1017.5 336.508 1019.3 338.308 1019.3 340.408C1019.3 342.508 1017.6 344.308 1015.4 344.308ZM1015.4 338.108C1014.1 338.108 1013.1 339.108 1013.1 340.408C1013.1 341.708 1014.1 342.708 1015.4 342.708C1016.7 342.708 1017.7 341.708 1017.7 340.408C1017.7 339.208 1016.7 338.108 1015.4 338.108Z" fill="#FF6C0E" stroke="#FF6C0E" stroke-width="0.25" stroke-miterlimit="10"/>
</g>
</g>
</g>
<g id="Group_20">
<g id="Group_21">
<g id="Group_22">
<path id="Vector_11" d="M1007.6 363.908C1007.2 363.908 1006.8 363.508 1006.8 363.108V340.408C1006.8 340.008 1007.2 339.608 1007.6 339.608C1008 339.608 1008.4 340.008 1008.4 340.408V363.108C1008.4 363.608 1008 363.908 1007.6 363.908Z" fill="#FF6C0E" stroke="#FF6C0E" stroke-width="0.25" stroke-miterlimit="10"/>
</g>
</g>
<g id="Group_23">
<g id="Group_24">
<path id="Vector_12" d="M1004.5 344.308C1002.3 344.308 1000.6 342.508 1000.6 340.408C1000.6 338.308 1002.4 336.508 1004.5 336.508C1006.7 336.508 1008.4 338.308 1008.4 340.408C1008.4 342.508 1006.6 344.308 1004.5 344.308ZM1004.5 338.108C1003.2 338.108 1002.2 339.108 1002.2 340.408C1002.2 341.708 1003.2 342.708 1004.5 342.708C1005.8 342.708 1006.8 341.708 1006.8 340.408C1006.8 339.208 1005.7 338.108 1004.5 338.108Z" fill="#FF6C0E" stroke="#FF6C0E" stroke-width="0.25" stroke-miterlimit="10"/>
</g>
</g>
</g>
</g>
</g>
<g id="net" clas="net">
<g id="Group_25">
<g id="Group_26">
<g id="Group_27">
<g id="Group_28">
<path id="Vector_13" d="M588.136 176.205C588.536 162.605 577.436 151.005 564.036 150.305C559.936 150.105 560.436 143.805 564.536 144.005C581.536 144.905 594.936 159.705 594.436 176.605C594.336 180.705 588.036 180.205 588.136 176.205Z" stroke="#FF6C0E" stroke-width="2" stroke-miterlimit="10"/>
</g>
</g>
</g>
</g>
<g id="Group_29">
<g id="Group_30">
<g id="Group_31">
<g id="Group_32">
<path id="Vector_14" d="M575.336 178.105C575.536 169.805 568.736 162.705 560.436 162.305C556.336 162.105 556.836 155.805 560.936 156.005C572.736 156.605 581.936 166.905 581.636 178.605C581.536 182.605 575.236 182.105 575.336 178.105Z" stroke="#FF6C0E" stroke-width="2" stroke-miterlimit="10"/>
</g>
</g>
</g>
</g>
<g id="Group_33">
<g id="Group_34">
<g id="Group_35">
<g id="Group_36">
<path id="Vector_15" d="M564.336 179.905C564.436 176.505 561.536 173.805 558.336 173.605C554.236 173.405 554.736 167.105 558.836 167.305C565.636 167.705 570.836 173.705 570.736 180.405C570.536 184.505 564.236 184.005 564.336 179.905Z" stroke="#FF6C0E" stroke-width="2" stroke-miterlimit="10"/>
</g>
</g>
</g>
</g>
<g id="Group_37">
<g id="Group_38">
<g id="Group_39">
<g id="Group_40">
<path id="Vector_16" d="M555.836 184.705C551.736 184.405 552.236 178.105 556.336 178.405C560.336 178.705 559.936 185.005 555.836 184.705Z" stroke="#FF6C0E" stroke-width="2" stroke-miterlimit="10"/>
</g>
</g>
</g>
</g>
</g>
<g id="sustentabilidade" class="sustentabilidade">
<g id="Group_41">
<g id="Group_42">
<g id="Group_43">
<path id="Vector_17" d="M100.063 424.3C99.0629 424.3 90.3629 424.1 86.2629 415.7C84.0629 411.4 84.7629 405.9 88.1629 399.5L85.7629 398C85.4629 397.8 85.3629 397.5 85.3629 397.1C85.4629 396.8 85.7629 396.5 86.0629 396.5L98.0629 395.7C98.4629 395.7 98.7629 395.9 98.8629 396.2L102.563 406.4C102.663 406.7 102.563 407.1 102.363 407.3C102.063 407.5 101.763 407.5 101.463 407.4L99.4629 406.2L98.6629 407.6C97.6629 409.3 96.9629 411.2 96.5629 413.1C96.1629 415.1 96.2629 417.2 96.6629 419.1C97.4629 421.6 99.3629 422.3 100.163 422.6C100.363 422.7 100.463 422.7 100.563 422.8C100.863 422.9 101.063 423.2 101.063 423.5C100.863 424 100.463 424.3 100.063 424.3ZM88.6629 398L89.5629 398.5C89.9629 398.7 90.0629 399.2 89.8629 399.6V399.7C86.3629 405.9 85.6629 411 87.6629 415C89.8629 419.5 93.5629 421.4 96.3629 422.2C95.8629 421.6 95.3629 420.8 94.9629 419.7C94.9629 419.7 94.9629 419.7 94.9629 419.6C94.4629 417.4 94.3629 415.2 94.7629 412.9C95.1629 410.7 95.8629 408.7 97.0629 406.8L98.2629 404.7C98.3629 404.5 98.5629 404.4 98.7629 404.3C98.9629 404.2 99.1629 404.3 99.3629 404.4L100.163 404.9L97.4629 397.4L88.6629 398Z" fill="#FF6C0E"/>
</g>
</g>
<g id="Group_44">
<g id="Group_45">
<path id="Vector_18" d="M109.762 424.3H100.062C99.9624 424.3 99.7624 424.3 99.6624 424.2C99.6624 424.2 99.5624 424.2 99.4624 424.1C98.5624 423.8 95.9624 422.9 94.9624 419.6C94.9624 419.6 94.9624 419.6 94.9624 419.5C94.4624 417.3 94.3624 415.1 94.7624 412.8C94.8624 412.4 95.1624 412.1 95.5624 412.1H109.762C110.162 412.1 110.562 412.5 110.562 412.9V423.4C110.562 424 110.162 424.3 109.762 424.3ZM100.262 422.7H108.962V413.8H96.2624C96.0624 415.6 96.0624 417.4 96.4624 419.2C97.2624 421.7 99.1624 422.4 99.9624 422.7C100.062 422.7 100.162 422.7 100.262 422.7Z" fill="#FF6C0E"/>
</g>
</g>
</g>
<g id="Group_46">
<g id="Group_47">
<g id="Group_48">
<path id="Vector_19" d="M122.563 395.9C122.463 395.9 122.463 395.9 122.363 395.9L111.763 393.7C111.463 393.6 111.163 393.4 111.163 393C111.163 392.7 111.263 392.3 111.563 392.2L113.663 391.1L112.963 389.7C112.063 387.9 110.763 386.4 109.263 385.1C107.663 383.7 105.963 382.7 104.063 382.1C103.563 382 103.163 381.9 102.663 381.9C100.863 381.9 99.7629 382.8 99.2629 383.3C99.0629 383.5 98.8629 383.6 98.6629 383.7C98.3629 383.8 98.0629 383.7 97.8629 383.4C97.6629 383.1 97.6629 382.8 97.8629 382.5C98.2629 381.6 102.563 375 110.963 375C111.363 375 111.863 375 112.363 375.1C117.163 375.5 121.463 378.9 125.263 385.1L127.763 383.8C128.063 383.6 128.463 383.7 128.663 383.9C128.863 384.1 128.963 384.5 128.763 384.8L123.263 395.4C123.163 395.7 122.863 395.9 122.563 395.9ZM114.363 392.6L122.163 394.2L126.263 386.4L125.363 386.9C124.963 387.1 124.463 387 124.263 386.6V386.5C120.763 380.4 116.763 377.1 112.263 376.7C111.863 376.7 111.463 376.6 111.063 376.6C106.763 376.6 103.563 378.6 101.663 380.4C102.463 380.3 103.563 380.3 104.563 380.5C104.563 380.5 104.563 380.5 104.663 380.5C106.763 381.2 108.763 382.3 110.463 383.8C112.163 385.2 113.463 387 114.463 388.9L115.563 391C115.663 391.2 115.663 391.4 115.663 391.6C115.563 391.8 115.463 392 115.263 392.1L114.363 392.6Z" fill="#FF6C0E"/>
</g>
</g>
<g id="Group_49">
<g id="Group_50">
<path id="Vector_20" d="M102.363 397.4C102.263 397.4 102.063 397.4 101.963 397.3L92.9625 391.8C92.5625 391.6 92.4625 391.1 92.6625 390.7L97.6625 382.4C97.7625 382.3 97.8625 382.2 97.9625 382.1L98.0625 382C98.6625 381.5 100.163 380.3 102.563 380.3C103.163 380.3 103.763 380.4 104.363 380.5C104.363 380.5 104.363 380.5 104.463 380.5C106.563 381.2 108.562 382.3 110.262 383.8C110.562 384.1 110.662 384.5 110.462 384.8L103.063 397C102.963 397.2 102.763 397.3 102.563 397.4C102.563 397.4 102.463 397.4 102.363 397.4ZM94.5625 390.8L102.163 395.4L108.762 384.5C107.362 383.4 105.763 382.5 104.063 381.9C103.563 381.8 103.163 381.7 102.663 381.7C100.863 381.7 99.7625 382.6 99.2625 383.1C99.1625 383.2 99.1625 383.2 99.0625 383.3L94.5625 390.8Z" fill="#FF6C0E"/>
</g>
</g>
</g>
<g id="Group_51">
<g id="Group_52">
<g id="Group_53">
<path id="Vector_21" d="M120.563 428.5C120.363 428.5 120.063 428.4 119.963 428.2L112.763 418.6C112.563 418.3 112.563 417.9 112.763 417.6L119.363 409C119.563 408.7 119.963 408.6 120.263 408.7C120.563 408.8 120.763 409.1 120.863 409.4L120.963 411.8L122.563 411.7C124.563 411.6 126.563 411.2 128.363 410.4C130.263 409.6 131.963 408.5 133.363 407C135.063 404.9 134.563 403 134.363 402.2C134.263 401.9 134.263 401.7 134.263 401.5C134.363 401.2 134.563 400.9 134.863 400.9C135.163 400.8 135.463 401 135.663 401.3C136.163 402.1 140.663 409.5 135.963 417.6C133.463 421.8 128.563 424.2 121.363 424.8L121.463 427.6C121.463 428 121.263 428.3 120.963 428.4C120.663 428.5 120.563 428.5 120.563 428.5ZM114.363 418.1L119.663 425.2V424.2C119.663 423.8 119.963 423.4 120.363 423.4H120.463C127.563 422.9 132.263 420.7 134.463 416.9C137.063 412.6 136.563 408.5 135.763 405.7C135.563 406.5 135.163 407.4 134.363 408.2C134.363 408.2 134.363 408.2 134.363 408.3C132.763 409.9 130.963 411.2 128.863 412.1C126.863 413 124.663 413.4 122.463 413.5L120.063 413.6C119.863 413.6 119.663 413.5 119.463 413.4C119.263 413.3 119.263 413.1 119.163 412.8V411.9L114.363 418.1Z" fill="#FF6C0E"/>
</g>
</g>
<g id="Group_54">
<g id="Group_55">
<path id="Vector_22" d="M128.463 412C128.163 412 127.963 411.9 127.763 411.6L120.063 399.7C119.963 399.5 119.963 399.3 119.963 399.1C119.963 398.9 120.163 398.7 120.263 398.6L129.063 392.9C129.463 392.7 129.963 392.8 130.163 393.1L135.463 401.3C135.563 401.4 135.563 401.6 135.563 401.7C135.563 401.7 135.563 401.8 135.563 401.9C135.763 402.8 136.463 405.4 134.263 408.2C134.263 408.2 134.263 408.2 134.263 408.3C132.663 409.9 130.863 411.2 128.763 412.1C128.763 412 128.563 412 128.463 412ZM121.863 399.5L128.763 410.2C130.363 409.4 131.863 408.4 133.163 407.1C134.863 405 134.363 403.1 134.163 402.3C134.163 402.2 134.163 402.1 134.063 402.1L129.363 394.8L121.863 399.5Z" fill="#FF6C0E"/>
</g>
</g>
</g>
</g>
<g id="codar" class="codar">
<g id="Group_56">
<g id="Group_57">
<g id="Group_58">
<g id="Group_59">
<path id="Vector_23" d="M1046.4 198.3L1058.8 204C1059.1 204.1 1059.5 204.2 1059.8 204.2C1060.3 204.2 1060.7 204.1 1061.1 203.8C1061.8 203.4 1062.2 202.6 1062.2 201.8V201.7C1062.2 200.8 1061.7 199.9 1060.8 199.5L1053 196.1L1060.7 192.5C1061.5 192.1 1062.1 191.3 1062.1 190.3V190.2C1062.1 189.4 1061.7 188.6 1061 188.2C1060.6 188 1060.2 187.8 1059.7 187.8C1059.4 187.8 1059 187.9 1058.7 188L1046.4 193.8C1045.5 194.2 1045 195.1 1045 196V196.2C1045 197.1 1045.5 197.9 1046.4 198.3Z" stroke="#FF6C0E" stroke-width="2" stroke-miterlimit="10"/>
</g>
</g>
<g id="Group_60">
<g id="Group_61">
<path id="Vector_24" d="M1064.3 212C1064.8 212.6 1065.5 213 1066.2 213H1066.3C1067.3 213 1068.3 212.3 1068.6 211.3L1076.7 186.1C1076.9 185.4 1076.8 184.6 1076.4 184C1075.9 183.4 1075.2 183 1074.5 183H1074.4C1073.4 183 1072.4 183.7 1072.1 184.7L1064 209.9C1063.7 210.6 1063.8 211.4 1064.3 212Z" stroke="#FF6C0E" stroke-width="2" stroke-miterlimit="10"/>
</g>
</g>
<g id="Group_62">
<g id="Group_63">
<path id="Vector_25" d="M1080.5 191.3C1080.5 192.2 1081 193.1 1081.9 193.5L1089.6 197.1L1081.9 200.7C1081.1 201.1 1080.5 201.9 1080.5 202.9V203C1080.5 203.8 1080.9 204.6 1081.6 205C1082 205.2 1082.4 205.4 1082.9 205.4C1083.3 205.4 1083.6 205.3 1083.9 205.2L1096.3 199.5C1097.1 199.1 1097.7 198.3 1097.7 197.3V197C1097.7 196.1 1097.2 195.2 1096.3 194.8L1083.9 189.1C1083.6 189 1083.2 188.9 1082.9 188.9C1082.4 188.9 1082 189 1081.6 189.3C1080.9 189.7 1080.5 190.4 1080.5 191.3Z" stroke="#FF6C0E" stroke-width="2" stroke-miterlimit="10"/>
</g>
</g>
</g>
</g>
</g>
<g id="planeta" class="planeta">
<path id="Vector_26" d="M833.6 299.2C834.1 300 834.6 300.7 835.2 301.5C834.6 300.8 834.1 300 833.6 299.2Z" fill="#FF6C0E" stroke="#FF6C0E" stroke-width="0.25" stroke-miterlimit="10"/>
<path id="Vector_27" d="M821.9 302.9C821.9 302.8 821.9 302.7 821.9 302.5C822 302.7 822 302.8 821.9 302.9Z" fill="#FF6C0E" stroke="#FF6C0E" stroke-width="0.25" stroke-miterlimit="10"/>
<path id="Vector_28" d="M844.7 307.5C841.8 307.5 838.6 305.3 836.1 302.5C838.6 305.4 841.8 307.5 844.7 307.5Z" fill="#FF6C0E" stroke="#FF6C0E" stroke-width="0.25" stroke-miterlimit="10"/>
<path id="Vector_29" d="M862.7 296.8C858.6 296.8 854.1 295 850.1 293.5C849.6 293.3 849.1 293.1 848.6 292.9C849.1 293.1 849.6 293.3 850.1 293.5C854.1 295.1 858.5 296.8 862.7 296.8Z" fill="#FF6C0E" stroke="#FF6C0E" stroke-width="0.25" stroke-miterlimit="10"/>
<path id="Vector_30" d="M817.5 286.9L817.4 287C817.4 287 817.4 287 817.5 286.9Z" fill="#FF6C0E" stroke="#FF6C0E" stroke-width="0.25" stroke-miterlimit="10"/>
<path id="Vector_31" d="M817.7 286.6L817.6 286.7C817.7 286.7 817.7 286.7 817.7 286.6Z" fill="#FF6C0E" stroke="#FF6C0E" stroke-width="0.25" stroke-miterlimit="10"/>
<path id="Vector_32" d="M817.1 287.2C817 287.2 817 287.3 817.1 287.2C817 287.3 817 287.2 817.1 287.2Z" fill="#FF6C0E" stroke="#FF6C0E" stroke-width="0.25" stroke-miterlimit="10"/>
<path id="Vector_33" d="M816.001 287.7C815.901 287.7 815.901 287.7 815.801 287.8C815.901 287.8 816.001 287.8 816.001 287.7Z" fill="#FF6C0E" stroke="#FF6C0E" stroke-width="0.25" stroke-miterlimit="10"/>
<path id="Vector_34" d="M816.5 287.5C816.5 287.5 816.4 287.5 816.4 287.6C816.5 287.5 816.5 287.5 816.5 287.5Z" fill="#FF6C0E" stroke="#FF6C0E" stroke-width="0.25" stroke-miterlimit="10"/>
<path id="Vector_35" d="M864.901 295C864.701 295 864.501 295.1 864.301 295.1C864.501 295 864.701 295 864.901 295Z" fill="#FF6C0E" stroke="#FF6C0E" stroke-width="0.25" stroke-miterlimit="10"/>
<path id="Vector_36" d="M844.699 305.9C845.899 305.9 846.799 305.4 847.599 304.4C846.899 305.5 845.899 305.9 844.699 305.9Z" fill="#FF6C0E" stroke="#FF6C0E" stroke-width="0.25" stroke-miterlimit="10"/>
<path id="Vector_37" d="M862.699 295.2C863.099 295.2 863.599 295.2 863.999 295.1C863.499 295.2 863.099 295.2 862.699 295.2Z" fill="#FF6C0E" stroke="#FF6C0E" stroke-width="0.25" stroke-miterlimit="10"/>
<path id="Vector_38" d="M815.9 289.5C816 289.5 816.1 289.4 816.2 289.4C816.1 289.4 816 289.5 815.9 289.5Z" fill="#FF6C0E" stroke="#FF6C0E" stroke-width="0.25" stroke-miterlimit="10"/>
<path id="Vector_39" d="M817.4 288.9C817.5 288.8 817.6 288.8 817.7 288.7C817.6 288.8 817.5 288.8 817.4 288.9Z" fill="#FF6C0E" stroke="#FF6C0E" stroke-width="0.25" stroke-miterlimit="10"/>
<path id="Vector_40" d="M819 287.6C819 287.5 819.1 287.5 819.1 287.4C819.1 287.5 819.1 287.5 819 287.6Z" fill="#FF6C0E" stroke="#FF6C0E" stroke-width="0.25" stroke-miterlimit="10"/>
<path id="Vector_41" d="M819.301 287.1C819.301 287 819.401 287 819.401 286.9C819.401 286.9 819.401 287 819.301 287.1Z" fill="#FF6C0E" stroke="#FF6C0E" stroke-width="0.25" stroke-miterlimit="10"/>
<path id="Vector_42" d="M816.699 289.2C816.799 289.2 816.899 289.1 816.999 289.1C816.899 289.1 816.799 289.2 816.699 289.2Z" fill="#FF6C0E" stroke="#FF6C0E" stroke-width="0.25" stroke-miterlimit="10"/>
<path id="Vector_43" d="M830.901 274C830.901 274.3 830.901 274.6 830.801 274.8C830.901 274.5 830.901 274.3 830.901 274Z" fill="#FF6C0E" stroke="#FF6C0E" stroke-width="0.25" stroke-miterlimit="10"/>
<path id="Vector_44" d="M818 288.5C818.1 288.4 818.2 288.4 818.2 288.3C818.2 288.4 818.1 288.4 818 288.5Z" fill="#FF6C0E" stroke="#FF6C0E" stroke-width="0.25" stroke-miterlimit="10"/>
<path id="Vector_45" d="M818.8 287.9C818.7 288 818.7 288 818.6 288.1C818.6 288 818.7 287.9 818.8 287.9Z" fill="#FF6C0E" stroke="#FF6C0E" stroke-width="0.25" stroke-miterlimit="10"/>
<path id="Vector_46" d="M826.801 266C827.001 266.3 827.201 266.5 827.301 266.8C827.101 266.5 827.001 266.2 826.801 266Z" fill="#FF6C0E" stroke="#FF6C0E" stroke-width="0.25" stroke-miterlimit="10"/>
<path id="Vector_47" d="M835.199 301.5C835.499 301.9 835.799 302.2 836.099 302.6C835.799 302.2 835.499 301.9 835.199 301.5Z" fill="#FF6C0E" stroke="#FF6C0E" stroke-width="0.25" stroke-miterlimit="10"/>
<path id="Vector_48" d="M821.9 303.5C821.9 303.5 821.9 303.6 821.9 303.5C821.9 303.3 821.9 303.1 821.9 302.9C821.9 303.1 821.9 303.3 821.9 303.5Z" fill="#FF6C0E" stroke="#FF6C0E" stroke-width="0.25" stroke-miterlimit="10"/>
<path id="Vector_49" d="M822 302.6C822.1 302.2 822.1 301.9 822.3 301.5C822.1 301.8 822 302.2 822 302.6Z" fill="#FF6C0E" stroke="#FF6C0E" stroke-width="0.25" stroke-miterlimit="10"/>
<path id="Vector_50" d="M821.301 304.6C821.401 304.6 821.501 304.5 821.601 304.4C821.401 304.2 821.201 304 821.101 303.8C820.801 303.5 820.601 303.2 820.401 302.9C820.401 303.2 820.301 303.5 820.301 303.8C820.301 304 820.401 304.2 820.501 304.3C820.701 304.6 821.001 304.7 821.301 304.6Z" fill="#FF6C0E" stroke="#FF6C0E" stroke-width="0.25" stroke-miterlimit="10"/>
<path id="Vector_51" d="M816.4 287.6C816.3 287.7 816.2 287.7 816 287.8C816.2 287.7 816.3 287.6 816.4 287.6Z" fill="#FF6C0E" stroke="#FF6C0E" stroke-width="0.25" stroke-miterlimit="10"/>
<path id="Vector_52" d="M815.699 287.9C815.799 287.9 815.799 287.8 815.899 287.8C815.799 287.8 815.699 287.9 815.699 287.9Z" fill="#FF6C0E" stroke="#FF6C0E" stroke-width="0.25" stroke-miterlimit="10"/>
<path id="Vector_53" d="M818 286.1C818 286.2 817.9 286.3 817.9 286.4C818 286.3 818 286.2 818 286.1Z" fill="#FF6C0E" stroke="#FF6C0E" stroke-width="0.25" stroke-miterlimit="10"/>
<path id="Vector_54" d="M817.901 286.4C817.901 286.5 817.801 286.5 817.801 286.6C817.801 286.6 817.801 286.5 817.901 286.4Z" fill="#FF6C0E" stroke="#FF6C0E" stroke-width="0.25" stroke-miterlimit="10"/>
<path id="Vector_55" d="M817.3 287C817.2 287.1 817.1 287.1 817 287.2C817.2 287.1 817.3 287.1 817.3 287Z" fill="#FF6C0E" stroke="#FF6C0E" stroke-width="0.25" stroke-miterlimit="10"/>
<path id="Vector_56" d="M817 287.3C816.9 287.4 816.7 287.5 816.6 287.5C816.7 287.4 816.8 287.4 817 287.3Z" fill="#FF6C0E" stroke="#FF6C0E" stroke-width="0.25" stroke-miterlimit="10"/>
<path id="Vector_57" d="M817.6 286.7C817.6 286.8 817.5 286.9 817.5 286.9C817.5 286.9 817.6 286.8 817.6 286.7Z" fill="#FF6C0E" stroke="#FF6C0E" stroke-width="0.25" stroke-miterlimit="10"/>
<path id="Vector_58" d="M865.1 285C865.3 285.1 865.4 285.2 865.6 285.3C865.4 285.2 865.3 285.1 865.1 285Z" fill="#FF6C0E" stroke="#FF6C0E" stroke-width="0.25" stroke-miterlimit="10"/>
<path id="Vector_59" d="M828.4 268.4C829.7 270.4 830.9 272.4 830.9 274C830.9 272.4 829.8 270.4 828.4 268.4Z" fill="#FF6C0E" stroke="#FF6C0E" stroke-width="0.25" stroke-miterlimit="10"/>
<path id="Vector_60" d="M863.6 283.4C863.8 283.7 863.9 283.9 864.1 284.2C864 283.9 863.8 283.7 863.6 283.4Z" fill="#FF6C0E" stroke="#FF6C0E" stroke-width="0.25" stroke-miterlimit="10"/>
<path id="Vector_61" d="M864.3 295.1C864.2 295.1 864.1 295.1 863.9 295.2C864.1 295.1 864.2 295.1 864.3 295.1Z" fill="#FF6C0E" stroke="#FF6C0E" stroke-width="0.25" stroke-miterlimit="10"/>
<path id="Vector_62" d="M829.2 276.3C824 278.4 820.6 279.7 819.6 286.4C820.6 279.7 824.3 278.3 829.2 276.3Z" fill="#FF6C0E" stroke="#FF6C0E" stroke-width="0.25" stroke-miterlimit="10"/>
<path id="Vector_63" d="M819.199 287.4C819.299 287.3 819.299 287.2 819.399 287.1C819.299 287.2 819.199 287.3 819.199 287.4Z" fill="#FF6C0E" stroke="#FF6C0E" stroke-width="0.25" stroke-miterlimit="10"/>
<path id="Vector_64" d="M817.699 288.7C817.799 288.6 817.899 288.6 818.099 288.5C817.899 288.6 817.799 288.6 817.699 288.7Z" fill="#FF6C0E" stroke="#FF6C0E" stroke-width="0.25" stroke-miterlimit="10"/>
<path id="Vector_65" d="M817 289.1C817.1 289 817.3 288.9 817.4 288.9C817.3 288.9 817.1 289 817 289.1Z" fill="#FF6C0E" stroke="#FF6C0E" stroke-width="0.25" stroke-miterlimit="10"/>
<path id="Vector_66" d="M819.4 286.9C819.5 286.7 819.5 286.5 819.6 286.4C819.6 286.5 819.5 286.7 819.4 286.9Z" fill="#FF6C0E" stroke="#FF6C0E" stroke-width="0.25" stroke-miterlimit="10"/>
<path id="Vector_67" d="M818.301 288.3C818.401 288.2 818.501 288.1 818.601 288C818.501 288.1 818.401 288.2 818.301 288.3Z" fill="#FF6C0E" stroke="#FF6C0E" stroke-width="0.25" stroke-miterlimit="10"/>
<path id="Vector_68" d="M816.199 289.4C816.399 289.3 816.499 289.3 816.699 289.2C816.499 289.3 816.399 289.3 816.199 289.4Z" fill="#FF6C0E" stroke="#FF6C0E" stroke-width="0.25" stroke-miterlimit="10"/>
<path id="Vector_69" d="M819.001 287.6C818.901 287.7 818.901 287.8 818.801 287.9C818.901 287.8 818.901 287.7 819.001 287.6Z" fill="#FF6C0E" stroke="#FF6C0E" stroke-width="0.25" stroke-miterlimit="10"/>
<path id="Vector_70" d="M834.5 297.6C836.7 301.6 841.2 305.9 844.7 305.9C841.2 305.9 836.7 301.6 834.5 297.6Z" fill="#FF6C0E" stroke="#FF6C0E" stroke-width="0.25" stroke-miterlimit="10"/>
<g id="Vector_71">
<path d="M861.7 279.5C861.9 280 862.1 280.6 862.4 281.1C862.2 280.6 862 280 861.7 279.5C860.9 277.6 860.1 275.8 859.1 275.3C860.2 275.8 860.9 277.6 861.7 279.5Z" fill="#FF6C0E"/>
<path d="M861.7 279.5C861.9 280 862.1 280.6 862.4 281.1C862.2 280.6 862 280 861.7 279.5ZM861.7 279.5C860.9 277.6 860.1 275.8 859.1 275.3C860.2 275.8 860.9 277.6 861.7 279.5Z" stroke="#FF6C0E" stroke-width="0.25" stroke-miterlimit="10"/>
</g>
<path id="Vector_72" d="M864.8 284.8C864.6 284.7 864.5 284.5 864.4 284.4C864.5 284.5 864.7 284.7 864.8 284.8Z" fill="#FF6C0E" stroke="#FF6C0E" stroke-width="0.25" stroke-miterlimit="10"/>
<path id="Vector_73" d="M866 283.7C866 283.6 866 283.6 866 283.7C866 283.6 866 283.7 866 283.7Z" fill="#FF6C0E" stroke="#FF6C0E" stroke-width="0.25" stroke-miterlimit="10"/>
<path id="Vector_74" d="M865.6 283.3C865.5 283.2 865.5 283.2 865.4 283.1C865.5 283.2 865.5 283.3 865.6 283.3Z" fill="#FF6C0E" stroke="#FF6C0E" stroke-width="0.25" stroke-miterlimit="10"/>
<path id="Vector_75" d="M864.999 282.6C864.299 281.5 863.799 280.2 863.199 278.9C863.799 280.2 864.299 281.5 864.999 282.6Z" fill="#FF6C0E" stroke="#FF6C0E" stroke-width="0.25" stroke-miterlimit="10"/>
<path id="Vector_76" d="M865.6 285.3C865.7 285.4 865.8 285.4 865.9 285.5C865.8 285.4 865.7 285.3 865.6 285.3Z" fill="#FF6C0E" stroke="#FF6C0E" stroke-width="0.25" stroke-miterlimit="10"/>
<path id="Vector_77" d="M864.801 284.8C864.901 284.9 865.001 284.9 865.101 285C865.001 284.9 864.901 284.9 864.801 284.8Z" fill="#FF6C0E" stroke="#FF6C0E" stroke-width="0.25" stroke-miterlimit="10"/>
<path id="Vector_78" d="M864.399 284.4C864.299 284.3 864.299 284.3 864.199 284.2C864.199 284.2 864.299 284.3 864.399 284.4Z" fill="#FF6C0E" stroke="#FF6C0E" stroke-width="0.25" stroke-miterlimit="10"/>
<path id="Vector_79" d="M862.4 281.1C862.8 281.9 863.1 282.7 863.6 283.4C863.2 282.7 862.8 281.9 862.4 281.1Z" fill="#FF6C0E" stroke="#FF6C0E" stroke-width="0.25" stroke-miterlimit="10"/>
<path id="Vector_80" d="M865.9 283.6C865.8 283.5 865.7 283.4 865.6 283.3C865.7 283.4 865.8 283.5 865.9 283.6Z" fill="#FF6C0E" stroke="#FF6C0E" stroke-width="0.25" stroke-miterlimit="10"/>
<path id="Vector_81" d="M865.4 283.2C865.2 283 865.1 282.8 865 282.6C865.1 282.8 865.3 283 865.4 283.2Z" fill="#FF6C0E" stroke="#FF6C0E" stroke-width="0.25" stroke-miterlimit="10"/>
<path id="Vector_82" d="M858.699 273.6C860.899 273.6 861.899 275.8 862.999 278.3C861.999 275.9 860.899 273.6 858.699 273.6Z" fill="#FF6C0E" stroke="#FF6C0E" stroke-width="0.25" stroke-miterlimit="10"/>
<path id="Vector_83" d="M867.7 284.9C866.7 270.9 854.9 260 840.9 260C838.5 260 836.1 260.3 833.7 261C830.7 261.8 827.8 263.2 825.2 265.1C818.2 270.1 814 278.3 814 286.9C814 287.5 814 288.2 814.1 289C814.5 294.7 816.7 300 820.4 304.4C820.3 304.3 820.2 304.1 820.2 303.9C820.2 303.6 820.2 303.3 820.3 303C820.5 303.3 820.8 303.6 821 303.9C821.2 304.1 821.4 304.3 821.5 304.5C821.4 304.6 821.3 304.6 821.2 304.7C820.9 304.8 820.5 304.7 820.3 304.5C825.4 310.5 832.9 314 840.8 314C852.1 314 862.3 306.8 866.1 296.1C867.1 293.2 867.7 290.2 867.7 287.1C867.8 286.3 867.8 285.6 867.7 284.9ZM840.9 261.6C853.6 261.6 864.4 271.2 866 283.6C865.9 283.5 865.8 283.4 865.7 283.3C865.6 283.2 865.6 283.2 865.5 283.1C865.3 282.9 865.2 282.7 865.1 282.5C864.4 281.4 863.9 280.1 863.3 278.8C863.2 278.6 863.2 278.5 863.1 278.3C862 275.8 861 273.6 858.8 273.6C857.9 273.6 857 274 855.9 274.8C852.9 276.9 848.9 279.7 845.8 279.7C844.2 279.7 843 278.9 842.1 277.2C841.4 275.8 840.8 273.9 840.1 271.9C839 268.5 837.7 264.6 835.6 262.1C837.3 261.8 839.1 261.6 840.9 261.6ZM815.7 287.9C815.7 287.6 815.7 287.2 815.7 286.9C815.7 279.1 819.4 271.7 825.6 266.9C825.8 267.1 825.9 267.4 826.1 267.7C827.5 269.7 829.8 273.1 829.4 274.3C829.4 274.4 829.2 274.6 828.8 274.8C823.4 276.9 819.2 278.6 818 286.1C818 286.2 817.9 286.3 817.9 286.4C817.9 286.4 817.9 286.5 817.8 286.5C817.8 286.6 817.7 286.6 817.7 286.7L817.6 286.8C817.6 286.8 817.5 286.9 817.5 286.9L817.4 287C817.3 287.1 817.2 287.1 817.1 287.2C817.1 287.2 817 287.2 817 287.3C816.9 287.4 816.7 287.5 816.6 287.5C816.6 287.5 816.5 287.5 816.5 287.6C816.4 287.7 816.3 287.7 816.1 287.8C816 287.8 816 287.8 815.9 287.9C815.8 287.8 815.7 287.9 815.7 287.9ZM840.9 312.2C833.6 312.2 826.7 309.1 821.9 303.6C821.9 303.3 821.9 303.1 821.9 302.9C821.9 302.8 821.9 302.7 821.9 302.5C822 302.1 822 301.8 822.2 301.4C823.4 298.5 826.5 296.2 829.4 296.2C830.5 296.2 832.1 296.6 833 298.3C833.2 298.6 833.3 298.9 833.5 299.1C834 299.9 834.5 300.6 835.1 301.4C835.4 301.8 835.7 302.1 836 302.5C838.5 305.3 841.7 307.5 844.6 307.5C846.3 307.5 847.7 306.8 848.7 305.4C850.4 303.3 848.8 301.3 847.4 299.5C846 297.7 844.5 295.8 845.1 293.5C845.5 293 845.9 292.8 846.8 292.8C847.1 292.8 847.4 292.8 847.7 292.8C848 292.8 848.2 292.8 848.6 292.8C849.1 293 849.6 293.2 850.1 293.4C854 295 858.5 296.7 862.7 296.7C862.7 296.7 862.7 296.7 862.8 296.7C863.3 296.7 863.8 296.7 864.3 296.6C860.3 306 851.1 312.2 840.9 312.2ZM864.9 295C864.7 295.1 864.5 295.1 864.3 295.1C864.2 295.1 864.1 295.1 863.9 295.2C863.5 295.2 863.1 295.3 862.6 295.3C858.8 295.3 854.4 293.6 850.6 292.1C850 291.9 849.7 291.7 849.2 291.5C849.1 291.5 848.6 291.4 848.5 291.4C848.2 291.4 848.1 291.4 847.8 291.4C847.5 291.4 847.1 291.4 846.8 291.4C845.8 291.4 844.6 291.6 843.7 292.9C843.7 293 843.6 293 843.6 293.1C842.7 296.3 844.6 298.7 846.1 300.7C847.7 302.7 848.3 303.7 847.4 304.6C846.9 305.5 845.9 305.9 844.7 305.9C841.2 305.9 836.6 301.6 834.5 297.6C833.5 295.7 831.7 294.7 829.4 294.7C825.9 294.7 822.1 297.4 820.7 301C820.6 301.3 820.5 301.6 820.5 301.8C817.9 298.2 816.2 294 815.8 289.5H815.9C816 289.5 816.1 289.4 816.2 289.4C816.4 289.3 816.5 289.3 816.7 289.2C816.8 289.2 816.9 289.1 817 289.1C817.1 289 817.3 288.9 817.4 288.9C817.5 288.8 817.6 288.8 817.7 288.7C817.8 288.6 817.9 288.6 818.1 288.5C818.2 288.4 818.3 288.4 818.3 288.3C818.4 288.2 818.5 288.1 818.6 288C818.6 288 818.7 287.9 818.8 287.9C818.9 287.8 818.9 287.7 819 287.6C819 287.5 819.1 287.5 819.1 287.4C819.2 287.3 819.2 287.2 819.3 287.1C819.3 287 819.4 287 819.4 286.9C819.5 286.7 819.5 286.5 819.6 286.4C820.6 279.8 824.1 278.4 829.2 276.3C830.2 276 830.6 275.3 830.8 274.8C830.9 274.5 830.9 274.3 830.9 274C830.9 272.4 829.7 270.4 828.4 268.4C828 267.9 827.7 267.3 827.3 266.8C827.1 266.5 826.9 266.3 826.8 266C828.9 264.6 831.3 263.5 833.7 262.7C834.4 263.4 835.1 264.4 835.7 265.4C836 266 836.3 266.6 836.6 267.3C837.3 269 837.9 270.8 838.5 272.5C839.2 274.6 839.8 276.5 840.6 278.1C841.8 280.3 843.5 281.4 845.8 281.4C847.4 281.4 849.2 280.8 851 279.9C851.7 279.5 852.4 279.1 853.1 278.7C854.3 278 855.5 277.1 856.8 276.2C857.6 275.6 858.2 275.3 858.7 275.3C858.9 275.3 859 275.3 859.1 275.4C860.1 275.8 860.9 277.7 861.7 279.6C861.9 280.1 862.1 280.7 862.4 281.2C862.8 282 863.1 282.8 863.6 283.5C863.8 283.8 863.9 284 864.1 284.3C864.2 284.4 864.2 284.4 864.3 284.5C864.4 284.6 864.6 284.8 864.7 284.9C864.8 285 864.9 285 865 285.1C865.2 285.2 865.3 285.3 865.5 285.4C865.6 285.5 865.7 285.5 865.8 285.6C865.9 285.6 865.9 285.7 866 285.7C866 286.2 866 286.6 866 287.1C866.2 289.7 865.8 292.4 864.9 295Z" fill="#FF6C0E" stroke="#FF6C0E" stroke-width="0.25" stroke-miterlimit="10"/>
</g>
</g>
<defs>
<clipPath id="clip0">
<rect width="1216" height="428" fill="white"/>
</clipPath>
</defs>
</svg>
