<svg width="140" height="140" viewBox="0 0 140 140" fill="none" xmlns="http://www.w3.org/2000/svg">
<g id="group-3">
<rect width="140" height="140" rx="30" fill="#D03333"/>
<g id="trab equipe">
<path id="Vector" d="M109.206 73.7304C109.206 89.5054 100.565 103.262 87.7553 110.523V110.526C81.6107 114.01 74.503 116.002 66.9347 116.002C61.4136 116.002 56.1387 114.942 51.3056 113.017H51.2997C35.6924 106.802 24.6631 91.5556 24.6631 73.7304C24.6631 61.883 29.5359 51.1724 37.3892 43.4998C45.0091 36.0506 55.4348 31.4588 66.9347 31.4588C71.7628 31.4588 76.4023 32.2689 80.7231 33.7582C97.2974 39.4759 109.206 55.2112 109.206 73.7304V73.7304Z" fill="#66BAED"/>
<path id="Vector_2" d="M75.8553 115.056C72.979 115.675 69.9936 116.002 66.9347 116.002C61.4136 116.002 56.1387 114.942 51.3056 113.017H51.2997C35.6924 106.802 24.6631 91.5556 24.6631 73.7304C24.6631 61.883 29.5359 51.1724 37.3892 43.4998C45.0091 36.0506 55.4348 31.4588 66.9347 31.4588C69.9936 31.4588 72.9761 31.7824 75.8503 32.4039C67.9226 34.1066 60.8209 38.0343 55.2303 43.4998C47.378 51.1724 42.5042 61.883 42.5042 73.7304C42.5042 91.5556 53.5335 106.802 69.1418 113.017H69.1467C71.3002 113.874 73.542 114.562 75.8553 115.056V115.056Z" fill="#2BA1CF"/>
<path id="Vector_3" d="M109.206 73.7304C109.206 89.5054 100.565 103.262 87.7552 110.523C80.3885 95.518 63.2533 108.799 61.2616 90.0793C59.273 71.3555 81.7774 77.9291 88.3509 71.3555C94.9235 64.783 88.3509 54.6244 82.7732 60.2021C77.1965 65.7788 68.831 64.1853 70.8226 58.6086C72.8142 53.0309 82.3751 50.6412 75.4968 48.2505C68.6155 45.8637 75.4968 38.9824 80.7181 33.7611L80.7231 33.7581C91.7156 37.5508 100.655 45.7495 105.427 56.2417C100.302 56.2417 95.5211 64.9816 100.302 69.7621C102.896 72.3573 106.121 73.0662 109.203 73.2975C109.206 73.4405 109.206 73.5864 109.206 73.7304V73.7304Z" fill="#3FB777"/>
<path id="Vector_4" d="M51.3056 113.017H51.2997C35.6924 106.802 24.6631 91.5556 24.6631 73.7304C24.6631 61.883 29.5359 51.1723 37.3892 43.4998C48.9149 46.2618 50.9075 54.2263 43.3382 57.0151C35.8781 59.7633 35.3846 64.8337 42.9956 67.2661C43.1098 67.3028 43.221 67.3376 43.3382 67.3723C48.7213 68.9867 46.6473 74.059 42.6452 77.1795C40.728 78.6747 38.3641 79.7211 36.168 79.7211C29.3959 79.7211 34.9726 93.4648 43.1386 93.4648C51.3056 93.4648 51.3056 113.017 51.3056 113.017V113.017Z" fill="#3FB777"/>
<path id="Vector_5" d="M51.3056 113.017H51.2997C35.6924 106.802 24.6631 91.5556 24.6631 73.7304C24.6631 61.883 29.5359 51.1723 37.3892 43.4998C48.9149 46.2618 50.9075 54.2263 43.3382 57.0151C35.8781 59.7633 35.3846 64.8337 42.9956 67.2661C42.672 69.3748 42.5042 71.5313 42.5042 73.7304C42.5042 74.891 42.5519 76.0407 42.6452 77.1795C40.728 78.6747 38.3641 79.7211 36.168 79.7211C29.3959 79.7211 34.9726 93.4648 43.1386 93.4648C51.3056 93.4648 51.3056 113.017 51.3056 113.017V113.017Z" fill="#2DA365"/>
<path id="Vector_6" d="M12.2549 59.3026V32.7077C12.2549 30.0053 12.7056 27.3574 13.5952 24.8376C16.9232 15.366 25.9122 9 35.9606 9C37.2046 9 38.4477 9.0963 39.654 9.28693C45.1751 10.1497 50.2395 12.9673 53.9129 17.2216C57.6241 21.5215 59.6684 27.0208 59.6684 32.7067V59.3026" fill="#474749"/>
<path id="Vector_7" d="M22.0065 33.7452C22.0065 43.1533 27.5147 54.0367 30.5398 59.3036H12.2539V32.7077C12.2539 30.0053 12.7047 27.3574 13.5942 24.8376C16.9023 15.4206 25.809 9.07347 35.7869 9.00198C28.4986 9.18367 22.0065 20.8772 22.0065 33.7452Z" fill="#474749"/>
<path id="Vector_8" d="M18.7015 44.1064C18.7015 47.0194 16.5738 49.4339 13.788 49.8827C13.4832 49.9323 13.1704 49.9581 12.8507 49.9581C9.61809 49.9581 7 47.339 7 44.1064C7 40.8737 9.61809 38.2557 12.8507 38.2557C13.1704 38.2557 13.4832 38.2815 13.788 38.3301C16.5738 38.7789 18.7015 41.1944 18.7015 44.1064Z" fill="#F6CAAE"/>
<path id="Vector_9" d="M18.7006 44.1064C18.7006 47.0193 16.573 49.4339 13.7871 49.8827C13.2808 48.0419 13.0107 46.1059 13.0107 44.1064C13.0107 42.1078 13.2808 40.1708 13.7871 38.3301C16.573 38.7789 18.7006 41.1944 18.7006 44.1064Z" fill="#EAB599"/>
<path id="Vector_10" d="M14.9416 44.1064C14.9416 45.261 14.0053 46.1973 12.8507 46.1973C11.696 46.1973 10.7598 45.261 10.7598 44.1064C10.7598 42.9517 11.696 42.0155 12.8507 42.0155C14.0053 42.0155 14.9416 42.9517 14.9416 44.1064Z" fill="#EAB599"/>
<path id="Vector_11" d="M50.9856 36.6354V56.7481C47.877 59.7156 43.8908 61.7708 39.4549 62.4856C39.4201 62.4916 39.3834 62.4975 39.3487 62.5025C38.2466 62.6792 37.1158 62.7666 35.9611 62.7666C23.939 62.7666 14.1924 53.02 14.1924 40.9979V32.7077C14.1924 31.6464 14.2678 30.602 14.4148 29.5813C19.5944 33.3064 27.0207 32.9381 31.7515 28.4654C33.3192 26.9861 34.4074 25.2238 35.0229 23.3543C35.3664 26.6277 36.8636 29.8136 39.5164 32.3225C42.6766 35.305 46.8505 36.7436 50.9856 36.6354Z" fill="#EAB599"/>
<path id="Vector_12" d="M50.9849 36.6354V56.7481C47.8763 59.7156 43.8901 61.7708 39.4542 62.4856C39.4194 62.4916 39.3827 62.4975 39.3479 62.5025C28.9352 60.8762 20.9707 51.8653 20.9707 40.9979V32.7077C20.9707 32.4863 20.9747 32.2679 20.9816 32.0485C24.8209 32.4427 28.8071 31.2493 31.7508 28.4654C33.3185 26.9861 34.4066 25.2228 35.0222 23.3543C35.3657 26.6277 36.8629 29.8136 39.5157 32.3215C42.6759 35.305 46.8497 36.7436 50.9849 36.6354Z" fill="#F6CAAE"/>
<path id="Vector_13" d="M47.6526 39.1591C47.6526 37.1616 46.0333 35.5432 44.0368 35.5432C42.0402 35.5432 40.4219 37.1616 40.4219 39.1591" fill="#EAB599"/>
<path id="Vector_14" d="M31.5022 39.1591C31.5022 37.1616 29.8839 35.5432 27.8874 35.5432C25.8898 35.5432 24.2715 37.1616 24.2715 39.1591" fill="#EAB599"/>
<path id="Vector_15" d="M30.3573 40.698C30.3573 42.0622 29.2513 43.1682 27.8881 43.1682C26.524 43.1682 25.418 42.0622 25.418 40.698C25.418 39.3339 26.524 38.2289 27.8881 38.2289C29.2513 38.2289 30.3573 39.3339 30.3573 40.698Z" fill="#3D4159"/>
<path id="Vector_16" d="M46.5067 40.698C46.5067 42.0622 45.4007 43.1682 44.0365 43.1682C42.6724 43.1682 41.5674 42.0622 41.5674 40.698C41.5674 39.3339 42.6724 38.2289 44.0365 38.2289C45.4007 38.2289 46.5067 39.3339 46.5067 40.698Z" fill="#3D4159"/>
<path id="Vector_17" d="M38.4324 46.9161H33.493C32.9053 46.9161 32.4277 46.4395 32.4277 45.8508C32.4277 45.263 32.9053 44.7855 33.493 44.7855H38.4324C39.0211 44.7855 39.4977 45.263 39.4977 45.8508C39.4977 46.4395 39.0211 46.9161 38.4324 46.9161Z" fill="#EAB599"/>
<path id="Vector_18" d="M35.9633 53.6554C34.1405 53.6554 32.3167 53.1987 30.6557 52.2853C30.1871 52.0282 30.0153 51.4394 30.2734 50.9708C30.5306 50.5012 31.1203 50.3304 31.588 50.5886C34.3272 52.0937 37.5985 52.0937 40.3368 50.5886C40.8054 50.3304 41.3951 50.5012 41.6522 50.9708C41.9104 51.4394 41.7386 52.0282 41.27 52.2853C39.609 53.1987 37.7862 53.6554 35.9633 53.6554Z" fill="#EAB599"/>
<path id="Vector_19" d="M29.854 40.2622C29.854 40.8469 29.3804 41.3205 28.7957 41.3205C28.2119 41.3205 27.7373 40.8469 27.7373 40.2622C27.7373 39.6774 28.2119 39.2038 28.7957 39.2038C29.3804 39.2038 29.854 39.6774 29.854 40.2622Z" fill="white"/>
<path id="Vector_20" d="M46.1245 40.2622C46.1245 40.8469 45.6499 41.3205 45.0662 41.3205C44.4814 41.3205 44.0078 40.8469 44.0078 40.2622C44.0078 39.6774 44.4814 39.2038 45.0662 39.2038C45.6499 39.2038 46.1245 39.6774 46.1245 40.2622Z" fill="white"/>
<path id="Vector_21" d="M50.7793 46.7135C50.7793 48.2107 49.5651 49.4249 48.0679 49.4249C46.5697 49.4249 45.3555 48.2107 45.3555 46.7135C45.3555 45.2154 46.5697 44.0011 48.0679 44.0011C49.5651 44.0011 50.7793 45.2154 50.7793 46.7135Z" fill="#EAB599"/>
<path id="Vector_22" d="M26.5674 46.7135C26.5674 48.2107 25.3531 49.4249 23.856 49.4249C22.3578 49.4249 21.1436 48.2107 21.1436 46.7135C21.1436 45.2154 22.3578 44.0011 23.856 44.0011C25.3531 44.0011 26.5674 45.2154 26.5674 46.7135Z" fill="#EAB599"/>
<path id="Vector_23" d="M83.641 71.296C83.641 74.344 81.4151 76.8707 78.5002 77.3393C78.1815 77.3909 77.8538 77.4177 77.5192 77.4177C74.1377 77.4177 71.3975 74.6775 71.3975 71.296C71.3975 67.9144 74.1377 65.1742 77.5192 65.1742C77.8538 65.1742 78.1815 65.201 78.5002 65.2526C81.4151 65.7222 83.641 68.249 83.641 71.296V71.296Z" fill="#F6CAAE"/>
<path id="Vector_24" d="M83.6415 71.296C83.6415 74.3439 81.4156 76.8707 78.5006 77.3393C77.9714 75.4142 77.6885 73.3879 77.6885 71.296C77.6885 69.2051 77.9714 67.1787 78.5006 65.2526C81.4156 65.7222 83.6415 68.249 83.6415 71.296V71.296Z" fill="#EAB599"/>
<path id="Vector_25" d="M79.7074 71.296C79.7074 72.5042 78.7275 73.4842 77.5192 73.4842C76.311 73.4842 75.332 72.5042 75.332 71.296C75.332 70.0877 76.311 69.1088 77.5192 69.1088C78.7275 69.1088 79.7074 70.0877 79.7074 71.296V71.296Z" fill="#EAB599"/>
<path id="Vector_26" d="M119.757 71.296C119.757 74.344 121.983 76.8707 124.898 77.3393C125.216 77.3909 125.544 77.4177 125.879 77.4177C129.26 77.4177 132 74.6775 132 71.296C132 67.9144 129.26 65.1742 125.879 65.1742C125.544 65.1742 125.216 65.201 124.898 65.2526C121.983 65.7222 119.757 68.249 119.757 71.296V71.296Z" fill="#F6CAAE"/>
<path id="Vector_27" d="M119.757 71.296C119.757 74.3439 121.983 76.8707 124.898 77.3393C125.428 75.4142 125.71 73.3879 125.71 71.296C125.71 69.2051 125.428 67.1787 124.898 65.2526C121.983 65.7222 119.757 68.249 119.757 71.296V71.296Z" fill="#EAB599"/>
<path id="Vector_28" d="M128.067 71.296C128.067 72.5042 127.087 73.4842 125.879 73.4842C124.67 73.4842 123.69 72.5042 123.69 71.296C123.69 70.0877 124.67 69.1088 125.879 69.1088C127.087 69.1088 128.067 70.0877 128.067 71.296Z" fill="#EAB599"/>
<path id="Vector_29" d="M124.476 68.0425C124.476 79.3766 116.196 88.7797 105.354 90.5251C104.166 90.7207 102.944 90.8189 101.698 90.8189C89.1182 90.8189 78.9219 80.6226 78.9219 68.0425C78.9219 62.0905 80.9889 53.155 84.7269 49.0973C88.8889 44.579 95.0702 45.265 101.698 45.265C102.944 45.265 104.165 45.3643 105.354 45.5599C116.196 47.3053 124.476 56.7074 124.476 68.0425V68.0425Z" fill="#EAB599"/>
<path id="Vector_30" d="M124.476 68.0425C124.476 79.3766 116.196 88.7797 105.354 90.5251C94.5136 88.7797 86.2334 79.3766 86.2334 68.0425C86.2334 61.0629 89.3727 54.816 94.318 50.6372C97.4017 48.03 101.189 46.2301 105.354 45.5589C115.461 47.1861 123.345 55.4713 124.364 65.7709C124.438 66.5185 124.476 67.277 124.476 68.0425V68.0425Z" fill="#F6CAAE"/>
<path id="Vector_31" d="M101.7 79.2604C99.7917 79.2604 97.8855 78.7829 96.1471 77.8268C95.6556 77.5568 95.4769 76.9412 95.747 76.4507C96.016 75.9603 96.6326 75.7816 97.123 76.0506C99.9883 77.6263 103.411 77.6263 106.277 76.0506C106.766 75.7816 107.383 75.9603 107.652 76.4507C107.922 76.9412 107.743 77.5568 107.253 77.8268C105.514 78.7829 103.606 79.2604 101.7 79.2604V79.2604Z" fill="#EAB599"/>
<path id="Vector_32" d="M96.8483 66.7161C96.8483 68.1437 95.6917 69.3004 94.264 69.3004C92.8373 69.3004 91.6807 68.1437 91.6807 66.7161C91.6807 65.2894 92.8373 64.1327 94.264 64.1327C95.6917 64.1327 96.8483 65.2894 96.8483 66.7161V66.7161Z" fill="#3D4159"/>
<path id="Vector_33" d="M111.717 66.7161C111.717 68.1437 110.561 69.3004 109.134 69.3004C107.706 69.3004 106.55 68.1437 106.55 66.7161C106.55 65.2894 107.706 64.1327 109.134 64.1327C110.561 64.1327 111.717 65.2894 111.717 66.7161Z" fill="#3D4159"/>
<path id="Vector_34" d="M96.3214 66.2604C96.3214 66.8719 95.826 67.3674 95.2144 67.3674C94.6028 67.3674 94.1074 66.8719 94.1074 66.2604C94.1074 65.6488 94.6028 65.1534 95.2144 65.1534C95.826 65.1534 96.3214 65.6488 96.3214 66.2604Z" fill="white"/>
<path id="Vector_35" d="M111.318 66.2604C111.318 66.8719 110.822 67.3674 110.211 67.3674C109.599 67.3674 109.104 66.8719 109.104 66.2604C109.104 65.6488 109.599 65.1534 110.211 65.1534C110.822 65.1534 111.318 65.6488 111.318 66.2604Z" fill="white"/>
<path id="Vector_36" d="M104.284 73.2221H99.1159C98.5004 73.2221 98.001 72.7227 98.001 72.1071C98.001 71.4916 98.5004 70.9932 99.1159 70.9932H104.284C104.899 70.9932 105.399 71.4916 105.399 72.1071C105.398 72.7227 104.899 73.2221 104.284 73.2221V73.2221Z" fill="#EAB599"/>
<path id="Vector_37" d="M100.366 38.758C107.266 39.2515 112.806 44.8252 113.157 51.8415L113.222 53.159H117.192L119.329 67.3743L124.507 65.7719L123.812 51.8415C123.444 44.4718 117.349 38.6955 109.972 38.7223L100.366 38.758Z" fill="#FFE152"/>
<path id="Vector_38" d="M123.373 33.2607C128.867 38.7551 128.867 47.6637 123.373 53.158C117.879 58.6523 108.97 58.6523 103.476 53.158L123.373 33.2607Z" fill="#FFE152"/>
<path id="Vector_39" d="M103.476 53.158H86.2087L84.0702 67.3743L78.8926 65.7719L79.5866 51.8415C79.9539 44.4728 86.0499 38.6945 93.4276 38.7223L118.366 38.8166L121.664 44.7507" fill="#FFE152"/>
<path id="Vector_40" d="M103.032 38.758C96.1321 39.2515 90.5921 44.8252 90.2416 51.8415L90.1761 53.159H86.2077L84.0692 67.3743L78.8916 65.7719L79.5866 51.8415C79.9539 44.4718 86.0499 38.6955 93.4266 38.7223L103.032 38.758Z" fill="#E8C934"/>
<path id="Vector_41" d="M30.0445 113.126C30.0445 115.967 27.9685 118.323 25.2501 118.761C24.9532 118.809 24.6484 118.835 24.3367 118.835C21.1825 118.835 18.6279 116.279 18.6279 113.126C18.6279 109.973 21.1825 107.418 24.3367 107.418C24.6484 107.418 24.9532 107.443 25.2501 107.491C27.9685 107.927 30.0445 110.284 30.0445 113.126V113.126Z" fill="#D3A489"/>
<path id="Vector_42" d="M30.0441 113.126C30.0441 115.967 27.9681 118.323 25.2497 118.761C24.7563 116.965 24.4932 115.076 24.4932 113.126C24.4932 111.176 24.7563 109.286 25.2497 107.491C27.9681 107.927 30.0441 110.284 30.0441 113.126Z" fill="#BF8E75"/>
<path id="Vector_43" d="M26.3764 113.126C26.3764 114.253 25.463 115.166 24.3371 115.166C23.2103 115.166 22.2969 114.253 22.2969 113.126C22.2969 111.999 23.2103 111.086 24.3371 111.086C25.463 111.086 26.3764 111.999 26.3764 113.126Z" fill="#BF8E75"/>
<path id="Vector_44" d="M63.7217 113.126C63.7217 115.967 65.7967 118.323 68.5151 118.761C68.8119 118.809 69.1177 118.835 69.4294 118.835C72.5827 118.835 75.1382 116.279 75.1382 113.126C75.1382 109.973 72.5827 107.418 69.4294 107.418C69.1177 107.418 68.8119 107.443 68.5151 107.491C65.7967 107.927 63.7217 110.284 63.7217 113.126V113.126Z" fill="#D3A489"/>
<path id="Vector_45" d="M63.7217 113.126C63.7217 115.967 65.7967 118.323 68.5151 118.761C69.0085 116.965 69.2726 115.076 69.2726 113.126C69.2726 111.176 69.0085 109.286 68.5151 107.491C65.7967 107.927 63.7217 110.284 63.7217 113.126Z" fill="#BF8E75"/>
<path id="Vector_46" d="M68.1217 102.004V110.092C68.1217 120.661 60.4005 129.429 50.2915 131.056C50.2567 131.061 50.221 131.067 50.1872 131.073C49.112 131.245 48.009 131.33 46.8821 131.33C35.1538 131.33 25.6445 121.821 25.6445 110.092V102.004C25.6445 99.535 26.0655 97.1611 26.8439 94.9561C29.7489 86.6908 37.625 80.7646 46.8821 80.7646H46.8841C48.008 80.7646 49.114 80.8519 50.1912 81.0217C60.3498 82.6092 68.1217 91.3997 68.1217 102.004Z" fill="#BF8E75"/>
<path id="Vector_47" d="M71.4692 113.126C71.4692 114.253 70.5558 115.166 69.4289 115.166C68.3021 115.166 67.3887 114.253 67.3887 113.126C67.3887 111.999 68.3021 111.086 69.4289 111.086C70.5558 111.086 71.4692 111.999 71.4692 113.126Z" fill="#BF8E75"/>
<path id="Vector_48" d="M68.1217 102.004V110.092C68.1217 120.661 60.4005 129.429 50.2915 131.056C50.2568 131.061 50.221 131.067 50.1873 131.073C40.0287 129.486 32.2588 120.695 32.2588 110.092V102.004C32.2588 91.3997 40.0306 82.6092 50.1912 81.0217C60.3499 82.6092 68.1217 91.3997 68.1217 102.004Z" fill="#D3A489"/>
<path id="Vector_49" d="M42.3592 108.856C42.3592 110.186 41.281 111.264 39.9506 111.264C38.6192 111.264 37.541 110.186 37.541 108.856C37.541 107.525 38.6192 106.446 39.9506 106.446C41.281 106.446 42.3592 107.525 42.3592 108.856V108.856Z" fill="#3D4159"/>
<path id="Vector_50" d="M56.2244 108.856C56.2244 110.186 55.1462 111.264 53.8158 111.264C52.4845 111.264 51.4062 110.186 51.4062 108.856C51.4062 107.525 52.4845 106.446 53.8158 106.446C55.1462 106.446 56.2244 107.525 56.2244 108.856V108.856Z" fill="#3D4159"/>
<path id="Vector_51" d="M41.8678 108.43C41.8678 109.001 41.4061 109.462 40.8363 109.462C40.2654 109.462 39.8037 109.001 39.8037 108.43C39.8037 107.86 40.2654 107.398 40.8363 107.398C41.4061 107.398 41.8678 107.86 41.8678 108.43Z" fill="white"/>
<path id="Vector_52" d="M55.8522 108.43C55.8522 109.001 55.3895 109.462 54.8197 109.462C54.2498 109.462 53.7871 109.001 53.7871 108.43C53.7871 107.86 54.2498 107.398 54.8197 107.398C55.3895 107.398 55.8522 107.86 55.8522 108.43Z" fill="white"/>
<path id="Vector_53" d="M49.2923 113.977H44.4741C43.8992 113.977 43.4346 113.511 43.4346 112.937C43.4346 112.363 43.8992 111.899 44.4741 111.899H49.2923C49.8661 111.899 50.3317 112.363 50.3317 112.937C50.3317 113.511 49.8661 113.977 49.2923 113.977Z" fill="#BF8E75"/>
<path id="Vector_54" d="M46.8827 120.552C45.1045 120.552 43.3264 120.106 41.7051 119.215C41.2474 118.964 41.0806 118.39 41.3318 117.932C41.5829 117.475 42.1578 117.309 42.6145 117.56C45.2872 119.028 48.4781 119.028 51.1498 117.56C51.6075 117.308 52.1824 117.475 52.4336 117.932C52.6847 118.39 52.518 118.964 52.0603 119.215C50.44 120.106 48.6608 120.552 46.8827 120.552Z" fill="#BF8E75"/>
<path id="Vector_55" d="M68.1217 94.6642V102.949H64.1692V96.4622L35.6354 91.1595L29.598 90.0376V102.949H25.6445V94.6651C25.6445 85.2204 33.2992 77.5657 42.742 77.5657H51.0242C51.2496 77.5657 51.4739 77.5696 51.6993 77.5806C60.8284 77.932 68.1217 85.4448 68.1217 94.6642V94.6642Z" fill="#A35418"/>
<path id="Vector_56" d="M68.1221 94.6642V102.949H64.1696V96.4622L35.6357 91.1595C37.2074 83.608 43.7591 77.8864 51.6997 77.5806C60.8287 77.932 68.1221 85.4448 68.1221 94.6642V94.6642Z" fill="#CC7A3B"/>
</g>
</g>
</svg>
