<svg width="98" height="120" viewBox="0 0 98 120" fill="none" xmlns="http://www.w3.org/2000/svg">
<g id="icon-art" class="art">
<g id="iso_square" class="iso_square">
<path id="Union" fill-rule="evenodd" clip-rule="evenodd" d="M6.35401 91.7425C6.37969 93.0702 7.40558 94.394 9.43168 95.407L41.569 111.476C45.6732 113.528 52.3275 113.528 56.4317 111.476L88.569 95.407C90.7526 94.3152 91.7745 92.8624 91.6345 91.4328V70.9004L53.6167 70.9004C50.7121 70.1904 47.2886 70.1904 44.384 70.9004L6.35357 70.9004L6.35357 91.6751C6.3535 91.6859 6.3535 91.6967 6.35357 91.7075L6.35357 91.7425H6.35401Z" fill="url(#paint0_linear)" fill-opacity="0.2"/>
<rect id="Rectangle 464" x="1.48627" width="50.8859" height="50.8859" rx="7.47765" transform="matrix(0.894427 -0.447214 0.894427 0.447214 2.15691 71.5851)" fill="#F4FBFB" stroke="white" stroke-width="1.6617"/>
<g id="Rectangle 465" filter="url(#filter0_i)">
<rect width="32.901" height="32.901" rx="5.2021" transform="matrix(0.894427 -0.447214 0.894427 0.447214 19.8779 70.5991)" fill="url(#paint1_linear)"/>
</g>
<path id="Union_2" fill-rule="evenodd" clip-rule="evenodd" d="M76.0018 19.5887C76.071 18.841 75.6445 17.603 73.3846 16.6392L54.9398 7.54142C53.098 6.37823 48.2348 4.74976 43.5156 7.54142L25.3199 16.6392C24.4475 16.9993 22.6778 18.0434 22.5781 19.3395V67.9443H22.5851V70.7233C22.5158 71.2218 22.9423 72.4598 25.2023 73.4235L43.6471 82.5214C45.4888 83.6845 50.3521 85.313 55.0713 82.5214L73.2669 73.4235C74.1393 73.0635 75.909 72.0194 76.0087 70.7233V67.483H76.0018V19.5887Z" fill="url(#paint2_linear)"/>
</g>
<g id="art" class="art">
<path id="Vector" d="M64.3818 29.074L55.5668 59.6451L45.3158 57.1284L23.3637 51.7316L32.1787 21.1606C32.3833 20.451 33.1011 20.0545 33.8107 20.2591L64.3818 29.074Z" fill="#00607F"/>
<path id="Vector_2" d="M64.3821 29.0739L55.5671 59.645L45.3162 57.1283L54.248 26.1519L64.3821 29.0739Z" fill="#002C3C"/>
<path id="Vector_3" d="M76.7466 25.7268L70.8484 20.4566C70.5855 20.2211 70.2438 20.1 69.8953 20.1239C69.5469 20.1427 69.2198 20.3004 68.9866 20.5615L55.5958 35.5503L65.997 39.7393L68.9467 36.4375L69.2447 35.0559L70.7038 34.4705L72.4601 32.5046L72.7583 31.1235L74.2171 30.5376L76.8515 27.5887C77.3366 27.045 77.2903 26.212 76.7466 25.7268Z" fill="#FFE477"/>
<path id="Vector_4" d="M70.2843 27.0243C69.7459 26.5407 68.9094 26.5878 68.4224 27.1292C67.9373 27.6728 67.9839 28.5063 68.5273 28.991L72.4607 32.5049L74.2178 30.5378L70.2843 27.0243Z" fill="#FF9100"/>
<path id="Vector_5" d="M64.909 31.0615C64.4239 31.6051 64.4705 32.4386 65.0138 32.9236L68.9472 36.4375L70.7042 34.4705L66.7708 30.9566C66.2331 30.4746 65.3969 30.5218 64.909 31.0615Z" fill="#FF9100"/>
<path id="Vector_6" d="M47.914 24.3257L43.5308 39.5267L35.9303 37.3352L40.3134 22.1341L43.5775 20.3311L46.111 21.0616L47.914 24.3257Z" fill="#75EFFF"/>
<path id="Vector_7" d="M47.9135 24.3256L43.5304 39.5267L39.7301 38.4309L44.8438 20.6963L46.1105 21.0616L47.9135 24.3256Z" fill="#00CEEE"/>
<path id="Vector_8" d="M47.9138 24.3256L48.2791 23.0589C48.3083 22.9576 48.3414 22.7474 48.3198 22.6315L47.9778 14.3004C47.9722 13.7499 47.5928 13.2564 47.0356 13.0958C46.4784 12.9351 45.8946 13.1509 45.5967 13.6138L40.8716 20.4838C40.7916 20.5705 40.7077 20.766 40.6785 20.8673L40.3133 22.1341L47.9138 24.3256Z" fill="#FFBCAB"/>
<path id="Vector_9" d="M47.9143 24.3255L48.2796 23.0588C48.3088 22.9575 48.3419 22.7473 48.3203 22.6314L47.9783 14.3003C47.9727 13.7499 47.5933 13.2564 47.0361 13.0957L44.114 23.2298L47.9143 24.3255Z" fill="#FF9468"/>
<path id="Vector_10" d="M51.1777 22.5227L58.7783 24.7143L54.3951 39.9153L46.7946 37.7238L51.1777 22.5227Z" fill="#ECECF1"/>
<path id="Vector_11" d="M54.9785 23.6184L58.7788 24.7142L54.3957 39.9153L50.5954 38.8195L54.9785 23.6184Z" fill="#BABAC0"/>
<path id="Vector_12" d="M73.1742 40.363C73.0085 39.9862 72.705 39.7064 72.325 39.5968L36.8558 29.3695C36.2732 29.2015 35.5398 29.4292 35.2451 29.9752L23.4703 51.4604C23.2845 51.8184 23.2765 52.2277 23.4167 52.5976C23.5825 52.9745 23.8859 53.2542 24.266 53.3638L59.904 63.6398C60.4866 63.8078 61.1356 63.5558 61.4303 63.0098L73.1207 41.5003C73.3065 41.1422 73.3145 40.7329 73.1742 40.363Z" fill="#FFE477"/>
<path id="Vector_13" d="M73.1205 41.5001L61.43 63.0095C61.1354 63.5556 60.4864 63.8076 59.9038 63.6396L44.7027 59.2565L52.0566 33.7524L72.3247 39.5966C72.7048 39.7062 73.0082 39.9859 73.174 40.3628C73.3142 40.7327 73.3062 41.142 73.1205 41.5001Z" fill="#FFB655"/>
<path id="Vector_14" d="M58.4887 49.511L48.3546 46.5889C47.6451 46.3843 46.9272 46.7808 46.7226 47.4904L45.2616 52.5574C45.0571 53.2667 45.4535 53.9848 46.1631 54.1894L56.2971 57.1115C57.0067 57.3161 57.7246 56.9193 57.9291 56.21L59.3902 51.143C59.5948 50.4334 59.1983 49.7156 58.4887 49.511Z" fill="#00607F"/>
<path id="Vector_15" d="M57.9835 16.7187C57.8358 16.3746 57.5174 16.1456 57.1627 16.0433C56.8081 15.9411 56.4166 15.9654 56.1084 16.1781C55.2054 16.741 50.6201 19.6998 49.9115 22.1574C49.1079 24.9443 50.7306 27.8819 53.5174 28.6855C56.3043 29.4891 59.2419 27.8664 60.0455 25.0795C60.7542 22.6219 58.4481 17.676 57.9835 16.7187Z" fill="#FF728B"/>
<path id="Vector_16" d="M60.0449 25.0794C59.2413 27.8663 56.3037 29.4889 53.5168 28.6854L57.1621 16.0432C57.5167 16.1455 57.8352 16.3745 57.9828 16.7186C58.4475 17.6759 60.7535 22.6218 60.0449 25.0794Z" fill="#FF3F62"/>
<path id="Vector_17" d="M59.39 51.143L57.929 56.21C57.7245 56.9193 57.0066 57.3161 56.297 57.1115L46.1629 54.1894L48.3545 46.5889L58.4885 49.511C59.1981 49.7156 59.5946 50.4334 59.39 51.143Z" fill="#002C3C"/>
</g>
</g>
<defs>
<filter id="filter0_i" x="22.6035" y="57.248" width="53.4038" height="26.7019" filterUnits="userSpaceOnUse" color-interpolation-filters="sRGB">
<feFlood flood-opacity="0" result="BackgroundImageFix"/>
<feBlend mode="normal" in="SourceGraphic" in2="BackgroundImageFix" result="shape"/>
<feColorMatrix in="SourceAlpha" type="matrix" values="0 0 0 0 0 0 0 0 0 0 0 0 0 0 0 0 0 0 127 0" result="hardAlpha"/>
<feOffset dy="2.07713"/>
<feComposite in2="hardAlpha" operator="arithmetic" k2="-1" k3="1"/>
<feColorMatrix type="matrix" values="0 0 0 0 1 0 0 0 0 1 0 0 0 0 1 0 0 0 0.25 0"/>
<feBlend mode="normal" in2="shape" result="effect1_innerShadow"/>
</filter>
<linearGradient id="paint0_linear" x1="12.1345" y1="87.5443" x2="82.2736" y2="87.8871" gradientUnits="userSpaceOnUse">
<stop offset="0.0880283" stop-color="#DB5500" stop-opacity="0.78"/>
<stop offset="1" stop-color="#FF6C0E" stop-opacity="0.63"/>
</linearGradient>
<linearGradient id="paint1_linear" x1="0.00861789" y1="32.8751" x2="23.5889" y2="37.5912" gradientUnits="userSpaceOnUse">
<stop stop-color="#FF6C0E"/>
<stop offset="1" stop-color="#FD863C"/>
<stop offset="1" stop-color="#FD863C"/>
</linearGradient>
<linearGradient id="paint2_linear" x1="49.3315" y1="18.0473" x2="49.2934" y2="84.0628" gradientUnits="userSpaceOnUse">
<stop stop-color="#FF6C0E" stop-opacity="0"/>
<stop offset="1" stop-color="#FF6C0E" stop-opacity="0.15"/>
</linearGradient>
</defs>
</svg>
