<svg width="98" height="120" viewBox="0 0 98 120" fill="none" xmlns="http://www.w3.org/2000/svg">
<g id="icon-eletric">
<g id="iso_square">
<path id="Union" fill-rule="evenodd" clip-rule="evenodd" d="M6.35401 91.7425C6.37969 93.0702 7.40558 94.394 9.43168 95.407L41.569 111.476C45.6732 113.528 52.3275 113.528 56.4317 111.476L88.569 95.407C90.7526 94.3152 91.7745 92.8624 91.6345 91.4328V70.9004L53.6167 70.9004C50.7121 70.1904 47.2886 70.1904 44.384 70.9004L6.35357 70.9004L6.35357 91.6751C6.3535 91.6859 6.3535 91.6967 6.35357 91.7075L6.35357 91.7425H6.35401Z" fill="url(#paint0_linear)" fill-opacity="0.2"/>
<rect id="Rectangle 464" x="1.48627" width="50.8859" height="50.8859" rx="7.47765" transform="matrix(0.894427 -0.447214 0.894427 0.447214 2.15691 71.5851)" fill="#F4FBFB" stroke="white" stroke-width="1.6617"/>
<g id="Rectangle 465" filter="url(#filter0_i)">
<rect width="32.901" height="32.901" rx="5.2021" transform="matrix(0.894427 -0.447214 0.894427 0.447214 19.8779 70.5991)" fill="url(#paint1_linear)"/>
</g>
<path id="Union_2" fill-rule="evenodd" clip-rule="evenodd" d="M76.0018 19.5887C76.071 18.841 75.6445 17.603 73.3846 16.6392L54.9398 7.54142C53.098 6.37823 48.2348 4.74976 43.5156 7.54142L25.3199 16.6392C24.4475 16.9993 22.6778 18.0434 22.5781 19.3395V67.9443H22.5851V70.7233C22.5158 71.2218 22.9423 72.4598 25.2023 73.4235L43.6471 82.5214C45.4888 83.6845 50.3521 85.313 55.0713 82.5214L73.2669 73.4235C74.1393 73.0635 75.909 72.0194 76.0087 70.7233V67.483H76.0018V19.5887Z" fill="url(#paint2_linear)"/>
</g>
<g id="eletronica" class="eletronica">
<path id="Vector" d="M45.0834 9.31296L20.3912 33.4337C18.5212 35.2603 18.4863 38.2678 20.3129 40.1377L44.4334 64.8297C46.2603 66.6998 49.2675 66.7351 51.1375 64.9084L75.8296 40.7877C77.6998 38.9608 77.735 35.9536 75.9081 34.0834L51.7877 9.39145L45.0834 9.31296Z" fill="#54E360"/>
<path id="Vector_2" d="M45.0833 9.31306L32.7373 21.3733L63.4836 52.848L75.8296 40.7878C77.6997 38.9609 77.7349 35.9537 75.9081 34.0835L51.7876 9.39155L45.0833 9.31306Z" fill="#00AB5E"/>
<path id="Vector_3" d="M45.0835 9.313L33.2312 20.8909C31.3613 22.7176 31.3261 25.7253 33.1528 27.5953L44.7307 39.4475C46.5573 41.3174 49.5649 41.3524 51.4348 39.5258L63.2868 27.9481C65.157 26.1212 65.1922 23.1139 63.3655 21.244L51.7878 9.39149C49.9612 7.52157 46.9537 7.48612 45.0835 9.313Z" fill="#3D5959"/>
<path id="Vector_4" d="M45.0832 9.3132L39.1572 15.1021L57.3608 33.7369L63.2865 27.9483C65.1567 26.1214 65.1919 23.1141 63.3653 21.2442L51.7875 9.39169C49.9609 7.52177 46.9534 7.48632 45.0832 9.3132Z" fill="#293939"/>
<path id="Vector_5" d="M48.7363 61.4632C48.4936 61.7004 48.1601 61.8337 47.821 61.83C47.4815 61.8265 47.1506 61.6847 46.9135 61.4419C46.6763 61.1991 46.5423 60.865 46.5467 60.5256C46.5507 60.1861 46.692 59.8562 46.9348 59.619C47.1776 59.3818 47.5115 59.2476 47.8507 59.2518C48.1901 59.2563 48.5205 59.3976 48.7577 59.6403C48.9948 59.8831 49.1282 60.2165 49.1249 60.5562C49.1209 60.8952 48.9791 61.2261 48.7363 61.4632Z" fill="#C5E1E6"/>
<path id="Vector_6" d="M25.5801 37.7586C25.3373 37.9958 25.0039 38.1291 24.6647 38.1254C24.3246 38.1211 23.9944 37.9801 23.7572 37.7373C23.5201 37.4945 23.3868 37.1611 23.3905 36.821C23.3947 36.4818 23.5358 36.1516 23.7786 35.9144C24.0213 35.6773 24.3555 35.5432 24.6944 35.5472C25.0341 35.5519 25.3643 35.693 25.6014 35.9358C25.8386 36.1785 25.9721 36.5122 25.9686 36.8516C25.9649 37.1908 25.8229 37.5215 25.5801 37.7586Z" fill="#C5E1E6"/>
<path id="Vector_7" d="M55.4765 27.8563C54.9672 28.3538 54.1512 28.3443 53.6536 27.8349L51.724 25.8596C51.2265 25.3503 51.236 24.5343 51.7454 24.0367C52.2544 23.5394 53.0707 23.5487 53.5682 24.0581L55.4979 26.0334C55.9954 26.5427 55.9858 27.3588 55.4765 27.8563Z" fill="#8DB9C4"/>
<path id="Vector_8" d="M51.5263 31.7159C51.017 32.2134 50.201 32.2039 49.7034 31.6946L47.7738 29.7192C47.2763 29.2099 47.2858 28.3939 47.7952 27.8963C48.3042 27.399 49.1205 27.4084 49.618 27.9177L51.5477 29.893C52.0452 30.4024 52.0354 31.2186 51.5263 31.7159Z" fill="#C5E1E6"/>
<path id="Vector_9" d="M48.7226 20.9422C48.2133 21.4398 47.3973 21.4302 46.8997 20.9209L44.9701 18.9455C44.4728 18.4365 44.4821 17.6202 44.9914 17.1227C45.5005 16.6254 46.317 16.6349 46.8143 17.144L48.7439 19.1193C49.2415 19.6287 49.2319 20.4447 48.7226 20.9422Z" fill="#8DB9C4"/>
<g id="Group">
<path id="Vector_10" d="M44.7724 24.8011C44.2631 25.2986 43.4471 25.2891 42.9495 24.7798L41.0199 22.8044C40.5226 22.2954 40.5319 21.4791 41.0413 20.9816C41.5503 20.4843 42.3668 20.4938 42.8641 21.0029L44.7938 22.9782C45.2913 23.4876 45.2815 24.3038 44.7724 24.8011Z" fill="#C5E1E6"/>
<path id="Vector_11" d="M48.6199 29.7284L46.6446 31.6581C46.1352 32.1556 45.3192 32.146 44.8217 31.6367C44.3244 31.1276 44.3337 30.3114 44.843 29.8138L46.8183 27.8842C47.3277 27.3867 48.1439 27.3965 48.6412 27.9056C49.1388 28.4149 49.1292 29.2309 48.6199 29.7284Z" fill="#C5E1E6"/>
<path id="Vector_12" d="M44.7605 25.7778L42.7852 27.7074C42.2759 28.2049 41.4598 28.1954 40.9623 27.686C40.4648 27.1767 40.4743 26.3607 40.9836 25.8631L42.959 23.9335C43.4683 23.436 44.2843 23.4455 44.7819 23.9549C45.2794 24.4642 45.2698 25.2802 44.7605 25.7778Z" fill="#C5E1E6"/>
</g>
<path id="Vector_13" d="M55.5337 22.975L53.5586 24.9044C53.0493 25.4019 52.2333 25.3924 51.7357 24.883C51.2384 24.374 51.2478 23.5577 51.7571 23.0602L53.7324 21.1305C54.2415 20.6332 55.058 20.6428 55.5553 21.1519C56.0526 21.6614 56.043 22.4775 55.5337 22.975Z" fill="#8DB9C4"/>
<path id="Vector_14" d="M51.6743 19.0243L49.6992 20.9537C49.1899 21.4512 48.3739 21.4417 47.8764 20.9324C47.3788 20.423 47.3884 19.607 47.8977 19.1095L49.873 17.1799C50.3821 16.6826 51.1984 16.6919 51.6959 17.2012C52.1935 17.7105 52.1837 18.5268 51.6743 19.0243Z" fill="#8DB9C4"/>
<path id="Vector_15" d="M72.4414 38.3075C72.1987 38.5446 71.865 38.6782 71.526 38.6742C71.1864 38.6709 70.8557 38.5289 70.6185 38.2861C70.3814 38.0434 70.2474 37.7092 70.2518 37.3698C70.2556 37.0306 70.3969 36.7006 70.6399 36.4632C70.8827 36.2261 71.2163 36.0921 71.5558 36.096C71.8952 36.1005 72.2256 36.2418 72.4628 36.4846C72.6999 36.7274 72.8332 37.0608 72.83 37.4005C72.8253 37.7401 72.6842 38.0703 72.4414 38.3075Z" fill="#8DB9C4"/>
<path id="Vector_16" d="M30.4282 40.7446L26.4776 44.6039C25.9682 45.1014 25.152 45.0916 24.6547 44.5825C24.1571 44.0732 24.1667 43.2572 24.676 42.7596L28.6267 38.9004C29.136 38.4029 29.952 38.4124 30.4496 38.9217C30.9469 39.4308 30.9376 40.2471 30.4282 40.7446Z" fill="#C5E1E6"/>
<path id="Vector_17" d="M34.2876 44.6953L30.3369 48.5545C29.8276 49.0521 29.0114 49.0423 28.5141 48.5332C28.0165 48.0239 28.0261 47.2078 28.5354 46.7103L32.4861 42.8511C32.9954 42.3535 33.8114 42.3631 34.3089 42.8724C34.8062 43.3815 34.7969 44.1978 34.2876 44.6953Z" fill="#C5E1E6"/>
<path id="Vector_18" d="M67.4345 48.9884C66.9251 49.4859 66.1091 49.4763 65.6116 48.967L61.7523 45.0164C61.2548 44.507 61.2644 43.691 61.7737 43.1935C62.283 42.6959 63.099 42.7055 63.5966 43.2148L67.4558 47.1655C67.9533 47.6748 67.9438 48.4908 67.4345 48.9884Z" fill="#8DB9C4"/>
<path id="Vector_19" d="M71.3846 45.1295C70.8753 45.627 70.0593 45.6175 69.5618 45.1081L65.7025 41.1575C65.205 40.6481 65.2145 39.8321 65.7239 39.3346C66.2332 38.837 67.0492 38.8466 67.5468 39.3559L71.406 43.3066C71.9035 43.8159 71.894 44.6319 71.3846 45.1295Z" fill="#8DB9C4"/>
<path id="Vector_20" d="M49.094 42.0685L41.1926 49.787C40.6833 50.2845 40.674 51.1008 41.1713 51.6099L45.9956 56.5484C46.4929 57.0575 47.3091 57.0673 47.8184 56.5698L55.7198 48.8513C56.2291 48.3538 56.2384 47.5375 55.7411 47.0284L50.9168 42.0898C50.4193 41.5805 49.6033 41.571 49.094 42.0685Z" fill="#3D5959"/>
<path id="Vector_21" d="M57.9599 35.3376C56.3621 36.8984 56.3323 39.4678 57.8931 41.0657C59.4538 42.6633 62.0231 42.6936 63.621 41.1327C65.2186 39.5721 65.2487 37.0025 63.688 35.4049C62.1272 33.807 59.5578 33.7767 57.9599 35.3376Z" fill="#8DB9C4"/>
<path id="Vector_22" d="M33.0703 34.5593C31.4727 36.1199 31.4424 38.6892 33.0032 40.2871C34.5639 41.8847 37.1335 41.9148 38.7311 40.3542C40.3287 38.7935 40.3588 36.2239 38.7981 34.6263C37.2373 33.0285 34.6681 32.9984 33.0703 34.5593Z" fill="#C5E1E6"/>
<path id="Vector_23" d="M38.146 48.646L34.1953 52.5052C33.686 53.0028 32.87 52.9932 32.3724 52.4839C31.8749 51.9746 31.8845 51.1585 32.3938 50.661L36.3445 46.8018C36.8538 46.3042 37.6698 46.3138 38.1673 46.8231C38.6649 47.3324 38.6553 48.1484 38.146 48.646Z" fill="#C5E1E6"/>
<path id="Vector_24" d="M63.4833 52.848C62.974 53.3455 62.1579 53.336 61.6604 52.8266L57.8012 48.876C57.3036 48.3666 57.3132 47.5506 57.8225 47.0531C58.3316 46.5558 59.1478 46.5651 59.6454 47.0744L63.5046 51.0251C64.0022 51.5344 63.9924 52.3507 63.4833 52.848Z" fill="#C5E1E6"/>
<path id="Vector_25" d="M47.4154 18.6153L42.4768 23.4396C41.9675 23.9371 41.9582 24.7534 42.4555 25.2624L47.2797 30.201C47.777 30.7101 48.5933 30.7199 49.1026 30.2224L54.0412 25.3981C54.5503 24.9008 54.5598 24.0843 54.0625 23.5752L49.2383 18.6366C48.741 18.1275 47.9245 18.118 47.4154 18.6153Z" fill="#FFD400"/>
<path id="Vector_26" d="M47.4156 18.6157L44.9463 21.0278L51.5721 27.8106L54.0414 25.3985C54.5505 24.9012 54.56 24.0847 54.0627 23.5756L49.2385 18.637C48.7412 18.128 47.9247 18.1184 47.4156 18.6157Z" fill="#FF9F04"/>
<path id="Vector_27" d="M57.8232 47.0532L63.484 52.8481C63.9931 52.3508 64.0029 51.5346 63.5054 51.0252L59.6461 47.0746C59.1486 46.5652 58.3323 46.5559 57.8232 47.0532Z" fill="#8DB9C4"/>
</g>
</g>
<defs>
<filter id="filter0_i" x="22.6035" y="57.248" width="53.4038" height="26.7019" filterUnits="userSpaceOnUse" color-interpolation-filters="sRGB">
<feFlood flood-opacity="0" result="BackgroundImageFix"/>
<feBlend mode="normal" in="SourceGraphic" in2="BackgroundImageFix" result="shape"/>
<feColorMatrix in="SourceAlpha" type="matrix" values="0 0 0 0 0 0 0 0 0 0 0 0 0 0 0 0 0 0 127 0" result="hardAlpha"/>
<feOffset dy="2.07713"/>
<feComposite in2="hardAlpha" operator="arithmetic" k2="-1" k3="1"/>
<feColorMatrix type="matrix" values="0 0 0 0 1 0 0 0 0 1 0 0 0 0 1 0 0 0 0.25 0"/>
<feBlend mode="normal" in2="shape" result="effect1_innerShadow"/>
</filter>
<linearGradient id="paint0_linear" x1="12.1345" y1="87.5443" x2="82.2736" y2="87.8871" gradientUnits="userSpaceOnUse">
<stop offset="0.0880283" stop-color="#DB5500" stop-opacity="0.78"/>
<stop offset="1" stop-color="#FF6C0E" stop-opacity="0.63"/>
</linearGradient>
<linearGradient id="paint1_linear" x1="0.00861789" y1="32.8751" x2="23.5889" y2="37.5912" gradientUnits="userSpaceOnUse">
<stop stop-color="#FF6C0E"/>
<stop offset="1" stop-color="#FD863C"/>
<stop offset="1" stop-color="#FD863C"/>
</linearGradient>
<linearGradient id="paint2_linear" x1="49.3315" y1="18.0473" x2="49.2934" y2="84.0628" gradientUnits="userSpaceOnUse">
<stop stop-color="#FF6C0E" stop-opacity="0"/>
<stop offset="1" stop-color="#FF6C0E" stop-opacity="0.15"/>
</linearGradient>
</defs>
</svg>
