<svg width="98" height="120" viewBox="0 0 98 120" fill="none" xmlns="http://www.w3.org/2000/svg">
<g id="icon-planet-s">
<g id="iso_square">
<path id="Union" fill-rule="evenodd" clip-rule="evenodd" d="M6.35401 91.7425C6.37969 93.0702 7.40558 94.394 9.43168 95.407L41.569 111.476C45.6732 113.528 52.3275 113.528 56.4317 111.476L88.569 95.407C90.7526 94.3152 91.7745 92.8624 91.6345 91.4328V70.9004L53.6167 70.9004C50.7121 70.1904 47.2886 70.1904 44.384 70.9004L6.35357 70.9004L6.35357 91.6751C6.3535 91.6859 6.3535 91.6967 6.35357 91.7075L6.35357 91.7425H6.35401Z" fill="url(#paint0_linear)" fill-opacity="0.2"/>
<rect id="Rectangle 464" x="1.48627" width="50.8859" height="50.8859" rx="7.47765" transform="matrix(0.894427 -0.447214 0.894427 0.447214 2.15691 71.5851)" fill="#F4FBFB" stroke="white" stroke-width="1.6617"/>
<g id="Rectangle 465" filter="url(#filter0_i)">
<rect width="32.901" height="32.901" rx="5.2021" transform="matrix(0.894427 -0.447214 0.894427 0.447214 19.8779 70.5991)" fill="url(#paint1_linear)"/>
</g>
<path id="Union_2" fill-rule="evenodd" clip-rule="evenodd" d="M76.0018 19.5887C76.071 18.841 75.6445 17.603 73.3846 16.6392L54.9398 7.54142C53.098 6.37823 48.2348 4.74976 43.5156 7.54142L25.3199 16.6392C24.4475 16.9993 22.6778 18.0434 22.5781 19.3395V67.9443H22.5851V70.7233C22.5158 71.2218 22.9423 72.4598 25.2023 73.4235L43.6471 82.5214C45.4888 83.6845 50.3521 85.313 55.0713 82.5214L73.2669 73.4235C74.1393 73.0635 75.909 72.0194 76.0087 70.7233V67.483H76.0018V19.5887Z" fill="url(#paint2_linear)"/>
</g>
<g id="planet-s">
<path id="Vector" d="M65.4998 37.66C65.4998 27.6577 57.4128 19.5493 47.4369 19.5493C37.461 19.5493 29.374 27.6577 29.374 37.66C29.374 47.6624 37.461 55.7708 47.4369 55.7708C57.4128 55.7708 65.4998 47.6624 65.4998 37.66Z" fill="#89C8FD"/>
<path id="Vector_2" d="M47.4374 19.5493C46.5103 19.5493 45.5992 19.6194 44.71 19.7546C53.3914 21.073 60.045 28.5873 60.045 37.66C60.045 46.7328 53.3914 54.2471 44.71 55.5655C45.5992 55.7007 46.5103 55.7708 47.4374 55.7708C57.4133 55.7708 65.5003 47.6624 65.5003 37.66C65.5003 27.6577 57.4133 19.5493 47.4374 19.5493Z" fill="#60B6FF"/>
<g id="Group">
<path id="Vector_3" d="M45.0892 26.588C42.3067 28.3317 40.2196 31.1212 41.7848 34.2601C43.3501 37.3986 46.8282 36.178 50.0456 35.7422C53.263 35.3064 50.8282 45.2454 52.7411 47.6864C54.654 50.1275 60.0451 45.2454 59.5236 42.1065C58.751 37.4594 58.4802 35.8291 64.7408 32.5164L64.7576 32.5101C62.6474 25.3645 56.2596 20.0625 48.5681 19.5859L48.5673 19.6132C48.5673 19.6132 47.8716 24.8443 45.0892 26.588Z" fill="#BAEB6C"/>
<path id="Vector_4" d="M58.7539 23.5457C58.7554 23.5467 58.7569 23.5482 58.7584 23.5492C58.7569 23.5482 58.7554 23.5472 58.7539 23.5457Z" fill="#BAEB6C"/>
<path id="Vector_5" d="M60.9629 25.6584C60.9629 25.6591 60.9636 25.6598 60.9643 25.6598C60.9636 25.6591 60.9636 25.6591 60.9629 25.6584Z" fill="#BAEB6C"/>
<path id="Vector_6" d="M35.4372 45.8554C34.6017 44.5811 36.9156 41.5837 37.437 39.3169C37.9589 37.0501 34.8284 37.2243 33.872 36.4396C32.9156 35.6549 31.611 32.2548 30.6546 31.4701L30.5018 31.3496C29.7729 33.3146 29.374 35.4407 29.374 37.6601C29.374 43.6465 32.2711 48.9536 36.7359 52.2507L36.7413 51.8712C36.7413 51.8712 37.437 48.907 35.4372 45.8554Z" fill="#BAEB6C"/>
<path id="Vector_7" d="M59.5236 42.1064C59.5199 42.0837 59.5161 42.0615 59.5123 42.0388C59.1668 43.4349 58.6596 44.7671 58.0117 46.0141C59.0391 44.8015 59.7256 43.3232 59.5236 42.1064Z" fill="#BAEB6C"/>
</g>
<path id="Vector_8" d="M65.4998 37.66C65.4998 27.6577 57.4128 19.5493 47.4369 19.5493C37.461 19.5493 29.374 27.6577 29.374 37.66C29.374 47.6624 37.461 55.7708 47.4369 55.7708C57.4128 55.7708 65.4998 47.6624 65.4998 37.66Z" fill="#89C8FD"/>
<path id="Vector_9" d="M47.4374 19.5493C46.5103 19.5493 45.5992 19.6194 44.71 19.7546C53.3914 21.073 60.045 28.5873 60.045 37.66C60.045 46.7328 53.3914 54.2471 44.71 55.5655C45.5992 55.7007 46.5103 55.7708 47.4374 55.7708C57.4133 55.7708 65.5003 47.6624 65.5003 37.66C65.5003 27.6577 57.4133 19.5493 47.4374 19.5493Z" fill="#60B6FF"/>
<g id="Group_2">
<path id="Vector_10" d="M45.0892 26.588C42.3067 28.3317 40.2196 31.1212 41.7848 34.2601C43.3501 37.3986 46.8282 36.178 50.0456 35.7422C53.263 35.3064 50.8282 45.2454 52.7411 47.6864C54.654 50.1275 60.0451 45.2454 59.5236 42.1065C58.751 37.4594 58.4802 35.8291 64.7408 32.5164L64.7576 32.5101C62.6474 25.3645 56.2596 20.0625 48.5681 19.5859L48.5673 19.6132C48.5673 19.6132 47.8716 24.8443 45.0892 26.588Z" fill="#BAEB6C"/>
<path id="Vector_11" d="M58.7539 23.5457C58.7554 23.5467 58.7569 23.5482 58.7584 23.5492C58.7569 23.5482 58.7554 23.5472 58.7539 23.5457Z" fill="#BAEB6C"/>
<path id="Vector_12" d="M60.9629 25.6584C60.9629 25.6591 60.9636 25.6598 60.9643 25.6598C60.9636 25.6591 60.9636 25.6591 60.9629 25.6584Z" fill="#BAEB6C"/>
<path id="Vector_13" d="M35.4372 45.8554C34.6017 44.5811 36.9156 41.5837 37.437 39.3169C37.9589 37.0501 34.8284 37.2243 33.872 36.4396C32.9156 35.6549 31.611 32.2548 30.6546 31.4701L30.5018 31.3496C29.7729 33.3146 29.374 35.4407 29.374 37.6601C29.374 43.6465 32.2711 48.9536 36.7359 52.2507L36.7413 51.8712C36.7413 51.8712 37.437 48.907 35.4372 45.8554Z" fill="#BAEB6C"/>
<path id="Vector_14" d="M59.5236 42.1064C59.5199 42.0837 59.5161 42.0615 59.5123 42.0388C59.1668 43.4349 58.6596 44.7671 58.0117 46.0141C59.0391 44.8015 59.7256 43.3232 59.5236 42.1064Z" fill="#BAEB6C"/>
</g>
<path id="Vector_15" d="M48.5686 19.5859L48.5678 19.6132C48.5678 19.6132 48.5098 20.0499 48.3604 20.712C54.6944 23.1094 59.3318 28.9732 59.9699 35.9967C60.7681 34.905 62.228 33.8461 64.7413 32.5164L64.758 32.5101C62.6478 25.3645 56.26 20.0625 48.5686 19.5859Z" fill="#96D629"/>
<path id="Vector_16" d="M47.4128 61.0322C46.1335 61.0322 44.8449 60.9272 43.5572 60.7144C37.4016 59.6979 32.0102 56.3453 28.3763 51.2742C24.7424 46.2031 23.301 40.0202 24.3179 33.8651C24.3914 33.4192 24.8137 33.1177 25.2584 33.1912C25.7043 33.2647 26.0061 33.6858 25.9323 34.1317C24.9871 39.8556 26.3273 45.6052 29.7068 50.3211C33.0863 55.037 38.0994 58.1545 43.8242 59.1C55.6421 61.0524 66.8423 53.0259 68.7943 41.2097C69.7394 35.4857 68.3992 29.7361 65.0197 25.0202C61.6407 20.3044 56.6271 17.1869 50.9027 16.2414C50.4568 16.1679 50.1549 15.7468 50.2284 15.3009C50.3023 14.855 50.7242 14.5535 51.1689 14.627C57.3249 15.6435 62.7163 18.9961 66.3498 24.0672C69.9837 29.1383 71.4251 35.3211 70.4086 41.4763C69.3921 47.6315 66.0391 53.0225 60.9676 56.656C56.9567 59.5295 52.2509 61.0322 47.4128 61.0322Z" fill="#09A66D"/>
<path id="Vector_17" d="M42.4446 25.765C33.7098 24.2829 28.291 13.285 28.291 13.285C28.291 13.285 37.0346 4.69001 45.7694 6.1717C54.5042 7.6534 59.923 18.6513 59.923 18.6513C59.923 18.6513 51.1794 27.2467 42.4446 25.765Z" fill="#49CB5C"/>
<path id="Vector_18" d="M45.7696 6.17171C44.1015 5.88872 42.4338 5.97395 40.8262 6.29599C49.1961 8.17529 54.3592 18.6513 54.3592 18.6513C54.3592 18.6513 48.6356 24.277 41.8238 25.6407C42.0291 25.6869 42.2356 25.7293 42.4447 25.765C51.1795 27.2467 59.9232 18.6513 59.9232 18.6513C59.9232 18.6513 54.5044 7.6534 45.7696 6.17171Z" fill="#07B128"/>
<path id="Vector_19" d="M59.4292 17.7379L50.8871 16.297L42.9081 6.02295C42.2716 6.06032 41.6409 6.14177 41.0187 6.25849L48.5023 15.8943L42.0612 14.8077L36.5652 7.69694C36.0496 7.92954 35.5483 8.17642 35.0651 8.43254L39.6823 14.4063L29.0317 12.6093C28.5534 13.0271 28.291 13.2849 28.291 13.2849C28.291 13.2849 28.4665 13.6405 28.8032 14.2304L39.3959 16.0173L33.5212 20.5598C33.8995 20.9495 34.2963 21.3345 34.7111 21.7081L41.5918 16.3881L48.4108 17.5385L39.1369 24.7135C39.7125 24.9822 40.3075 25.2148 40.9209 25.4021L50.6067 17.9092L59.1542 19.351C59.6496 18.919 59.923 18.6511 59.923 18.6511C59.923 18.6511 59.7538 18.3085 59.4292 17.7379Z" fill="#09A66D"/>
<path id="Vector_20" d="M65.8645 15.0896C68.2078 9.54493 76.3266 7.67822 76.3266 7.67822C76.3266 7.67822 80.6466 14.8012 78.3034 20.3459C75.9605 25.8906 67.8412 27.7573 67.8412 27.7573C67.8412 27.7573 63.5213 20.6343 65.8645 15.0896Z" fill="#49CB5C"/>
<path id="Vector_21" d="M76.3266 7.67822C76.3266 7.67822 74.4804 8.10312 72.2946 9.14858C73.4161 11.5242 75.1938 16.3454 73.503 20.3459C72.2774 23.2463 69.4711 25.1403 67.0732 26.2869C67.5061 27.2039 67.8416 27.7573 67.8416 27.7573C67.8416 27.7573 75.9605 25.8906 78.3037 20.3459C80.6465 14.8012 76.3266 7.67822 76.3266 7.67822Z" fill="#07B128"/>
<path id="Vector_22" d="M78.9667 15.7727L72.7233 18.3918L76.8224 8.59184C76.529 8.01243 76.3262 7.67822 76.3262 7.67822C76.3262 7.67822 75.9399 7.76723 75.3114 7.96373L71.075 18.0916L68.4479 11.6279C68.0028 12.0204 67.583 12.447 67.2021 12.9093L70.179 20.2338L67.3827 26.9188C67.6556 27.4516 67.8408 27.7573 67.8408 27.7573C67.8408 27.7573 68.2606 27.6607 68.9358 27.4466L71.8231 20.544L78.9642 17.5488C79.0116 16.9555 79.0091 16.3605 78.9667 15.7727Z" fill="#09A66D"/>
</g>
</g>
<defs>
<filter id="filter0_i" x="22.6035" y="57.248" width="53.4038" height="26.7019" filterUnits="userSpaceOnUse" color-interpolation-filters="sRGB">
<feFlood flood-opacity="0" result="BackgroundImageFix"/>
<feBlend mode="normal" in="SourceGraphic" in2="BackgroundImageFix" result="shape"/>
<feColorMatrix in="SourceAlpha" type="matrix" values="0 0 0 0 0 0 0 0 0 0 0 0 0 0 0 0 0 0 127 0" result="hardAlpha"/>
<feOffset dy="2.07713"/>
<feComposite in2="hardAlpha" operator="arithmetic" k2="-1" k3="1"/>
<feColorMatrix type="matrix" values="0 0 0 0 1 0 0 0 0 1 0 0 0 0 1 0 0 0 0.25 0"/>
<feBlend mode="normal" in2="shape" result="effect1_innerShadow"/>
</filter>
<linearGradient id="paint0_linear" x1="12.1345" y1="87.5443" x2="82.2736" y2="87.8871" gradientUnits="userSpaceOnUse">
<stop offset="0.0880283" stop-color="#DB5500" stop-opacity="0.78"/>
<stop offset="1" stop-color="#FF6C0E" stop-opacity="0.63"/>
</linearGradient>
<linearGradient id="paint1_linear" x1="0.00861789" y1="32.8751" x2="23.5889" y2="37.5912" gradientUnits="userSpaceOnUse">
<stop stop-color="#FF6C0E"/>
<stop offset="1" stop-color="#FD863C"/>
<stop offset="1" stop-color="#FD863C"/>
</linearGradient>
<linearGradient id="paint2_linear" x1="49.3315" y1="18.0473" x2="49.2934" y2="84.0628" gradientUnits="userSpaceOnUse">
<stop stop-color="#FF6C0E" stop-opacity="0"/>
<stop offset="1" stop-color="#FF6C0E" stop-opacity="0.15"/>
</linearGradient>
</defs>
</svg>
