<svg width="98" height="120" viewBox="0 0 98 120" fill="none" xmlns="http://www.w3.org/2000/svg">
<g id="icon-mec">
<g id="iso_square">
<path id="Union" fill-rule="evenodd" clip-rule="evenodd" d="M6.35401 91.7425C6.37969 93.0702 7.40558 94.394 9.43168 95.407L41.569 111.476C45.6732 113.528 52.3275 113.528 56.4317 111.476L88.569 95.407C90.7526 94.3152 91.7745 92.8624 91.6345 91.4328V70.9004L53.6167 70.9004C50.7121 70.1904 47.2886 70.1904 44.384 70.9004L6.35357 70.9004L6.35357 91.6751C6.3535 91.6859 6.3535 91.6967 6.35357 91.7075L6.35357 91.7425H6.35401Z" fill="url(#paint0_linear)" fill-opacity="0.2"/>
<rect id="Rectangle 464" x="1.48627" width="50.8859" height="50.8859" rx="7.47765" transform="matrix(0.894427 -0.447214 0.894427 0.447214 2.15691 71.5851)" fill="#F4FBFB" stroke="white" stroke-width="1.6617"/>
<g id="Rectangle 465" filter="url(#filter0_i)">
<rect width="32.901" height="32.901" rx="5.2021" transform="matrix(0.894427 -0.447214 0.894427 0.447214 19.8779 70.5991)" fill="url(#paint1_linear)"/>
</g>
<path id="Union_2" fill-rule="evenodd" clip-rule="evenodd" d="M76.0018 19.5887C76.071 18.841 75.6445 17.603 73.3846 16.6392L54.9398 7.54142C53.098 6.37823 48.2348 4.74976 43.5156 7.54142L25.3199 16.6392C24.4475 16.9993 22.6778 18.0434 22.5781 19.3395V67.9443H22.5851V70.7233C22.5158 71.2218 22.9423 72.4598 25.2023 73.4235L43.6471 82.5214C45.4888 83.6845 50.3521 85.313 55.0713 82.5214L73.2669 73.4235C74.1393 73.0635 75.909 72.0194 76.0087 70.7233V67.483H76.0018V19.5887Z" fill="url(#paint2_linear)"/>
</g>
<g id="engranage">
<g id="Group">
<path id="Vector" d="M54.6201 59.147L52.2208 56.4436C51.9803 56.1725 51.9396 55.7782 52.1195 55.4636L52.6602 54.5258L53.2009 53.588C53.3872 53.2764 53.7484 53.1144 54.1049 53.1825L57.6448 53.9091L59.1486 53.0474L60.2891 49.6089C60.4083 49.2671 60.7296 49.0371 61.0917 49.0344H63.2543C63.6163 49.0371 63.9376 49.2671 64.0568 49.6089L65.1973 53.0474L66.7011 53.9091L70.241 53.1825C70.5976 53.1144 70.9587 53.2764 71.1449 53.588L71.6856 54.5258L72.2264 55.4636C72.4063 55.7782 72.3655 56.1725 72.125 56.4436L69.7257 59.147V60.8874L72.125 63.5908C72.3655 63.8619 72.4063 64.2562 72.2264 64.5708L71.6856 65.5086L71.1449 66.4464C70.9587 66.758 70.5975 66.92 70.241 66.8519L66.7011 66.1253L65.1973 66.987L64.0568 70.4255C63.9376 70.7673 63.6163 70.9973 63.2543 71H61.0915C60.7294 70.9973 60.4082 70.7673 60.2889 70.4255L59.1484 66.987L57.6446 66.1253L54.1047 66.8519C53.7482 66.92 53.3871 66.758 53.2007 66.4464L52.66 65.5086L52.1193 64.5708C51.9394 64.2562 51.9801 63.8619 52.2206 63.5908L54.6199 60.8874V59.147H54.6201Z" fill="#224F5C"/>
<path id="Vector_2" d="M38.644 50.4959L39.227 53.4275C39.3073 53.821 39.6534 54.1035 40.0549 54.1034H42.0487C42.4502 54.1035 42.7963 53.821 42.8766 53.4275L43.4595 50.4959L48.1399 48.5529L50.6321 50.2087C50.9647 50.4372 51.4132 50.3945 51.6966 50.1074L52.4063 49.4062L53.1075 48.6965C53.3946 48.4131 53.4374 47.9646 53.2088 47.632L51.553 45.1398L53.496 40.4594L56.4276 39.8765C56.8211 39.7962 57.1036 39.4501 57.1035 39.0486V37.0548C57.1036 36.6533 56.8211 36.3072 56.4276 36.2269L53.496 35.6439L51.553 30.9636L53.2088 28.4714C53.4373 28.1388 53.3946 27.6903 53.1075 27.4069L52.4063 26.6972L51.6966 25.996C51.4132 25.7089 50.9647 25.6662 50.6321 25.8946L48.1399 27.5505L43.4595 25.6074L42.8766 22.6759C42.7963 22.2824 42.4502 21.9999 42.0487 22H40.0549C39.6534 21.9999 39.3073 22.2824 39.227 22.6759L38.644 25.6074L33.9637 27.5505L31.4715 25.8946C31.1389 25.6661 30.6904 25.7088 30.4069 25.9959L29.6973 26.6971L28.9961 27.4068C28.709 27.6902 28.6663 28.1387 28.8947 28.4713L30.5506 30.9635L28.6074 35.6439L25.6759 36.2269C25.2824 36.3072 24.9999 36.6533 25 37.0548V39.0486C24.9999 39.4501 25.2824 39.7962 25.6759 39.8765L28.6074 40.4594L30.5505 45.1398L28.8946 47.632C28.6662 47.9646 28.7089 48.4131 28.996 48.6965L29.6972 49.4062L30.4069 50.1074C30.6903 50.3945 31.1388 50.4373 31.4714 50.2087L33.9636 48.5529L38.644 50.4959Z" fill="#224F5C"/>
</g>
<path id="Vector_3" d="M41.0523 50.7241C48.0511 50.7241 53.7248 45.0504 53.7248 38.0516C53.7248 31.0528 48.0511 25.3792 41.0523 25.3792C34.0535 25.3792 28.3799 31.0528 28.3799 38.0516C28.3799 45.0504 34.0535 50.7241 41.0523 50.7241Z" fill="#013342"/>
<path id="Vector_4" d="M48.2172 30.8865C45.66 28.3138 41.9226 27.3042 38.4179 28.2396C34.9131 29.175 32.1756 31.9124 31.2403 35.4172C30.305 38.9219 31.3145 42.6594 33.8872 45.2165C34.2187 45.5367 34.7457 45.5322 35.0715 45.2062C35.3974 44.8802 35.402 44.3534 35.0819 44.0219C32.6636 41.6064 31.9391 37.9719 33.2462 34.8138C34.5533 31.6557 37.6344 29.5962 41.0523 29.5962C44.4703 29.5962 47.5514 31.6557 48.8584 34.8138C50.1655 37.9719 49.4409 41.6064 47.0228 44.0219C46.8031 44.234 46.7151 44.5481 46.7924 44.8435C46.8697 45.1388 47.1004 45.3696 47.3958 45.4469C47.6912 45.5242 48.0052 45.4362 48.2174 45.2165C50.1208 43.3179 51.1905 40.7399 51.1905 38.0515C51.1905 35.3631 50.1206 32.7852 48.2172 30.8865Z" fill="white"/>
<path id="Vector_5" d="M41.0521 40.5861C42.4519 40.5861 43.5866 39.4514 43.5866 38.0516C43.5866 36.6518 42.4519 35.5171 41.0521 35.5171C39.6523 35.5171 38.5176 36.6518 38.5176 38.0516C38.5176 39.4514 39.6523 40.5861 41.0521 40.5861Z" fill="white"/>
<path id="Vector_6" d="M62.1728 67.6207C66.372 67.6207 69.7762 64.2165 69.7762 60.0173C69.7762 55.818 66.372 52.4138 62.1728 52.4138C57.9735 52.4138 54.5693 55.818 54.5693 60.0173C54.5693 64.2165 57.9735 67.6207 62.1728 67.6207Z" fill="#013342"/>
<path id="Vector_7" d="M62.1728 65.0862C60.1234 65.0851 58.2764 63.8501 57.4923 61.9567C56.7082 60.0633 57.1413 57.8841 58.5899 56.4344C58.8034 56.2209 59.1146 56.1377 59.4062 56.216C59.6978 56.2942 59.9254 56.522 60.0034 56.8137C60.0814 57.1053 59.998 57.4165 59.7845 57.6299C59.1502 58.2625 58.7936 59.1215 58.7936 60.0174C58.7936 60.9133 59.1501 61.7723 59.7845 62.4049C61.1195 63.6838 63.2252 63.6838 64.5603 62.4049C65.1949 61.7723 65.5516 60.9131 65.5516 60.017C65.5516 59.1209 65.1949 58.2617 64.5603 57.6291C64.3467 57.4157 64.2632 57.1047 64.3413 56.813C64.4193 56.5214 64.647 56.2935 64.9386 56.2152C65.2302 56.1369 65.5413 56.2202 65.7548 56.4336C67.2039 57.8831 67.6374 60.0626 66.8535 61.9562C66.0696 63.8498 64.2223 65.0851 62.1728 65.0862Z" fill="white"/>
<path id="Vector_8" d="M62.1729 60.8621C61.9482 60.8644 61.7319 60.776 61.5731 60.6172C61.4141 60.4582 61.3259 60.242 61.3282 60.0173C61.3295 59.9069 61.3525 59.7979 61.3957 59.6963C61.4386 59.594 61.4986 59.4996 61.5732 59.4175C61.912 59.105 62.434 59.105 62.7728 59.4175C62.8474 59.4997 62.9074 59.594 62.9502 59.6963C62.9935 59.7979 63.0165 59.907 63.0178 60.0173C63.0201 60.242 62.9318 60.4583 62.7729 60.6172C62.614 60.776 62.3977 60.8644 62.1729 60.8621Z" fill="white"/>
</g>
</g>
<defs>
<filter id="filter0_i" x="22.6035" y="57.248" width="53.4038" height="26.7019" filterUnits="userSpaceOnUse" color-interpolation-filters="sRGB">
<feFlood flood-opacity="0" result="BackgroundImageFix"/>
<feBlend mode="normal" in="SourceGraphic" in2="BackgroundImageFix" result="shape"/>
<feColorMatrix in="SourceAlpha" type="matrix" values="0 0 0 0 0 0 0 0 0 0 0 0 0 0 0 0 0 0 127 0" result="hardAlpha"/>
<feOffset dy="2.07713"/>
<feComposite in2="hardAlpha" operator="arithmetic" k2="-1" k3="1"/>
<feColorMatrix type="matrix" values="0 0 0 0 1 0 0 0 0 1 0 0 0 0 1 0 0 0 0.25 0"/>
<feBlend mode="normal" in2="shape" result="effect1_innerShadow"/>
</filter>
<linearGradient id="paint0_linear" x1="12.1345" y1="87.5443" x2="82.2736" y2="87.8871" gradientUnits="userSpaceOnUse">
<stop offset="0.0880283" stop-color="#DB5500" stop-opacity="0.78"/>
<stop offset="1" stop-color="#FF6C0E" stop-opacity="0.63"/>
</linearGradient>
<linearGradient id="paint1_linear" x1="0.00861789" y1="32.8751" x2="23.5889" y2="37.5912" gradientUnits="userSpaceOnUse">
<stop stop-color="#FF6C0E"/>
<stop offset="1" stop-color="#FD863C"/>
<stop offset="1" stop-color="#FD863C"/>
</linearGradient>
<linearGradient id="paint2_linear" x1="49.3315" y1="18.0473" x2="49.2934" y2="84.0628" gradientUnits="userSpaceOnUse">
<stop stop-color="#FF6C0E" stop-opacity="0"/>
<stop offset="1" stop-color="#FF6C0E" stop-opacity="0.15"/>
</linearGradient>
</defs>
</svg>
