<svg width="98" height="120" viewBox="0 0 98 120" fill="none" xmlns="http://www.w3.org/2000/svg">
<g id="icon-programing">
<g id="iso_square">
<path id="Union" fill-rule="evenodd" clip-rule="evenodd" d="M6.35401 91.7425C6.37969 93.0702 7.40558 94.394 9.43168 95.407L41.569 111.476C45.6732 113.528 52.3275 113.528 56.4317 111.476L88.569 95.407C90.7526 94.3152 91.7745 92.8624 91.6345 91.4328V70.9004L53.6167 70.9004C50.7121 70.1904 47.2886 70.1904 44.384 70.9004L6.35357 70.9004L6.35357 91.6751C6.3535 91.6859 6.3535 91.6967 6.35357 91.7075L6.35357 91.7425H6.35401Z" fill="url(#paint0_linear)" fill-opacity="0.2"/>
<rect id="Rectangle 464" x="1.48627" width="50.8859" height="50.8859" rx="7.47765" transform="matrix(0.894427 -0.447214 0.894427 0.447214 2.15691 71.5851)" fill="#F4FBFB" stroke="white" stroke-width="1.6617"/>
<g id="Rectangle 465" filter="url(#filter0_i)">
<rect width="32.901" height="32.901" rx="5.2021" transform="matrix(0.894427 -0.447214 0.894427 0.447214 19.8779 70.5991)" fill="url(#paint1_linear)"/>
</g>
<path id="Union_2" fill-rule="evenodd" clip-rule="evenodd" d="M76.0018 19.5887C76.071 18.841 75.6445 17.603 73.3846 16.6392L54.9398 7.54142C53.098 6.37823 48.2348 4.74976 43.5156 7.54142L25.3199 16.6392C24.4475 16.9993 22.6778 18.0434 22.5781 19.3395V67.9443H22.5851V70.7233C22.5158 71.2218 22.9423 72.4598 25.2023 73.4235L43.6471 82.5214C45.4888 83.6845 50.3521 85.313 55.0713 82.5214L73.2669 73.4235C74.1393 73.0635 75.909 72.0194 76.0087 70.7233V67.483H76.0018V19.5887Z" fill="url(#paint2_linear)"/>
</g>
<g id="pc">
<path id="Vector" d="M47.2715 58.8594H50.728V66.2038H47.2715V58.8594Z" fill="#3E4151"/>
<path id="Vector_2" d="M47.2715 58.8594H49.2834V66.2038H47.2715V58.8594Z" fill="#353744"/>
<path id="Vector_3" d="M70.2547 22H27.7453C25.68 22 24 23.68 24 25.7453V55.7227C24 57.7876 25.68 59.4676 27.7453 59.4676H70.2547C72.32 59.4676 74 57.7876 74 55.7227C74 54.9227 74 26.5589 74 25.7453C74 23.68 72.32 22 70.2547 22Z" fill="#525468"/>
<path id="Vector_4" d="M26.0123 55.7227C26.0123 54.9086 26.0123 26.5448 26.0123 25.7453C26.0123 23.68 27.6922 22 29.7575 22H27.7453C25.68 22 24 23.68 24 25.7453V55.7227C24 57.7876 25.68 59.468 27.7453 59.468H29.7575C27.6922 59.468 26.0123 57.7876 26.0123 55.7227Z" fill="#3E4151"/>
<path id="Vector_5" d="M70.2543 25.4565H27.7448C27.5911 25.4565 27.4561 25.5916 27.4561 25.7453V55.7227C27.4561 55.8765 27.5911 56.0115 27.7448 56.0115H70.2543C70.408 56.0115 70.5431 55.8765 70.5431 55.7227C70.5431 54.8602 70.5431 26.1527 70.5431 25.7453C70.5431 25.5916 70.408 25.4565 70.2543 25.4565Z" fill="#B4E1F9"/>
<path id="Vector_6" d="M29.4683 55.7227C29.4683 54.8938 29.4683 26.5014 29.4683 25.7453C29.4683 25.5916 29.6033 25.4565 29.7571 25.4565H27.7448C27.5911 25.4565 27.4561 25.5916 27.4561 25.7453V55.7227C27.4561 55.8765 27.5911 56.0115 27.7448 56.0115H29.7571C29.6033 56.0115 29.4683 55.8765 29.4683 55.7227Z" fill="#72BDF6"/>
<path id="Vector_7" d="M59.5578 65.6917H38.442C37.5154 65.6917 36.7646 66.4428 36.7646 67.369V67.4708C36.7646 68.397 37.5154 69.1481 38.442 69.1481H59.5578C60.4844 69.1481 61.2352 68.397 61.2352 67.4708V67.369C61.2352 66.4428 60.4844 65.6917 59.5578 65.6917Z" fill="#525468"/>
<path id="Vector_8" d="M59.5578 67.1359H38.442C37.8705 67.1359 37.367 66.8498 37.0641 66.4138C36.8757 66.685 36.7646 67.0139 36.7646 67.369V67.4709C36.7646 68.3971 37.5154 69.1482 38.442 69.1482H59.5578C60.4844 69.1482 61.2352 68.3971 61.2352 67.4709V67.369C61.2352 67.0139 61.1242 66.685 60.9357 66.4138C60.6328 66.8498 60.1293 67.1359 59.5578 67.1359Z" fill="#3E4151"/>
<path id="Vector_9" d="M70.2543 25.2554H27.7448C27.5911 25.2554 27.4561 25.39 27.4561 25.5441V28.7119H70.5431C70.5431 26.8293 70.5431 25.625 70.5431 25.5441C70.5431 25.39 70.408 25.2554 70.2543 25.2554Z" fill="#4B98D4"/>
<path id="Vector_10" d="M30.9126 25.2554H27.7448C27.5911 25.2554 27.4561 25.39 27.4561 25.5441V28.7119H30.9126V25.2554Z" fill="#ED5454"/>
<path id="Vector_11" d="M29.7529 25.2554H27.7448C27.5911 25.2554 27.4561 25.39 27.4561 25.5441V28.7119H29.4641C29.4641 26.8823 29.4641 25.691 29.4641 25.5441C29.4641 25.39 29.5992 25.2554 29.7529 25.2554Z" fill="#EA3F3F"/>
<g id="Group">
<path id="Vector_12" d="M37.6145 42.9323C37.4318 42.7496 37.4318 42.4536 37.6145 42.2712L42.5256 37.3602C43.1001 36.7857 43.0833 35.8442 42.4752 35.2911C41.9061 34.7731 41.0195 34.823 40.4755 35.3674L34.2519 41.5911C33.6934 42.1492 33.6934 43.054 34.2519 43.6125L40.4755 49.8362C41.0195 50.3805 41.9061 50.4305 42.4752 49.9125C43.0833 49.3597 43.1001 48.4179 42.5256 47.8434L37.6145 42.9323Z" fill="#4B98D4"/>
<path id="Vector_13" d="M63.664 41.5911L57.4259 35.3525C56.8514 34.778 55.9099 34.7948 55.3568 35.4025C54.8387 35.9716 54.8887 36.8582 55.4331 37.4025L60.2548 42.2247C60.4631 42.433 60.4631 42.7706 60.2548 42.9789L55.4331 47.801C54.8887 48.3454 54.8387 49.2319 55.3568 49.8011C55.9099 50.4087 56.8514 50.4252 57.4259 49.851L63.664 43.6125C64.2225 43.054 64.2225 42.1492 63.664 41.5911Z" fill="#4B98D4"/>
<path id="Vector_14" d="M44.9749 51.8374C44.2513 51.5219 43.9202 50.6796 44.2356 49.956L51.1425 34.1055C51.4576 33.3819 52.3003 33.0508 53.0239 33.3663C53.7476 33.6813 54.0787 34.524 53.7632 35.2477L46.8563 51.0981C46.5409 51.8221 45.6982 52.1525 44.9749 51.8374Z" fill="#4B98D4"/>
</g>
<path id="Vector_15" d="M42.4878 49.8363L36.2641 43.6126C35.7056 43.0541 35.7056 42.1493 36.2641 41.5912L42.4878 35.3671C42.4985 35.3564 42.5099 35.3473 42.521 35.337C42.5057 35.3217 42.4916 35.3057 42.4752 35.2908C41.9061 34.7732 41.0195 34.8231 40.4755 35.3671L34.2519 41.5912C33.6934 42.1493 33.6934 43.0541 34.2519 43.6126L40.4755 49.8363C41.0195 50.3806 41.9061 50.4306 42.4752 49.9125C42.4916 49.8977 42.5057 49.8817 42.521 49.8664C42.5099 49.8561 42.4985 49.8469 42.4878 49.8363Z" fill="#2472B2"/>
<path id="Vector_16" d="M57.37 49.8012C56.8516 49.2316 56.9019 48.3455 57.4459 47.8011L62.2681 42.979C62.4764 42.7707 62.4764 42.4331 62.2681 42.2244L57.4459 37.4026C56.9019 36.8583 56.852 35.9717 57.37 35.4026C57.3872 35.3835 57.4055 35.3671 57.4234 35.3496C56.8485 34.7785 55.9097 34.7961 55.3577 35.4026C54.8397 35.9717 54.8897 36.8583 55.434 37.4026L60.2558 42.2244C60.4641 42.4331 60.4641 42.7707 60.2558 42.979L55.434 47.8011C54.8897 48.3451 54.8397 49.2316 55.3577 49.8012C55.9097 50.4077 56.8485 50.4252 57.4234 49.8538C57.4055 49.8363 57.3872 49.8199 57.37 49.8012Z" fill="#2472B2"/>
<path id="Vector_17" d="M46.2489 49.956L53.1558 34.1055C53.2301 33.9346 53.335 33.7862 53.4598 33.6627C53.3373 33.541 53.1924 33.4391 53.0249 33.3663C52.3013 33.0508 51.459 33.3819 51.1435 34.1055L44.2366 49.956C43.9211 50.6796 44.2523 51.5219 44.9759 51.8374C45.5283 52.0781 46.1497 51.9412 46.5533 51.541C46.147 51.1378 46.0062 50.5122 46.2489 49.956Z" fill="#2472B2"/>
</g>
</g>
<defs>
<filter id="filter0_i" x="22.6035" y="57.248" width="53.4038" height="26.7019" filterUnits="userSpaceOnUse" color-interpolation-filters="sRGB">
<feFlood flood-opacity="0" result="BackgroundImageFix"/>
<feBlend mode="normal" in="SourceGraphic" in2="BackgroundImageFix" result="shape"/>
<feColorMatrix in="SourceAlpha" type="matrix" values="0 0 0 0 0 0 0 0 0 0 0 0 0 0 0 0 0 0 127 0" result="hardAlpha"/>
<feOffset dy="2.07713"/>
<feComposite in2="hardAlpha" operator="arithmetic" k2="-1" k3="1"/>
<feColorMatrix type="matrix" values="0 0 0 0 1 0 0 0 0 1 0 0 0 0 1 0 0 0 0.25 0"/>
<feBlend mode="normal" in2="shape" result="effect1_innerShadow"/>
</filter>
<linearGradient id="paint0_linear" x1="12.1345" y1="87.5443" x2="82.2736" y2="87.8871" gradientUnits="userSpaceOnUse">
<stop offset="0.0880283" stop-color="#DB5500" stop-opacity="0.78"/>
<stop offset="1" stop-color="#FF6C0E" stop-opacity="0.63"/>
</linearGradient>
<linearGradient id="paint1_linear" x1="0.00861789" y1="32.8751" x2="23.5889" y2="37.5912" gradientUnits="userSpaceOnUse">
<stop stop-color="#FF6C0E"/>
<stop offset="1" stop-color="#FD863C"/>
<stop offset="1" stop-color="#FD863C"/>
</linearGradient>
<linearGradient id="paint2_linear" x1="49.3315" y1="18.0473" x2="49.2934" y2="84.0628" gradientUnits="userSpaceOnUse">
<stop stop-color="#FF6C0E" stop-opacity="0"/>
<stop offset="1" stop-color="#FF6C0E" stop-opacity="0.15"/>
</linearGradient>
</defs>
</svg>
