<svg width="98" height="120" viewBox="0 0 98 120" fill="none" xmlns="http://www.w3.org/2000/svg">
<g id="icon-control">
<g id="iso_square">
<path id="Union" fill-rule="evenodd" clip-rule="evenodd" d="M6.35401 91.7425C6.37969 93.0702 7.40558 94.394 9.43168 95.407L41.569 111.476C45.6732 113.528 52.3275 113.528 56.4317 111.476L88.569 95.407C90.7526 94.3152 91.7744 92.8625 91.6345 91.4329V70.9004L53.6167 70.9004C50.7121 70.1904 47.2886 70.1904 44.384 70.9004L6.35357 70.9004L6.35357 91.6752C6.3535 91.6859 6.3535 91.6967 6.35357 91.7075L6.35357 91.7425H6.35401Z" fill="url(#paint0_linear)" fill-opacity="0.2"/>
<rect id="Rectangle 464" x="1.48627" width="50.8859" height="50.8859" rx="7.47765" transform="matrix(0.894427 -0.447214 0.894427 0.447214 2.15691 71.5851)" fill="#F4FBFB" stroke="white" stroke-width="1.6617"/>
<g id="Rectangle 465" filter="url(#filter0_i)">
<rect width="32.901" height="32.901" rx="5.2021" transform="matrix(0.894427 -0.447214 0.894427 0.447214 19.8779 70.5991)" fill="url(#paint1_linear)"/>
</g>
<path id="Union_2" fill-rule="evenodd" clip-rule="evenodd" d="M76.0018 19.5887C76.071 18.841 75.6445 17.603 73.3846 16.6392L54.9398 7.54142C53.098 6.37823 48.2348 4.74976 43.5156 7.54142L25.3199 16.6392C24.4475 16.9993 22.6778 18.0434 22.5781 19.3395V67.9443H22.5851V70.7233C22.5158 71.2218 22.9423 72.4598 25.2023 73.4235L43.6471 82.5214C45.4888 83.6845 50.3521 85.313 55.0713 82.5214L73.2669 73.4235C74.1393 73.0635 75.909 72.0194 76.0087 70.7233V67.483H76.0018V19.5887Z" fill="url(#paint2_linear)"/>
</g>
<g id="control">
<g id="control_2">
<path id="Vector" d="M35.1943 23.1873L37.0767 21.8511L40.4668 26.3879L38.5844 27.7241L35.1943 23.1873Z" fill="#EAEAF0"/>
<path id="Vector_2" d="M58.335 19.1919C50.1863 14.5716 45.9291 15.3193 43.0936 19.7472C42.5507 20.5643 42.2682 21.5216 42.2816 22.4988L34.2173 28.2221C33.267 27.9098 32.2453 27.8781 31.2808 28.1309C26.0867 29.4031 24.0495 33.1212 26.0616 42.0967C28.0738 51.0721 34.9697 58.7686 39.0432 57.8557C42.7762 57.0033 43.6666 51.746 43.2311 47.1196C43.152 46.3272 43.2843 45.5298 43.615 44.8051C43.9458 44.0804 44.4638 43.4531 45.1185 42.9844L53.3546 37.1392C54.0132 36.6758 54.7848 36.3878 55.5941 36.3034C56.4034 36.219 57.2228 36.341 57.9724 36.6575C62.3573 38.481 67.7654 39.2687 69.7431 36.0676C71.8847 32.5696 66.4836 23.8122 58.335 19.1919Z" fill="#D03333"/>
<path id="Vector_3" d="M66.263 29.6309L66.2338 29.6516C66.0827 29.7473 65.8985 29.7802 65.7216 29.7431C65.5447 29.706 65.3896 29.6019 65.2904 29.4537C64.2924 27.9815 63.1325 26.6199 61.8317 25.3934C61.7672 25.3324 61.7156 25.2596 61.6797 25.1793C61.6438 25.099 61.6244 25.0127 61.6227 24.9253C61.6209 24.8379 61.6367 24.7512 61.6693 24.67C61.7019 24.5888 61.7505 24.5149 61.8125 24.4523C61.8745 24.3897 61.9486 24.3397 62.0305 24.3053C62.1124 24.2708 62.2006 24.2525 62.2901 24.2514C62.4707 24.2491 62.6453 24.3171 62.7755 24.4403C64.1498 25.7366 65.375 27.1756 66.4292 28.7314C66.5247 28.8745 66.5607 29.0475 66.5297 29.2148C66.4988 29.3821 66.4033 29.531 66.263 29.6309Z" fill="white"/>
<path id="Vector_4" d="M36.5566 36.1623L34.3555 37.7242L32.7399 35.5626L30.8533 36.9014L32.469 39.063L30.268 40.625L31.6528 42.4778L33.8538 40.9158L35.4694 43.0775L37.356 41.7386L35.7404 39.577L37.9414 38.0151L36.5566 36.1623Z" fill="#EAEAF0"/>
<path id="Vector_5" d="M49.7594 36.1713L45.2753 39.3551C45.129 39.459 44.9461 39.5015 44.7667 39.4733C44.5874 39.4451 44.4263 39.3485 44.3189 39.2048C44.2115 39.0611 44.1667 38.882 44.1942 38.7069C44.2217 38.5318 44.3193 38.3751 44.4656 38.2712L48.9497 35.0873C49.096 34.9835 49.2789 34.941 49.4583 34.9692C49.6377 34.9974 49.7987 35.0939 49.9061 35.2377C50.0135 35.3814 50.0584 35.5605 50.0308 35.7356C50.0033 35.9107 49.9057 36.0674 49.7594 36.1713Z" fill="#EAEAF0"/>
<g id="Group">
<path id="Vector_6" d="M50.9704 24.9103C51.665 24.4174 51.8147 23.4648 51.3048 22.7825C50.7949 22.1003 49.8185 21.9469 49.1239 22.4398C48.4293 22.9327 48.2796 23.8853 48.7895 24.5675C49.2994 25.2497 50.2758 25.4032 50.9704 24.9103Z" fill="#EAEAF0"/>
<path id="Vector_7" d="M55.1823 30.5531C55.8769 30.0602 56.0266 29.1076 55.5167 28.4254C55.0068 27.7432 54.0304 27.5897 53.3358 28.0826C52.6412 28.5755 52.4915 29.5281 53.0014 30.2103C53.5113 30.8926 54.4877 31.046 55.1823 30.5531Z" fill="#EAEAF0"/>
<path id="Vector_8" d="M55.9685 25.6771C56.663 25.1842 56.8128 24.2316 56.3029 23.5494C55.793 22.8672 54.8165 22.7137 54.1219 23.2066C53.4273 23.6995 53.2776 24.6522 53.7875 25.3344C54.2974 26.0166 55.2739 26.17 55.9685 25.6771Z" fill="#EAEAF0"/>
<path id="Vector_9" d="M50.1852 29.7865C50.8798 29.2936 51.0296 28.341 50.5197 27.6588C50.0098 26.9766 49.0333 26.8231 48.3387 27.316C47.6441 27.8089 47.4944 28.7615 48.0043 29.4437C48.5142 30.126 49.4907 30.2794 50.1852 29.7865Z" fill="#EAEAF0"/>
</g>
</g>
</g>
</g>
<defs>
<filter id="filter0_i" x="22.6035" y="57.248" width="53.4038" height="26.7019" filterUnits="userSpaceOnUse" color-interpolation-filters="sRGB">
<feFlood flood-opacity="0" result="BackgroundImageFix"/>
<feBlend mode="normal" in="SourceGraphic" in2="BackgroundImageFix" result="shape"/>
<feColorMatrix in="SourceAlpha" type="matrix" values="0 0 0 0 0 0 0 0 0 0 0 0 0 0 0 0 0 0 127 0" result="hardAlpha"/>
<feOffset dy="2.07713"/>
<feComposite in2="hardAlpha" operator="arithmetic" k2="-1" k3="1"/>
<feColorMatrix type="matrix" values="0 0 0 0 1 0 0 0 0 1 0 0 0 0 1 0 0 0 0.25 0"/>
<feBlend mode="normal" in2="shape" result="effect1_innerShadow"/>
</filter>
<linearGradient id="paint0_linear" x1="12.1345" y1="87.5443" x2="82.2736" y2="87.8871" gradientUnits="userSpaceOnUse">
<stop offset="0.0880283" stop-color="#DB5500" stop-opacity="0.78"/>
<stop offset="1" stop-color="#FF6C0E" stop-opacity="0.63"/>
</linearGradient>
<linearGradient id="paint1_linear" x1="0.00861789" y1="32.8751" x2="23.5889" y2="37.5912" gradientUnits="userSpaceOnUse">
<stop stop-color="#FF6C0E"/>
<stop offset="1" stop-color="#FD863C"/>
<stop offset="1" stop-color="#FD863C"/>
</linearGradient>
<linearGradient id="paint2_linear" x1="49.3315" y1="18.0473" x2="49.2934" y2="84.0628" gradientUnits="userSpaceOnUse">
<stop stop-color="#FF6C0E" stop-opacity="0"/>
<stop offset="1" stop-color="#FF6C0E" stop-opacity="0.15"/>
</linearGradient>
</defs>
</svg>
