<svg width="129" height="131" viewBox="0 0 129 131" fill="none" xmlns="http://www.w3.org/2000/svg">
<g clip-path="url(#clip0)">
<path d="M85.2557 84.697L85.4766 85.3257L85.7095 85.9754L86.1925 87.2748C86.5198 88.141 86.8559 89.0046 87.2008 89.8656C87.8903 91.5846 88.6167 93.2851 89.3855 94.9593C90.1544 96.6335 90.9734 98.2683 91.8521 99.8254C92.2954 100.601 92.7545 101.358 93.2362 102.061C93.6832 102.735 94.1837 103.371 94.7328 103.966L94.7937 104.029C95.2139 104.475 95.4466 105.064 95.444 105.676C95.4415 106.287 95.204 106.874 94.7801 107.317C94.3562 107.76 93.778 108.025 93.1638 108.058C92.5497 108.092 91.9459 107.89 91.4763 107.495C90.6443 106.783 89.8737 106.003 89.1725 105.164C88.4963 104.367 87.8797 103.557 87.2895 102.739C86.1158 101.101 85.0572 99.4322 84.0515 97.7409C83.0458 96.0496 82.0984 94.3491 81.1866 92.6288C80.7306 91.7669 80.2837 90.9016 79.8462 90.0327L79.1951 88.7175L78.8736 88.0599L78.5481 87.3734C78.3402 86.9316 78.2248 86.4525 78.2089 85.965C78.1931 85.4776 78.2771 84.992 78.4558 84.5379C78.6346 84.0837 78.9044 83.6704 79.2488 83.323C79.5933 82.9757 80.0052 82.7015 80.4595 82.5172C80.9138 82.333 81.4011 82.2424 81.8917 82.2511C82.3823 82.2597 82.866 82.3674 83.3135 82.5676C83.7609 82.7677 84.1628 83.0562 84.4946 83.4155C84.8264 83.7748 85.0813 84.1974 85.2437 84.6576L85.2557 84.697Z" fill="#002A3E"/>
<path d="M55.5914 86.2093L55.3267 86.2645L55.1653 86.2908L54.8504 86.3356L54.3038 86.3882C54.1159 86.4079 53.9572 86.4079 53.7851 86.4158L53.277 86.4329L52.3044 86.4145C51.9842 86.4026 51.6759 86.3711 51.3623 86.3487C51.2061 86.3356 51.0486 86.3263 50.8951 86.3092L50.4386 86.2487L49.5282 86.1251C48.9367 86.012 48.3373 85.9055 47.7617 85.7753C47.1861 85.6451 46.6131 85.4886 46.0414 85.3334L44.3768 84.8073C43.829 84.6206 43.297 84.4049 42.7584 84.2037L42.3615 84.0498C42.2291 83.9998 42.0968 83.9472 41.9645 83.8867L41.1851 83.5408C39.0891 82.6439 37.1412 81.5378 35.2304 80.4081C34.758 80.1161 34.3042 79.8071 33.8357 79.5072C33.3673 79.2073 32.9094 78.9075 32.4503 78.5997L29.7852 76.6704C29.2829 76.3098 28.9398 75.7706 28.8272 75.165C28.7146 74.5594 28.8412 73.934 29.1807 73.4188C29.5201 72.9035 30.0463 72.5382 30.6498 72.3987C31.2534 72.2591 31.8878 72.3562 32.4212 72.6696L32.535 72.738L35.1722 74.2899C35.6195 74.5306 36.0707 74.7621 36.518 74.9975C36.9652 75.2329 37.4112 75.4736 37.8624 75.6972C39.6845 76.5494 41.5133 77.3714 43.3843 77.9658L44.079 78.2025C44.1942 78.2446 44.3106 78.2788 44.4284 78.3091L44.7804 78.4051C45.2488 78.5366 45.7146 78.6681 46.1817 78.7838L47.5817 79.085C48.0475 79.1653 48.508 79.2297 48.9738 79.306C49.4343 79.3612 49.8908 79.3967 50.346 79.4375L51.0182 79.4612L51.3517 79.4756C51.4628 79.4756 51.57 79.4756 51.6785 79.4691C51.8929 79.4691 52.1139 79.4691 52.3229 79.452L52.9396 79.4046L53.2241 79.3638C53.3154 79.3494 53.4212 79.3415 53.4967 79.3218L53.7375 79.2731L53.8142 79.2494L53.8473 79.2402C53.8242 79.2429 53.8012 79.2468 53.7785 79.252C54.2381 79.1337 54.7167 79.1066 55.1869 79.1721C55.6571 79.2376 56.1097 79.3945 56.5189 79.6339C56.9281 79.8733 57.2858 80.1904 57.5717 80.5671C57.8575 80.9439 58.0659 81.373 58.185 81.8298C58.304 82.2866 58.3313 82.7622 58.2654 83.2296C58.1995 83.6969 58.0416 84.1467 57.8008 84.5534C57.5599 84.9601 57.2409 85.3156 56.8618 85.5997C56.4827 85.8839 56.051 86.091 55.5914 86.2093V86.2093Z" fill="#002A3E"/>
<path d="M96.4038 113.939C95.2494 113.379 94.2649 112.526 93.551 111.465C92.837 110.404 92.4192 109.173 92.3401 107.899C92.1191 104.276 92.1866 99.4901 93.928 98.367C96.5573 96.673 108.526 111.9 110.671 114.675C110.791 114.829 110.878 115.005 110.927 115.193C110.976 115.381 110.986 115.577 110.957 115.769C110.847 116.494 110.49 117.724 109.355 119.027C109.144 119.27 108.858 119.437 108.542 119.503C108.226 119.568 107.897 119.528 107.607 119.389L96.4038 113.939Z" fill="#F26224"/>
<g style="mix-blend-mode:darken">
<path d="M110.088 118.034C100.782 114.321 94.9898 107.25 92.3076 103.244C92.224 104.796 92.2346 106.352 92.3394 107.903C92.4187 109.177 92.8367 110.406 93.5507 111.467C94.2646 112.527 95.2489 113.38 96.4031 113.939L107.608 119.385C107.901 119.525 108.231 119.564 108.549 119.497C108.866 119.43 109.152 119.26 109.362 119.014C109.629 118.707 109.872 118.379 110.088 118.034V118.034Z" fill="#9BD1C9"/>
</g>
<path d="M115.536 121.378C115.536 121.378 118.393 121.127 120.687 121.378C122.982 121.63 124.345 121.699 125.15 120.827C125.956 119.955 124.621 118.524 122.504 118.165C120.387 117.806 117.849 116.965 116.241 117.873C114.633 118.782 115.536 121.378 115.536 121.378Z" fill="#002A3E"/>
<path d="M111.904 115.422C111.306 115.453 110.73 115.661 110.251 116.019C109.772 116.377 109.411 116.869 109.214 117.432C109.033 117.929 108.943 118.456 108.95 118.985C109.002 120.517 109.79 121.331 112.023 122.368C114.257 123.404 114.405 124.998 116.172 125.798C117.938 126.597 118.493 124.877 117.069 122.971C115.645 121.066 115.349 119.815 119.074 119.582C122.799 119.349 124.174 122.236 126.279 121.868C128.384 121.5 125.702 118.024 121.041 116.765C117.645 115.848 114.145 115.302 111.904 115.422Z" fill="#002A3E"/>
<path d="M19.8698 70.3366C21.1295 72.5895 24.9617 77.8331 26.9995 77.8936C30.5471 78.0067 34.2668 73.9007 34.6267 71.9924C35.3942 67.9219 25.352 63.3491 17.8479 56.4116C17.4046 56.0012 16.6847 56.1065 16.1991 56.4655C15.4721 57.0153 14.7987 57.6318 14.1877 58.3067C13.9838 58.5259 13.853 58.8025 13.8135 59.0985C13.7739 59.3945 13.8274 59.6954 13.9668 59.9599C15.4025 62.6507 19.8698 70.3366 19.8698 70.3366Z" fill="#F26224"/>
<path d="M13.5471 58.8843C11.2486 59.2788 8.15612 56.7472 6.5616 54.9085C4.96707 53.0699 11.5489 46.9334 13.1369 47.8777C14.7248 48.822 16.9227 53.3869 17.0074 55.3439C17.0921 57.3008 15.1297 58.6068 13.5471 58.8843Z" fill="#002A3E"/>
<path d="M14.0828 50.4934C14.0828 50.4934 14.6346 50.0279 14.9376 48.3326C15.2407 46.6374 16.0386 44.7659 17.5048 44.7659C19.4182 44.7659 17.5617 46.5045 17.7019 49.895C17.8501 53.446 17.6583 56.4709 16.0386 57.6124C14.4189 58.754 11.6004 54.335 14.0828 50.4934Z" fill="#002A3E"/>
<path d="M7.78711 53.0831L7.14534 52.6741C6.06159 51.9849 5.29278 52.2125 5.07047 52.6807C4.88125 53.0752 4.9752 53.571 5.91868 54.2746L6.69278 54.8507L7.78711 53.0831Z" fill="#002A3E"/>
<path d="M90.3329 89.3079C88.9064 91.1018 85.3628 90.1522 81.3348 87.4206C77.3068 84.689 74.5862 81.5721 75.7295 79.4165C76.9204 77.1807 81.8601 77.4582 85.8947 80.1885C89.9293 82.9188 91.9129 87.3207 90.3329 89.3079Z" fill="#F26224"/>
<path d="M40.9041 76.0869C40.3377 78.3043 43.2515 80.523 47.8856 82.0472C52.5196 83.5715 56.6614 83.8201 57.6869 81.6067C58.7535 79.3051 55.5261 75.5779 50.892 74.0536C46.258 72.5294 41.5326 73.6328 40.9041 76.0869Z" fill="#F26224"/>
<path d="M57.6478 109.575H72.4683V115.934C72.4683 116.115 72.4321 116.295 72.3619 116.463C72.2917 116.63 72.1888 116.783 72.0592 116.91C71.9296 117.038 71.7757 117.14 71.6066 117.208C71.4374 117.277 71.2563 117.312 71.0735 117.311H59.0319C58.6645 117.311 58.3121 117.165 58.0523 116.907C57.7925 116.649 57.6465 116.299 57.6465 115.934V109.575H57.6478Z" fill="#002A3E"/>
<path d="M80.8968 94.9541C80.2564 103.98 72.1806 113.449 63.0938 112.811C54.007 112.174 47.3471 101.679 47.9902 92.6472C48.1339 90.4933 48.7042 88.3889 49.6683 86.4546C50.6325 84.5203 51.9715 82.7943 53.6085 81.3757C55.2455 79.9571 57.1483 78.8737 59.2076 78.1879C61.267 77.502 63.4424 77.2271 65.6089 77.379C67.7754 77.5309 69.8904 78.1065 71.8325 79.0729C73.7746 80.0393 75.5056 81.3773 76.926 83.0103C78.3465 84.6432 79.4285 86.5389 80.1099 88.5886C80.7913 90.6382 81.0588 92.8014 80.8968 94.9541V94.9541Z" fill="#F26224"/>
<g style="mix-blend-mode:darken">
<path d="M63.4377 107.966C54.7558 107.357 48.207 98.9967 48.1223 91.4556C48.0654 91.8501 48.0178 92.2447 47.99 92.6471C47.3482 101.678 54.0042 112.175 63.0937 112.811C72.1831 113.448 80.2563 103.98 80.8968 94.9539C80.9259 94.5515 80.9338 94.153 80.9325 93.7558C79.7839 101.218 72.1196 108.575 63.4377 107.966Z" fill="#9BD1C9"/>
</g>
<g style="mix-blend-mode:darken" opacity="0.8">
<g style="mix-blend-mode:darken" opacity="0.8">
<path d="M72.1741 110.004H72.153C72.0734 109.998 71.9993 109.961 71.9469 109.901C71.8946 109.841 71.8683 109.763 71.8738 109.684L73.9102 80.9936C73.9106 80.9527 73.9194 80.9122 73.936 80.8748C73.9527 80.8374 73.9769 80.8037 74.0072 80.7759C74.0374 80.7481 74.0731 80.7268 74.1119 80.7132C74.1508 80.6997 74.1921 80.6942 74.2331 80.697C74.2742 80.6999 74.3143 80.7111 74.3509 80.73C74.3874 80.7488 74.4197 80.7749 74.4458 80.8066C74.4718 80.8384 74.491 80.8751 74.5022 80.9145C74.5134 80.9539 74.5164 80.9951 74.511 81.0357L72.4745 109.726C72.4692 109.802 72.4351 109.872 72.3794 109.924C72.3236 109.975 72.2503 110.004 72.1741 110.004Z" fill="#9BD1C9"/>
</g>
</g>
<path d="M65.2433 82.7109C63.9236 82.6173 62.6952 82.0067 61.8283 81.0133C60.9613 80.02 60.5267 78.7251 60.6198 77.4134L60.8977 73.5034L70.8525 74.2018L70.5747 78.1105C70.5288 78.7606 70.3546 79.3953 70.0618 79.9784C69.769 80.5616 69.3634 81.0816 68.8683 81.5089C68.3731 81.9361 67.7981 82.2622 67.1761 82.4685C66.5541 82.6747 65.8973 82.7571 65.2433 82.7109V82.7109Z" fill="#002A3E"/>
<g style="mix-blend-mode:darken">
<path d="M59.4183 78.1855C59.409 78.2671 59.3945 78.346 59.3892 78.4288C59.2789 80.0382 59.8154 81.6253 60.8809 82.8421C61.9464 84.0589 63.454 84.806 65.073 84.9195C66.6919 85.0331 68.2901 84.5038 69.517 83.4477C70.7439 82.3917 71.4992 80.8951 71.6174 79.2863C71.6174 79.2035 71.6174 79.1233 71.6174 79.0417C67.8109 77.2106 63.4419 76.9041 59.4143 78.1855H59.4183Z" fill="#9BD1C9"/>
</g>
<path d="M75.5143 90.5013C75.6282 88.8942 74.8371 87.5296 73.7472 87.4533C72.6574 87.377 71.6815 88.6179 71.5676 90.2249C71.4537 91.832 72.2448 93.1966 73.3347 93.2729C74.4246 93.3493 75.4004 92.1083 75.5143 90.5013Z" fill="#71C9C0"/>
<path d="M73.4344 93.5902C73.3956 93.5902 73.3572 93.5902 73.3193 93.5902C72.6894 93.5455 72.1284 93.1549 71.7446 92.4907C71.3675 91.7967 71.2036 91.0078 71.2736 90.222C71.4059 88.4531 72.524 87.0853 73.7745 87.1735C74.4044 87.2182 74.9654 87.6075 75.3492 88.2729C75.727 88.9663 75.8909 89.7549 75.8202 90.5403C75.7051 92.2461 74.6465 93.5902 73.4344 93.5902ZM73.6607 87.764C72.7807 87.764 71.9722 88.8832 71.8743 90.2628C71.8141 90.9302 71.9521 91.6006 72.2713 92.1908C72.5531 92.6774 72.9422 92.9615 73.3656 92.9918C74.2734 93.0549 75.1229 91.9133 75.2182 90.493C75.2791 89.8259 75.141 89.1558 74.8212 88.5662C74.5393 88.0796 74.1503 87.7955 73.7269 87.7653L73.6607 87.764Z" fill="#9BD1C9"/>
<path d="M49.7779 18.4939C49.7779 18.4939 46.7251 22.2737 46.5703 31.7232C48.9726 29.4086 51.8246 27.6052 54.9518 26.4231C53.4036 21.0716 49.7779 18.4939 49.7779 18.4939Z" fill="#E6DBD2"/>
<path d="M64.8282 62.7154C65.1635 62.2943 65.6026 61.9667 66.103 61.7641C66.6033 61.5615 67.1479 61.491 67.6837 61.5593V61.5593L67.7314 61.5659C68.2655 61.6495 68.7687 61.869 69.1922 62.2032C69.6156 62.5374 69.9447 62.9748 70.1476 63.4729C78.7382 57.7901 95.4218 63.4729 103.277 67.4736C100.986 64.4303 101.821 55.9146 99.7039 47.2477C99.0952 44.7554 98.2483 42.25 97.0044 39.859C95.4267 36.7793 93.2149 34.0639 90.5125 31.8891C89.2049 30.8406 87.8014 29.916 86.3205 29.1273C82.929 27.311 78.2208 25.8393 72.9781 25.0502C72.9199 25.041 72.8656 25.0358 72.8087 25.0279L72.4858 24.9792V24.9871C67.5898 24.3295 63.3964 24.4282 59.7826 25.0936C58.1343 25.3911 56.5167 25.8375 54.95 26.4272C51.8228 27.6094 48.9709 29.4128 46.5685 31.7274C44.7088 33.5355 43.084 35.5679 41.7321 37.7771C36.7394 45.7786 35.1158 54.8743 31.9082 57.2627C40.5861 55.6227 58.2026 54.852 64.8282 62.7154Z" fill="#F26224"/>
<path d="M70.1483 63.473C70.3552 63.9775 70.4252 64.5271 70.3513 65.067C70.2775 65.6068 70.0623 66.1179 69.7275 66.5493C69.3926 66.9806 68.9497 67.317 68.4431 67.525C67.9364 67.7329 67.3837 67.805 66.8402 67.7341V67.7341L66.7926 67.7275C66.2515 67.6426 65.7422 67.4181 65.3157 67.0764C64.8892 66.7348 64.5602 66.2879 64.3618 65.7804C64.1633 65.2729 64.1023 64.7226 64.1847 64.1843C64.2671 63.646 64.4901 63.1386 64.8315 62.7128C58.2033 54.852 40.5868 55.6227 31.9062 57.2562C31.9062 57.2562 48.7526 75.2358 64.8156 77.8504V77.8635C64.8963 77.8754 64.981 77.8806 65.0631 77.8912C65.1451 77.9017 65.2258 77.9227 65.3079 77.9346V77.9201C81.4701 79.9218 103.268 67.4763 103.268 67.4763C95.4133 63.473 78.7336 57.7928 70.1483 63.473Z" fill="#E6DBD2"/>
<path d="M97.9352 25.396C97.9352 25.396 93.5222 26.919 90.5078 31.8916C93.2135 34.0655 95.4286 36.7809 97.009 39.8615C99.9201 30.1635 97.9352 25.396 97.9352 25.396Z" fill="#E6DBD2"/>
<path d="M67.7309 61.567H67.7071H67.6833C67.2756 61.5086 66.8604 61.5306 66.4613 61.6318C66.0621 61.7329 65.687 61.9111 65.3572 62.1564C64.6911 62.6516 64.2503 63.3896 64.1317 64.2079C64.0131 65.0262 64.2264 65.8578 64.7247 66.5198C65.223 67.1818 65.9654 67.6199 66.7888 67.7378V67.7378H66.8126H66.8364C67.6532 67.8423 68.4786 67.6232 69.1342 67.128C69.7899 66.6328 70.2233 65.9011 70.3407 65.0909C70.4582 64.2808 70.2503 63.4572 69.762 62.7982C69.2737 62.1391 68.5442 61.6973 67.7309 61.5683V61.567Z" fill="#674137"/>
<path d="M50.5564 53.1672V53.1501C50.734 51.9215 50.4148 50.673 49.6686 49.6778C48.9224 48.6826 47.81 48.0216 46.5747 47.8394C46.3688 47.8142 46.1612 47.8701 45.9962 47.995C45.8313 48.12 45.7221 48.3042 45.692 48.5081C45.6619 48.7121 45.7133 48.9197 45.8353 49.0865C45.9572 49.2532 46.14 49.366 46.3444 49.4005C47.1637 49.5212 47.9015 49.9596 48.3963 50.6197C48.891 51.2798 49.1025 52.1078 48.9843 52.9226V52.9397C48.9543 53.1472 49.0085 53.3581 49.1349 53.5259C49.2614 53.6938 49.4497 53.8048 49.6585 53.8346C49.8673 53.8645 50.0795 53.8106 50.2484 53.6849C50.4173 53.5593 50.529 53.3721 50.559 53.1645L50.5564 53.1672Z" fill="#451810"/>
<path d="M62.7168 73.2918C64.437 72.5921 68.0098 72.7657 69.169 74.2124C68.7117 74.6365 68.1646 74.9532 67.5679 75.1393C66.9712 75.3254 66.3401 75.3762 65.7211 75.2879C65.102 75.1995 64.5108 74.9744 63.9909 74.6289C63.4709 74.2835 63.0356 73.8266 62.7168 73.2918V73.2918Z" fill="#F37677"/>
<path d="M62.5863 70.5932L70.1474 71.6768C70.2099 71.6852 70.2697 71.7076 70.3223 71.7424C70.3748 71.7771 70.4187 71.8233 70.4506 71.8775C70.4824 71.9316 70.5015 71.9922 70.5063 72.0548C70.5111 72.1173 70.5015 72.1801 70.4782 72.2384C70.1747 72.9997 69.7114 73.6879 69.1192 74.2572C67.9746 72.8395 64.4468 72.6619 62.7478 73.3445C62.361 72.6721 62.1165 71.9283 62.0292 71.1587C62.0175 71.0828 62.0237 71.0052 62.0473 70.9321C62.0709 70.8589 62.1114 70.7923 62.1655 70.7374C62.2195 70.6825 62.2857 70.6409 62.3588 70.6159C62.4318 70.5908 62.5097 70.5831 62.5863 70.5932V70.5932Z" fill="#871A1B"/>
<path opacity="0.3" d="M46.5711 60.8924C49.0267 60.8924 51.0173 58.9139 51.0173 56.4734C51.0173 54.0329 49.0267 52.0544 46.5711 52.0544C44.1156 52.0544 42.125 54.0329 42.125 56.4734C42.125 58.9139 44.1156 60.8924 46.5711 60.8924Z" fill="#F5918F"/>
<path d="M50.407 52.5832C50.0301 52.094 49.5595 51.6837 49.0225 51.3758C48.4854 51.0679 47.8924 50.8686 47.2776 50.7893C45.9617 50.5923 44.6206 50.9157 43.542 51.6902C43.4582 51.7521 43.3874 51.8297 43.3337 51.9187C43.2801 52.0077 43.2446 52.1064 43.2293 52.209C43.214 52.3117 43.2192 52.4163 43.2446 52.5169C43.27 52.6176 43.315 52.7123 43.3773 52.7956C43.4395 52.879 43.5176 52.9493 43.6071 53.0026C43.6967 53.056 43.796 53.0912 43.8992 53.1064C44.0025 53.1216 44.1078 53.1165 44.2091 53.0912C44.3103 53.066 44.4056 53.0212 44.4895 52.9594C45.2315 52.4349 46.1498 52.218 47.05 52.3544C47.457 52.4037 47.8502 52.5325 48.2069 52.7334C48.5637 52.9343 48.877 53.2033 49.1288 53.5249C49.191 53.6083 49.2691 53.6787 49.3587 53.7321C49.4483 53.7856 49.5476 53.8209 49.651 53.8362C49.7543 53.8514 49.8596 53.8463 49.961 53.8211C50.0623 53.7959 50.1577 53.7511 50.2416 53.6893C50.3256 53.6275 50.3964 53.5498 50.4502 53.4608C50.5039 53.3717 50.5395 53.273 50.5548 53.1703C50.5702 53.0676 50.565 52.9629 50.5397 52.8622C50.5143 52.7614 50.4693 52.6666 50.407 52.5832V52.5832Z" fill="#451810"/>
<path opacity="0.3" d="M89.1668 66.8369C91.6224 66.8369 93.613 64.8585 93.613 62.418C93.613 59.9775 91.6224 57.999 89.1668 57.999C86.7113 57.999 84.7207 59.9775 84.7207 62.418C84.7207 64.8585 86.7113 66.8369 89.1668 66.8369Z" fill="#F5918F"/>
<path d="M90.4474 57.2709C90.6498 55.5078 89.9769 53.9837 88.9444 53.8666C87.9118 53.7495 86.9107 55.0838 86.7083 56.8468C86.5059 58.6098 87.1788 60.134 88.2113 60.2511C89.2438 60.3682 90.245 59.0339 90.4474 57.2709Z" fill="#451810"/>
<path d="M92.0267 54.51C91.9314 54.7257 91.1586 56.4104 89.4476 56.7458C88.9811 56.8348 88.5004 56.8186 88.041 56.6984" stroke="#441912" stroke-miterlimit="10" stroke-linecap="round"/>
<path d="M91.1532 53.6091C91.058 53.8261 90.9653 55.2228 88.5742 55.8449" stroke="#441912" stroke-miterlimit="10" stroke-linecap="round"/>
<path d="M50.1167 22.5329C50.4595 22.5329 50.7373 22.2568 50.7373 21.9161C50.7373 21.5755 50.4595 21.2993 50.1167 21.2993C49.7739 21.2993 49.4961 21.5755 49.4961 21.9161C49.4961 22.2568 49.7739 22.5329 50.1167 22.5329Z" fill="#2BACE2"/>
<path d="M49.9345 22.7026C49.7239 22.6583 49.5397 22.5327 49.4223 22.3534C49.3049 22.1741 49.264 21.9558 49.3086 21.7465C49.3532 21.5372 49.4796 21.3541 49.66 21.2374C49.8404 21.1208 50.06 21.0801 50.2706 21.1244C50.4277 21.1554 50.572 21.232 50.6853 21.3446C50.7986 21.4571 50.8758 21.6005 50.9071 21.7566C50.9384 21.9127 50.9224 22.0745 50.8612 22.2216C50.7999 22.3687 50.6962 22.4945 50.5631 22.5829C50.4752 22.6428 50.3762 22.6844 50.2719 22.7054C50.1675 22.7264 50.06 22.7264 49.9557 22.7053L49.9345 22.7026ZM50.2124 21.5006H50.1978C50.1424 21.4896 50.0853 21.4897 50.0299 21.5007C49.9745 21.5118 49.9218 21.5336 49.875 21.565C49.828 21.5965 49.7877 21.6369 49.7564 21.6839C49.7251 21.7309 49.7034 21.7836 49.6926 21.8389C49.6818 21.8942 49.682 21.9511 49.6933 22.0064C49.7047 22.0616 49.7268 22.1141 49.7585 22.1608C49.7902 22.2075 49.8309 22.2475 49.8782 22.2786C49.9255 22.3097 49.9785 22.3313 50.0341 22.342C50.0898 22.3528 50.147 22.3525 50.2026 22.3413C50.2582 22.33 50.3109 22.308 50.358 22.2765V22.2765C50.4051 22.2454 50.4455 22.2051 50.4767 22.1581C50.5078 22.1111 50.5291 22.0583 50.5392 22.003C50.561 21.8938 50.539 21.7804 50.4779 21.6871C50.4169 21.5938 50.3216 21.5278 50.2124 21.5032V21.5006Z" fill="#231F20"/>
<path d="M51.269 24.2307C51.6118 24.2307 51.8896 23.9545 51.8896 23.6139C51.8896 23.2732 51.6118 22.9971 51.269 22.9971C50.9263 22.9971 50.6484 23.2732 50.6484 23.6139C50.6484 23.9545 50.9263 24.2307 51.269 24.2307Z" fill="#2BACE2"/>
<path d="M51.0918 24.3978C50.911 24.3561 50.7502 24.2539 50.6364 24.1082C50.5226 23.9625 50.4628 23.7823 50.467 23.5979C50.4712 23.4135 50.5393 23.2362 50.6596 23.0959C50.78 22.9555 50.9453 22.8606 51.1278 22.8272C51.3103 22.7938 51.4988 22.824 51.6616 22.9125C51.8244 23.0011 51.9515 23.1427 52.0215 23.3135C52.0915 23.4843 52.1002 23.6738 52.0461 23.8502C51.9919 24.0267 51.8783 24.1791 51.7243 24.282C51.6326 24.3436 51.529 24.3856 51.4202 24.4056C51.3114 24.4255 51.1995 24.4228 51.0918 24.3978V24.3978ZM51.3683 23.1957H51.3538C51.2705 23.1802 51.1846 23.1895 51.1066 23.2222C51.0286 23.255 50.962 23.3099 50.9151 23.38C50.8683 23.4501 50.8433 23.5324 50.8431 23.6165C50.843 23.7007 50.8678 23.783 50.9145 23.8533C50.9787 23.9474 51.0778 24.0125 51.1901 24.0342C51.3025 24.0559 51.4189 24.0324 51.5139 23.969C51.6083 23.905 51.6736 23.8065 51.6954 23.6949C51.7172 23.5834 51.6938 23.4678 51.6303 23.3732C51.5676 23.2826 51.4725 23.2191 51.3644 23.1957H51.3683Z" fill="#231F20"/>
<path d="M52.3745 25.8603C52.7173 25.8603 52.9951 25.5842 52.9951 25.2435C52.9951 24.9029 52.7173 24.6267 52.3745 24.6267C52.0318 24.6267 51.7539 24.9029 51.7539 25.2435C51.7539 25.5842 52.0318 25.8603 52.3745 25.8603Z" fill="#2BACE2"/>
<path d="M52.1928 26.0272C51.9823 25.9831 51.798 25.8576 51.6805 25.6784C51.563 25.4992 51.5219 25.281 51.5663 25.0717C51.6107 24.8624 51.7369 24.6793 51.9172 24.5625C52.0975 24.4457 52.3171 24.4049 52.5276 24.449C52.7292 24.4986 52.9039 24.6232 53.0156 24.7972C53.1273 24.9711 53.1675 25.1811 53.1279 25.3837C53.0884 25.5863 52.972 25.766 52.8029 25.8858C52.6338 26.0055 52.4249 26.0562 52.2193 26.0272H52.1928ZM52.4694 24.8251C52.3997 24.8096 52.3273 24.8115 52.2585 24.8307C52.1898 24.8498 52.1269 24.8856 52.0755 24.9349C52.0241 24.9842 51.9858 25.0453 51.9641 25.1129C51.9424 25.1805 51.9378 25.2524 51.9509 25.3222C51.964 25.3919 51.9944 25.4574 52.0392 25.5126C52.084 25.5679 52.1419 25.6112 52.2077 25.6387C52.2736 25.6662 52.3452 25.677 52.4163 25.6703C52.4874 25.6635 52.5556 25.6392 52.615 25.5998C52.6621 25.5685 52.7026 25.5282 52.7339 25.4812C52.7653 25.4343 52.7869 25.3816 52.7976 25.3262C52.8087 25.271 52.8086 25.2142 52.7972 25.1591C52.7858 25.104 52.7635 25.0517 52.7314 25.0053C52.6706 24.914 52.5768 24.8495 52.4694 24.8251V24.8251Z" fill="#231F20"/>
<path d="M96.5698 29.4072C96.9126 29.4072 97.1904 29.1311 97.1904 28.7904C97.1904 28.4497 96.9126 28.1736 96.5698 28.1736C96.2271 28.1736 95.9492 28.4497 95.9492 28.7904C95.9492 29.1311 96.2271 29.4072 96.5698 29.4072Z" fill="#2BACE2"/>
<path d="M96.6124 29.5928C96.4225 29.6031 96.2349 29.5465 96.0828 29.4329C95.9306 29.3194 95.8236 29.1561 95.7807 28.9719C95.7377 28.7877 95.7614 28.5943 95.8478 28.4258C95.9341 28.2573 96.0774 28.1244 96.2526 28.0506C96.4278 27.9768 96.6235 27.9667 96.8054 28.0222C96.9873 28.0776 97.1437 28.1951 97.2471 28.3538C97.3504 28.5126 97.3941 28.7025 97.3705 28.8902C97.3469 29.0778 97.2574 29.2511 97.1179 29.3797C96.9803 29.5082 96.8011 29.5837 96.6124 29.5928V29.5928ZM96.5423 28.3618C96.4351 28.3682 96.3341 28.4141 96.2591 28.4904C96.184 28.5667 96.1401 28.6681 96.1361 28.7747C96.132 28.8884 96.1734 28.9991 96.2512 29.0825V29.0825C96.29 29.123 96.3366 29.1556 96.3881 29.1781C96.4397 29.2007 96.4952 29.2129 96.5516 29.214C96.6082 29.2134 96.6642 29.2017 96.7163 29.1796C96.7684 29.1575 96.8156 29.1254 96.8552 29.0852C96.8949 29.0449 96.9261 28.9973 96.9472 28.9451C96.9684 28.8928 96.9789 28.8369 96.9783 28.7806C96.9777 28.7243 96.9659 28.6687 96.9437 28.6169C96.9215 28.5651 96.8892 28.5182 96.8487 28.4788C96.8082 28.4394 96.7603 28.4084 96.7077 28.3874C96.6552 28.3664 96.5989 28.3559 96.5423 28.3565V28.3618Z" fill="#231F20"/>
<path d="M95.0601 30.8027C95.4028 30.8027 95.6807 30.5266 95.6807 30.1859C95.6807 29.8452 95.4028 29.5691 95.0601 29.5691C94.7173 29.5691 94.4395 29.8452 94.4395 30.1859C94.4395 30.5266 94.7173 30.8027 95.0601 30.8027Z" fill="#2BACE2"/>
<path d="M95.1078 30.988C94.9889 30.9951 94.8699 30.9759 94.7594 30.9318C94.6489 30.8876 94.5496 30.8197 94.4686 30.7329V30.7329C94.3425 30.5986 94.2662 30.4256 94.2523 30.2424C94.2384 30.0593 94.2878 29.8768 94.3923 29.7253C94.4968 29.5738 94.6501 29.4622 94.827 29.4089C95.0039 29.3557 95.1938 29.364 95.3653 29.4325C95.5368 29.5009 95.6797 29.6255 95.7704 29.7855C95.8611 29.9456 95.8942 30.1316 95.8642 30.3129C95.8342 30.4942 95.7429 30.6598 95.6053 30.7826C95.4678 30.9053 95.2923 30.9778 95.1078 30.988V30.988ZM94.7452 30.4778C94.8033 30.5398 94.8786 30.5834 94.9616 30.603C95.0446 30.6225 95.1315 30.6172 95.2115 30.5876C95.2914 30.5581 95.3608 30.5056 95.4107 30.4369C95.4607 30.3682 95.489 30.2863 95.4922 30.2016C95.4953 30.1169 95.4731 30.0331 95.4284 29.9609C95.3837 29.8887 95.3184 29.8314 95.2409 29.796C95.1633 29.7607 95.077 29.749 94.9928 29.7624C94.9085 29.7759 94.8302 29.8138 94.7677 29.8715C94.6841 29.949 94.6348 30.0564 94.6305 30.17C94.6263 30.2836 94.6675 30.3943 94.7452 30.4778V30.4778Z" fill="#231F20"/>
<path d="M93.6128 32.1401C93.9555 32.1401 94.2334 31.864 94.2334 31.5233C94.2334 31.1827 93.9555 30.9065 93.6128 30.9065C93.27 30.9065 92.9922 31.1827 92.9922 31.5233C92.9922 31.864 93.27 32.1401 93.6128 32.1401Z" fill="#2BACE2"/>
<path d="M93.6595 32.3271C93.4933 32.3363 93.3283 32.2943 93.1869 32.207C93.0455 32.1196 92.9347 31.991 92.8694 31.8388C92.8042 31.6866 92.7878 31.5181 92.8224 31.3562C92.8569 31.1944 92.9409 31.0471 93.0627 30.9343C93.2206 30.789 93.4302 30.7121 93.6452 30.7203C93.8602 30.7286 94.0632 30.8214 94.2093 30.9784C94.3555 31.1353 94.4329 31.3436 94.4246 31.5573C94.4163 31.771 94.3229 31.9727 94.165 32.118C94.0259 32.2437 93.8473 32.3176 93.6595 32.3271V32.3271ZM93.5881 31.0961C93.4894 31.1023 93.3959 31.1423 93.3234 31.2092C93.2397 31.287 93.1904 31.3946 93.1861 31.5084C93.1819 31.6222 93.2232 31.7331 93.3009 31.8168V31.8168C93.3798 31.8981 93.4877 31.9454 93.6013 31.9483C93.658 31.9511 93.7147 31.9423 93.7679 31.9227C93.8211 31.903 93.8698 31.8728 93.9109 31.8339C93.9518 31.7953 93.9845 31.749 94.0072 31.6978C94.0299 31.6465 94.0422 31.5913 94.0433 31.5354C94.0473 31.4217 94.006 31.311 93.9281 31.2276C93.8893 31.187 93.8428 31.1545 93.7912 31.1319C93.7396 31.1094 93.6841 31.0972 93.6278 31.0961H93.5881Z" fill="#231F20"/>
<path d="M89.865 14.9917C104.406 20.1432 105.215 34.8021 105.438 46.8477L71.3223 42.7299L73.1669 29.0311L75.8597 9.03266L76.2435 6.19189C82.3225 6.9902 86.6151 10.0164 89.865 14.9917Z" fill="#FADD57"/>
<path d="M59.906 11.0567C45.812 11.8458 42.2829 26.9308 37.0918 38.6529L71.3204 42.7299L73.1651 29.0311L75.8579 9.03262L76.2416 6.19185C70.1666 5.39354 64.3548 7.09274 59.906 11.0567Z" fill="#F8B63F"/>
<path d="M37.2279 38.5648C43.1442 36.5171 59.1939 36.6789 72.0996 38.3478L71.3665 43.7689L36.6973 39.7301C36.6973 39.7301 36.7317 38.7358 37.2279 38.5648Z" fill="#FADD57"/>
<path d="M71.3672 43.7689L72.1003 38.353C85.2508 40.0535 100.047 43.2415 105.314 46.8122C105.747 47.1055 105.539 48.322 105.539 48.322L103.382 47.9788L71.3672 43.7689Z" fill="#FBE486"/>
<path d="M105.523 48.3339L105.077 49.9726L71.1328 45.5247L71.3551 43.8689L105.523 48.3339Z" fill="#F2B71F"/>
<path d="M71.133 45.5247L36.6582 40.9255L36.7535 39.3552L71.3553 43.8689L71.133 45.5247Z" fill="#E8A827"/>
<path d="M71.3673 43.7688L71.3554 43.8688L36.7734 39.3578L36.7867 39.2578L71.3673 43.7688Z" fill="#F2B71F"/>
<path d="M71.3674 43.769L105.55 48.2367L105.535 48.3366L71.3555 43.869L71.3674 43.769Z" fill="#F2B71F"/>
<path style="mix-blend-mode:soft-light" d="M80.8226 20.4667L78.3931 24.5543L72.9677 29.9215L68.0611 22.4868L65.0176 15.6559L60.8758 11.617L59.7246 11.0699L59.9072 11.0567C64.356 7.09279 70.1677 5.39359 76.2428 6.19058C82.3179 6.98757 86.6145 10.0164 89.8644 14.9917C90.129 15.0851 90.3871 15.1824 90.6411 15.281L87.1636 16.4371L80.8226 20.4667Z" fill="url(#paint0_linear)"/>
<path d="M89.8642 14.9917C89.8642 14.9917 80.5776 15.4586 78.9434 23.9164C83.7494 15.8755 91.9576 15.7479 91.9576 15.7479L89.8642 14.9917Z" fill="#F2B71F"/>
<path d="M59.8845 11.0542C59.8845 11.0542 68.7252 13.9029 68.0662 22.4883C65.552 13.4859 57.6641 11.2449 57.6641 11.2449L59.8845 11.0542Z" fill="#E8A827"/>
<path d="M15.6351 34.9651L19.0399 35.2636L18.803 38.445L18.717 36.1658L15.6113 35.8318L15.6351 34.9651Z" fill="#212121"/>
<path d="M23.7754 27.437L23.4141 28.6693C23.4141 28.6693 23.3744 31.6008 22.8147 32.3518C22.5818 32.6609 21.5391 32.9857 21.5391 32.9857L23.3678 32.8068L23.7754 27.437Z" fill="#212121"/>
<path d="M16.9194 32.073L17.4566 32.9989L15.7324 32.9081L16.9194 32.073Z" fill="#737372"/>
<path d="M17.2399 31.5918L17.0414 32.3178L15.9801 32.7886L13.3535 32.8991L13.3164 32.4296L17.2399 31.5918Z" fill="#212121"/>
<path d="M26.4645 34.2075C26.6643 33.4697 26.6563 32.6582 26.2276 31.1037C25.5422 28.6207 23.7756 27.437 23.7756 27.437L23.3455 32.5662L20.9425 33.9852L14.5446 33.1646L13.5693 32.557L13.3047 32.8844C13.3047 32.8844 14.1529 36.0685 13.6527 39.4603C13.6977 39.6983 20.4317 40.1744 20.4317 40.1744C20.4317 40.1744 23.4091 38.566 25.2087 36.7747C26.0754 35.5529 26.2647 34.9453 26.4645 34.2075ZM15.4603 38.8579L15.8149 35.0439L19.0397 35.2623L18.7062 39.0302L15.4603 38.8579Z" fill="#E1E2E1"/>
<path d="M23.7865 27.5791C23.7865 27.5791 23.5047 32.0217 23.289 32.344C22.8814 32.9542 22.1404 32.9726 21.7275 32.9871C21.4523 32.9963 17.251 32.7819 17.251 32.7819L13.5684 32.557C13.5684 32.557 13.9283 34.8586 14.05 34.998C14.1718 35.1374 14.9869 35.0756 15.1602 35.0519C15.3336 35.0282 15.5241 34.3667 15.5241 34.3667L19.4674 34.5561C19.4674 34.5561 19.6064 35.3767 19.8022 35.4188C19.9981 35.4609 25.1707 35.5175 25.4194 35.3965C25.6682 35.2755 26.3192 33.8406 26.4079 32.8871C26.3709 29.1008 23.7865 27.5791 23.7865 27.5791Z" fill="#939393"/>
<path d="M17.6852 27.1504L17.2392 31.5917L15.212 32.465L13.2734 32.4413C13.2734 32.4413 13.7167 30.9867 14.5226 29.8425C15.3026 28.6688 16.3984 27.7361 17.6852 27.1504V27.1504Z" fill="#939393"/>
<path d="M13.5693 32.5571L13.3047 32.8846C13.3047 32.8846 14.1754 36.2001 13.6739 39.592C13.6739 39.6248 13.7916 39.5288 14.01 39.5643C14.0404 38.8384 14.1423 36.0239 14.055 34.9994C13.9941 34.3786 13.5693 32.5571 13.5693 32.5571Z" fill="#72706E"/>
<path opacity="0.5" d="M26.4642 34.2076C26.6066 33.5199 26.6066 32.8107 26.4642 32.123C26.4178 32.8613 26.2819 33.5912 26.0593 34.297C25.9124 34.735 25.4823 35.578 25.1806 35.9291C24.3192 36.9287 21.1315 39.3223 21.1315 39.3223L20.3203 40.0851C20.4024 40.1351 20.4063 40.1837 20.4063 40.1837C20.4063 40.1837 23.3995 38.5647 25.1992 36.7735C25.8481 36.0487 26.2855 35.1614 26.4642 34.2076V34.2076Z" fill="#988D87"/>
<path d="M15.7856 36.0105L15.6113 38.2515L18.5798 38.4795L18.7541 36.2386L15.7856 36.0105Z" fill="#A9A8A8"/>
<path d="M17.2171 38.8028L17.5664 38.8685C17.5664 38.8685 17.5346 37.9348 17.6511 37.5534C18.0481 36.2527 17.6048 36.008 17.6048 36.008L17.1906 35.8962C17.1906 35.8962 17.2621 36.1751 16.9604 37.4547C16.7195 38.4713 17.2171 38.8028 17.2171 38.8028Z" fill="#212123"/>
<path d="M16.2249 38.6161L16.5742 38.6819C16.5742 38.6819 16.5425 37.7481 16.6576 37.3667C17.0546 36.066 16.6113 35.8214 16.6113 35.8214L16.1984 35.7109C16.1984 35.7109 16.2699 35.9884 15.9682 37.2681C15.7273 38.2847 16.2249 38.6161 16.2249 38.6161Z" fill="#212123"/>
<path d="M16.6498 38.7121L16.2078 38.6135C16.2078 38.6135 16.3401 37.6929 16.3891 37.2983C16.5439 35.9529 16.2012 35.7083 16.2012 35.7083L16.6868 35.8082C16.6868 35.8082 17.0176 36.0555 16.8919 37.2549C16.8509 37.6442 16.6498 38.7121 16.6498 38.7121Z" fill="#C0BFBF"/>
<path d="M17.6419 38.899L17.2 38.799C17.2 38.799 17.3323 37.8784 17.3813 37.4838C17.5361 36.1397 17.1934 35.8938 17.1934 35.8938L17.679 35.9951C17.679 35.9951 18.0098 36.241 17.8841 37.4417C17.8444 37.8271 17.6419 38.899 17.6419 38.899Z" fill="#C0BFBF"/>
<path d="M18.2632 38.8791L18.6139 38.9449C18.6139 38.9449 18.5808 38.0111 18.6973 37.6297C19.0942 36.329 18.651 36.0844 18.651 36.0844L18.2381 35.9739C18.2381 35.9739 18.3096 36.2514 18.0079 37.531C17.7657 38.5477 18.2632 38.8791 18.2632 38.8791Z" fill="#212123"/>
<path d="M18.6875 38.9751L18.2455 38.8752C18.2455 38.8752 18.3779 37.9546 18.4268 37.56C18.5816 36.2146 18.2402 35.97 18.2402 35.97L18.7245 36.0712C18.7245 36.0712 19.0554 36.3159 18.931 37.5179C18.89 37.9072 18.6875 38.9751 18.6875 38.9751Z" fill="#C0BFBF"/>
<path d="M13.659 39.5761C13.659 39.5761 13.7172 40.6282 13.4618 41.2858C13.2064 41.9434 2.26444 62.923 2.26444 62.923C2.26444 62.923 1.11585 65.239 3.60622 66.5174C6.14422 67.8194 7.39735 65.2679 7.39735 65.2679C7.39735 65.2679 17.2596 43.7057 17.7465 42.864C18.2335 42.0223 20.4288 40.1732 20.4288 40.1732L20.3507 40.0824L13.9991 39.509L13.659 39.5761Z" fill="#E08F26"/>
<path d="M13.9933 39.6367C13.9933 39.6367 14.0859 40.7428 13.8252 41.4056C13.5646 42.0685 2.56302 63.0678 2.56302 63.0678C2.56302 63.0678 1.64733 64.9945 3.922 66.1677C6.23902 67.3631 7.25925 65.2023 7.25925 65.2023C7.25925 65.2023 17.1731 43.6638 17.6534 42.8247C18.1338 41.9856 20.3489 40.1168 20.3489 40.1168L13.9933 39.6367Z" fill="#F1AF1D"/>
<path d="M6.00241 53.321C5.75099 53.5749 5.76422 53.8945 6.03284 54.0404L7.09145 54.6125C7.8854 55.036 8.46366 55.0071 8.76536 54.7046C9.01943 54.4508 9.07368 54.1154 8.49013 53.6077C7.58237 52.8186 8.21357 53.2474 6.81885 52.4951L6.00241 53.321Z" fill="#002A3E"/>
<path d="M8.50619 50.383C8.50619 50.383 8.33285 50.1607 10.2688 51.8428C11.2374 52.6845 11.4174 53.3579 11.0707 53.7459C10.7782 54.0721 10.2489 54.2338 9.26309 53.5894C8.5922 53.1514 7.59976 52.3702 7.38672 52.2413L8.50619 50.383Z" fill="#002A3E"/>
<path d="M8.99196 50.7262L8.35151 50.3212C7.26776 49.632 6.49895 49.8596 6.27532 50.3212C6.0861 50.7157 6.18137 51.2129 7.12485 51.9152L7.89763 52.4925L8.99196 50.7262Z" fill="#002A3E"/>
<path d="M9.98535 48.0196C9.98535 48.0196 9.82259 47.7895 11.6831 49.5544C12.6094 50.4369 12.7629 51.1181 12.4003 51.4903C12.0933 51.8047 11.5574 51.9428 10.6007 51.2562C9.95095 50.788 8.99158 49.9661 8.78516 49.8266L9.98535 48.0196Z" fill="#002A3E"/>
<path d="M10.3898 48.4008L9.74667 47.9918C8.66425 47.3027 7.89411 47.5302 7.67181 47.9918C7.48258 48.3864 7.57786 48.8835 8.52134 49.5858L9.29412 50.1632L10.3898 48.4008Z" fill="#002A3E"/>
<path d="M11.3949 45.4011C11.3949 45.4011 11.2308 45.1722 13.0913 46.9372C14.0176 47.8197 14.1724 48.4996 13.8098 48.8718C13.5028 49.1861 12.9656 49.3242 12.0102 48.6377C11.3591 48.1708 10.4011 47.3475 10.1934 47.2094L11.3949 45.4011Z" fill="#002A3E"/>
<path d="M11.8008 45.7824L11.159 45.3734C10.0766 44.6843 9.30645 44.9118 9.08414 45.3813C8.89492 45.7759 8.98887 46.2717 9.93235 46.9753L10.7065 47.5514L11.8008 45.7824Z" fill="#002A3E"/>
</g>
<defs>
<linearGradient id="paint0_linear" x1="75.6566" y1="5.84301" x2="70.8768" y2="42.4671" gradientUnits="userSpaceOnUse">
<stop stop-color="white"/>
<stop offset="1" stop-color="#F6EC38"/>
</linearGradient>
<clipPath id="clip0">
<rect width="125" height="120" fill="white" transform="translate(2 6)"/>
</clipPath>
</defs>
</svg>
