<svg width="50" height="50" viewBox="0 0 50 50" fill="none" xmlns="http://www.w3.org/2000/svg">
<path d="M35.417 4.16675H14.5837C8.83069 4.16675 4.16699 8.83045 4.16699 14.5834V35.4167C4.16699 41.1697 8.83069 45.8334 14.5837 45.8334H35.417C41.17 45.8334 45.8337 41.1697 45.8337 35.4167V14.5834C45.8337 8.83045 41.17 4.16675 35.417 4.16675Z" stroke="#224F5C" stroke-width="2" stroke-linecap="round" stroke-linejoin="round"/>
<path d="M33.3334 23.6879C33.5905 25.4217 33.2943 27.1925 32.487 28.7483C31.6797 30.3042 30.4024 31.5658 28.8368 32.3539C27.2711 33.1419 25.4968 33.4162 23.7663 33.1377C22.0357 32.8593 20.437 32.0422 19.1976 30.8028C17.9582 29.5634 17.1411 27.9647 16.8627 26.2342C16.5842 24.5036 16.8585 22.7293 17.6466 21.1637C18.4346 19.598 19.6963 18.3207 21.2521 17.5134C22.8079 16.7061 24.5787 16.4099 26.3125 16.6671C28.0811 16.9293 29.7185 17.7534 30.9827 19.0177C32.247 20.2819 33.0711 21.9193 33.3334 23.6879Z" stroke="#224F5C" stroke-width="2" stroke-linecap="round" stroke-linejoin="round"/>
<path d="M36.458 13.5417H36.4789" stroke="#224F5C" stroke-width="2" stroke-linecap="round" stroke-linejoin="round"/>
</svg>
