<svg width="45" height="45" viewBox="0 0 45 45" fill="none" xmlns="http://www.w3.org/2000/svg">
<g id="instagram">
<g id="Group 170">
<path id="Vector" d="M31 7H15C10.5817 7 7 10.5817 7 15V31C7 35.4183 10.5817 39 15 39H31C35.4183 39 39 35.4183 39 31V15C39 10.5817 35.4183 7 31 7Z" stroke="#FFF8F3" stroke-width="2" stroke-linecap="round" stroke-linejoin="round"/>
<path id="Vector_2" d="M29.3997 21.992C29.5972 23.3236 29.3697 24.6835 28.7497 25.8784C28.1297 27.0733 27.1488 28.0423 25.9463 28.6475C24.7439 29.2527 23.3812 29.4633 22.0522 29.2495C20.7231 29.0356 19.4953 28.4081 18.5435 27.4563C17.5916 26.5044 16.9641 25.2766 16.7502 23.9475C16.5364 22.6185 16.747 21.2558 17.3522 20.0534C17.9575 18.851 18.9264 17.87 20.1213 17.25C21.3162 16.63 22.6761 16.4025 24.0077 16.6C25.366 16.8014 26.6235 17.4343 27.5944 18.4053C28.5654 19.3762 29.1983 20.6337 29.3997 21.992Z" stroke="#FFF8F3" stroke-width="2" stroke-linecap="round" stroke-linejoin="round"/>
<path id="Vector_3" d="M31.7998 14.1987H31.8167" stroke="#FFF8F3" stroke-width="2" stroke-linecap="round" stroke-linejoin="round"/>
</g>
</g>
</svg>
