<svg width="50" height="50" viewBox="0 0 50 50" fill="none" xmlns="http://www.w3.org/2000/svg">
<path d="M33.333 16.6667C36.6482 16.6667 39.8276 17.9837 42.1718 20.3279C44.5161 22.6721 45.833 25.8515 45.833 29.1667V43.7501H37.4997V29.1667C37.4997 28.0617 37.0607 27.0019 36.2793 26.2205C35.4979 25.4391 34.4381 25.0001 33.333 25.0001C32.2279 25.0001 31.1681 25.4391 30.3867 26.2205C29.6053 27.0019 29.1663 28.0617 29.1663 29.1667V43.7501H20.833V29.1667C20.833 25.8515 22.15 22.6721 24.4942 20.3279C26.8384 17.9837 30.0178 16.6667 33.333 16.6667V16.6667Z" stroke="#224F5C" stroke-width="2" stroke-linecap="round" stroke-linejoin="round"/>
<path d="M12.5003 18.75H4.16699V43.75H12.5003V18.75Z" stroke="#224F5C" stroke-width="2" stroke-linecap="round" stroke-linejoin="round"/>
<path d="M8.33366 12.5001C10.6348 12.5001 12.5003 10.6346 12.5003 8.33341C12.5003 6.03223 10.6348 4.16675 8.33366 4.16675C6.03247 4.16675 4.16699 6.03223 4.16699 8.33341C4.16699 10.6346 6.03247 12.5001 8.33366 12.5001Z" stroke="#224F5C" stroke-width="2" stroke-linecap="round" stroke-linejoin="round"/>
</svg>
