<svg width="45" height="45" viewBox="0 0 45 45" fill="none" xmlns="http://www.w3.org/2000/svg">
<g clip-path="url(#clip0)">
<path d="M30.333 14.6665C33.4493 14.6665 36.438 15.9044 38.6415 18.108C40.8451 20.3116 42.083 23.3002 42.083 26.4165V40.1248H34.2497V26.4165C34.2497 25.3777 33.837 24.3815 33.1025 23.647C32.368 22.9125 31.3718 22.4998 30.333 22.4998C29.2942 22.4998 28.298 22.9125 27.5635 23.647C26.829 24.3815 26.4163 25.3777 26.4163 26.4165V40.1248H18.583V26.4165C18.583 23.3002 19.821 20.3116 22.0245 18.108C24.2281 15.9044 27.2167 14.6665 30.333 14.6665V14.6665Z" stroke="#FFF8F3" stroke-width="2" stroke-linecap="round" stroke-linejoin="round"/>
<path d="M10.7503 16.625H2.91699V40.125H10.7503V16.625Z" stroke="#FFF8F3" stroke-width="2" stroke-linecap="round" stroke-linejoin="round"/>
<path d="M6.83366 10.7498C8.99677 10.7498 10.7503 8.99629 10.7503 6.83317C10.7503 4.67006 8.99677 2.9165 6.83366 2.9165C4.67054 2.9165 2.91699 4.67006 2.91699 6.83317C2.91699 8.99629 4.67054 10.7498 6.83366 10.7498Z" stroke="#FFF8F3" stroke-width="2" stroke-linecap="round" stroke-linejoin="round"/>
</g>
<defs>
<clipPath id="clip0">
<rect width="45" height="45" fill="white"/>
</clipPath>
</defs>
</svg>
