<svg width="140" height="140" viewBox="0 0 140 140" fill="none" xmlns="http://www.w3.org/2000/svg">
<g id="robot-1">
<rect width="140" height="140" rx="30" fill="#224F5C"/>
<g id="robotic">
<path id="Vector" d="M46.2969 55.998H34.502V61.7988H46.2969V55.998Z" fill="#913F02"/>
<path id="Vector_2" d="M104.498 55.998H92.7031V61.7988H104.498V55.998Z" fill="#6F2E01"/>
<path id="Vector_3" d="M78.2012 38.4023H60.7988V55.998H78.2012V38.4023Z" fill="#913F02"/>
<path id="Vector_4" d="M78.2012 38.4023H69.5V55.998H78.2012V38.4023Z" fill="#6F2E01"/>
<path id="Vector_5" d="M95.6035 50.1973H43.3965V93.8965H95.6035V50.1973Z" fill="#FF9F00"/>
<path id="Vector_6" d="M95.6035 50.1973H69.5V93.8965H95.6035V50.1973Z" fill="#FF7816"/>
<g id="Group">
<path id="Vector_7" d="M54.998 61.7988V79.2012H84.002V61.7988H54.998Z" fill="#913F02"/>
<path id="Vector_8" d="M31.6016 64.6992H25.8008V76.3008H31.6016V64.6992Z" fill="#913F02"/>
</g>
<path id="Vector_9" d="M113.199 64.6992H107.398V76.3008H113.199V64.6992Z" fill="#6F2E01"/>
<path id="Vector_10" d="M34.8529 88.2535L30.7515 84.1521C31.8817 83.022 31.8817 81.181 30.7515 80.0508C29.6187 78.9179 27.7831 78.9179 26.6502 80.0508C25.52 81.181 25.52 83.022 26.6502 84.1521L22.5489 88.2535C19.1556 84.8602 19.1556 79.3427 22.5489 75.9495C25.9421 72.5562 31.4596 72.5562 34.8529 75.9495C38.2462 79.3427 38.2462 84.8604 34.8529 88.2535Z" fill="#FF9F00"/>
<path id="Vector_11" d="M84.002 61.7988H69.5V79.2012H84.002V61.7988Z" fill="#6F2E01"/>
<path id="Vector_12" d="M92.7031 90.9961H46.2969V120H92.7031V90.9961Z" fill="#444444"/>
<path id="Vector_13" d="M92.7031 90.9961H69.5V120H92.7031V90.9961Z" fill="#292929"/>
<path id="Vector_14" d="M95.6035 96.7969H43.3965V114.199H95.6035V96.7969Z" fill="#E7E7E7"/>
<path id="Vector_15" d="M95.6035 96.7969H69.5V114.199H95.6035V96.7969Z" fill="#D3D3D8"/>
<path id="Vector_16" d="M46.2969 90.9961C38.2918 90.9961 31.7949 97.493 31.7949 105.498C31.7949 113.503 38.2918 120 46.2969 120C54.302 120 60.7988 113.503 60.7988 105.498C60.7988 97.493 54.302 90.9961 46.2969 90.9961Z" fill="#5A5A5A"/>
<path id="Vector_17" d="M60.7988 105.498C60.7988 113.503 54.302 120 46.2969 120V90.9961C54.302 90.9961 60.7988 97.493 60.7988 105.498Z" fill="#444444"/>
<path id="Vector_18" d="M46.2969 96.7969C41.482 96.7969 37.5957 100.683 37.5957 105.498C37.5957 110.313 41.482 114.199 46.2969 114.199C51.1117 114.199 54.998 110.313 54.998 105.498C54.998 100.683 51.1117 96.7969 46.2969 96.7969Z" fill="#E7E7E7"/>
<path id="Vector_19" d="M54.998 105.498C54.998 110.313 51.1117 114.199 46.2969 114.199V96.7969C51.1117 96.7969 54.998 100.683 54.998 105.498Z" fill="#D3D3D8"/>
<path id="Vector_20" d="M49.1973 102.598H43.3965V108.398H49.1973V102.598Z" fill="#5A5A5A"/>
<path id="Vector_21" d="M49.1973 102.598H46.2969V108.398H49.1973V102.598Z" fill="#444444"/>
<path id="Vector_22" d="M92.7031 90.9961C84.698 90.9961 78.2012 97.493 78.2012 105.498C78.2012 113.503 84.698 120 92.7031 120C100.708 120 107.205 113.503 107.205 105.498C107.205 97.493 100.708 90.9961 92.7031 90.9961Z" fill="#5A5A5A"/>
<path id="Vector_23" d="M107.205 105.498C107.205 113.503 100.708 120 92.7031 120V90.9961C100.708 90.9961 107.205 97.493 107.205 105.498Z" fill="#444444"/>
<path id="Vector_24" d="M92.7031 96.7969C87.8883 96.7969 84.002 100.683 84.002 105.498C84.002 110.313 87.8883 114.199 92.7031 114.199C97.518 114.199 101.404 110.313 101.404 105.498C101.404 100.683 97.518 96.7969 92.7031 96.7969Z" fill="#E7E7E7"/>
<path id="Vector_25" d="M101.404 105.498C101.404 110.313 97.518 114.199 92.7031 114.199V96.7969C97.518 96.7969 101.404 100.683 101.404 105.498Z" fill="#D3D3D8"/>
<path id="Vector_26" d="M95.6035 102.598H89.8027V108.398H95.6035V102.598Z" fill="#5A5A5A"/>
<path id="Vector_27" d="M95.6035 102.598H92.7031V108.398H95.6035V102.598Z" fill="#444444"/>
<path id="Vector_28" d="M116.451 88.2535L112.349 84.1521C113.479 83.022 113.479 81.181 112.349 80.0508C111.216 78.9179 109.381 78.9179 108.248 80.0508C107.118 81.181 107.118 83.022 108.248 84.1521L104.147 88.2535C100.753 84.8602 100.753 79.3427 104.147 75.9495C107.54 72.5562 113.057 72.5562 116.451 75.9495C119.844 79.3427 119.844 84.8604 116.451 88.2535Z" fill="#FF7816"/>
<path id="Vector_29" d="M28.7012 67.5996C23.9032 67.5996 20 63.6965 20 58.8984C20 54.1004 23.9032 50.1973 28.7012 50.1973C33.4992 50.1973 37.4023 54.1004 37.4023 58.8984C37.4023 63.6965 33.4992 67.5996 28.7012 67.5996Z" fill="#FF9F00"/>
<path id="Vector_30" d="M110.299 67.5996C105.501 67.5996 101.598 63.6965 101.598 58.8984C101.598 54.1004 105.501 50.1973 110.299 50.1973C115.097 50.1973 119 54.1004 119 58.8984C119 63.6965 115.097 67.5996 110.299 67.5996Z" fill="#FF7816"/>
<path id="Vector_31" d="M84.002 21H54.998V44.2031H84.002V21Z" fill="#FF9F00"/>
<path id="Vector_32" d="M84.002 21H69.5V44.2031H84.002V21Z" fill="#FF7816"/>
<path id="Vector_33" d="M84.002 26.8008H54.998V38.4023H84.002V26.8008Z" fill="#5A5A5A"/>
<path id="Vector_34" d="M84.002 26.8008H69.5V38.4023H84.002V26.8008Z" fill="#444444"/>
<path id="Vector_35" d="M54.998 44.2031C48.5996 44.2031 43.3965 39 43.3965 32.6016C43.3965 26.2031 48.5996 21 54.998 21C61.3965 21 66.5996 26.2031 66.5996 32.6016C66.5996 39 61.3965 44.2031 54.998 44.2031Z" fill="#E7E7E7"/>
<path id="Vector_36" d="M84.002 44.2031C77.6035 44.2031 72.4004 39 72.4004 32.6016C72.4004 26.2031 77.6035 21 84.002 21C90.4004 21 95.6035 26.2031 95.6035 32.6016C95.6035 39 90.4004 44.2031 84.002 44.2031Z" fill="#D3D3D8"/>
<path id="Vector_37" d="M54.998 38.4023C58.2017 38.4023 60.7988 35.8052 60.7988 32.6016C60.7988 29.3979 58.2017 26.8008 54.998 26.8008C51.7944 26.8008 49.1973 29.3979 49.1973 32.6016C49.1973 35.8052 51.7944 38.4023 54.998 38.4023Z" fill="#5A5A5A"/>
<path id="Vector_38" d="M84.002 38.4023C87.2056 38.4023 89.8027 35.8052 89.8027 32.6016C89.8027 29.3979 87.2056 26.8008 84.002 26.8008C80.7983 26.8008 78.2012 29.3979 78.2012 32.6016C78.2012 35.8052 80.7983 38.4023 84.002 38.4023Z" fill="#444444"/>
</g>
</g>
</svg>
