<svg width="30" height="30" viewBox="0 0 30 30" fill="none" xmlns="http://www.w3.org/2000/svg">
<path fill-rule="evenodd" clip-rule="evenodd" d="M15.3532 2.70912C8.64997 2.70912 3.20117 8.11872 3.20117 14.769C3.19957 17.3124 4.01058 19.7897 5.51593 21.8397L3.99791 26.3183L8.66761 24.8346C10.6541 26.1382 12.9791 26.8312 15.3551 26.8279C22.0554 26.8279 27.5071 21.4183 27.5071 14.7739C27.5071 8.1295 22.0544 2.71402 15.3551 2.71402L15.3532 2.70912Z" fill="url(#paint0_linear)"/>
<path fill-rule="evenodd" clip-rule="evenodd" d="M29.0535 14.6661C29.0535 22.2121 22.8883 28.3312 15.2825 28.3312C12.9556 28.3351 10.6655 27.7502 8.62538 26.6309L1 29.0535L3.48528 21.7221C2.18968 19.5968 1.506 17.1551 1.5096 14.6661C1.5096 7.1201 7.67576 1 15.2825 1C22.8893 1 29.0535 7.11814 29.0535 14.6661ZM15.2825 3.17658C8.89586 3.17658 3.70284 8.32942 3.70284 14.6661C3.70252 17.0898 4.47682 19.4501 5.91274 21.4026L4.46234 25.6686L8.91154 24.2554C10.8038 25.4971 13.0183 26.1574 15.2815 26.1546C21.6653 26.1546 26.8593 21.0008 26.8593 14.6661C26.8593 8.33138 21.6653 3.17658 15.2815 3.17658H15.2825ZM22.2405 17.8139C22.1553 17.6737 21.9299 17.5894 21.5937 17.4219C21.2576 17.2543 19.5955 16.4419 19.2868 16.3331C18.9781 16.2243 18.7507 16.1655 18.5273 16.4997C18.3039 16.8339 17.6541 17.5894 17.4571 17.8139C17.2602 18.0383 17.0651 18.0647 16.7261 17.8972C16.387 17.7296 15.3002 17.3748 14.0115 16.2312C13.2745 15.5546 12.6415 14.7729 12.1328 13.9115C11.9368 13.5773 12.1132 13.396 12.2798 13.2255C12.4327 13.0746 12.6179 12.8335 12.7874 12.6375C12.926 12.4677 13.0395 12.2789 13.1246 12.0769C13.1699 11.9845 13.1911 11.8821 13.1862 11.7793C13.1812 11.6764 13.1502 11.5765 13.0961 11.4889C13.0119 11.3223 12.3366 9.67398 12.0554 9.00268C11.7741 8.33138 11.4938 8.35784 11.2959 8.35784C11.1077 8.36648 10.9202 8.38612 10.7343 8.41664C10.7343 8.41664 10.0581 8.49994 9.75434 8.8351C9.45054 9.17026 8.57344 9.98072 8.57344 11.6281C8.57344 13.2755 9.78178 14.8699 9.95034 15.0924C10.1189 15.3149 12.2759 18.8193 15.7127 20.161C19.1496 21.5026 19.1427 21.0537 19.7641 20.9979C20.3854 20.942 21.7613 20.1884 22.0426 19.4054C22.3238 18.6224 22.3248 17.952 22.2386 17.8139H22.2405Z" fill="white"/>
<defs>
<linearGradient id="paint0_linear" x1="15.3522" y1="2.70912" x2="15.3522" y2="26.8279" gradientUnits="userSpaceOnUse">
<stop stop-color="#4AC14B"/>
<stop offset="1" stop-color="#06853A"/>
</linearGradient>
</defs>
</svg>
