<svg width="27" height="27" viewBox="0 0 27 27" fill="none" xmlns="http://www.w3.org/2000/svg">
<g id="whatsapp">
<g id="phone">
<path id="Vector" d="M19.7494 16.5017V18.4867C19.7501 18.671 19.7145 18.8534 19.6447 19.0222C19.575 19.1911 19.4727 19.3426 19.3445 19.4672C19.2162 19.5918 19.0648 19.6866 18.8999 19.7457C18.735 19.8047 18.5603 19.8266 18.3869 19.81C16.4637 19.5888 14.6163 18.8931 12.9932 17.7787C11.4831 16.7628 10.2027 15.4074 9.24316 13.8087C8.1869 12.0825 7.52956 10.1172 7.32441 8.07201C7.30879 7.88904 7.32933 7.70463 7.38472 7.53052C7.44011 7.35641 7.52914 7.19642 7.64614 7.06073C7.76313 6.92504 7.90554 6.81663 8.06428 6.7424C8.22302 6.66817 8.39462 6.62975 8.56816 6.62957H10.4432C10.7465 6.62641 11.0405 6.74012 11.2705 6.94951C11.5005 7.1589 11.6507 7.44968 11.6932 7.76765C11.7723 8.40289 11.9191 9.02662 12.1307 9.62694C12.2147 9.86376 12.2329 10.1211 12.1831 10.3686C12.1333 10.616 12.0174 10.8432 11.8494 11.0231L11.0557 11.8634C11.9454 13.5199 13.2409 14.8915 14.8057 15.8334L15.5994 14.9931C15.7693 14.8152 15.9839 14.6926 16.2176 14.6398C16.4513 14.587 16.6945 14.6063 16.9182 14.6953C17.4852 14.9193 18.0744 15.0747 18.6744 15.1585C18.978 15.2038 19.2553 15.3657 19.4535 15.6134C19.6517 15.861 19.757 16.1772 19.7494 16.5017Z" stroke="#FFF8F3" stroke-width="0.9" stroke-linecap="round" stroke-linejoin="round"/>
</g>
<path id="Vector_2" d="M26 12.8056C26.0047 14.6387 25.5764 16.4471 24.75 18.0833C23.77 20.0441 22.2635 21.6933 20.3992 22.8462C18.5349 23.9992 16.3864 24.6103 14.1944 24.6111C12.3613 24.6159 10.5529 24.1876 8.91665 23.3611L1 26L3.63888 18.0833C2.8124 16.4471 2.38411 14.6387 2.38889 12.8056C2.38973 10.6136 3.00085 8.4651 4.15377 6.60079C5.3067 4.73649 6.9559 3.22999 8.91665 2.25004C10.5529 1.42355 12.3613 0.99526 14.1944 1.00004H14.8889C17.7838 1.15975 20.5181 2.38165 22.5682 4.43178C24.6183 6.48192 25.8403 9.21621 26 12.1111V12.8056Z" stroke="#FFF8F3" stroke-width="1.8" stroke-linecap="round" stroke-linejoin="round"/>
</g>
</svg>
