<svg width="35" height="25" viewBox="0 0 35 25" fill="none" xmlns="http://www.w3.org/2000/svg">
<path d="M32.5821 4.54812C32.4079 3.8523 32.0532 3.21475 31.5538 2.69988C31.0544 2.18502 30.4279 1.81106 29.7377 1.61579C27.2159 1 17.1287 1 17.1287 1C17.1287 1 7.04145 1 4.51964 1.67444C3.82944 1.86971 3.20299 2.24366 2.70357 2.75853C2.20414 3.2734 1.84944 3.91094 1.67528 4.60677C1.21375 7.16605 0.987989 9.76227 1.00084 12.3628C0.984387 14.9829 1.21016 17.5989 1.67528 20.1775C1.86728 20.8517 2.22994 21.465 2.72819 21.9581C3.22645 22.4512 3.84347 22.8075 4.51964 22.9925C7.04145 23.6669 17.1287 23.6669 17.1287 23.6669C17.1287 23.6669 27.2159 23.6669 29.7377 22.9925C30.4279 22.7972 31.0544 22.4233 31.5538 21.9084C32.0532 21.3935 32.4079 20.756 32.5821 20.0602C33.04 17.5202 33.2658 14.9437 33.2565 12.3628C33.273 9.74269 33.0472 7.12667 32.5821 4.54812V4.54812Z" stroke="#D5D3D0" stroke-width="2" stroke-linecap="round" stroke-linejoin="round"/>
<path d="M13 17.5887L21.4305 12.7944L13 8V17.5887Z" stroke="#D5D3D0" stroke-width="2" stroke-linecap="round" stroke-linejoin="round"/>
</svg>
